<?xml version="1.0" encoding="utf-8"?>
<!-- Generator: Adobe Illustrator 19.0.0, SVG Export Plug-In . SVG Version: 6.00 Build 0)  -->
<svg version="1.1" id="Layer_1" xmlns="http://www.w3.org/2000/svg" xmlns:xlink="http://www.w3.org/1999/xlink" x="0px" y="0px"
	 viewBox="0 0 100 100" style="enable-background:new 0 0 100 100;" xml:space="preserve">
<g id="XMLID_1793_">
	<g id="XMLID_1740_">
		<g id="XMLID_46_">
			<g id="XMLID_47_">
				<g id="XMLID_48_">
					<path id="XMLID_49_" d="M49.9,2.9c-15.2,0-27.5,12.3-27.5,27.5c0,9.4,4.7,17.7,11.9,22.6c-6.7,2.3-12.9,6.2-18.1,11.3
						c-9,9-13.9,20.9-13.9,33.6h7.4c0-22.1,18-40.1,40.1-40.1c15.2,0,27.5-12.3,27.5-27.5S65.1,2.9,49.9,2.9z M49.9,50.5
						c-11.1,0-20.1-9-20.1-20.1s9-20.1,20.1-20.1S70,19.4,70,30.4S61,50.5,49.9,50.5z"/>
				</g>
			</g>
		</g>
	</g>
	<g id="XMLID_1778_">
		<path id="XMLID_1779_" d="M95,69L74.9,89.1c-1.8,1.8-4.1,1.8-5.3,0L57.8,77.2c-0.6-5.3,4.1-6.5,6.5-4.1l7.7,7.7l17.7-17.7
			c1.8-1.8,4.1-1.8,5.3,0C96.7,64.8,96.7,67.2,95,69z"/>
	</g>
</g>
</svg>
