<?xml version="1.0" encoding="utf-8"?>
<!-- Generator: Adobe Illustrator 19.0.0, SVG Export Plug-In . SVG Version: 6.00 Build 0)  -->
<svg version="1.1" id="Layer_1" xmlns="http://www.w3.org/2000/svg" xmlns:xlink="http://www.w3.org/1999/xlink" x="0px" y="0px"
	 viewBox="0 0 100 100" style="enable-background:new 0 0 100 100;" xml:space="preserve">
<style type="text/css">
	.st0{fill:#8BC440;}
	.st1{fill:#FFFFFF;}
</style>
<g id="XMLID_3_">
	<path id="XMLID_6_" class="st0" d="M96,77.5c0,10.1-8.2,18.3-18.4,18.3H22.5c-10.1,0-18.4-8.2-18.4-18.3V22.6
		c0-10.1,8.2-18.3,18.4-18.3h55.1C87.8,4.3,96,12.5,96,22.6V77.5z"/>
	<g id="XMLID_4_">
		<path id="XMLID_5_" class="st1" d="M81.6,36.7L48.4,69.8c-2.5,2.5-6.4,2.5-8.9,0L22.3,52.7c-2.5-2.4-2.5-6.4,0-8.9
			c2.5-2.5,6.4-2.5,8.9,0l12.7,12.6l28.7-28.6c2.5-2.4,6.4-2.4,8.9,0C84,30.3,84,34.2,81.6,36.7z"/>
	</g>
</g>
</svg>
