<?xml version="1.0" encoding="utf-8"?>
<!-- Generator: Adobe Illustrator 19.0.0, SVG Export Plug-In . SVG Version: 6.00 Build 0)  -->
<svg version="1.1" id="Layer_1" xmlns="http://www.w3.org/2000/svg" xmlns:xlink="http://www.w3.org/1999/xlink" x="0px" y="0px"
	 viewBox="0 0 100 100" style="enable-background:new 0 0 100 100;" xml:space="preserve">
<style type="text/css">
	.st0{fill:#90C13E;}
	.st1{fill:#FFFFFF;}
</style>
<g id="XMLID_2_">
	<circle id="XMLID_10_" class="st0" cx="50.2" cy="49.5" r="46.5"/>
	<g id="XMLID_3_">
		<path id="XMLID_8_" class="st1" d="M24.4,45.8C24.4,45.8,24.3,45.8,24.4,45.8c-2.1,0-3.7,1.6-3.7,3.7s1.6,3.7,3.7,3.7
			c0,0,0,0,0.1,0H76c0,0,0,0,0.1,0c2,0,3.7-1.6,3.7-3.7s-1.6-3.7-3.7-3.7c0,0,0,0-0.1,0H24.4z"/>
		<path id="XMLID_7_" class="st1" d="M53.9,23.6C53.9,23.6,53.9,23.6,53.9,23.6c0-2.1-1.6-3.7-3.7-3.7s-3.7,1.6-3.7,3.7
			c0,0,0,0,0,0.1v0v51.6c0,0,0,0,0,0.1c0,2,1.6,3.7,3.7,3.7s3.7-1.6,3.7-3.7c0,0,0,0,0-0.1v0V23.6z"/>
	</g>
</g>
</svg>
