<?xml version="1.0" encoding="utf-8"?>
<!-- Generator: Adobe Illustrator 19.0.0, SVG Export Plug-In . SVG Version: 6.00 Build 0)  -->
<svg version="1.1" id="Layer_1" xmlns="http://www.w3.org/2000/svg" xmlns:xlink="http://www.w3.org/1999/xlink" x="0px" y="0px"
	 viewBox="0 0 100 100" style="enable-background:new 0 0 100 100;" xml:space="preserve">
<g>
	<g>
		<g>
			<path d="M56.9,15H32.6c-0.8,0-1.5,0.7-1.5,1.5c0,0.8,0.7,1.5,1.5,1.5h24.3c0.8,0,1.5-0.7,1.5-1.5C58.4,15.7,57.7,15,56.9,15z"/>
		</g>
	</g>
	<g>
		<g>
			<path d="M64.3,9.1c-0.8,0-1.5,0.7-1.5,1.5v11.7c0,0.8,0.7,1.5,1.5,1.5c0.8,0,1.5-0.7,1.5-1.5V10.6C65.8,9.8,65.1,9.1,64.3,9.1z"
				/>
		</g>
	</g>
	<g>
		<g>
			<path d="M25.5,9.1c-0.8,0-1.5,0.7-1.5,1.5v11.7c0,0.8,0.7,1.5,1.5,1.5s1.5-0.7,1.5-1.5V10.6C27,9.8,26.3,9.1,25.5,9.1z"/>
		</g>
	</g>
	<g>
		<g>
			<path d="M74.1,33.4H15.7c-0.8,0-1.5,0.7-1.5,1.5c0,0.8,0.7,1.5,1.5,1.5h58.4c0.8,0,1.5-0.7,1.5-1.5
				C75.6,34.1,74.9,33.4,74.1,33.4z"/>
		</g>
	</g>
	<g>
		<g>
			<path d="M60.4,45.2H15.7c-0.8,0-1.5,0.7-1.5,1.5c0,0.8,0.7,1.5,1.5,1.5h44.8c0.8,0,1.5-0.7,1.5-1.5
				C61.9,45.9,61.3,45.2,60.4,45.2z"/>
		</g>
	</g>
	<g>
		<g>
			<path d="M41,56.8H15.7c-0.8,0-1.5,0.7-1.5,1.5s0.7,1.5,1.5,1.5H41c0.8,0,1.5-0.7,1.5-1.5S41.8,56.8,41,56.8z"/>
		</g>
	</g>
	<g>
		<g>
			<path d="M93.7,63.7c-1.9-3.6-4.9-6.6-8.5-8.5V16.4c0-0.8-0.6-1.4-1.4-1.4c0,0-0.1,0-0.1,0H70.2c-0.8,0-1.5,0.7-1.5,1.5
				c0,0.8,0.7,1.5,1.5,1.5h12.1v35.9c-2-0.7-4.1-1-6.3-1c-11,0-20,8.9-20,20c0,2.1,0.3,4.2,1,6.2H7.5V18h10.1c0.8,0,1.5-0.7,1.5-1.5
				c0-0.8-0.7-1.5-1.5-1.5H5.9c-0.8,0-1.4,0.6-1.4,1.3c0,0,0,0.1,0,0.1v64.2c0,0.8,0.6,1.4,1.3,1.4c0,0,0.1,0,0.1,0h52.4
				c5.1,9.8,17.1,13.6,26.9,8.5C95,85.5,98.8,73.5,93.7,63.7z M76,89.9c-9.4,0-17-7.6-17-17s7.6-17,17-17s17,7.6,17,17
				C93,82.3,85.4,89.9,76,89.9z"/>
		</g>
	</g>
	<g>
		<g>
			<path d="M85,72.4h-7.4V62.2c0-0.8-0.7-1.5-1.5-1.5c-0.8,0-1.5,0.7-1.5,1.5v11.7c0,0.8,0.6,1.5,1.4,1.5c0,0,0,0,0.1,0h9
				c0.8,0,1.5-0.7,1.5-1.5C86.5,73,85.8,72.4,85,72.4z"/>
		</g>
	</g>
</g>
</svg>
