<?xml version="1.0" encoding="utf-8"?>
<!-- Generator: Adobe Illustrator 19.0.0, SVG Export Plug-In . SVG Version: 6.00 Build 0)  -->
<svg version="1.1" id="Layer_1" xmlns="http://www.w3.org/2000/svg" xmlns:xlink="http://www.w3.org/1999/xlink" x="0px" y="0px"
	 viewBox="0 0 100 100" style="enable-background:new 0 0 100 100;" xml:space="preserve">
<style type="text/css">
	.st0{fill:#683695;}
	.st1{fill:#FFFFFF;}
</style>
<g id="XMLID_28026_">
	<circle id="XMLID_30773_" class="st0" cx="49.8" cy="50.9" r="47.8"/>
	<g id="XMLID_30348_">
		<g id="XMLID_30768_">
			<path id="XMLID_30772_" class="st1" d="M37.3,41.2h23.2c0.3,0,0.5-0.2,0.5-0.5c0-0.3-0.2-0.5-0.5-0.5H37.3
				c-0.3,0-0.5,0.2-0.5,0.5C36.7,40.9,37,41.2,37.3,41.2z"/>
			<path id="XMLID_30769_" class="st1" d="M60.4,41.5H37.3c-0.5,0-0.9-0.4-0.9-0.9c0-0.5,0.4-0.9,0.9-0.9h23.2
				c0.5,0,0.9,0.4,0.9,0.9C61.3,41.1,60.9,41.5,60.4,41.5z M37.3,40.4c-0.1,0-0.2,0.1-0.2,0.2c0,0.1,0.1,0.2,0.2,0.2h23.2
				c0.1,0,0.2-0.1,0.2-0.2c0-0.1-0.1-0.2-0.2-0.2H37.3z"/>
		</g>
		<g id="XMLID_30744_">
			<path id="XMLID_30767_" class="st1" d="M60.4,45.6h-23c-0.3,0-0.5,0.2-0.5,0.5c0,0.3,0.2,0.5,0.5,0.5h23c0.3,0,0.5-0.2,0.5-0.5
				C61,45.9,60.7,45.6,60.4,45.6z"/>
			<path id="XMLID_30760_" class="st1" d="M60.4,47h-23c-0.5,0-0.9-0.4-0.9-0.9c0-0.5,0.4-0.9,0.9-0.9h23c0.5,0,0.9,0.4,0.9,0.9
				C61.3,46.7,60.9,47,60.4,47z M37.4,46c-0.1,0-0.2,0.1-0.2,0.2s0.1,0.2,0.2,0.2h23c0.1,0,0.2-0.1,0.2-0.2S60.5,46,60.4,46H37.4z"
				/>
		</g>
		<g id="XMLID_30719_">
			<path id="XMLID_30743_" class="st1" d="M52.4,51.2H37.4c-0.3,0-0.5,0.2-0.5,0.5c0,0.3,0.2,0.5,0.5,0.5h15.1
				c0.3,0,0.5-0.2,0.5-0.5S52.7,51.2,52.4,51.2L52.4,51.2z"/>
			<path id="XMLID_30720_" class="st1" d="M52.4,52.6H37.4c-0.5,0-0.9-0.4-0.9-0.9c0-0.2,0.1-0.5,0.3-0.6c0.2-0.2,0.4-0.3,0.6-0.3
				h15.1c0.5,0,0.9,0.4,0.9,0.9C53.3,52.2,52.9,52.6,52.4,52.6z M37.4,51.5c-0.1,0-0.1,0-0.1,0.1c0,0-0.1,0.1-0.1,0.1
				c0,0.1,0.1,0.2,0.2,0.2h15.1c0.1,0,0.2-0.1,0.2-0.2s-0.1-0.2-0.2-0.2H37.4z"/>
		</g>
		<g id="XMLID_30712_">
			<path id="XMLID_30718_" class="st1" d="M48.6,56.7H37.3c-0.3,0-0.5,0.2-0.5,0.5s0.2,0.5,0.5,0.5h11.4c0.3,0,0.5-0.2,0.5-0.5
				S48.9,56.7,48.6,56.7z"/>
			<path id="XMLID_30713_" class="st1" d="M48.6,58.1H37.3c-0.5,0-0.9-0.4-0.9-0.9c0-0.5,0.4-0.9,0.9-0.9h11.4
				c0.5,0,0.9,0.4,0.9,0.9C49.5,57.7,49.1,58.1,48.6,58.1z M37.3,57c-0.1,0-0.2,0.1-0.2,0.2s0.1,0.2,0.2,0.2h11.4
				c0.1,0,0.2-0.1,0.2-0.2S48.8,57,48.6,57H37.3z"/>
		</g>
		<g id="XMLID_30693_">
			<path id="XMLID_30697_" class="st1" d="M48.5,62.2H37.3c-0.3,0-0.5,0.2-0.5,0.5c0,0.3,0.2,0.5,0.5,0.5h11.3
				c0.3,0,0.5-0.2,0.5-0.5C49.1,62.4,48.8,62.2,48.5,62.2z"/>
			<path id="XMLID_30694_" class="st1" d="M48.5,63.6H37.3c-0.5,0-0.9-0.4-0.9-0.9c0-0.5,0.4-0.9,0.9-0.9h11.3
				c0.5,0,0.9,0.4,0.9,0.9C49.4,63.2,49,63.6,48.5,63.6z M37.3,62.5c-0.1,0-0.2,0.1-0.2,0.2s0.1,0.2,0.2,0.2h11.3
				c0.1,0,0.2-0.1,0.2-0.2s-0.1-0.2-0.2-0.2H37.3z"/>
		</g>
		<g id="XMLID_30482_">
			<path id="XMLID_30497_" class="st1" d="M65.2,51.9V34.5c0-1.5-1.2-2.6-2.6-2.6h-6.9c-0.3-1.5-1.6-2.6-3.1-2.6h-7.4
				c-1.5,0-2.9,1.1-3.1,2.6h-6.9c-1.5,0-2.6,1.2-2.6,2.6v34.4c0,1.5,1.2,2.6,2.6,2.6h20v-0.1c5.1,3.4,11.9,2.1,15.4-3
				c3.4-5.1,2.1-11.9-3-15.4C66.8,52.6,66,52.2,65.2,51.9z M43.7,30.9c0.4-0.4,0.9-0.6,1.5-0.6h7.4c1.2,0,2.1,1,2.1,2.1
				c0,1.1-0.9,2.1-2.1,2.1h-7.4c-1.2,0-2.1-0.9-2.1-2.1C43.1,31.8,43.3,31.3,43.7,30.9L43.7,30.9z M35.2,70.4
				c-0.9,0-1.6-0.7-1.6-1.6V34.5c0-0.9,0.7-1.6,1.6-1.6h6.9c0.3,1.5,1.6,2.6,3.1,2.6h7.4c1.5,0,2.9-1.1,3.1-2.6h6.9
				c0.9,0,1.6,0.7,1.6,1.6v17.1c-5.9-1.5-11.9,2.1-13.5,8c-1,4,0.2,8.1,3.3,10.9H35.2z M61.4,72.3c-5.5,0-10-4.5-10-10s4.5-10,10-10
				c5.5,0,10,4.5,10,10C71.3,67.8,66.9,72.3,61.4,72.3z"/>
			<path id="XMLID_30484_" class="st1" d="M61.3,73.7c-2.2,0-4.3-0.6-6.2-1.8l0,0h-20c-1.6,0-3-1.3-3-3V34.5c0-1.6,1.3-3,3-3h6.6
				c0.4-1.5,1.8-2.6,3.4-2.6h7.4c1.6,0,3,1.1,3.4,2.6h6.6c1.6,0,3,1.3,3,3v17.2c0.8,0.3,1.5,0.7,2.2,1.2c5.2,3.5,6.6,10.6,3.1,15.8
				c-1.7,2.5-4.3,4.2-7.3,4.8C62.8,73.6,62.1,73.7,61.3,73.7z M54.8,70.9l0.5,0.3c2.4,1.6,5.2,2.2,8,1.6c2.8-0.5,5.2-2.1,6.8-4.5
				c3.3-4.9,2-11.6-2.9-14.9c-0.7-0.5-1.5-0.9-2.3-1.2l-0.2-0.1V34.5c0-1.3-1-2.3-2.3-2.3h-7.2l0-0.3c-0.2-1.4-1.4-2.3-2.8-2.3h-7.4
				c-1.4,0-2.6,1-2.8,2.3l0,0.3h-7.2c-1.3,0-2.3,1-2.3,2.3v34.4c0,1.3,1,2.3,2.3,2.3h19.7V70.9z M61.4,72.6L61.4,72.6
				C55.7,72.6,51,68,51,62.3C51,56.6,55.7,52,61.4,52s10.3,4.6,10.3,10.3C71.7,68,67.1,72.6,61.4,72.6z M61.4,52.6
				c-5.3,0-9.6,4.3-9.6,9.6s4.3,9.6,9.6,9.6c5.3,0,9.6-4.3,9.6-9.6C71,57,66.7,52.6,61.4,52.6z M54.8,70.8H35.2
				c-1.1,0-1.9-0.9-1.9-1.9V34.5c0-1.1,0.9-1.9,1.9-1.9h7.2l0,0.3c0.2,1.4,1.4,2.3,2.8,2.3h7.4c1.4,0,2.6-1,2.8-2.3l0-0.3h7.2
				c1.1,0,1.9,0.9,1.9,1.9V52L64,51.9c-2.8-0.7-5.7-0.3-8.1,1.2c-2.5,1.5-4.2,3.8-4.9,6.6c-1,3.8,0.2,7.9,3.2,10.6L54.8,70.8z
				 M35.2,70.1h17.9c-2.7-2.8-3.7-6.8-2.7-10.6c0.8-2.9,2.6-5.4,5.2-7c2.5-1.5,5.4-1.9,8.2-1.3V34.5c0-0.7-0.6-1.2-1.2-1.2h-6.6
				c-0.4,1.5-1.8,2.6-3.4,2.6h-7.4c-1.6,0-3-1.1-3.4-2.6h-6.6c-0.7,0-1.2,0.6-1.2,1.2v34.4C34,69.6,34.5,70.1,35.2,70.1L35.2,70.1z
				 M52.5,34.8h-7.4c-1.3,0-2.4-1.1-2.4-2.4c0-0.6,0.3-1.3,0.7-1.7h0c0.5-0.5,1.1-0.7,1.7-0.7c0,0,0,0,0,0h7.4
				c1.3,0,2.4,1.1,2.4,2.5C55,33.7,53.9,34.8,52.5,34.8z M45.2,30.6c-0.5,0-0.9,0.2-1.2,0.5l0,0c-0.3,0.3-0.5,0.8-0.5,1.2
				c0,1,0.8,1.8,1.8,1.8h7.4c1,0,1.7-0.8,1.7-1.7c0-1-0.8-1.8-1.7-1.8H45.2C45.2,30.6,45.2,30.6,45.2,30.6z"/>
		</g>
		<g id="XMLID_30351_">
			<path id="XMLID_30481_" class="st1" d="M65.2,59.1L60,64.3l-2.4-2.4c-0.2-0.2-0.6-0.2-0.8,0c-0.2,0.2-0.2,0.5,0,0.8l2.8,2.8
				c0.2,0.2,0.6,0.2,0.8,0l0,0l5.6-5.6c0.2-0.2,0.2-0.5,0-0.8S65.4,58.9,65.2,59.1C65.2,59.1,65.2,59.1,65.2,59.1L65.2,59.1z"/>
			<path id="XMLID_30353_" class="st1" d="M60,66c-0.2,0-0.5-0.1-0.6-0.3l-2.8-2.8c-0.3-0.3-0.3-0.9,0-1.2c0.3-0.3,0.9-0.3,1.2,0
				l2.2,2.2l5-5c0.4-0.3,0.9-0.3,1.2,0c0.3,0.3,0.3,0.9,0,1.2l-5.6,5.6C60.4,65.9,60.2,66,60,66z M57.2,62.1c-0.1,0-0.1,0-0.1,0.1
				c-0.1,0.1-0.1,0.2,0,0.3l2.8,2.8c0.1,0.1,0.2,0.1,0.3,0l5.6-5.6c0.1-0.1,0.1-0.2,0-0.3c-0.1-0.1-0.2-0.1-0.3,0l-0.2-0.2l0.2,0.2
				L60,64.8l-2.7-2.7C57.3,62.1,57.2,62.1,57.2,62.1z"/>
		</g>
	</g>
</g>
</svg>
