<?xml version="1.0" encoding="utf-8"?>
<!-- Generator: Adobe Illustrator 19.0.0, SVG Export Plug-In . SVG Version: 6.00 Build 0)  -->
<svg version="1.1" id="Layer_1" xmlns="http://www.w3.org/2000/svg" xmlns:xlink="http://www.w3.org/1999/xlink" x="0px" y="0px"
	 viewBox="0 0 100 100" style="enable-background:new 0 0 100 100;" xml:space="preserve">
<style type="text/css">
	.st0{fill:#1DCC63;}
	.st1{fill:#FFFFFF;}
</style>
<circle id="XMLID_31233_" class="st0" cx="50" cy="49.5" r="45.8"/>
<g>
	<g>
		<g>
			<path class="st1" d="M45.4,62.6l-6.2-7.9c-0.3-0.4-0.9-0.4-1.3-0.1c0,0-0.1,0.1-0.1,0.1l-6.2,7.9c-0.3,0.4-0.2,0.9,0.2,1.2
				c0.2,0.1,0.3,0.2,0.5,0.2H35v7c0,0.5,0.4,0.9,0.9,0.9h5.3c0.5,0,0.9-0.4,0.9-0.9v-7h2.6c0.5,0,0.9-0.4,0.9-0.9
				C45.6,62.9,45.5,62.7,45.4,62.6z M41.2,62.2c-0.5,0-0.9,0.4-0.9,0.9v7h-3.5v-7c0-0.5-0.4-0.9-0.9-0.9h-1.7l4.4-5.6l4.4,5.6H41.2z
				"/>
		</g>
	</g>
	<g>
		<g>
			<path class="st1" d="M76.4,37.6H72v-6.2c0-0.5-0.4-0.9-0.9-0.9H44.7v-5.3c0-0.5-0.4-0.9-0.9-0.9H29.7c-0.5,0-0.9,0.4-0.9,0.9
				v27.6c-5.6,5.3-5.9,14.2-0.5,19.9c5.3,5.6,14.2,5.9,19.9,0.5c1.7-1.6,3-3.6,3.7-5.8h17.4c4.4,0,7.9-3.5,7.9-7.9V38.5
				C77.2,38,76.8,37.6,76.4,37.6z M30.6,26.1h12.3v5.3c0,0.5,0.4,0.9,0.9,0.9h26.4v5.3H35.9c-0.5,0-0.9,0.4-0.9,0.9v11
				c-1.6,0.4-3.1,1.1-4.4,2V26.1z M38.5,75.4c-6.8,0-12.3-5.5-12.3-12.3s5.5-12.3,12.3-12.3s12.3,5.5,12.3,12.3
				C50.8,69.9,45.3,75.4,38.5,75.4z M75.5,59.6c0,3.4-2.8,6.2-6.2,6.2h-17c1.5-7.6-3.4-14.9-11-16.4c-1.5-0.3-3-0.3-4.6-0.1v-9.8
				h38.7V59.6z"/>
		</g>
	</g>
</g>
</svg>
