<?xml version="1.0" encoding="utf-8"?>
<!-- Generator: Adobe Illustrator 19.0.0, SVG Export Plug-In . SVG Version: 6.00 Build 0)  -->
<svg version="1.1" id="Layer_1" xmlns="http://www.w3.org/2000/svg" xmlns:xlink="http://www.w3.org/1999/xlink" x="0px" y="0px"
	 viewBox="0 0 100 100" style="enable-background:new 0 0 100 100;" xml:space="preserve">
<g id="XMLID_8659_">
	<path id="XMLID_8655_" d="M34,42.2h31.8v15.7H34V42.2z"/>
	<path id="XMLID_8654_" d="M89.4,37.9h-2.2V61h2.2c2.5,0,4.6-2.1,4.6-4.6V42.5C94,40,91.9,37.9,89.4,37.9z"/>
	<path id="XMLID_8653_" d="M78.6,28.2h-8.8v43.7h8.8c2.5,0,4.6-2.1,4.6-4.6V32.8C83.2,30.2,81.1,28.2,78.6,28.2z"/>
	<path id="XMLID_8652_" d="M16.6,32.8v34.5c0,2.5,2.1,4.6,4.6,4.6H30V28.2h-8.8C18.7,28.2,16.6,30.2,16.6,32.8z"/>
	<path id="XMLID_8519_" d="M5.8,42.5v13.9c0,2.5,2.1,4.6,4.6,4.6h2.2V37.9h-2.2C7.8,37.9,5.8,40,5.8,42.5z"/>
</g>
</svg>
