<?xml version="1.0" encoding="utf-8"?>
<!-- Generator: Adobe Illustrator 19.0.0, SVG Export Plug-In . SVG Version: 6.00 Build 0)  -->
<svg version="1.1" id="Layer_1" xmlns="http://www.w3.org/2000/svg" xmlns:xlink="http://www.w3.org/1999/xlink" x="0px" y="0px"
	 viewBox="0 0 100 100" style="enable-background:new 0 0 100 100;" xml:space="preserve">
<style type="text/css">
	.st0{fill:#020202;}
</style>
<g id="XMLID_8615_">
	<g id="XMLID_25_">
		<g id="XMLID_26_">
			<path id="XMLID_27_" class="st0" d="M91,65c-5.7,0-11.4-0.9-16.7-2.7c-2.6-0.9-5.8-0.1-7.4,1.6l-10.6,8
				C44,65.4,36.5,57.8,30,45.7l7.7-10.3c2-2,2.7-4.9,1.9-7.7c-1.8-5.4-2.7-11-2.7-16.8c0-4.2-3.4-7.5-7.5-7.5H12.2
				C8,3.4,4.7,6.8,4.7,11c0,47.6,38.7,86.3,86.3,86.3c4.2,0,7.5-3.4,7.5-7.5V72.6C98.5,68.4,95.1,65,91,65z"/>
		</g>
	</g>
</g>
</svg>
