<?xml version="1.0" encoding="utf-8"?>
<!-- Generator: Adobe Illustrator 19.0.0, SVG Export Plug-In . SVG Version: 6.00 Build 0)  -->
<svg version="1.1" id="Layer_1" xmlns="http://www.w3.org/2000/svg" xmlns:xlink="http://www.w3.org/1999/xlink" x="0px" y="0px"
	 viewBox="0 0 100 100" style="enable-background:new 0 0 100 100;" xml:space="preserve">
<g id="XMLID_8463_">
	<g id="XMLID_8464_">
		<path id="XMLID_8460_" d="M80.7,53.7c-0.2-0.1-0.4-0.2-0.7-0.2c-0.5,0-0.9,0.2-1.2,0.5l-3.5,3.5c-0.3,0.3-0.5,0.7-0.5,1.2v13.8
			c0,2.4-0.8,4.4-2.5,6.1c-1.7,1.7-3.7,2.5-6.1,2.5H21.1c-2.4,0-4.4-0.8-6.1-2.5c-1.7-1.7-2.5-3.7-2.5-6.1V27.4
			c0-2.4,0.8-4.4,2.5-6.1c1.7-1.7,3.7-2.5,6.1-2.5h45.1c0.8,0,1.6,0.1,2.4,0.3c0.2,0.1,0.4,0.1,0.5,0.1c0.5,0,0.9-0.2,1.2-0.5L73,16
			c0.4-0.4,0.6-1,0.5-1.6c-0.1-0.6-0.4-1-1-1.2c-1.9-0.9-4.1-1.4-6.3-1.4H21.1c-4.3,0-8,1.5-11,4.6c-3.1,3.1-4.6,6.7-4.6,11v45.1
			c0,4.3,1.5,8,4.6,11c3.1,3.1,6.7,4.6,11,4.6h45.1c4.3,0,8-1.5,11-4.6c3.1-3.1,4.6-6.7,4.6-11V55.3C81.8,54.5,81.4,54,80.7,53.7z"
			/>
		<path id="XMLID_8459_" d="M94.3,22.6l-6-6c-0.9-0.9-1.9-1.3-3.1-1.3c-1.2,0-2.2,0.4-3.1,1.3L47.1,51.7L32.9,37.5
			c-0.9-0.9-1.9-1.3-3.1-1.3c-1.2,0-2.2,0.4-3.1,1.3l-6,6c-0.9,0.9-1.3,1.9-1.3,3.1c0,1.2,0.4,2.2,1.3,3.1L44,72.9
			c0.9,0.9,1.9,1.3,3.1,1.3s2.2-0.4,3.1-1.3l44.1-44.1c0.9-0.9,1.3-1.9,1.3-3.1C95.6,24.5,95.2,23.5,94.3,22.6z"/>
	</g>
</g>
</svg>
