<?xml version="1.0" encoding="utf-8"?>
<!-- Generator: Adobe Illustrator 19.0.0, SVG Export Plug-In . SVG Version: 6.00 Build 0)  -->
<svg version="1.1" id="Layer_1" xmlns="http://www.w3.org/2000/svg" xmlns:xlink="http://www.w3.org/1999/xlink" x="0px" y="0px"
	 viewBox="0 0 100 100" style="enable-background:new 0 0 100 100;" xml:space="preserve">
<g id="XMLID_8457_">
	<path id="XMLID_8458_" d="M78.2,32.4c-1.3,0-2.5,0.3-3.5,0.7c-1.3-3.3-4.6-5.7-8.3-5.7c-1.4,0-2.7,0.3-3.9,0.9
		c-1.5-2.9-4.5-4.9-8-4.9c-1,0-2,0.2-2.9,0.5V14c0-5-4-9-9-9c-5,0-9,4.1-9,9v35.8l-6.5-7.4c0-0.1-0.1-0.1-0.1-0.1
		c-1.7-1.7-4-2.6-6.4-2.7c0,0,0,0,0,0c-2.4,0-4.7,0.9-6.3,2.6c-3,3-3.1,7.4-0.5,12.1c3.5,6.1,7.3,11.9,10.6,17
		c2.4,3.7,4.7,7.2,6.4,10.1c1.5,2.5,5.3,10.7,5.4,10.8c0.5,1.1,1.6,1.7,2.7,1.7h38.4c1.3,0,2.5-0.9,2.9-2.1c0.7-2.2,7-22,7-29.6
		V41.5C87.2,36.5,83.2,32.4,78.2,32.4z M75.3,41.5c0-1.6,1.3-3,2.9-3c1.6,0,2.9,1.3,2.9,3v20.7c0,5.1-3.9,18.7-6,25.7H40.8
		c-1.3-2.6-3.6-7.5-4.8-9.5c-1.8-3-4.1-6.6-6.6-10.4c-3.3-5-7-10.7-10.4-16.6c-0.9-1.6-1.7-3.6-0.5-4.8c0.5-0.5,1.3-0.8,2.1-0.8
		c0.8,0,1.5,0.3,2,0.8L34.3,60c0.8,1,2.2,1.3,3.4,0.8c1.2-0.4,2-1.6,2-2.8V14c0-1.6,1.3-3,2.9-3c1.6,0,2.9,1.3,2.9,3v28.4
		c0,1.7,1.4,3,3,3c1.7,0,3-1.4,3-3v-9.9c0-1.6,1.3-3,2.9-3c1.6,0,2.9,1.3,2.9,3v13.8c0,1.7,1.4,3,3,3c1.7,0,3-1.4,3-3v-9.9
		c0-1.6,1.3-3,2.9-3c1.6,0,2.9,1.3,2.9,3v13.8c0,1.7,1.4,3,3,3c1.7,0,3-1.4,3-3L75.3,41.5L75.3,41.5z"/>
</g>
</svg>
