<?xml version="1.0" encoding="utf-8"?>
<!-- Generator: Adobe Illustrator 19.0.0, SVG Export Plug-In . SVG Version: 6.00 Build 0)  -->
<svg version="1.1" id="Layer_1" xmlns="http://www.w3.org/2000/svg" xmlns:xlink="http://www.w3.org/1999/xlink" x="0px" y="0px"
	 viewBox="0 0 100 100" style="enable-background:new 0 0 100 100;" xml:space="preserve">
<g id="XMLID_5113_">
	<g id="XMLID_5117_">
		<path id="XMLID_10_" d="M50.4,23.7c-6.7,0-12.1,5.4-12.1,12.1s5.4,12.1,12.1,12.1s12.1-5.4,12.1-12.1S57.1,23.7,50.4,23.7z
			 M50.4,44.4c-4.8,0-8.6-3.9-8.6-8.6s3.9-8.6,8.6-8.6S59,31,59,35.7S55.2,44.4,50.4,44.4z"/>
		<path id="XMLID_13_" d="M50.4,48.3c-6.9,0-12.6-5.6-12.6-12.6s5.6-12.6,12.6-12.6S63,28.8,63,35.7S57.3,48.3,50.4,48.3z
			 M50.4,24.2c-6.4,0-11.6,5.2-11.6,11.6c0,6.4,5.2,11.6,11.6,11.6c6.4,0,11.6-5.2,11.6-11.6C62,29.4,56.8,24.2,50.4,24.2z
			 M50.4,44.9c-5,0-9.1-4.1-9.1-9.1c0-5,4.1-9.1,9.1-9.1c5,0,9.1,4.1,9.1,9.1C59.5,40.8,55.4,44.9,50.4,44.9z M50.4,27.6
			c-4.5,0-8.1,3.6-8.1,8.1s3.6,8.1,8.1,8.1s8.1-3.6,8.1-8.1S54.9,27.6,50.4,27.6z"/>
	</g>
	<g id="XMLID_5114_">
		<path id="XMLID_2_" d="M73.5,12.7C67.2,6.4,58.9,3,50.1,3C41.3,3,33,6.4,26.7,12.7c-11.6,11.6-13,33.3-3.1,46.4l26.5,38.2
			l26.4-38.2C86.5,46,85,24.2,73.5,12.7z M73.8,57.2L50.1,91.3L26.4,57.1c-9-11.9-7.7-31.6,2.8-42c5.6-5.6,13-8.7,20.9-8.7
			S65.5,9.5,71,15.1C81.5,25.5,82.8,45.2,73.8,57.2z"/>
		<path id="XMLID_5_" d="M50.1,98.2L23.2,59.4C13.2,46,14.7,24,26.4,12.3C32.7,6,41.1,2.5,50.1,2.5c9,0,17.4,3.5,23.7,9.8l0,0l0,0
			C85.5,24,87,46.1,76.9,59.5L50.1,98.2z M50.1,3.5c-8.7,0-16.9,3.4-23,9.5C15.7,24.4,14.3,45.8,24,58.8l26.1,37.7l26-37.6
			c9.8-13.1,8.4-34.5-3-45.9l0,0C67,6.9,58.8,3.5,50.1,3.5z M50.1,92.2L26,57.4c-9.1-12.1-7.8-32,2.8-42.6
			c5.7-5.7,13.2-8.8,21.3-8.8c8,0,15.6,3.1,21.3,8.8C82,25.3,83.3,45.3,74.2,57.5L50.1,92.2z M50.1,6.9c-7.8,0-15.1,3-20.6,8.5
			C19.3,25.7,18,45,26.8,56.8l23.3,33.6l23.2-33.6c8.8-11.8,7.6-31.1-2.7-41.4C65.2,10,57.9,6.9,50.1,6.9z"/>
	</g>
</g>
</svg>
