<?xml version="1.0" encoding="utf-8"?>
<!-- Generator: Adobe Illustrator 19.0.0, SVG Export Plug-In . SVG Version: 6.00 Build 0)  -->
<svg version="1.1" id="Layer_1" xmlns="http://www.w3.org/2000/svg" xmlns:xlink="http://www.w3.org/1999/xlink" x="0px" y="0px"
	 viewBox="0 0 100 100" style="enable-background:new 0 0 100 100;" xml:space="preserve">
<path id="XMLID_14860_" d="M81.8,9.8H70.2V6.9c0-1.7-1.2-2.9-2.9-2.9c-1.7,0-2.9,1.2-2.9,2.9v2.9H35.6V6.9c0-1.7-1.2-2.9-2.9-2.9
	c-1.7,0-2.9,1.2-2.9,2.9v2.9H18.3c-8.1,0-14.4,6.4-14.4,14.4v52c0,8.1,6.3,14.4,14.4,14.4h63.5c8.1,0,14.4-6.3,14.4-14.4v-52
	C96.2,16.2,89.8,9.8,81.8,9.8z M9.6,24.2c0-4.6,4-8.7,8.7-8.7h11.5v2.9c0,1.7,1.2,2.9,2.9,2.9c1.7,0,2.9-1.2,2.9-2.9v-2.9h28.9v2.9
	c0,1.7,1.2,2.9,2.9,2.9c1.7,0,2.9-1.2,2.9-2.9v-2.9h11.5c4.6,0,8.7,4,8.7,8.7v8.7H9.6V24.2L9.6,24.2z M90.4,76.2
	c0,4.6-4,8.7-8.7,8.7H18.3c-4.6,0-8.7-4-8.7-8.7V38.7h80.8V76.2z"/>
<path id="XMLID_14851_" d="M24,76.2c1.7,0,2.9-0.6,4-1.7c1.2-1.2,1.7-2.9,1.7-4c0-1.2-0.6-2.9-1.7-4c-2.3-2.3-5.8-2.3-8.1,0
	c-1.2,1.2-1.7,2.3-1.7,4c0,1.2,0.6,2.9,1.7,4C21.1,75.6,22.3,76.2,24,76.2z"/>
<path id="XMLID_14846_" d="M24,58.9c1.7,0,2.9-0.6,4-1.7c1.2-1.2,1.7-2.9,1.7-4c0-1.2-0.6-2.9-1.7-4c-2.3-2.3-5.8-2.3-8.1,0
	c-1.2,1.2-1.7,2.3-1.7,4c0,1.7,0.6,2.9,1.7,4C21.1,58.3,22.3,58.9,24,58.9z"/>
<path id="XMLID_14841_" d="M41.3,76.2c1.7,0,2.9-0.6,4-1.7c1.2-1.2,1.7-2.9,1.7-4c0-1.2-0.6-2.9-1.7-4c-2.3-2.3-5.8-2.3-8.1,0
	c-1.2,1.2-1.7,2.9-1.7,4c0,1.2,0.6,2.9,1.7,4C38.5,75.6,39.6,76.2,41.3,76.2z"/>
<path id="XMLID_14836_" d="M41.3,58.9c1.7,0,2.9-0.6,4-1.7c1.2-1.2,1.7-2.9,1.7-4c0-1.2-0.6-2.9-1.7-4c-2.3-2.3-5.8-2.3-8.1,0
	c-1.2,1.2-1.7,2.9-1.7,4c0,1.2,0.6,2.9,1.7,4C38.5,58.3,39.6,58.9,41.3,58.9z"/>
<path id="XMLID_14831_" d="M58.7,76.2c1.7,0,2.9-0.6,4-1.7c1.2-1.2,1.7-2.3,1.7-4c0-1.7-0.6-2.9-1.7-4c-2.3-2.3-5.8-2.3-8.1,0
	c-1.2,1.2-1.7,2.9-1.7,4c0,1.2,0.6,2.9,1.7,4C55.8,75.6,56.9,76.2,58.7,76.2z"/>
<path id="XMLID_14826_" d="M58.7,58.9c1.7,0,2.9-0.6,4-1.7c1.2-1.2,1.7-2.3,1.7-4c0-1.2-0.6-2.9-1.7-4c-2.3-2.3-5.8-2.3-8.1,0
	c-1.2,1.2-1.7,2.9-1.7,4c0,1.2,0.6,2.9,1.7,4C55.8,58.3,56.9,58.9,58.7,58.9z"/>
<path id="XMLID_14821_" d="M76,76.2c1.7,0,2.9-0.6,4-1.7c1.2-1.2,1.7-2.9,1.7-4c0-1.2-0.6-2.9-1.7-4c-2.3-2.3-5.8-2.3-8.1,0
	c-1.2,1.2-1.7,2.3-1.7,4c0,1.2,0.6,2.9,1.7,4C73.1,75.6,74.3,76.2,76,76.2z"/>
<path id="XMLID_14816_" d="M76,58.9c1.7,0,2.9-0.6,4-1.7c1.2-1.2,1.7-2.3,1.7-4c0-1.2-0.6-2.9-1.7-4c-2.3-2.3-5.8-2.3-8.1,0
	c-1.2,1.2-1.7,2.9-1.7,4c0,1.2,0.6,2.9,1.7,4C73.1,58.3,74.3,58.9,76,58.9z"/>
</svg>
