<?xml version="1.0" encoding="utf-8"?>
<!-- Generator: Adobe Illustrator 19.0.0, SVG Export Plug-In . SVG Version: 6.00 Build 0)  -->
<svg version="1.1" id="Layer_1" xmlns="http://www.w3.org/2000/svg" xmlns:xlink="http://www.w3.org/1999/xlink" x="0px" y="0px"
	 viewBox="0 0 100 100" style="enable-background:new 0 0 100 100;" xml:space="preserve">
<g id="XMLID_29609_">
	<g id="XMLID_102_">
		<g id="XMLID_103_">
			<path id="XMLID_112_" d="M79.8,14.8H68.9v-2.7c0-1.6-1.1-2.7-2.7-2.7c-1.6,0-2.7,1.1-2.7,2.7v2.7H36.3v-2.7
				c0-1.6-1.1-2.7-2.7-2.7c-1.6,0-2.7,1.1-2.7,2.7v2.7H20c-7.6,0-13.6,6-13.6,13.6v48.9c0,7.6,6,13.6,13.6,13.6h59.7
				c7.6,0,13.6-6,13.6-13.6V28.4C93.3,20.8,87.4,14.8,79.8,14.8z M11.9,28.4c0-4.3,3.8-8.1,8.1-8.1h10.9v2.7c0,1.6,1.1,2.7,2.7,2.7
				c1.6,0,2.7-1.1,2.7-2.7v-2.7h27.1v2.7c0,1.6,1.1,2.7,2.7,2.7c1.6,0,2.7-1.1,2.7-2.7v-2.7h10.9c4.3,0,8.1,3.8,8.1,8.1v8.2h-76
				V28.4L11.9,28.4z M87.9,77.3c0,4.3-3.8,8.1-8.1,8.1H20c-4.3,0-8.1-3.8-8.1-8.1V42h76V77.3z"/>
			<path id="XMLID_111_" d="M25.4,77.3c1.6,0,2.7-0.5,3.8-1.6c1.1-1.1,1.6-2.7,1.6-3.8c0-1.1-0.5-2.7-1.6-3.8
				c-2.2-2.2-5.4-2.2-7.6,0c-1.1,1.1-1.6,2.2-1.6,3.8c0,1.1,0.5,2.7,1.6,3.8C22.7,76.7,23.8,77.3,25.4,77.3z"/>
			<path id="XMLID_110_" d="M25.4,61c1.6,0,2.7-0.5,3.8-1.6c1.1-1.1,1.6-2.7,1.6-3.8c0-1.1-0.5-2.7-1.6-3.8c-2.2-2.2-5.4-2.2-7.6,0
				c-1.1,1.1-1.6,2.2-1.6,3.8c0,1.6,0.5,2.7,1.6,3.8C22.7,60.4,23.8,61,25.4,61z"/>
			<path id="XMLID_109_" d="M41.7,77.3c1.6,0,2.7-0.5,3.8-1.6c1.1-1.1,1.6-2.7,1.6-3.8c0-1.1-0.5-2.7-1.6-3.8
				c-2.2-2.2-5.4-2.2-7.6,0c-1.1,1.1-1.6,2.7-1.6,3.8c0,1.1,0.5,2.7,1.6,3.8C39,76.7,40.1,77.3,41.7,77.3z"/>
			<path id="XMLID_108_" d="M41.7,61c1.6,0,2.7-0.5,3.8-1.6c1.1-1.1,1.6-2.7,1.6-3.8c0-1.1-0.5-2.7-1.6-3.8c-2.2-2.2-5.4-2.2-7.6,0
				c-1.1,1.1-1.6,2.7-1.6,3.8c0,1.1,0.5,2.7,1.6,3.8C39,60.4,40.1,61,41.7,61z"/>
			<path id="XMLID_107_" d="M58,77.3c1.6,0,2.7-0.5,3.8-1.6c1.1-1.1,1.6-2.2,1.6-3.8s-0.5-2.7-1.6-3.8c-2.2-2.2-5.4-2.2-7.6,0
				c-1.1,1.1-1.6,2.7-1.6,3.8c0,1.1,0.5,2.7,1.6,3.8C55.3,76.7,56.4,77.3,58,77.3z"/>
			<path id="XMLID_106_" d="M58,61c1.6,0,2.7-0.5,3.8-1.6c1.1-1.1,1.6-2.2,1.6-3.8c0-1.1-0.5-2.7-1.6-3.8c-2.2-2.2-5.4-2.2-7.6,0
				c-1.1,1.1-1.6,2.7-1.6,3.8c0,1.1,0.5,2.7,1.6,3.8C55.3,60.4,56.4,61,58,61z"/>
			<path id="XMLID_105_" d="M74.3,77.3c1.6,0,2.7-0.5,3.8-1.6c1.1-1.1,1.6-2.7,1.6-3.8c0-1.1-0.5-2.7-1.6-3.8
				c-2.2-2.2-5.4-2.2-7.6,0c-1.1,1.1-1.6,2.2-1.6,3.8c0,1.1,0.5,2.7,1.6,3.8C71.6,76.7,72.7,77.3,74.3,77.3z"/>
			<path id="XMLID_104_" d="M74.3,61c1.6,0,2.7-0.5,3.8-1.6c1.1-1.1,1.6-2.2,1.6-3.8c0-1.1-0.5-2.7-1.6-3.8c-2.2-2.2-5.4-2.2-7.6,0
				c-1.1,1.1-1.6,2.7-1.6,3.8c0,1.1,0.5,2.7,1.6,3.8C71.6,60.4,72.7,61,74.3,61z"/>
		</g>
	</g>
</g>
</svg>
