<?xml version="1.0" encoding="utf-8"?>
<!-- Generator: Adobe Illustrator 19.0.0, SVG Export Plug-In . SVG Version: 6.00 Build 0)  -->
<svg version="1.1" id="Layer_1" xmlns="http://www.w3.org/2000/svg" xmlns:xlink="http://www.w3.org/1999/xlink" x="0px" y="0px"
	 viewBox="0 0 100 100" style="enable-background:new 0 0 100 100;" xml:space="preserve">
<g id="XMLID_4917_">
	<g id="XMLID_4919_">
		<path id="XMLID_4925_" d="M77.5,94.4c-3.7,0-8.3-0.9-13.2-2.8c-10.9-4.1-22.8-12.2-33.4-22.9C20.2,58,12.1,46.2,8,35.3
			c-3.7-9.9-3.7-18,0-21.8C8.5,13,9,12.4,9.6,11.8c3.4-3.6,7.2-7.6,12.3-7.4c3.5,0.1,6.9,2.3,10.4,6.7c10.3,12.8,5.6,17.3,0.3,22.6
			l-0.9,0.9c-0.9,0.9-2.5,4.9,12.9,20.4c5,5,9.3,8.7,12.8,11c2.2,1.4,6,3.5,7.6,1.9l1-1c5.3-5.4,9.8-10,22.6,0.3
			c4.3,3.5,6.5,6.9,6.7,10.4c0.2,5.1-3.8,8.9-7.4,12.3c-0.6,0.6-1.2,1.1-1.7,1.6C84.2,93.4,81.2,94.4,77.5,94.4z M21.6,7.4
			c-3.6,0-6.9,3.4-9.8,6.5c-0.6,0.6-1.1,1.2-1.7,1.8c-2.8,2.8-2.5,10.1,0.7,18.6c4,10.5,11.8,22,22.2,32.3
			c10.3,10.3,21.8,18.2,32.3,22.2c8.5,3.2,15.8,3.5,18.6,0.7c0.6-0.5,1.1-1.1,1.8-1.7c3.1-2.9,6.6-6.3,6.5-10
			c-0.1-2.6-2-5.3-5.5-8.2C76,61,73,64,68.1,69l-1,1c-2.4,2.4-6.2,1.8-11.4-1.5c-3.6-2.3-8.1-6.2-13.3-11.3
			C29.6,44.3,25.5,36.5,29.5,32.5l1-1c5-4.9,8-7.9-0.5-18.6c-2.9-3.6-5.6-5.4-8.2-5.5C21.7,7.4,21.7,7.4,21.6,7.4z"/>
		<path id="XMLID_4920_" d="M77.5,95.3c-3.9,0-8.6-1-13.6-2.9c-11-4.2-23-12.3-33.7-23.1C19.5,58.6,11.3,46.6,7.1,35.6
			C3.2,25.3,3.3,16.8,7.3,12.8c0.5-0.5,1.1-1.1,1.6-1.7c3.5-3.6,7.4-7.7,12.7-7.7c0.1,0,0.2,0,0.4,0c3.8,0.2,7.4,2.5,11.1,7
			c10.8,13.5,5.7,18.6,0.2,23.9l-0.9,0.9c0,0-2.9,3.2,12.9,19c5,5,9.2,8.6,12.6,10.8c3.8,2.5,5.8,2.6,6.4,2.1l1-1
			c5.4-5.5,10.5-10.6,23.9,0.2c4.6,3.7,6.8,7.3,7,11.1c0.2,5.5-4.2,9.7-7.7,13.1c-0.6,0.6-1.2,1.1-1.7,1.6
			C84.7,94.3,81.5,95.3,77.5,95.3z M21.6,5.3c-4.5,0-8.1,3.8-11.3,7.1c-0.6,0.6-1.1,1.2-1.6,1.7c-3.5,3.5-3.4,11.2,0.2,20.8
			C13,45.7,21,57.5,31.6,68c10.6,10.6,22.3,18.6,33.1,22.6c9.3,3.5,17.4,3.6,20.8,0.3c0.5-0.5,1.1-1.1,1.7-1.6
			c3.5-3.3,7.3-7,7.2-11.6c-0.1-3.2-2.2-6.4-6.3-9.7c-12.1-9.7-16.2-5.6-21.3-0.4l-1,1c-1.6,1.6-4.5,1-8.8-1.8
			c-3.5-2.3-7.8-6-12.9-11.1C29.6,41.3,29,35.9,31,33.9l1-0.9c5.2-5.2,9.4-9.2-0.4-21.3c-3.3-4.1-6.5-6.2-9.7-6.3
			C21.8,5.3,21.7,5.3,21.6,5.3z M77.5,92.3c-3.5,0-7.8-0.9-12.5-2.7c-10.6-4-22.2-12-32.7-22.4c-10.4-10.4-18.4-22-22.4-32.7
			c-3.4-9-3.6-16.5-0.5-19.6c0.5-0.5,1.1-1.1,1.7-1.7c3.1-3.2,6.5-6.8,10.5-6.8h0.2c2.9,0.1,5.9,2.1,8.9,5.9
			c8.7,10.8,6,14.4,0.4,19.9l-1,1c-1.7,1.7-1.6,4.3,0.3,7.9c2.1,4,6.2,9,12.6,15.4c5.1,5.1,9.5,8.9,13.1,11.2
			c4.8,3.1,8.2,3.7,10.2,1.7l1-1c5.4-5.5,9.1-8.2,19.9,0.5c3.8,3,5.8,6,5.9,8.9c0.2,4.2-3.5,7.7-6.8,10.8c-0.7,0.6-1.2,1.2-1.7,1.7
			C83.1,91.6,80.7,92.3,77.5,92.3z M21.6,7.4v1c-3.2,0-6.3,3.3-9,6.1c-0.6,0.7-1.2,1.3-1.8,1.8c-2.5,2.5-2.1,9.5,0.9,17.5
			c3.9,10.4,11.7,21.8,22,32c10.3,10.2,21.6,18,32,22c8,3,15.1,3.4,17.5,0.9c0.5-0.5,1.1-1.1,1.7-1.6c3.1-2.9,6.4-6.1,6.3-9.4
			c-0.1-2.3-1.8-4.8-5.1-7.4c-10-8-12.4-5.6-17.3-0.6l-1,1c-2.7,2.7-7,2.2-12.6-1.4c-3.7-2.4-8.2-6.3-13.4-11.5
			C35.2,51.3,31,46.1,28.8,41.9c-2.3-4.4-2.3-7.8,0-10.2l1-1c4.9-4.9,7.4-7.3-0.6-17.3c-2.7-3.3-5.2-5.1-7.4-5.2L21.6,7.4z"/>
	</g>
</g>
</svg>
