<?xml version="1.0" encoding="utf-8"?>
<!-- Generator: Adobe Illustrator 19.0.0, SVG Export Plug-In . SVG Version: 6.00 Build 0)  -->
<svg version="1.1" id="Layer_1" xmlns="http://www.w3.org/2000/svg" xmlns:xlink="http://www.w3.org/1999/xlink" x="0px" y="0px"
	 viewBox="0 0 100 100" style="enable-background:new 0 0 100 100;" xml:space="preserve">
<g id="XMLID_12_">
	<g id="XMLID_29_">
		<g id="XMLID_30_">
			<path id="XMLID_31_" d="M87,18.7H13.3c-5.3,0-9.7,4.3-9.7,9.7v42.6c0,5.3,4.3,9.7,9.7,9.7H87c5.3,0,9.7-4.3,9.7-9.7V28.4
				C96.7,23.1,92.3,18.7,87,18.7z M92.8,71.1c0,3.2-2.6,5.8-5.8,5.8H13.3c-3.2,0-5.8-2.6-5.8-5.8V28.4c0-3.2,2.6-5.8,5.8-5.8H87
				c3.2,0,5.8,2.6,5.8,5.8L92.8,71.1L92.8,71.1z"/>
		</g>
	</g>
	<g id="XMLID_24_">
		<g id="XMLID_25_">
			<path id="XMLID_26_" d="M94.7,30.3H5.6c-1.1,0-1.9,0.9-1.9,1.9v11.6c0,1.1,0.9,1.9,1.9,1.9h89.2c1.1,0,1.9-0.9,1.9-1.9V32.3
				C96.7,31.2,95.8,30.3,94.7,30.3z M92.8,42H7.5v-7.8h85.3L92.8,42L92.8,42z"/>
		</g>
	</g>
	<g id="XMLID_21_">
		<g id="XMLID_22_">
			<path id="XMLID_4_" d="M40.5,57.5H17.2c-1.1,0-1.9,0.9-1.9,1.9c0,1.1,0.9,1.9,1.9,1.9h23.3c1.1,0,1.9-0.9,1.9-1.9
				C42.4,58.4,41.5,57.5,40.5,57.5z"/>
		</g>
	</g>
	<g id="XMLID_18_">
		<g id="XMLID_19_">
			<path id="XMLID_3_" d="M40.5,65.2H17.2c-1.1,0-1.9,0.9-1.9,1.9c0,1.1,0.9,1.9,1.9,1.9h23.3c1.1,0,1.9-0.9,1.9-1.9
				C42.4,66.1,41.5,65.2,40.5,65.2z"/>
		</g>
	</g>
	<g id="XMLID_13_">
		<g id="XMLID_14_">
			<path id="XMLID_15_" d="M79.2,53.6h-3.9c-3.2,0-5.8,2.6-5.8,5.8v3.9c0,3.2,2.6,5.8,5.8,5.8h3.9c3.2,0,5.8-2.6,5.8-5.8v-3.9
				C85,56.2,82.4,53.6,79.2,53.6z M81.2,63.3c0,1.1-0.9,1.9-1.9,1.9h-3.9c-1.1,0-1.9-0.9-1.9-1.9v-3.9c0-1.1,0.9-1.9,1.9-1.9h3.9
				c1.1,0,1.9,0.9,1.9,1.9V63.3z"/>
		</g>
	</g>
</g>
</svg>
