<?xml version="1.0" encoding="utf-8"?>
<!-- Generator: Adobe Illustrator 19.0.0, SVG Export Plug-In . SVG Version: 6.00 Build 0)  -->
<svg version="1.1" id="Layer_1" xmlns="http://www.w3.org/2000/svg" xmlns:xlink="http://www.w3.org/1999/xlink" x="0px" y="0px"
	 viewBox="0 0 100 100" style="enable-background:new 0 0 100 100;" xml:space="preserve">
<g id="XMLID_22532_">
	<path id="XMLID_22539_" d="M33,63.7L33,63.7C33,63.7,33,63.7,33,63.7l49.6,0c1.2,0,2.3-0.8,2.6-2l10.9-38.3
		c0.2-0.8,0.1-1.7-0.4-2.4c-0.5-0.7-1.3-1.1-2.2-1.1H26.7l-2-8.8C24.4,9.9,23.3,9,22,9H5.6c-1.5,0-2.7,1.2-2.7,2.7s1.2,2.7,2.7,2.7
		h14.2c0.3,1.6,9.4,42.1,9.9,44.4c-2.9,1.3-4.9,4.2-4.9,7.5c0,4.5,3.7,8.2,8.2,8.2h49.6c1.5,0,2.7-1.2,2.7-2.7
		c0-1.5-1.2-2.7-2.7-2.7H33c-1.5,0-2.7-1.2-2.7-2.7C30.2,64.9,31.5,63.7,33,63.7z M89.8,25.4l-9.4,32.8H35.2l-7.3-32.8H89.8z"/>
	<path id="XMLID_22536_" d="M30.2,82.8c0,4.5,3.7,8.2,8.2,8.2s8.2-3.7,8.2-8.2c0-4.5-3.7-8.2-8.2-8.2S30.2,78.3,30.2,82.8z
		 M38.4,80.1c1.5,0,2.7,1.2,2.7,2.7c0,1.5-1.2,2.7-2.7,2.7s-2.7-1.2-2.7-2.7C35.7,81.3,36.9,80.1,38.4,80.1z"/>
	<path id="XMLID_22533_" d="M68.9,82.8c0,4.5,3.7,8.2,8.2,8.2c4.5,0,8.2-3.7,8.2-8.2c0-4.5-3.7-8.2-8.2-8.2
		C72.5,74.6,68.9,78.3,68.9,82.8z M77.1,80.1c1.5,0,2.7,1.2,2.7,2.7c0,1.5-1.2,2.7-2.7,2.7c-1.5,0-2.7-1.2-2.7-2.7
		C74.3,81.3,75.6,80.1,77.1,80.1z"/>
</g>
</svg>
