<?xml version="1.0" encoding="utf-8"?>
<!-- Generator: Adobe Illustrator 19.0.0, SVG Export Plug-In . SVG Version: 6.00 Build 0)  -->
<svg version="1.1" id="Layer_1" xmlns="http://www.w3.org/2000/svg" xmlns:xlink="http://www.w3.org/1999/xlink" x="0px" y="0px"
	 viewBox="0 0 100 100" style="enable-background:new 0 0 100 100;" xml:space="preserve">
<g id="XMLID_403_">
	<g id="XMLID_409_">
		<g id="XMLID_410_">
			<path id="XMLID_414_" d="M91.4,81.5L77.6,57.3c1.4-0.7,2.2-2.1,2.1-3.8l-1-8.6l5.9-6.1c1.3-1.3,1.4-3.5,0.1-5.1l-5.9-6.3l1.2-8.6
				c0.2-1.9-1.1-3.7-3-4.1L68.6,13l-4.1-7.5c-0.8-1.8-2.9-2.5-4.7-1.8h-0.1l-7.8,3.6l-7.6-3.7c-0.8-0.5-1.9-0.6-2.8-0.3
				c-0.9,0.3-1.7,0.9-2.1,1.8l-4.2,7.5l-8.5,1.5c-2,0.4-3.3,2.1-3.1,4.2l1,8.6L18.8,33c-1.3,1.3-1.4,3.5-0.1,5.1l5.9,6.3L23.4,53
				c-0.2,1.7,0.8,3.3,2.4,3.9L11.9,81.5c-0.4,0.6-0.3,1.3,0,1.9c0.4,0.6,0.9,0.9,1.6,0.9h14.9l6.8,11.8c0.4,0.6,0.9,0.9,1.6,0.9
				s1.3-0.4,1.6-0.9l13.3-22.7l13.3,23c0.4,0.6,0.9,0.9,1.6,0.9s1.3-0.4,1.6-0.9l6.8-12.1h14.9c0.7,0,1.3-0.4,1.6-0.9
				C91.8,82.8,91.8,82,91.4,81.5z M36.8,91.4l-5.8-9.9c-0.4-0.6-0.9-0.9-1.6-0.9H16.7l12.8-22.7l5.3,0.9l4.1,7.5
				c0.8,1.8,2.9,2.5,4.7,1.8h0.1l3.8-1.8l1.9,3.3L36.8,91.4z M42.2,64.7C42.1,64.7,42.1,64.7,42.2,64.7L38,57
				c-0.6-0.9-1.5-1.7-2.6-1.8l-8.6-1.6l1.2-8.6c0.2-1.1-0.2-2.3-0.9-3.1l-5.8-6.3l5.9-6.1c0.8-0.8,1.2-2,1-3.1l-1-8.5
				c0,0,0-0.1,0.1-0.2l8.5-1.5c1-0.2,2-0.8,2.6-1.9L42.6,7l7.6,3.7c1,0.6,2.3,0.6,3.3,0l7.7-3.5c0.1,0,0.1,0,0.1,0l4.1,7.7
				c0.6,0.9,1.5,1.7,2.5,1.8l8.5,1.7l-1.2,8.6C75,28,75.4,29.2,76.2,30l5.9,6.3l-5.9,6.1c-0.8,0.8-1.2,2-1,3.1l1,8.6l-8.4,1.4
				c-1,0.2-2,0.8-2.6,1.9l-4.2,7.5l-7.6-3.7c-1-0.6-2.3-0.6-3.3,0L42.2,64.7z M73.8,80.5c-0.7,0-1.3,0.4-1.6,0.9l-5.8,10.2L53.4,69
				c-0.1-0.3-0.2-0.5-0.4-0.7l-2-3.6l0.7-0.3l7.6,3.7c0.6,0.3,1.1,0.4,1.7,0.4c1.3,0,2.6-0.7,3.3-1.9l4.2-7.5l5.6-1l12.7,22.4H73.8z
				"/>
			<path id="XMLID_411_" d="M70.2,35.9c0-10.2-8.4-18.6-18.6-18.6S33,25.7,33,35.9s8.4,18.6,18.6,18.6S70.2,46.2,70.2,35.9z
				 M51.6,50.8c-8.2,0-14.9-6.7-14.9-14.9s6.7-14.9,14.9-14.9s14.9,6.7,14.9,14.9S59.8,50.8,51.6,50.8z"/>
		</g>
	</g>
</g>
</svg>
