<?xml version="1.0" encoding="utf-8"?>
<!-- Generator: Adobe Illustrator 19.0.0, SVG Export Plug-In . SVG Version: 6.00 Build 0)  -->
<svg version="1.1" id="Layer_1" xmlns="http://www.w3.org/2000/svg" xmlns:xlink="http://www.w3.org/1999/xlink" x="0px" y="0px"
	 viewBox="0 0 100 100" style="enable-background:new 0 0 100 100;" xml:space="preserve">
<g id="XMLID_4322_">
	<g id="XMLID_25_">
		<path id="XMLID_27_" d="M46.2,90.8c-23,0-41.7-18.7-41.7-41.7S23.2,7.5,46.2,7.5c8,0,15.8,2.3,22.5,6.6c1.3,0.8,1.7,2.6,0.9,3.9
			c-0.9,1.3-2.6,1.7-3.9,0.9c-5.8-3.7-12.5-5.7-19.4-5.7c-19.8,0-36,16.1-36,36c0,19.8,16.1,36,36,36c19.8,0,36-16.1,36-36
			c0-1.2-0.1-2.4-0.2-3.5c-0.2-1.6,1-3,2.6-3.1c1.6-0.1,3,1,3.1,2.6c0.1,1.3,0.2,2.7,0.2,4.1C87.9,72.1,69.2,90.8,46.2,90.8z"/>
		<path id="XMLID_26_" d="M50.9,58.6c-0.7,0-1.5-0.3-2-0.8l-17-17c-1.1-1.1-1.1-2.9,0-4c1.1-1.1,2.9-1.1,4,0l15,15l39.7-39.7
			c1.1-1.1,2.9-1.1,4,0c1.1,1.1,1.1,2.9,0,4L53,57.8C52.4,58.4,51.7,58.6,50.9,58.6z"/>
	</g>
</g>
</svg>
