<?xml version="1.0" encoding="utf-8"?>
<!-- Generator: Adobe Illustrator 19.0.0, SVG Export Plug-In . SVG Version: 6.00 Build 0)  -->
<svg version="1.1" id="Layer_1" xmlns="http://www.w3.org/2000/svg" xmlns:xlink="http://www.w3.org/1999/xlink" x="0px" y="0px"
	 viewBox="0 0 100 100" style="enable-background:new 0 0 100 100;" xml:space="preserve">
<style type="text/css">
	.st0{fill:#C4489A;}
	.st1{fill:#FDFEFF;}
</style>
<g id="XMLID_25558_">
	<circle id="XMLID_28025_" class="st0" cx="49.8" cy="50.6" r="47.6"/>
	<g id="XMLID_26965_">
		<g id="XMLID_26988_">
			<path id="XMLID_27225_" class="st1" d="M73.2,47.4c1.8-1.3,3-3.4,3-5.8c0-3.9-3.1-7-7-7c-3.9,0-7,3.1-7,7c0,2.4,1.2,4.5,3,5.8
				c-1.5,0.5-3,1.4-4.2,2.4c-1.6-1.4-3.6-2.5-5.7-3.1c2.6-1.6,4.3-4.4,4.3-7.6c0-4.9-4-8.9-8.9-8.9s-8.9,4-8.9,8.9
				c0,3.2,1.7,6.1,4.3,7.6c-2.1,0.6-4,1.7-5.7,3.1c-1.2-1-2.6-1.9-4.1-2.4c1.8-1.3,3-3.4,3-5.8c0-3.9-3.1-7-7-7s-7,3.1-7,7
				c0,2.4,1.2,4.5,3,5.8c-4.8,1.7-8.3,6.3-8.3,11.7v0.8c0,0,0,0,0,0h14.9c-0.1,0.7-0.1,1.4-0.1,2.1v0.8c0,3.6,2.9,6.5,6.5,6.5h18.9
				c3.6,0,6.5-2.9,6.5-6.5V62c0-0.7,0-1.4-0.1-2.1h15c0,0,0,0,0,0v-0.8C81.5,53.7,78,49.1,73.2,47.4z M64,41.6
				c0-2.8,2.3-5.1,5.1-5.1c2.8,0,5.1,2.3,5.1,5.1c0,2.8-2.2,5-5,5.1c0,0-0.1,0-0.1,0s-0.1,0-0.1,0C66.3,46.6,64,44.4,64,41.6z
				 M43.6,39.1c0-3.8,3.1-7,7-7s7,3.1,7,7c0,3.7-2.9,6.7-6.6,7c-0.1,0-0.3,0-0.4,0c-0.1,0-0.3,0-0.4,0
				C46.5,45.8,43.6,42.8,43.6,39.1z M27.1,41.6c0-2.8,2.3-5.1,5.1-5.1s5.1,2.3,5.1,5.1c0,2.8-2.2,5-5,5.1c0,0-0.1,0-0.1,0
				s-0.1,0-0.1,0C29.3,46.6,27.1,44.4,27.1,41.6z M35.2,58H21.8c0.5-5.2,4.9-9.3,10.3-9.3c0,0,0,0,0.1,0s0,0,0.1,0
				c2.5,0,4.9,1,6.7,2.5C37.1,53,35.8,55.4,35.2,58z M64.6,62.8c0,2.5-2,4.5-4.5,4.5H41.1c-2.5,0-4.5-2-4.5-4.5V62
				c0-7.6,6.1-13.8,13.6-14c0.1,0,0.3,0,0.4,0c0.1,0,0.3,0,0.4,0c7.5,0.2,13.6,6.4,13.6,14V62.8z M66,58c-0.7-2.6-2-4.9-3.7-6.8
				c1.8-1.6,4.1-2.5,6.7-2.5c0,0,0,0,0.1,0s0,0,0.1,0c5.3,0,9.7,4.1,10.3,9.3H66z"/>
		</g>
	</g>
</g>
</svg>
