<?xml version="1.0" encoding="utf-8"?>
<!-- Generator: Adobe Illustrator 19.0.0, SVG Export Plug-In . SVG Version: 6.00 Build 0)  -->
<svg version="1.1" id="Layer_1" xmlns="http://www.w3.org/2000/svg" xmlns:xlink="http://www.w3.org/1999/xlink" x="0px" y="0px"
	 viewBox="0 0 100 100" style="enable-background:new 0 0 100 100;" xml:space="preserve">
<g>
	<path id="XMLID_15742_" d="M48.7,4.1C24,4.1,3.9,24.2,3.9,48.9S24,93.7,48.7,93.7s44.8-20.1,44.8-44.8S73.4,4.1,48.7,4.1z
		 M48.7,88.1c-21.6,0-39.2-17.6-39.2-39.2S27.1,9.7,48.7,9.7s39.2,17.6,39.2,39.2S70.3,88.1,48.7,88.1L48.7,88.1z"/>
	<path id="XMLID_15735_" d="M51.5,20.9h-5.6v29.2l17.6,17.6l4-4l-16-16V20.9z"/>
	<path id="XMLID_15732_" d="M47.4,49.4l16.1,16.1l1.8-1.8L50,48.4v-26h-2.6V49.4z"/>
</g>
</svg>
