<?xml version="1.0" encoding="utf-8"?>
<!-- Generator: Adobe Illustrator 19.0.0, SVG Export Plug-In . SVG Version: 6.00 Build 0)  -->
<svg version="1.1" id="Layer_1" xmlns="http://www.w3.org/2000/svg" xmlns:xlink="http://www.w3.org/1999/xlink" x="0px" y="0px"
	 viewBox="0 0 100 100" style="enable-background:new 0 0 100 100;" xml:space="preserve">
<g id="XMLID_13855_">
	<path id="XMLID_13857_" d="M95.6,3.9c-1.5-1.5-3.9-1.5-5.3,0L4.4,89.7c-1.5,1.5-1.5,3.9,0,5.3c0.7,0.7,1.7,1.1,2.7,1.1
		c1,0,2-0.4,2.7-1.1L95.6,9.3C97,7.8,97,5.4,95.6,3.9"/>
	<path id="XMLID_13856_" d="M95.6,89.7L9.7,3.9c-1.5-1.5-3.9-1.5-5.3,0c-1.5,1.5-1.5,3.9,0,5.3l85.8,85.8c0.7,0.7,1.7,1.1,2.7,1.1
		s1.9-0.4,2.7-1.1C97,93.6,97,91.2,95.6,89.7"/>
</g>
</svg>
