<?xml version="1.0" encoding="utf-8"?>
<!-- Generator: Adobe Illustrator 19.0.0, SVG Export Plug-In . SVG Version: 6.00 Build 0)  -->
<svg version="1.1" id="Layer_1" xmlns="http://www.w3.org/2000/svg" xmlns:xlink="http://www.w3.org/1999/xlink" x="0px" y="0px"
	 viewBox="0 0 100 100" style="enable-background:new 0 0 100 100;" xml:space="preserve">
<g id="XMLID_34171_">
	<path id="XMLID_34184_" d="M43.1,3.9H7.5c-1.2,0-2.2,1-2.2,2.2v35.6c0,1.2,1,2.2,2.2,2.2h35.6c1.2,0,2.2-1,2.2-2.2V6.1
		C45.3,4.9,44.3,3.9,43.1,3.9z M41,39.5H9.6V8.2H41V39.5z"/>
	<path id="XMLID_34181_" d="M93.8,3.9H58.2c-1.2,0-2.2,1-2.2,2.2v35.6c0,1.2,1,2.2,2.2,2.2h35.6c1.2,0,2.2-1,2.2-2.2V6.1
		C96,4.9,95,3.9,93.8,3.9z M91.7,39.5H60.4V8.2h31.3L91.7,39.5L91.7,39.5z"/>
	<path id="XMLID_34178_" d="M43.1,54.6H7.5c-1.2,0-2.2,1-2.2,2.2v35.6c0,1.2,1,2.2,2.2,2.2h35.6c1.2,0,2.2-1,2.2-2.2V56.8
		C45.3,55.6,44.3,54.6,43.1,54.6z M41,90.3H9.6V58.9H41V90.3z"/>
	<path id="XMLID_34175_" d="M93.8,54.6H58.2c-1.2,0-2.2,1-2.2,2.2v35.6c0,1.2,1,2.2,2.2,2.2h35.6c1.2,0,2.2-1,2.2-2.2V56.8
		C96,55.6,95,54.6,93.8,54.6z M91.7,90.3H60.4V58.9h31.3L91.7,90.3L91.7,90.3z"/>
</g>
</svg>
