<?xml version="1.0" encoding="utf-8"?>
<!-- Generator: Adobe Illustrator 19.0.0, SVG Export Plug-In . SVG Version: 6.00 Build 0)  -->
<svg version="1.1" id="Layer_1" xmlns="http://www.w3.org/2000/svg" xmlns:xlink="http://www.w3.org/1999/xlink" x="0px" y="0px"
	 viewBox="0 0 100 100" style="enable-background:new 0 0 100 100;" xml:space="preserve">
<g id="XMLID_24280_">
	<g id="XMLID_24301_">
		<g id="XMLID_24302_">
			<path id="XMLID_24303_" d="M95,28.7H5.3c-1.1,0-2,0.9-2,2v11.7c0,1.1,0.9,2,2,2H95c1.1,0,2-0.9,2-2V30.7
				C97,29.6,96.1,28.7,95,28.7z M93.1,40.5H7.2v-7.8h85.8L93.1,40.5L93.1,40.5z"/>
		</g>
	</g>
	<g id="XMLID_24281_">
		<g id="XMLID_24296_">
			<g id="XMLID_24297_">
				<path id="XMLID_24298_" d="M87.2,17H13.1c-5.4,0-9.8,4.4-9.8,9.8v42.9c0,5.4,4.4,9.8,9.8,9.8h74.1c5.4,0,9.8-4.4,9.8-9.8V26.8
					C97,21.4,92.6,17,87.2,17z M93.1,69.7c0,3.2-2.6,5.9-5.9,5.9H13.1c-3.2,0-5.9-2.6-5.9-5.9V26.8c0-3.2,2.6-5.9,5.9-5.9h74.1
					c3.2,0,5.9,2.6,5.9,5.9L93.1,69.7L93.1,69.7z"/>
			</g>
		</g>
		<g id="XMLID_24293_">
			<g id="XMLID_24294_">
				<path id="XMLID_24295_" d="M40.4,56.1H17c-1.1,0-2,0.9-2,2s0.9,2,2,2h23.4c1.1,0,2-0.9,2-2S41.5,56.1,40.4,56.1z"/>
			</g>
		</g>
		<g id="XMLID_24290_">
			<g id="XMLID_24291_">
				<path id="XMLID_24292_" d="M40.4,63.9H17c-1.1,0-2,0.9-2,2s0.9,2,2,2h23.4c1.1,0,2-0.9,2-2C42.3,64.7,41.5,63.9,40.4,63.9z"/>
			</g>
		</g>
		<g id="XMLID_24282_">
			<g id="XMLID_24283_">
				<path id="XMLID_24284_" d="M79.4,52.2h-3.9c-3.2,0-5.9,2.6-5.9,5.9v3.9c0,3.2,2.6,5.9,5.9,5.9h3.9c3.2,0,5.9-2.6,5.9-5.9V58
					C85.3,54.8,82.6,52.2,79.4,52.2z M81.4,61.9c0,1.1-0.9,2-2,2h-3.9c-1.1,0-2-0.9-2-2V58c0-1.1,0.9-2,2-2h3.9c1.1,0,2,0.9,2,2
					V61.9z"/>
			</g>
		</g>
	</g>
</g>
</svg>
