<?xml version="1.0" encoding="utf-8"?>
<!-- Generator: Adobe Illustrator 19.0.0, SVG Export Plug-In . SVG Version: 6.00 Build 0)  -->
<svg version="1.1" id="Layer_1" xmlns="http://www.w3.org/2000/svg" xmlns:xlink="http://www.w3.org/1999/xlink" x="0px" y="0px"
	 viewBox="0 0 100 100" style="enable-background:new 0 0 100 100;" xml:space="preserve">
<style type="text/css">
	.st0{fill:#020202;}
</style>
<g id="XMLID_13736_">
	<path id="XMLID_13739_" class="st0" d="M76.6,15.9H62.7c-0.7-6-5.8-10.7-12-10.7c-6.2,0-11.4,4.7-12,10.7H24.7
		c-5.6,0-10.2,4.6-10.2,10.2v0.5c0,4.3,2.7,8,6.5,9.5v48.3c0,5.7,4.6,10.2,10.2,10.2h39c5.6,0,10.2-4.6,10.2-10.2V36.1
		c3.8-1.5,6.5-5.2,6.5-9.5v-0.5C86.8,20.5,82.3,15.9,76.6,15.9 M50.7,10c3.5,0,6.5,2.5,7.1,5.9H43.5C44.2,12.5,47.1,10,50.7,10
		 M75.5,84.4c0,3-2.4,5.4-5.4,5.4h-39c-3,0-5.4-2.4-5.4-5.4V36.9h49.8V84.4z M82,26.6c0,3-2.4,5.4-5.4,5.4H24.7
		c-3,0-5.4-2.4-5.4-5.4v-0.5c0-3,2.4-5.4,5.4-5.4h51.9c3,0,5.4,2.4,5.4,5.4V26.6z"/>
	<path id="XMLID_13738_" class="st0" d="M43.8,79.2c1.3,0,2.4-1.1,2.4-2.4V49.5c0-1.3-1.1-2.4-2.4-2.4c-1.4,0-2.4,1.1-2.4,2.4v27.3
		C41.4,78.1,42.5,79.2,43.8,79.2"/>
	<path id="XMLID_13737_" class="st0" d="M59.3,79.2c1.3,0,2.4-1.1,2.4-2.4V49.5c0-1.3-1.1-2.4-2.4-2.4c-1.4,0-2.4,1.1-2.4,2.4v27.3
		C56.8,78.1,57.9,79.2,59.3,79.2"/>
</g>
</svg>
