<?xml version="1.0" encoding="utf-8"?>
<!-- Generator: Adobe Illustrator 19.0.0, SVG Export Plug-In . SVG Version: 6.00 Build 0)  -->
<svg version="1.1" id="Layer_1" xmlns="http://www.w3.org/2000/svg" xmlns:xlink="http://www.w3.org/1999/xlink" x="0px" y="0px"
	 viewBox="0 0 100 100" style="enable-background:new 0 0 100 100;" xml:space="preserve">
<g id="XMLID_20393_">
	<g id="XMLID_20423_">
		<g id="XMLID_20424_">
			<g id="XMLID_20425_">
				<path id="XMLID_20433_" d="M95,9c0-1.7-0.6-3.2-1.8-4.4c-1.2-1.2-2.8-1.8-4.4-1.8c-1.7,0-3.2,0.7-4.4,1.8
					c-0.5,0.5-1.4,1.6-1.9,2.2c-0.5,0.6-0.4,1.6,0.2,2.1c0.6,0.5,1.6,0.4,2.1-0.2c0.8-0.9,1.4-1.7,1.7-2c0.6-0.6,1.5-1,2.3-1
					c0,0,0,0,0,0c0.9,0,1.7,0.3,2.3,0.9C91.7,7.3,92,8.1,92,9c0,0.9-0.4,1.7-1,2.3c-0.6,0.6-2.5,2.1-5.2,4c-1.6-2.8-4.7-4.7-8.1-4.7
					H55.9c-2.9,0-5.7,1.1-7.8,3.2L4.7,57.4c-0.9,0.9-1.4,2-1.4,3.3c0,1.2,0.5,2.4,1.4,3.3l29.1,29.1c0.9,0.9,2.1,1.4,3.3,1.4
					c1.2,0,2.4-0.5,3.3-1.4l43.5-43.5c2.1-2.1,3.2-4.8,3.2-7.8V20.1c0-0.6-0.1-1.3-0.2-1.9c3.1-2.2,5.4-4,6.3-4.8
					C94.3,12.2,95,10.7,95,9z M84.1,41.8c0,2.1-0.8,4.2-2.3,5.7L38.3,91c-0.7,0.7-1.7,0.7-2.4,0L6.8,61.8c-0.3-0.3-0.5-0.7-0.5-1.2
					s0.2-0.9,0.5-1.2L50.3,16c1.5-1.5,3.5-2.3,5.7-2.3h21.7c2.4,0,4.6,1.4,5.7,3.4c-1.8,1.2-3.7,2.4-5.8,3.6
					c-0.1-0.1-0.1-0.1-0.2-0.2c-2.4-2.4-6.4-2.4-8.8,0s-2.4,6.4,0,8.8c1.2,1.2,2.8,1.8,4.4,1.8c1.6,0,3.2-0.6,4.4-1.8
					c1.6-1.6,2.2-3.9,1.6-6c1.8-1.1,3.6-2.1,5.2-3.2l0,0L84.1,41.8L84.1,41.8z M71.6,25.5c0.3,0.5,0.8,0.8,1.3,0.8
					c0.2,0,0.5-0.1,0.7-0.2c0.9-0.4,1.7-0.9,2.6-1.4c0,0.8-0.3,1.7-1,2.3c-1.3,1.3-3.3,1.3-4.6,0c-1.3-1.3-1.3-3.3,0-4.6
					c0.6-0.6,1.5-1,2.3-1c0.7,0,1.3,0.2,1.9,0.6c-0.8,0.5-1.7,0.9-2.6,1.3C71.5,23.9,71.2,24.8,71.6,25.5z"/>
				<path id="XMLID_20426_" d="M37.1,94.9c-1.4,0-2.7-0.5-3.6-1.5L4.3,64.3c-1-1-1.5-2.3-1.5-3.6c0-1.4,0.5-2.7,1.5-3.6l43.5-43.5
					c2.2-2.2,5.1-3.4,8.1-3.4h21.7c3.3,0,6.4,1.7,8.3,4.5c2.4-1.7,4.2-3.1,4.8-3.7c0.5-0.5,0.8-1.2,0.8-2c0-0.7-0.3-1.4-0.8-2
					c-1.1-1.1-2.9-1-3.9,0c-0.3,0.3-0.9,1-1.7,1.9c-0.3,0.4-0.8,0.7-1.3,0.7c-0.5,0.1-1-0.1-1.5-0.5c-0.4-0.3-0.7-0.8-0.7-1.3
					c-0.1-0.5,0.1-1,0.5-1.5C82.4,6,83.4,4.8,84,4.2c1.3-1.3,3-2,4.8-2c0,0,0,0,0,0c1.8,0,3.5,0.7,4.7,2c1.3,1.3,2,3,2,4.8v0
					c0,1.8-0.7,3.5-2,4.8c-0.8,0.7-2.9,2.5-6.1,4.6c0.1,0.5,0.1,1.1,0.1,1.7v21.7c0,3.1-1.2,6-3.4,8.1L40.8,93.4
					C39.8,94.4,38.5,94.9,37.1,94.9z M55.9,11.2c-2.8,0-5.4,1.1-7.4,3.1L5.1,57.7c-0.8,0.8-1.2,1.8-1.2,2.9c0,1.1,0.4,2.2,1.2,2.9
					l29.1,29.1c1.6,1.6,4.3,1.6,5.9,0l43.5-43.5c2-2,3.1-4.6,3.1-7.4V20.1c0-0.6-0.1-1.2-0.2-1.8L86.3,18l0.3-0.2
					c3.2-2.2,5.4-4,6.2-4.7c1.1-1.1,1.7-2.5,1.7-4.1c0-1.5-0.6-3-1.7-4.1c-1.1-1.1-2.5-1.7-4-1.7c0,0,0,0,0,0c-1.5,0-3,0.6-4.1,1.7
					c-0.5,0.5-1.6,1.8-1.9,2.2c-0.2,0.2-0.3,0.5-0.2,0.7c0,0.3,0.1,0.5,0.4,0.7c0.2,0.2,0.4,0.3,0.7,0.2c0.3,0,0.5-0.1,0.7-0.4
					c0.8-1,1.4-1.7,1.8-2c1.4-1.4,3.9-1.4,5.4,0C92.1,7,92.5,8,92.5,9c0,1-0.4,2-1.1,2.7c-0.6,0.6-2.5,2.1-5.3,4.1l-0.4,0.3
					l-0.3-0.5c-1.6-2.7-4.5-4.4-7.7-4.4H55.9z M37.1,92c-0.6,0-1.1-0.2-1.5-0.6L6.4,62.2c-0.4-0.4-0.6-1-0.6-1.5
					c0-0.6,0.2-1.1,0.6-1.5l43.5-43.5c1.6-1.6,3.8-2.5,6-2.5h21.7c2.5,0,4.9,1.4,6.1,3.6l0.2,0.4l-0.4,0.3c-2,1.3-3.9,2.5-5.8,3.6
					l-0.4,0.2L77.2,21c-0.1-0.1-0.1-0.1-0.2-0.2c-2.2-2.2-5.9-2.2-8.1,0c-1.1,1.1-1.7,2.5-1.7,4.1c0,1.5,0.6,3,1.7,4.1
					c1.1,1.1,2.5,1.7,4.1,1.7c1.5,0,3-0.6,4.1-1.7c1.4-1.4,2-3.5,1.5-5.5L78.4,23l0.3-0.2c1.7-1,3.4-2.1,5.1-3.2l0.3-0.2l0.4,0.4
					l0,0.2v21.7c0,2.3-0.9,4.4-2.5,6L38.7,91.3C38.2,91.7,37.7,92,37.1,92z M55.9,14.1c-2,0-3.9,0.8-5.3,2.2L7.1,59.8
					c-0.2,0.2-0.3,0.5-0.3,0.8c0,0.3,0.1,0.6,0.3,0.8l29.1,29.1c0.5,0.5,1.2,0.5,1.7,0l43.5-43.5c1.4-1.4,2.2-3.3,2.2-5.3V21
					c-1.4,0.9-2.7,1.7-4.1,2.5c0.4,2.2-0.2,4.5-1.8,6.1c-1.3,1.3-3,2-4.8,2c-1.8,0-3.5-0.7-4.8-2c-2.6-2.6-2.6-6.9,0-9.5
					c2.6-2.6,6.8-2.6,9.5-0.1c1.7-1,3.4-2,5-3.1c-1.1-1.7-3-2.7-5-2.7H55.9z M72.9,28.6C72.9,28.6,72.9,28.6,72.9,28.6
					c-1,0-1.9-0.4-2.7-1.1c-0.7-0.7-1.1-1.7-1.1-2.7c0-1,0.4-1.9,1.1-2.7c1.2-1.3,3.4-1.4,4.8-0.4l0.7,0.5l-0.7,0.4
					c-0.8,0.5-1.7,0.9-2.6,1.3c-0.2,0.1-0.4,0.3-0.5,0.6c-0.1,0.3-0.1,0.5,0.1,0.8c0.2,0.5,0.9,0.7,1.3,0.4c0.9-0.4,1.7-0.9,2.6-1.4
					l0.7-0.4l0,0.8c0,1-0.4,2-1.1,2.7C74.9,28.2,73.9,28.6,72.9,28.6z M72.9,22.1c-0.7,0-1.4,0.3-2,0.8c-0.5,0.5-0.8,1.2-0.8,2
					c0,0.7,0.3,1.4,0.8,2c0.5,0.5,1.2,0.8,2,0.8l0,0c0.7,0,1.4-0.3,2-0.8c0.3-0.3,0.5-0.7,0.7-1.1c-0.6,0.3-1.2,0.6-1.7,0.9
					c-1,0.5-2.2,0.1-2.7-0.9v0c-0.2-0.5-0.3-1-0.1-1.5s0.5-0.9,1-1.1c0.6-0.3,1.1-0.6,1.7-0.9C73.5,22.1,73.2,22.1,72.9,22.1z"/>
			</g>
		</g>
	</g>
	<g id="XMLID_20416_">
		<g id="XMLID_20417_">
			<g id="XMLID_20418_">
				<path id="XMLID_20422_" d="M47.6,33c-0.8,0-1.5,0.7-1.5,1.5v31.4c0,0.8,0.7,1.5,1.5,1.5s1.5-0.7,1.5-1.5V34.5
					C49.1,33.7,48.4,33,47.6,33z"/>
				<path id="XMLID_20419_" d="M47.6,67.8c-1.1,0-2-0.9-2-2V34.5c0-1.1,0.9-2,2-2s2,0.9,2,2v31.4C49.6,66.9,48.7,67.8,47.6,67.8z
					 M47.6,33.5c-0.5,0-1,0.4-1,1v31.4c0,0.5,0.4,1,1,1s1-0.4,1-1V34.5C48.6,33.9,48.1,33.5,47.6,33.5z"/>
			</g>
		</g>
	</g>
	<g id="XMLID_20405_">
		<g id="XMLID_20406_">
			<g id="XMLID_20407_">
				<path id="XMLID_20413_" d="M40.8,45.8c-2.4-2.4-6.4-2.4-8.8,0c-2.4,2.4-2.4,6.4,0,8.8c1.2,1.2,2.8,1.8,4.4,1.8
					c1.6,0,3.2-0.6,4.4-1.8c1.2-1.2,1.8-2.7,1.8-4.4C42.6,48.5,42,46.9,40.8,45.8z M38.7,52.5c-1.3,1.3-3.3,1.3-4.6,0
					c-1.3-1.3-1.3-3.3,0-4.6c0.6-0.6,1.5-1,2.3-1c0.8,0,1.7,0.3,2.3,1c0.6,0.6,1,1.4,1,2.3C39.7,51,39.3,51.9,38.7,52.5z"/>
				<path id="XMLID_20408_" d="M36.4,56.9c-1.8,0-3.5-0.7-4.8-2c-1.3-1.3-2-3-2-4.8c0-1.8,0.7-3.5,2-4.8c2.6-2.6,6.9-2.6,9.5,0l0,0
					c1.3,1.3,2,3,2,4.8c0,1.8-0.7,3.5-2,4.8C39.9,56.2,38.2,56.9,36.4,56.9z M36.4,44.4c-1.5,0-2.9,0.6-4.1,1.7
					c-1.1,1.1-1.7,2.5-1.7,4.1c0,1.5,0.6,3,1.7,4.1c1.1,1.1,2.5,1.7,4.1,1.7c1.5,0,3-0.6,4.1-1.7c1.1-1.1,1.7-2.5,1.7-4.1
					c0-1.5-0.6-3-1.7-4.1h0C39.3,45,37.9,44.4,36.4,44.4z M36.4,53.9c-1,0-1.9-0.4-2.7-1.1c-1.5-1.5-1.5-3.9,0-5.3
					c1.4-1.4,3.9-1.4,5.3,0c0.7,0.7,1.1,1.7,1.1,2.7c0,1-0.4,1.9-1.1,2.7C38.3,53.6,37.3,53.9,36.4,53.9z M36.4,47.4
					c-0.7,0-1.4,0.3-2,0.8c-1.1,1.1-1.1,2.8,0,3.9c1.1,1.1,2.8,1.1,3.9,0c0.5-0.5,0.8-1.2,0.8-2c0-0.7-0.3-1.4-0.8-2
					C37.8,47.7,37.1,47.4,36.4,47.4z"/>
			</g>
		</g>
	</g>
	<g id="XMLID_20394_">
		<g id="XMLID_20395_">
			<g id="XMLID_20396_">
				<path id="XMLID_20402_" d="M63.2,45.8c-2.4-2.4-6.4-2.4-8.8,0c-2.4,2.4-2.4,6.4,0,8.8c1.2,1.2,2.8,1.8,4.4,1.8
					c1.6,0,3.2-0.6,4.4-1.8C65.6,52.2,65.6,48.2,63.2,45.8z M61.1,52.5c-1.3,1.3-3.3,1.3-4.6,0c-1.3-1.3-1.3-3.3,0-4.6
					c0.6-0.6,1.5-1,2.3-1c0.8,0,1.7,0.3,2.3,1C62.4,49.1,62.4,51.2,61.1,52.5z"/>
				<path id="XMLID_20397_" d="M58.8,56.9c-1.8,0-3.5-0.7-4.8-2c-1.3-1.3-2-3-2-4.8c0-1.8,0.7-3.5,2-4.8c2.6-2.6,6.9-2.6,9.5,0l0,0
					c1.3,1.3,2,3,2,4.8c0,1.8-0.7,3.5-2,4.8C62.3,56.2,60.6,56.9,58.8,56.9z M58.8,44.4c-1.5,0-2.9,0.6-4.1,1.7
					c-1.1,1.1-1.7,2.5-1.7,4.1c0,1.5,0.6,3,1.7,4.1c1.1,1.1,2.5,1.7,4.1,1.7s3-0.6,4.1-1.7c1.1-1.1,1.7-2.5,1.7-4.1
					c0-1.5-0.6-3-1.7-4.1h0C61.7,45,60.3,44.4,58.8,44.4z M58.8,53.9c-1,0-1.9-0.4-2.7-1.1c-1.5-1.5-1.5-3.9,0-5.3
					c1.4-1.4,3.9-1.4,5.3,0c1.5,1.5,1.5,3.9,0,5.3C60.7,53.6,59.8,53.9,58.8,53.9z M58.8,47.4c-0.7,0-1.4,0.3-2,0.8
					c-1.1,1.1-1.1,2.8,0,3.9c1.1,1.1,2.8,1.1,3.9,0c1.1-1.1,1.1-2.8,0-3.9C60.2,47.7,59.5,47.4,58.8,47.4z"/>
			</g>
		</g>
	</g>
</g>
</svg>
