<?xml version="1.0" encoding="utf-8"?>
<!-- Generator: Adobe Illustrator 19.0.0, SVG Export Plug-In . SVG Version: 6.00 Build 0)  -->
<svg version="1.1" id="Layer_1" xmlns="http://www.w3.org/2000/svg" xmlns:xlink="http://www.w3.org/1999/xlink" x="0px" y="0px"
	 viewBox="0 0 100 100" style="enable-background:new 0 0 100 100;" xml:space="preserve">
<g id="XMLID_12712_">
	<g id="XMLID_25_">
		<g id="XMLID_26_">
			<path id="XMLID_27_" d="M54.8,45.6h-9.6c-5.5,0-9.9-4.4-9.9-9.9c0-5.5,4.4-9.9,9.9-9.9h19.2c2.5,0,4.5-2,4.5-4.5s-2-4.5-4.5-4.5
				h-9.9V7c0-2.5-2-4.5-4.5-4.5s-4.5,2-4.5,4.5v9.9h-0.3c-10.4,0-18.8,8.5-18.8,18.8s8.5,18.8,18.8,18.8h9.6c5.5,0,9.9,4.4,9.9,9.9
				c0,5.5-4.4,9.9-9.9,9.9H35.6c-2.5,0-4.5,2-4.5,4.5c0,2.5,2,4.5,4.5,4.5h9.9v9.9c0,2.5,2,4.5,4.5,4.5s4.5-2,4.5-4.5v-9.9h0.3
				c10.4,0,18.8-8.5,18.8-18.8S65.2,45.6,54.8,45.6z"/>
		</g>
	</g>
</g>
</svg>
