<?xml version="1.0" encoding="utf-8"?>
<!-- Generator: Adobe Illustrator 19.0.0, SVG Export Plug-In . SVG Version: 6.00 Build 0)  -->
<svg version="1.1" id="Layer_1" xmlns="http://www.w3.org/2000/svg" xmlns:xlink="http://www.w3.org/1999/xlink" x="0px" y="0px"
	 viewBox="0 0 100 100" style="enable-background:new 0 0 100 100;" xml:space="preserve">
<path id="XMLID_17998_" d="M45.6,92.3c0.9,0.9,2.1,1.4,3.3,1.4c1.2,0,2.4-0.4,3.3-1.4l29.5-29.5c1.8-1.8,1.8-4.8,0-6.6
	c-1.8-1.8-4.8-1.8-6.6,0L53.5,77.8V8.8c0-2.6-2.1-4.6-4.6-4.6c-2.6,0-4.6,2.1-4.6,4.6v68.9L22.6,56.2c-1.8-1.8-4.7-1.8-6.6,0
	c-1.8,1.8-1.8,4.8,0,6.6L45.6,92.3z"/>
</svg>
