<?xml version="1.0" encoding="utf-8"?>
<!-- Generator: Adobe Illustrator 19.0.0, SVG Export Plug-In . SVG Version: 6.00 Build 0)  -->
<svg version="1.1" id="Layer_1" xmlns="http://www.w3.org/2000/svg" xmlns:xlink="http://www.w3.org/1999/xlink" x="0px" y="0px"
	 viewBox="0 0 100 100" style="enable-background:new 0 0 100 100;" xml:space="preserve">
<path id="XMLID_8889_" d="M47.1,93.4c0.9,0.9,2.1,1.4,3.3,1.4c1.2,0,2.4-0.5,3.3-1.4l30-30c1.9-1.9,1.9-4.8,0-6.7
	c-1.9-1.9-4.8-1.9-6.7,0l-22,22V8.5c0-2.6-2.1-4.7-4.7-4.7c-2.6,0-4.7,2.1-4.7,4.7v70.2l-22-22c-1.9-1.9-4.8-1.9-6.7,0
	c-1.9,1.9-1.9,4.8,0,6.7L47.1,93.4z"/>
</svg>
