<?xml version="1.0" encoding="utf-8"?>
<!-- Generator: Adobe Illustrator 19.0.0, SVG Export Plug-In . SVG Version: 6.00 Build 0)  -->
<svg version="1.1" id="Layer_1" xmlns="http://www.w3.org/2000/svg" xmlns:xlink="http://www.w3.org/1999/xlink" x="0px" y="0px"
	 viewBox="0 0 100 100" style="enable-background:new 0 0 100 100;" xml:space="preserve">
<g id="XMLID_13746_">
	<path id="XMLID_13747_" d="M89.4,9.8C81.6,2,68.9,2,61.1,9.8L9.1,61.7c-0.4,0.4-0.7,0.9-0.7,1.5L4.5,91.7c-0.1,0.8,0.2,1.6,0.7,2.2
		c0.5,0.5,1.2,0.8,1.8,0.8c0.1,0,0.2,0,0.3,0l17.2-2.3c1.4-0.2,2.4-1.5,2.2-2.9c-0.2-1.4-1.5-2.4-2.9-2.2L10.2,89l2.7-19.9L33.8,90
		c0.5,0.5,1.2,0.8,1.8,0.8c0.7,0,1.4-0.3,1.8-0.8l52-51.9c3.8-3.8,5.9-8.8,5.9-14.2S93.2,13.6,89.4,9.8z M62.1,16.2l8.7,8.7
		L23.4,72.3l-8.7-8.7L62.1,16.2z M35.6,84.5L27.1,76l47.4-47.4l8.5,8.5L35.6,84.5z M86.7,33.4L65.8,12.5c2.6-2.2,6-3.4,9.4-3.4
		c4,0,7.7,1.6,10.5,4.3c2.8,2.8,4.3,6.5,4.3,10.5C90.1,27.4,88.9,30.7,86.7,33.4z"/>
</g>
</svg>
