<?xml version="1.0" encoding="utf-8"?>
<!-- Generator: Adobe Illustrator 19.0.0, SVG Export Plug-In . SVG Version: 6.00 Build 0)  -->
<svg version="1.1" id="Layer_1" xmlns="http://www.w3.org/2000/svg" xmlns:xlink="http://www.w3.org/1999/xlink" x="0px" y="0px"
	 viewBox="0 0 100 100" style="enable-background:new 0 0 100 100;" xml:space="preserve">
<g id="XMLID_3791_">
	<g id="XMLID_4071_">
		<g id="XMLID_4158_">
			<path id="XMLID_4162_" d="M77.5,67.1c-0.4,0-0.7-0.1-1-0.4L60.1,51.3c-0.6-0.5-0.6-1.4-0.1-2c0.5-0.6,1.4-0.6,2-0.1l16.4,15.4
				c0.6,0.5,0.6,1.4,0.1,2C78.3,67,77.9,67.1,77.5,67.1z"/>
			<path id="XMLID_4159_" d="M77.5,68c-0.6,0-1.2-0.2-1.6-0.6L59.5,52c-0.9-0.9-1-2.3-0.1-3.2c0.9-0.9,2.3-1,3.2-0.1L79.1,64
				c0.4,0.4,0.7,1,0.7,1.6c0,0.6-0.2,1.2-0.6,1.6C78.8,67.7,78.2,68,77.5,68z M61.1,49.7c-0.1,0-0.3,0.1-0.4,0.2
				c-0.2,0.2-0.2,0.6,0,0.8l16.4,15.4c0.3,0.3,0.6,0.2,0.8,0c0.1-0.1,0.2-0.3,0.2-0.4c0-0.1-0.1-0.3-0.2-0.4L61.5,49.9
				C61.4,49.8,61.3,49.7,61.1,49.7z"/>
		</g>
		<g id="XMLID_4072_">
			<path id="XMLID_4076_" d="M22.7,67.1c-0.4,0-0.8-0.2-1-0.5c-0.5-0.6-0.5-1.5,0.1-2l16.4-15.4c0.6-0.5,1.5-0.5,2,0.1
				c0.5,0.6,0.5,1.5-0.1,2L23.7,66.7C23.4,67,23.1,67.1,22.7,67.1z"/>
			<path id="XMLID_4073_" d="M22.7,68c-0.6,0-1.2-0.3-1.7-0.7c-0.9-0.9-0.8-2.4,0.1-3.2l16.4-15.4c0.4-0.4,1.1-0.7,1.6-0.6
				c0.6,0,1.2,0.3,1.6,0.7c0.9,0.9,0.8,2.4-0.1,3.2L24.3,67.4C23.9,67.8,23.3,68,22.7,68z M39.2,49.7c-0.1,0-0.3,0.1-0.4,0.2
				L22.4,65.3c-0.1,0.1-0.2,0.2-0.2,0.4c0,0.1,0,0.3,0.1,0.4c0.2,0.2,0.6,0.2,0.8,0l16.4-15.4c0.2-0.2,0.2-0.6,0-0.8
				C39.5,49.8,39.3,49.7,39.2,49.7z"/>
		</g>
	</g>
	<g id="XMLID_3868_">
		<path id="XMLID_4068_" d="M87.2,81.5H13c-3.9,0-7.1-3.2-7.1-7.1V25.7c0-3.9,3.2-7.1,7.1-7.1h74.2c3.9,0,7.1,3.2,7.1,7.1v48.6
			C94.4,78.2,91.2,81.5,87.2,81.5z M13,21.4c-2.4,0-4.3,1.9-4.3,4.3v48.6c0,2.4,1.9,4.3,4.3,4.3h74.2c2.4,0,4.3-1.9,4.3-4.3V25.7
			c0-2.4-1.9-4.3-4.3-4.3H13z"/>
		<path id="XMLID_4063_" d="M87.2,82.3H13c-4.4,0-8-3.6-8-8V25.7c0-4.4,3.6-8,8-8h74.2c4.4,0,8,3.6,8,8v48.6
			C95.3,78.7,91.7,82.3,87.2,82.3z M13,19.4c-3.5,0-6.3,2.8-6.3,6.3v48.6c0,3.4,2.8,6.3,6.3,6.3h74.2c3.5,0,6.3-2.8,6.3-6.3V25.7
			c0-3.5-2.8-6.3-6.3-6.3H13z M87.2,79.5H13c-2.8,0-5.2-2.3-5.2-5.1V25.7c0-2.8,2.3-5.2,5.2-5.2h74.2c2.8,0,5.2,2.3,5.2,5.2v48.6
			C92.4,77.2,90.1,79.5,87.2,79.5z M13,22.3c-1.9,0-3.4,1.5-3.4,3.4v48.6c0,1.9,1.5,3.4,3.4,3.4h74.2c1.9,0,3.4-1.5,3.4-3.4V25.7
			c0-1.9-1.5-3.4-3.4-3.4H13z"/>
	</g>
	<g id="XMLID_3792_">
		<path id="XMLID_3840_" d="M50.1,57.2c-1.9,0-3.8-0.6-5.2-1.9l-36.6-32c-0.6-0.5-0.7-1.4-0.1-2c0.5-0.6,1.4-0.7,2-0.1l36.6,32
			c1.8,1.6,4.9,1.6,6.7,0l36.6-31.9c0.6-0.5,1.5-0.5,2,0.1c0.5,0.6,0.5,1.5-0.1,2L55.4,55.3C53.9,56.5,52,57.2,50.1,57.2z"/>
		<path id="XMLID_3793_" d="M50.1,58c-2.2,0-4.2-0.7-5.8-2.1L7.7,24c-0.5-0.4-0.7-1-0.8-1.6c0-0.6,0.2-1.2,0.6-1.7
			c0.8-0.9,2.3-1,3.2-0.2l36.6,32c1.5,1.3,4.1,1.3,5.6,0l36.6-31.9c0.9-0.8,2.4-0.7,3.2,0.2c0.8,1,0.7,2.4-0.2,3.3L55.9,55.9
			C54.4,57.3,52.3,58,50.1,58z M9.2,21.7c-0.2,0-0.3,0.1-0.4,0.2c-0.1,0.1-0.1,0.3-0.1,0.4c0,0.1,0.1,0.3,0.2,0.4l36.6,32
			c2.5,2.1,6.9,2.1,9.3,0l36.6-31.9c0.2-0.2,0.3-0.6,0.1-0.8c-0.2-0.2-0.6-0.2-0.8,0L54.1,53.8c-2.2,1.9-5.7,1.9-7.9,0l-36.6-32
			C9.5,21.7,9.3,21.7,9.2,21.7z"/>
	</g>
</g>
</svg>
