<?xml version="1.0" encoding="utf-8"?>
<!-- Generator: Adobe Illustrator 19.0.0, SVG Export Plug-In . SVG Version: 6.00 Build 0)  -->
<svg version="1.1" id="Layer_1" xmlns="http://www.w3.org/2000/svg" xmlns:xlink="http://www.w3.org/1999/xlink" x="0px" y="0px"
	 viewBox="0 0 100 100" style="enable-background:new 0 0 100 100;" xml:space="preserve">
<g id="XMLID_28616_" transform="translate(0,-952.36218)">
	<g id="XMLID_67_">
		<path id="XMLID_68_" d="M10.8,955.7c-1.1,0.1-1.9,1.1-1.9,2.1v88.7c0,1.1,1,2.1,2.1,2.1h37.4c1.1,0,2.2-1,2.2-2.1
			c0-1.1-1-2.2-2.2-2.1H13.1V960h55.6v35.3c0,1.1,1,2.2,2.1,2.2c1.1,0,2.2-1,2.1-2.2v-37.4c0-1.1-1-2.1-2.1-2.1
			C50.8,955.7,30.8,955.7,10.8,955.7z M26.8,972.8c-1.1,0.1-2.1,1.1-2,2.2c0.1,1.1,1.1,2.1,2.2,2h31c1.1,0,2.2-1,2.2-2.1
			c0-1.1-1-2.2-2.2-2.1C47.6,972.8,37.2,972.8,26.8,972.8z M26.8,985.6c-1.1,0.1-2.1,1.1-2,2.2c0.1,1.1,1.1,2.1,2.2,2h31
			c1.1,0,2.2-1,2.2-2.1c0-1.1-1-2.2-2.2-2.1C47.6,985.6,37.2,985.6,26.8,985.6z M26.8,996.3c-1.1,0-2.1,1.1-2,2.2
			c0.1,1.1,1.1,2.1,2.2,2h20.3c1.1,0,2.2-1,2.2-2.1s-1-2.2-2.2-2.1C40.5,996.3,33.6,996.3,26.8,996.3z M70.8,1002.7
			c-12.8,0-23.5,10.5-23.5,23.5c0,13,10.7,23.5,23.5,23.5s23.5-10.5,23.5-23.5C94.3,1013.2,83.6,1002.7,70.8,1002.7z M70.8,1007
			c10.5,0,19.3,8.6,19.3,19.2c0,10.6-8.8,19.2-19.3,19.2s-19.2-8.6-19.2-19.2C51.6,1015.6,60.3,1007,70.8,1007z M70.6,1014.4
			c-1.1,0.1-1.9,1.1-1.9,2.2v7.5c-2.6,0-5.1,0-7.7,0c-1.1,0.1-2.1,1.1-2,2.2c0.1,1.1,1.1,2.1,2.2,2h7.5v7.5c0,1.1,1,2.2,2.1,2.2
			c1.1,0,2.2-1,2.1-2.2v-7.5h7.5c1.1,0,2.2-1,2.2-2.1s-1-2.2-2.2-2.1H73v-7.5C73,1015.4,71.8,1014.3,70.6,1014.4z"/>
	</g>
</g>
</svg>
