<?xml version="1.0" encoding="utf-8"?>
<!-- Generator: Adobe Illustrator 19.0.0, SVG Export Plug-In . SVG Version: 6.00 Build 0)  -->
<svg version="1.1" id="Layer_1" xmlns="http://www.w3.org/2000/svg" xmlns:xlink="http://www.w3.org/1999/xlink" x="0px" y="0px"
	 viewBox="0 0 100 100" style="enable-background:new 0 0 100 100;" xml:space="preserve">
<style type="text/css">
	.st0{fill:#010101;}
</style>
<g id="XMLID_9_">
	<g id="XMLID_10_">
		<g id="XMLID_11_">
			<path id="XMLID_15_" class="st0" d="M86.2,14.4c-0.2,0-0.4,0-0.6,0h-7v-6c0-2.4-2.3-3.8-4.7-3.8h-6.5c-2.4,0-4.2,1.4-4.2,3.8v6
				H36.8v-6c0-2.4-1.8-3.8-4.2-3.8h-6.5c-2.4,0-4.7,1.4-4.7,3.8v6h-7c-4.5-0.1-8.2,3.4-8.4,7.9c0,0.2,0,0.4,0,0.6v63.5
				c0,4.8,3.5,9.3,8.4,9.3h71.2c4.8,0,8.4-4.5,8.4-9.3V22.9C94.2,18.4,90.7,14.6,86.2,14.4z M67.4,8.9h6.8V21h-6.8V8.9z M26.2,8.9
				h6.3V21h-6.3C26.2,21,26.2,8.9,26.2,8.9z M89.6,86.4c0,2.4-1.5,4.9-4,4.9H14.4c-2.4,0-4-2.5-4-4.9V39.7h79.1L89.6,86.4L89.6,86.4
				z M89.6,22.9v12.4H10.5V22.9c-0.2-2.1,1.3-3.9,3.4-4.1c0.2,0,0.4,0,0.6,0h7v2.4c0,2.4,2.3,4.2,4.7,4.2h6.5c2.2,0.1,4.1-1.7,4.2-4
				c0-0.1,0-0.1,0-0.2v-2.4h26.4v2.4c-0.1,2.2,1.7,4.1,4,4.2c0.1,0,0.1,0,0.2,0h6.5c2.4,0,4.7-1.8,4.7-4.2v-2.4h7
				c2.1-0.1,3.8,1.4,4,3.5C89.6,22.5,89.6,22.7,89.6,22.9z"/>
			<path id="XMLID_12_" class="st0" d="M37.8,69.7l-2,11c-0.1,0.5,0,1,0.2,1.4c0.6,1.1,1.9,1.5,3,0.9l9.9-5.2l9.9,5.2l1,0.2
				c0.5,0,0.9-0.1,1.3-0.4c0.7-0.5,1-1.3,0.9-2.1l-2-11l8-7.7c0.6-0.6,0.8-1.5,0.5-2.3c-0.3-0.8-1-1.3-1.8-1.4l-11-1.6l-4.9-10
				c-0.2-0.4-0.6-0.8-1-1c-1.1-0.5-2.4-0.1-2.9,1l-4.9,10l-11,1.6c-0.8,0.1-1.5,0.7-1.8,1.4c-0.2,0.8,0,1.7,0.5,2.3L37.8,69.7z
				 M43.9,60.8c0.7-0.1,1.3-0.6,1.5-1.2l3.5-7l3.5,7c0.3,0.6,0.8,1.1,1.5,1.2l7.8,1.1l-5.6,5.4c-0.5,0.5-0.8,1.3-0.7,2l1.3,7.8
				l-6.9-3.7l-1-0.2l-1,0.2L41,77l1.3-7.8c0.1-0.7-0.1-1.5-0.7-2l-5.6-5.4L43.9,60.8z"/>
		</g>
	</g>
</g>
</svg>
