<?xml version="1.0" encoding="utf-8"?>
<!-- Generator: Adobe Illustrator 19.0.0, SVG Export Plug-In . SVG Version: 6.00 Build 0)  -->
<svg version="1.1" id="Layer_1" xmlns="http://www.w3.org/2000/svg" xmlns:xlink="http://www.w3.org/1999/xlink" x="0px" y="0px"
	 viewBox="0 0 100 100" style="enable-background:new 0 0 100 100;" xml:space="preserve">
<style type="text/css">
	.st0{fill:#E8E8DF;}
	.st1{fill:#DAD6CA;}
	.st2{fill:#CD4C4D;}
	.st3{fill:#FFFFFF;}
	.st4{fill:#4DAF4F;}
	.st5{fill:#FAFAFA;}
</style>
<g id="XMLID_26895_">
	<path id="XMLID_26912_" class="st0" d="M243,37.6h-6.7c-0.2,0-0.3,0.2-0.3,0.4v12.3c0,0.1,0.2,0.2,0.3,0.2h9.3
		c0.2,0,0.3-0.2,0.3-0.2v-9.7c0-0.2,0-0.2-0.1-0.3l-2.7-2.7C243.1,37.6,243.1,37.6,243,37.6z"/>
	<polygon id="XMLID_26911_" class="st1" points="243.2,37.6 243.2,40.4 245.9,40.4 	"/>
	<path id="XMLID_26905_" class="st2" d="M239,45.3L239,45.3c-0.1,0-0.2,0-0.2-0.1c-0.2-0.2-0.3-0.4-0.3-0.5c0-0.4,0.5-0.8,1.4-1.2
		c0.3-0.8,0.7-1.7,0.9-2.5c-0.2-0.5-0.5-1.2-0.3-1.5c0.1-0.1,0.1-0.2,0.3-0.3c0.1,0,0.2,0,0.2,0c0.1,0,0.2,0.2,0.3,0.2
		c0.1,0.1,0.2,0.3-0.1,1.6c0.3,0.6,0.8,1.3,1.2,1.8c0.3-0.1,0.6-0.1,0.8-0.1c0.4,0,0.6,0.1,0.7,0.3c0.1,0.1,0,0.3-0.1,0.5
		c-0.1,0.2-0.3,0.3-0.5,0.3c-0.3,0-0.6-0.2-1-0.5c-0.7,0.1-1.4,0.4-2,0.7c-0.2,0.4-0.4,0.7-0.6,1C239.4,45.2,239.2,45.3,239,45.3z
		 M239.6,44.1c-0.5,0.3-0.7,0.5-0.7,0.6c0,0,0,0.1,0.1,0.2C239,44.9,239.2,44.8,239.6,44.1z M242.8,43.1c0.2,0.1,0.2,0.2,0.4,0.2
		c0.1,0,0.2,0,0.3-0.1c0,0,0-0.1,0.1-0.1c0,0-0.1,0-0.3,0C243.1,43.1,242.9,43.1,242.8,43.1z M241,41.6c-0.2,0.6-0.4,1.2-0.6,1.8
		c0.5-0.2,1-0.4,1.5-0.5C241.6,42.5,241.3,42,241,41.6z M240.9,39.6c0,0-0.3,0.4,0,0.7C241.1,39.9,240.9,39.6,240.9,39.6z"/>
	<path id="XMLID_26904_" class="st2" d="M245.6,50.6h-9.3c-0.2,0-0.3-0.2-0.3-0.3v-3.6h10v3.6C245.9,50.4,245.8,50.6,245.6,50.6z"/>
	<g id="XMLID_26896_">
		<path id="XMLID_26901_" class="st3" d="M238.5,49.9h-0.4v-2.3h0.7c0.1,0,0.2,0,0.3,0c0.1,0,0.2,0.1,0.3,0.1
			c0.1,0.1,0.1,0.1,0.2,0.2c0,0.1,0.1,0.2,0.1,0.3c0,0.1,0,0.2-0.1,0.3c0,0.1-0.1,0.2-0.2,0.2c-0.1,0.1-0.2,0.1-0.3,0.2
			c-0.1,0-0.2,0.1-0.3,0.1h-0.3V49.9L238.5,49.9z M238.5,47.8v0.9h0.3c0,0,0.1,0,0.1,0c0,0,0.1,0,0.1-0.1c0,0,0.1-0.1,0.1-0.2
			c0-0.1,0-0.1,0-0.2c0,0,0-0.1,0-0.1c0-0.1,0-0.1-0.1-0.1c0,0-0.1-0.1-0.1-0.1s-0.1,0-0.2,0H238.5L238.5,47.8z"/>
		<path id="XMLID_26898_" class="st3" d="M241.9,48.7c0,0.2,0,0.4-0.1,0.5c0,0.1-0.1,0.3-0.2,0.3c-0.1,0.1-0.1,0.2-0.2,0.2
			c-0.1,0.1-0.2,0.1-0.2,0.1c-0.1,0-0.1,0-0.2,0.1c-0.1,0-0.1,0-0.1,0h-0.9v-2.3h0.7c0.2,0,0.4,0,0.5,0.1c0.1,0.1,0.3,0.1,0.4,0.2
			c0.1,0.1,0.2,0.2,0.2,0.4C241.9,48.4,241.9,48.5,241.9,48.7z M240.8,49.6c0.3,0,0.4-0.1,0.6-0.2c0.1-0.2,0.2-0.4,0.2-0.7
			c0-0.1,0-0.2,0-0.3c0-0.1-0.1-0.2-0.1-0.3c-0.1-0.1-0.2-0.1-0.3-0.2c-0.1,0-0.3-0.1-0.4-0.1h-0.2v1.8H240.8L240.8,49.6z"/>
		<path id="XMLID_26897_" class="st3" d="M242.9,47.8v0.7h1v0.3h-1v1.1h-0.4v-2.3h1.5v0.3H242.9z"/>
	</g>
</g>
<g id="XMLID_26879_">
	<g id="XMLID_26890_">
		<path id="XMLID_26892_" class="st4" d="M57.1,6.9c-0.4-0.4-1-0.5-1.6-0.4L6.7,17.7c-0.9,0.2-1.5,1-1.5,1.8v63.8
			c0,0.9,0.7,1.7,1.6,1.9l48.8,7.5c1,0.2,2-0.5,2.1-1.6c0-0.1,0-0.2,0-0.3V8.3C57.8,7.8,57.5,7.2,57.1,6.9z"/>
		<path id="XMLID_26891_" class="st4" d="M93.4,85.3H55.9c-1,0-1.9-0.8-1.9-1.9c0-1,0.8-1.9,1.9-1.9h35.7V17.7H55.9
			c-1,0-1.9-0.8-1.9-1.9s0.8-1.9,1.9-1.9h37.5c1,0,1.9,0.8,1.9,1.9v67.6C95.3,84.4,94.5,85.3,93.4,85.3z"/>
	</g>
	<g id="XMLID_26887_">
		<path id="XMLID_26889_" class="st5" d="M40.9,66.5c-0.6,0-1.2-0.3-1.6-0.9l-18.8-30c-0.6-0.9-0.3-2,0.5-2.6s2-0.3,2.6,0.5
			c0,0,0,0.1,0.1,0.1l18.8,30c0.5,0.9,0.3,2-0.6,2.6C41.6,66.4,41.2,66.5,40.9,66.5z"/>
		<path id="XMLID_26888_" class="st5" d="M22.1,66.5c-1,0-1.9-0.8-1.9-1.9c0-0.4,0.1-0.7,0.3-1l18.8-30c0.5-0.9,1.7-1.2,2.6-0.7
			c0.9,0.5,1.2,1.7,0.7,2.6c0,0,0,0.1-0.1,0.1l-18.8,30C23.4,66.2,22.8,66.5,22.1,66.5z"/>
	</g>
	<g id="XMLID_26880_">
		<path id="XMLID_26886_" class="st4" d="M70.9,85.3c-1,0-1.9-0.8-1.9-1.9V15.8c0-1,0.8-1.9,1.9-1.9s1.9,0.8,1.9,1.9v67.6
			C72.8,84.4,71.9,85.3,70.9,85.3z"/>
		<path id="XMLID_26885_" class="st4" d="M93.4,74H55.9c-1,0-1.9-0.8-1.9-1.9c0-1,0.8-1.9,1.9-1.9h37.5c1,0,1.9,0.8,1.9,1.9
			C95.3,73.2,94.5,74,93.4,74z"/>
		<path id="XMLID_26884_" class="st4" d="M93.4,62.7H55.9c-1,0-1.9-0.8-1.9-1.9c0-1,0.8-1.9,1.9-1.9h37.5c1,0,1.9,0.8,1.9,1.9
			C95.3,61.9,94.5,62.7,93.4,62.7z"/>
		<path id="XMLID_26883_" class="st4" d="M93.4,51.5H55.9c-1,0-1.9-0.8-1.9-1.9c0-1,0.8-1.9,1.9-1.9h37.5c1,0,1.9,0.8,1.9,1.9
			C95.3,50.7,94.5,51.5,93.4,51.5z"/>
		<path id="XMLID_26882_" class="st4" d="M93.4,40.2H55.9c-1,0-1.9-0.8-1.9-1.9c0-1,0.8-1.9,1.9-1.9h37.5c1,0,1.9,0.8,1.9,1.9
			C95.3,39.4,94.5,40.2,93.4,40.2z"/>
		<path id="XMLID_26881_" class="st4" d="M93.4,29H55.9c-1,0-1.9-0.8-1.9-1.9c0-1,0.8-1.9,1.9-1.9h37.5c1,0,1.9,0.8,1.9,1.9
			C95.3,28.1,94.5,29,93.4,29z"/>
	</g>
</g>
</svg>
