<?xml version="1.0" encoding="utf-8"?>
<!-- Generator: Adobe Illustrator 19.0.0, SVG Export Plug-In . SVG Version: 6.00 Build 0)  -->
<svg version="1.1" id="Layer_1" xmlns="http://www.w3.org/2000/svg" xmlns:xlink="http://www.w3.org/1999/xlink" x="0px" y="0px"
	 viewBox="0 0 100 100" style="enable-background:new 0 0 100 100;" xml:space="preserve">
<g id="XMLID_12657_">
	<g id="XMLID_12658_">
		<path id="XMLID_12672_" d="M50.6,20.6c-5.7,0-11.7,1.5-17.8,4.4c-10.9,5.3-22,15.9-27.6,23.7h0c-0.3,0.5-0.3,1,0,1.5
			c5.5,7.7,16.5,18.3,27.6,23.7c6.1,3,12,4.4,17.8,4.4c11.8,0,23-6.2,32.1-14.1c8-6.8,12.9-13.5,13.2-13.9l0.1-0.1
			c0.3-0.5,0.3-1,0-1.5C90.4,41,79.4,30.4,68.3,25C62.3,22,56.3,20.6,50.6,20.6L50.6,20.6z M50.6,23.1c16.4,0,32.1,13.1,42,25.4
			l0.7,0.9l-0.7,0.9c-4.7,5.9-21.6,25.4-42,25.4c-16.4,0-32.1-13.1-42-25.4l-0.7-0.9l0.8-0.9C13.3,42.6,30.2,23.1,50.6,23.1z
			 M50.6,31.6c-9.8,0-17.8,8-17.8,17.8s8,17.8,17.8,17.8s17.8-8,17.8-17.8S60.4,31.6,50.6,31.6z M50.6,34.2
			c8.4,0,15.3,6.9,15.3,15.3S59,64.7,50.6,64.7s-15.3-6.9-15.3-15.3S42.2,34.2,50.6,34.2z"/>
		<path id="XMLID_12659_" d="M50.6,78.9c-5.9,0-11.9-1.5-18-4.5C21.3,68.9,10.3,58.2,4.7,50.5c-0.3-0.4-0.4-0.8-0.3-1.2H4l0.7-1
			c5.5-7.7,16.6-18.4,27.8-23.9c6.1-3,12.2-4.5,18-4.5l0.6,0c5.7,0.1,11.5,1.6,17.4,4.5c11.2,5.5,22.3,16.2,27.8,23.9
			c0.5,0.7,0.5,1.6,0,2.2c-0.3,0.4-5.2,7.2-13.3,14.1C75.5,71.1,63.7,78.9,50.6,78.9z M6,48.7L5.7,49c-0.2,0.2-0.2,0.6,0,0.8
			c5.5,7.5,16.3,18.1,27.4,23.5c5.9,2.9,11.8,4.4,17.5,4.4c12.8,0,24.3-7.6,31.7-13.9c8-6.9,12.9-13.6,13.1-13.8
			c0.2-0.3,0.2-0.6,0.1-0.9C90,41.5,79.1,30.9,68.1,25.6c-5.9-2.9-11.8-4.4-17.5-4.4h-0.5c-5.5,0.1-11.2,1.5-17,4.4
			C22.2,30.8,11.5,41.2,6,48.7z M50.6,76.3c-20.3,0-37.6-19.6-42.4-25.6l-1.1-1.3l1.1-1.3c6.2-7.7,22.7-25.6,42.4-25.6
			c20.3,0,37.6,19.6,42.4,25.6l1,1.3l-1,1.3C86.8,58.4,70.3,76.3,50.6,76.3z M8.6,49.4L9.1,50c4.7,5.9,21.7,25.1,41.5,25.1
			C69.8,75.1,86,57.5,92.1,50l0.4-0.5l-0.4-0.5C87.3,43,70.3,23.7,50.6,23.7c-19.2,0-35.4,17.6-41.5,25.1L8.6,49.4z M50.6,67.9
			c-10.2,0-18.4-8.3-18.4-18.4S40.4,31,50.6,31S69,39.3,69,49.4S60.7,67.9,50.6,67.9z M50.6,32.2c-9.5,0-17.2,7.7-17.2,17.2
			s7.7,17.2,17.2,17.2s17.2-7.7,17.2-17.2S60.1,32.2,50.6,32.2z M50.6,65.3c-8.8,0-15.9-7.1-15.9-15.9s7.1-15.9,15.9-15.9
			s15.9,7.1,15.9,15.9S59.3,65.3,50.6,65.3z M50.6,34.8c-8.1,0-14.7,6.6-14.7,14.7s6.6,14.7,14.7,14.7s14.7-6.6,14.7-14.7
			S58.6,34.8,50.6,34.8z"/>
	</g>
</g>
</svg>
