<?xml version="1.0" encoding="utf-8"?>
<!-- Generator: Adobe Illustrator 19.0.0, SVG Export Plug-In . SVG Version: 6.00 Build 0)  -->
<svg version="1.1" id="Layer_1" xmlns="http://www.w3.org/2000/svg" xmlns:xlink="http://www.w3.org/1999/xlink" x="0px" y="0px"
	 viewBox="0 0 100 100" style="enable-background:new 0 0 100 100;" xml:space="preserve">
<style type="text/css">
	.st0{fill:#A5A4A4;}
	.st1{fill:#FFFFFF;}
</style>
<g id="XMLID_28026_">
	<circle id="XMLID_30773_" class="st0" cx="49.8" cy="50.9" r="47.8"/>
</g>
<g id="XMLID_10_">
	<path id="XMLID_17_" class="st1" d="M74,51.5c-2.6-2.5-5.5-0.2-5.5-0.2V37.9c0-0.5-0.4-0.8-0.8-0.8c-0.5,0-0.8,0.4-0.8,0.8v14.6
		c0,0-3.9,3.1-5.6,3.8V32.1c0-1.1,0.9-2,2-2h1.5c1.1,0,2,0.9,2,2v6.8c0,0.5,0.4,0.8,0.8,0.8c0.5,0,0.8-0.4,0.8-0.8v-6.8
		c0-2-1.6-3.7-3.7-3.7h-1.5c-2,0-3.7,1.6-3.7,3.7v24.8c-0.5,0.1-1,0.2-1.5,0.3V40c0-2-1.7-3.7-3.7-3.7H53c-2,0-3.7,1.7-3.7,3.7v8.3
		l-1.5,0.8v-2.8c0-1.8-1.5-3.3-3.3-3.3h-2.2c-1.8,0-3.3,1.5-3.3,3.3v7.5l-2.7,1.4l-7.5,2.1c-1.3,0.4-2.4,1.2-3.1,2.4
		c-0.7,1.2-0.9,2.5-0.5,3.9l1.7,6.7c0.1,0.4,0.6,0.7,1,0.6c0.4-0.1,0.7-0.6,0.6-1l-1.7-6.7c-0.5-1.9,0.6-3.7,2.4-4.3l6.8-2l5.1,13.7
		c0.3,0.9,0.3,3.5-2.4,4.5l-5.2,1.2c-1.8,0.4-3.6-0.7-4-2.5l-1-4c-0.1-0.4-0.6-0.7-1-0.6c-0.4,0.1-0.7,0.6-0.6,1l1,4
		c0.6,2.3,2.6,3.8,4.8,3.8c1.6,0,6.3-1.3,6.3-1.3c1.4-0.3,2.6-1.2,3.3-2.5c0.6-1.1,0.7-2.3,0.5-3.4l17.9-4.4c1.5-0.4,2.9-1.1,4.1-2
		l8.7-7.2C76.3,54.9,74.8,52.3,74,51.5z M53,38h1.5c1.1,0,2.1,0.9,2.1,2.1v17.2l-5.1,0c-0.5,0-0.1-0.3-0.1-0.3l1.5-1.2
		c1.4-1.1,2.3-2.7,2.7-4.6c0.3-1.2-0.2-2.5-1.2-3.2C53.2,47.1,52,47,51,47.5V40C51,38.9,51.9,38,53,38z M40.6,46.4
		c0-0.9,0.8-1.7,1.7-1.7h2.2c0.9,0,1.7,0.8,1.7,1.7V50l-5.6,3L40.6,46.4L40.6,46.4z M72.6,56l-8.7,7.2c-1,0.8-2.2,1.4-3.4,1.7
		l-18,4.4l-4.8-12.9L51.5,49c0.6-0.3,1.2-0.2,1.7,0.1c0.5,0.4,0.7,1,0.6,1.6c-0.3,1.6-1,2.8-2.1,3.7l-1.5,1.2
		c-0.6,0.5-0.8,1.3-0.6,2c0.3,0.7,0.9,1.2,1.7,1.2l5.9,0h0c2.1,0,4.2-0.6,5.9-1.9l6.6-4.7c0.9-0.7,2.2-0.5,3,0.3
		C73.3,53.1,74.2,54.5,72.6,56z"/>
	<path id="XMLID_14_" class="st1" d="M38.2,71.2c0-1.8-1.4-3.2-3.2-3.2s-3.2,1.4-3.2,3.2c0,1.8,1.4,3.2,3.2,3.2S38.2,73,38.2,71.2z
		 M33.4,71.2c0-0.9,0.7-1.6,1.6-1.6c0.9,0,1.6,0.7,1.6,1.6c0,0.9-0.7,1.6-1.6,1.6S33.4,72.1,33.4,71.2z"/>
	<path id="XMLID_11_" class="st1" d="M29.1,48l11.9-12l2.7,1.4c1,0.5,2.1,0.3,2.9-0.4l6.5-6.2c0,0-0.2,3.2,2.5,3.2
		c1.4,0,2.5-1.1,2.5-2.5v-6.6c0,0,0,0,0,0c0-1.7-1.3-2.5-2.5-2.5h-6.5c-1.4,0-2.5,1.1-2.5,2.5c0,2.8,2.8,2.5,2.8,2.5l-4.9,4.7
		l-2.7-1.4c-1-0.5-2.2-0.3-2.9,0.5L25.5,44.5c-1,1-1,2.6,0,3.6C26,48.5,27.6,49.5,29.1,48z M26.7,45.6l13.2-13.3
		c0.2-0.2,0.4-0.5,1-0.2l3.2,1.7c0.3,0.2,0.7,0.1,0.9-0.1l6.8-6.6c0.2-0.2,0.3-0.6,0.2-0.9c-0.1-0.3-0.4-0.5-0.8-0.5h-2.3
		c-0.5,0-0.9-0.4-0.9-0.9c0-0.5,0.4-0.9,0.9-0.9h6.5c0.2,0,0.9,0,0.9,0.9c0,0,0,0,0,0v6.6c0,0.5-0.4,0.9-0.9,0.9
		c-0.5,0-0.9-0.4-0.9-0.9v-2.6c0-0.3-0.2-0.6-0.5-0.8c-0.3-0.1-0.6-0.1-0.9,0.2l-7.8,7.5c-0.3,0.3-0.7,0.3-1,0.1l-3.2-1.7
		c-0.3-0.2-0.7-0.1-1,0.2L27.9,46.9c-0.5,0.5-1.1,0.2-1.2,0C26.3,46.5,26.3,46,26.7,45.6z"/>
</g>
</svg>
