<?xml version="1.0" encoding="utf-8"?>
<!-- Generator: Adobe Illustrator 19.0.0, SVG Export Plug-In . SVG Version: 6.00 Build 0)  -->
<svg version="1.1" id="Layer_1" xmlns="http://www.w3.org/2000/svg" xmlns:xlink="http://www.w3.org/1999/xlink" x="0px" y="0px"
	 viewBox="0 0 100 100" style="enable-background:new 0 0 100 100;" xml:space="preserve">
<g id="XMLID_9482_">
	<g id="XMLID_20387_">
		<g id="XMLID_20388_">
			<path id="XMLID_20389_" d="M87.5,18.5H12.8c-5.4,0-9.8,4.4-9.8,9.8v43.3c0,5.4,4.4,9.8,9.8,9.8h74.7c5.4,0,9.8-4.4,9.8-9.8V28.4
				C97.3,22.9,92.9,18.5,87.5,18.5z M93.4,71.6c0,3.3-2.6,5.9-5.9,5.9H12.8c-3.3,0-5.9-2.6-5.9-5.9V28.4c0-3.3,2.6-5.9,5.9-5.9h74.7
				c3.3,0,5.9,2.6,5.9,5.9L93.4,71.6L93.4,71.6z"/>
		</g>
	</g>
	<g id="XMLID_20384_">
		<g id="XMLID_20385_">
			<path id="XMLID_20386_" d="M32.4,57.9H16.7c-1.1,0-2,0.9-2,2s0.9,2,2,2h15.7c1.1,0,2-0.9,2-2S33.5,57.9,32.4,57.9z"/>
		</g>
	</g>
	<g id="XMLID_20381_">
		<g id="XMLID_20382_">
			<path id="XMLID_20383_" d="M44.2,65.7H16.7c-1.1,0-2,0.9-2,2c0,1.1,0.9,2,2,2h27.5c1.1,0,2-0.9,2-2
				C46.2,66.6,45.3,65.7,44.2,65.7z"/>
		</g>
	</g>
	<g id="XMLID_20376_">
		<g id="XMLID_20377_">
			<path id="XMLID_20378_" d="M46.5,27.3c-2.3-0.7-4.9,0.2-6.3,2.2c-1.1,1.5-1.4,3.3-0.9,5.1C41.9,43.6,50.5,50,60,50
				c1.1,0,2-0.9,2-2C61.9,38.5,55.6,30,46.5,27.3z M43,33.4c-0.2-0.7,0.1-1.3,0.3-1.6c0.4-0.5,1-0.8,1.5-0.8c0.2,0,0.3,0,0.5,0.1
				c6.8,2,11.7,8,12.5,14.9C51,45.1,45,40.2,43,33.4z"/>
		</g>
	</g>
	<g id="XMLID_20371_">
		<g id="XMLID_20372_">
			<path id="XMLID_20373_" d="M79.8,29.5c-1.5-2-4-2.8-6.3-2.2C64.4,30,58,38.5,58,48c0,1.1,0.9,2,2,2c9.5,0,18-6.4,20.7-15.5
				C81.2,32.8,80.9,30.9,79.8,29.5z M76.9,33.4c-2,6.8-8,11.7-14.9,12.5c0.8-6.9,5.8-12.9,12.5-14.9c0.2,0,0.3-0.1,0.5-0.1
				c0.6,0,1.2,0.3,1.5,0.8C76.8,32.1,77.2,32.7,76.9,33.4z"/>
		</g>
	</g>
	<g id="XMLID_20366_">
		<g id="XMLID_20368_">
			<path id="XMLID_20369_" d="M60,18.5c-1.1,0-2,0.9-2,2v59c0,1.1,0.9,2,2,2s2-0.9,2-2v-59C61.9,19.4,61,18.5,60,18.5z"/>
		</g>
	</g>
	<g id="XMLID_20291_">
		<g id="XMLID_20292_">
			<path id="XMLID_20352_" d="M61.3,46.6c-0.8-0.8-2-0.8-2.8,0L46.8,58.4c-0.8,0.8-0.8,2,0,2.8c0.4,0.4,0.9,0.6,1.4,0.6
				s1-0.2,1.4-0.6l11.8-11.8C62.1,48.7,62.1,47.4,61.3,46.6z"/>
		</g>
	</g>
	<g id="XMLID_20253_">
		<g id="XMLID_20267_">
			<path id="XMLID_20268_" d="M73.2,58.4L61.3,46.6c-0.8-0.8-2-0.8-2.8,0c-0.8,0.8-0.8,2,0,2.8l11.8,11.8c0.4,0.4,0.9,0.6,1.4,0.6
				s1-0.2,1.4-0.6C73.9,60.5,73.9,59.2,73.2,58.4z"/>
		</g>
	</g>
	<g id="XMLID_9740_">
		<g id="XMLID_20107_">
			<path id="XMLID_20108_" d="M95.4,46.1H4.9c-1.1,0-2,0.9-2,2c0,1.1,0.9,2,2,2h90.5c1.1,0,2-0.9,2-2S96.5,46.1,95.4,46.1z"/>
		</g>
	</g>
</g>
</svg>
