<?xml version="1.0" encoding="utf-8"?>
<!-- Generator: Adobe Illustrator 19.0.0, SVG Export Plug-In . SVG Version: 6.00 Build 0)  -->
<svg version="1.1" id="Layer_1" xmlns="http://www.w3.org/2000/svg" xmlns:xlink="http://www.w3.org/1999/xlink" x="0px" y="0px"
	 viewBox="0 0 100 100" style="enable-background:new 0 0 100 100;" xml:space="preserve">
<g id="XMLID_32189_">
	<g id="XMLID_32190_">
		<path id="XMLID_2_" d="M81,82c8.5-8.3,13.1-19.4,13.1-31.2C94.1,39,89.4,28,81,19.7c-8.2-8-19.1-12.5-30.5-12.5
			c-11.5,0-22.3,4.4-30.5,12.5C11.4,28,6.8,39,6.8,50.9c0,11.8,4.7,22.9,13.1,31.2c3,2.9,6.3,5.4,10,7.3l0,0c0,0,0,0,0,0
			c0,0,0,0,0,0c0.4,0.2,0.9,0.5,1.3,0.7c0.8,0.4,1.6,0.7,2.3,1.1l0,0l0,0h0l0,0c0.1,0,0.2,0.1,0.4,0.1l0.1,0h0
			c0.5,0.2,1,0.4,1.5,0.6c0.1,0,0.1,0,0.2,0.1c0.6,0.2,1.2,0.4,1.8,0.6c0.2,0.1,0.5,0.1,0.7,0.2l0.4,0.1h0l0,0c1,0.3,2,0.6,3,0.8
			c0,0,0,0,0.1,0c0.2,0,0.4,0.1,0.6,0.1c0.3,0,0.6,0.1,0.8,0.1l0.1,0l1.1,0.2c0.5,0.1,1.1,0.2,1.6,0.2c1.5,0.1,3,0.2,4.4,0.2
			c1.5,0,2.9-0.1,4.4-0.2l0,0c0.5-0.1,1.1-0.1,1.6-0.2l1.3-0.2c0.5-0.1,0.9-0.1,1.4-0.2c1-0.2,2.1-0.5,3.1-0.8l0.4-0.1
			c0.2-0.1,0.5-0.1,0.7-0.2c0.5-0.2,1-0.3,1.6-0.5c0,0,0.1,0,0.1,0c0.6-0.2,1.2-0.5,1.9-0.7c0.1,0,0.2-0.1,0.3-0.1l0,0c0,0,0,0,0,0
			c0.7-0.3,1.5-0.6,2.2-1c0.1,0,0.1-0.1,0.2-0.1c0.3-0.2,0.6-0.3,1-0.5c0.1-0.1,0.3-0.1,0.4-0.2c0.4-0.2,0.8-0.5,1.2-0.7
			c2.3-1.3,4.5-2.8,6.5-4.5C79.5,83.5,80.2,82.8,81,82z M75.9,81.7c-0.4,0.4-0.9,0.7-1.3,1c-0.3,0.2-0.6,0.4-0.9,0.6
			c-0.4,0.3-0.9,0.6-1.3,0.9c-0.3,0.2-0.6,0.4-0.9,0.6c-0.5,0.3-1.1,0.6-1.6,0.9c-0.2,0.1-0.4,0.3-0.6,0.4l0,0
			c-0.1,0-0.1,0.1-0.2,0.1c-0.4,0.2-0.8,0.4-1.2,0.6c-0.4,0.2-0.8,0.4-1.2,0.6c-0.3,0.1-0.6,0.3-0.9,0.4L65.4,88l0,0l0,0
			c-1.2,0.5-2.2,0.9-3.2,1.2c0,0,0,0,0,0l0,0c-0.1,0-0.3,0.1-0.5,0.1c-0.2,0-0.3,0.1-0.5,0.1c0.1-0.1,0.1-0.2,0.2-0.2
			c0.2-0.2,0.4-0.4,0.6-0.6c0.2-0.2,0.4-0.5,0.6-0.7c0.2-0.2,0.4-0.5,0.6-0.7c0.2-0.3,0.4-0.5,0.6-0.8c0.2-0.2,0.3-0.5,0.5-0.8
			c0.2-0.3,0.4-0.6,0.6-0.9c0.2-0.3,0.3-0.5,0.5-0.8c0.2-0.3,0.4-0.7,0.6-1c0.2-0.3,0.3-0.5,0.5-0.8c0.2-0.4,0.4-0.7,0.6-1.1
			c0.1-0.3,0.3-0.6,0.4-0.9c0.2-0.4,0.4-0.8,0.5-1.2c0.1-0.3,0.2-0.6,0.4-0.9c0.2-0.4,0.4-0.9,0.5-1.4c0.1-0.3,0.2-0.6,0.3-0.9
			c0-0.1,0-0.1,0.1-0.2c0.3,0.1,0.5,0.3,0.8,0.4c0.2,0.1,0.5,0.3,0.7,0.4c0.8,0.5,1.7,1,2.5,1.5c0,0,0.1,0,0.1,0.1
			c0.8,0.6,1.6,1.2,2.4,1.8c0.2,0.2,0.4,0.3,0.6,0.5c0.2,0.2,0.5,0.4,0.7,0.6c-0.1,0.1-0.3,0.2-0.4,0.3
			C76.4,81.3,76.1,81.5,75.9,81.7z M28.6,84.4c-0.5-0.3-1-0.7-1.5-1c-0.3-0.2-0.5-0.4-0.8-0.6c-0.5-0.3-0.9-0.7-1.3-1.1
			c-0.3-0.2-0.5-0.4-0.7-0.6c-0.1-0.1-0.2-0.2-0.4-0.3c0.2-0.2,0.4-0.4,0.7-0.6c0.2-0.2,0.4-0.4,0.6-0.5c0.8-0.6,1.5-1.2,2.4-1.8
			c0,0,0.1,0,0.1-0.1c0.8-0.5,1.6-1,2.4-1.5c0.2-0.1,0.5-0.3,0.7-0.4c0.3-0.1,0.5-0.3,0.8-0.4c0,0.1,0,0.1,0.1,0.2
			c0.1,0.3,0.2,0.6,0.3,0.9c0.2,0.4,0.3,0.9,0.5,1.3c0.1,0.3,0.3,0.6,0.4,0.9c0.2,0.4,0.3,0.8,0.5,1.2c0.1,0.3,0.3,0.6,0.4,0.9
			c0.2,0.4,0.3,0.7,0.5,1.1c0.2,0.3,0.3,0.6,0.5,0.9c0.2,0.3,0.4,0.7,0.6,1c0.2,0.3,0.3,0.6,0.5,0.8c0.2,0.3,0.4,0.6,0.6,0.9
			c0.2,0.3,0.4,0.5,0.5,0.8c0.2,0.3,0.4,0.5,0.6,0.8c0.2,0.2,0.4,0.5,0.6,0.7c0.2,0.3,0.4,0.5,0.6,0.7c0.2,0.2,0.4,0.4,0.6,0.6
			c0.1,0.1,0.1,0.2,0.2,0.2c-0.2,0-0.3-0.1-0.5-0.1c-0.2,0-0.3-0.1-0.5-0.1c0,0,0,0,0,0c-0.5-0.2-1.1-0.4-1.7-0.6
			c-0.5-0.2-1-0.4-1.5-0.6l-0.4-0.2l0,0c-0.7-0.3-1.3-0.6-2-0.9c-0.4-0.2-0.9-0.4-1.3-0.6c0,0-0.1,0-0.1-0.1c0,0,0,0,0,0l0,0
			c0,0,0,0,0,0l0,0c-0.8-0.4-1.5-0.9-2.3-1.3C29.1,84.7,28.9,84.5,28.6,84.4z M35.3,26.8c0.1-0.4,0.3-0.7,0.4-1.1
			c0.1-0.3,0.2-0.5,0.3-0.8c0.1-0.4,0.3-0.7,0.4-1c0.1-0.2,0.2-0.5,0.3-0.7c0.2-0.4,0.3-0.7,0.5-1c0.1-0.2,0.2-0.4,0.3-0.6
			c0.2-0.4,0.5-0.8,0.7-1.3c0.1-0.1,0.1-0.2,0.2-0.3c0.3-0.5,0.6-1,0.9-1.4c0.1-0.2,0.2-0.3,0.3-0.5c0.2-0.3,0.4-0.6,0.6-0.9
			c0.1-0.2,0.3-0.3,0.4-0.5c0.2-0.2,0.4-0.5,0.6-0.7c0.1-0.2,0.3-0.3,0.4-0.5c0.2-0.2,0.4-0.4,0.6-0.6c0.1-0.1,0.3-0.3,0.4-0.4
			c0.2-0.2,0.4-0.4,0.7-0.6c0.1-0.1,0.2-0.2,0.4-0.3c0.3-0.2,0.6-0.5,0.9-0.7c0.1,0,0.1-0.1,0.2-0.1c0.4-0.2,0.7-0.5,1.1-0.7
			c0.1-0.1,0.2-0.1,0.3-0.2c0.3-0.1,0.5-0.3,0.8-0.4c0.1-0.1,0.3-0.1,0.4-0.2c0.2-0.1,0.5-0.2,0.7-0.2c0.1,0,0.3-0.1,0.4-0.1
			c0.1,0,0.2,0,0.3-0.1v20c0,0-0.1,0-0.1,0c-1.1-0.1-2.1-0.2-3.1-0.3c-0.2,0-0.4-0.1-0.7-0.1c-1-0.2-2-0.3-3.1-0.6
			c-0.1,0-0.1,0-0.2-0.1c-1-0.2-1.9-0.5-2.9-0.8c-0.2-0.1-0.4-0.1-0.6-0.2c-1-0.3-1.9-0.7-2.9-1.1c-0.1,0-0.1-0.1-0.2-0.1
			c0-0.1,0.1-0.2,0.1-0.3C35.1,27.4,35.2,27.1,35.3,26.8z M53,11.2c0.2,0.1,0.5,0.2,0.7,0.2c0.1,0.1,0.3,0.1,0.4,0.2
			c0.3,0.1,0.5,0.2,0.8,0.4c0.1,0.1,0.2,0.1,0.3,0.2c0.4,0.2,0.7,0.4,1.1,0.7c0.1,0,0.1,0.1,0.2,0.1c0.3,0.2,0.6,0.4,0.9,0.7
			c0.1,0.1,0.2,0.2,0.4,0.3c0.2,0.2,0.4,0.4,0.7,0.6c0.1,0.1,0.3,0.3,0.4,0.4c0.2,0.2,0.4,0.4,0.6,0.6c0.1,0.2,0.3,0.3,0.4,0.5
			c0.2,0.2,0.4,0.5,0.6,0.7c0.1,0.2,0.3,0.3,0.4,0.5c0.2,0.3,0.4,0.6,0.6,0.9c0.1,0.2,0.2,0.3,0.3,0.5c0.3,0.5,0.6,0.9,0.9,1.4
			c0.1,0.1,0.1,0.2,0.2,0.3c0.2,0.4,0.5,0.8,0.7,1.3c0.1,0.2,0.2,0.4,0.3,0.6c0.2,0.3,0.3,0.7,0.5,1c0.1,0.2,0.2,0.5,0.3,0.7
			c0.2,0.3,0.3,0.7,0.4,1c0.1,0.3,0.2,0.5,0.3,0.8c0.1,0.4,0.3,0.7,0.4,1.1c0.1,0.3,0.2,0.5,0.3,0.8c0,0.1,0.1,0.2,0.1,0.3
			c-0.1,0-0.1,0.1-0.2,0.1c-1,0.4-1.9,0.8-2.9,1.1c-0.2,0.1-0.4,0.1-0.6,0.2c-1,0.3-1.9,0.6-2.9,0.8c-0.1,0-0.1,0-0.2,0.1
			c-1,0.2-2,0.4-3.1,0.6c-0.2,0-0.4,0.1-0.7,0.1c-1,0.1-2,0.2-3.1,0.3c0,0-0.1,0-0.1,0v-20c0.1,0,0.2,0,0.3,0.1
			C52.7,11.2,52.9,11.2,53,11.2z M65.6,74.9c-0.1,0.4-0.3,0.7-0.4,1.1c-0.1,0.3-0.2,0.5-0.3,0.8c-0.1,0.3-0.3,0.7-0.4,1
			c-0.1,0.2-0.2,0.5-0.3,0.7c-0.2,0.3-0.3,0.7-0.5,1c-0.1,0.2-0.2,0.4-0.3,0.6c-0.2,0.4-0.5,0.8-0.7,1.3c-0.1,0.1-0.1,0.2-0.2,0.3
			c-0.3,0.5-0.6,1-0.9,1.4c-0.1,0.2-0.2,0.3-0.3,0.5c-0.2,0.3-0.4,0.6-0.6,0.9c-0.1,0.2-0.3,0.3-0.4,0.5c-0.2,0.2-0.4,0.5-0.6,0.7
			c-0.1,0.2-0.3,0.3-0.4,0.5c-0.2,0.2-0.4,0.4-0.6,0.6c-0.1,0.1-0.3,0.3-0.4,0.4c-0.2,0.2-0.4,0.4-0.7,0.6c-0.1,0.1-0.2,0.2-0.4,0.3
			c-0.3,0.2-0.6,0.5-0.9,0.7c-0.1,0-0.1,0.1-0.2,0.1c-0.4,0.2-0.7,0.5-1.1,0.7c-0.1,0.1-0.2,0.1-0.3,0.2c-0.3,0.1-0.5,0.3-0.8,0.4
			c-0.1,0.1-0.3,0.1-0.4,0.2c-0.2,0.1-0.5,0.2-0.7,0.2c-0.1,0-0.3,0.1-0.4,0.1c-0.1,0-0.2,0-0.3,0.1v-20c0,0,0.1,0,0.1,0
			c1.1,0.1,2.1,0.2,3.1,0.3c0.2,0,0.5,0.1,0.7,0.1c1,0.2,2,0.3,3.1,0.6c0.1,0,0.1,0,0.2,0.1c1,0.2,1.9,0.5,2.9,0.8
			c0.2,0.1,0.4,0.1,0.6,0.2c1,0.3,1.9,0.7,2.9,1.1c0.1,0,0.1,0.1,0.2,0.1c0,0.1-0.1,0.2-0.1,0.3C65.8,74.4,65.7,74.6,65.6,74.9z
			 M48.3,90.6c-0.1,0-0.3-0.1-0.4-0.1c-0.2-0.1-0.5-0.2-0.7-0.2c-0.1,0-0.3-0.1-0.4-0.2c-0.3-0.1-0.5-0.2-0.8-0.4
			c-0.1-0.1-0.2-0.1-0.3-0.2c-0.4-0.2-0.7-0.4-1.1-0.7c-0.1,0-0.1-0.1-0.2-0.1c-0.3-0.2-0.6-0.4-0.9-0.7c-0.1-0.1-0.2-0.2-0.4-0.3
			c-0.2-0.2-0.4-0.4-0.7-0.6c-0.1-0.1-0.3-0.3-0.4-0.4c-0.2-0.2-0.4-0.4-0.6-0.6c-0.1-0.2-0.3-0.3-0.4-0.5c-0.2-0.2-0.4-0.5-0.6-0.7
			c-0.1-0.2-0.3-0.3-0.4-0.5c-0.2-0.3-0.4-0.6-0.6-0.9c-0.1-0.2-0.2-0.3-0.3-0.5c-0.3-0.5-0.6-0.9-0.9-1.4c-0.1-0.1-0.1-0.2-0.2-0.3
			c-0.2-0.4-0.5-0.8-0.7-1.3c-0.1-0.2-0.2-0.4-0.3-0.6c-0.2-0.3-0.3-0.7-0.5-1c-0.1-0.2-0.2-0.5-0.3-0.7c-0.1-0.3-0.3-0.7-0.4-1
			c-0.1-0.3-0.2-0.5-0.3-0.8c-0.1-0.4-0.3-0.7-0.4-1.1c-0.1-0.3-0.2-0.5-0.3-0.8c0-0.1-0.1-0.2-0.1-0.3c0.1,0,0.1-0.1,0.2-0.1
			c1-0.4,1.9-0.8,2.9-1.1c0.2-0.1,0.4-0.1,0.6-0.2c0.9-0.3,1.9-0.6,2.9-0.8c0.1,0,0.1,0,0.2-0.1c1-0.2,2-0.4,3.1-0.6
			c0.2,0,0.5-0.1,0.7-0.1c1-0.1,2-0.2,3-0.3c0,0,0.1,0,0.1,0v20C48.5,90.6,48.4,90.6,48.3,90.6z M33,66.8c-0.3-1.4-0.5-2.8-0.8-4.2
			c0-0.2-0.1-0.5-0.1-0.7c-0.2-1.7-0.4-3.3-0.5-5c0-0.5-0.1-1-0.1-1.6c0-0.9-0.1-1.7-0.1-2.6h17.2V67c-0.1,0-0.1,0-0.2,0
			c-1.1,0.1-2.2,0.1-3.3,0.3c-0.2,0-0.5,0.1-0.7,0.1c-1,0.1-2.1,0.3-3.1,0.6c-0.1,0-0.2,0-0.2,0c-1.1,0.2-2.2,0.5-3.2,0.9
			c-0.2,0.1-0.5,0.1-0.7,0.2c-1.1,0.3-2.1,0.7-3.2,1.2c0,0,0,0-0.1,0c-0.2-0.7-0.4-1.3-0.5-2C33.2,67.8,33.1,67.3,33,66.8z
			 M31.6,44.9c0.1-1.7,0.3-3.4,0.5-5c0-0.2,0.1-0.5,0.1-0.7c0.2-1.4,0.5-2.8,0.8-4.2c0.1-0.5,0.2-1,0.4-1.5c0.2-0.7,0.3-1.3,0.5-2
			c0,0,0,0,0.1,0c1,0.4,2.1,0.8,3.2,1.2c0.2,0.1,0.5,0.2,0.7,0.2c1.1,0.3,2.1,0.6,3.2,0.9c0.1,0,0.2,0,0.3,0c1,0.2,2.1,0.4,3.1,0.5
			c0.2,0,0.5,0.1,0.7,0.1c1.1,0.1,2.2,0.2,3.3,0.3c0.1,0,0.1,0,0.2,0V49H31.4c0-0.9,0-1.7,0.1-2.6C31.5,45.9,31.5,45.4,31.6,44.9z
			 M55.8,34.4c0.2,0,0.5-0.1,0.7-0.1c1-0.1,2.1-0.3,3.1-0.5c0.1,0,0.2,0,0.3-0.1c1.1-0.2,2.2-0.5,3.2-0.9c0.3-0.1,0.5-0.2,0.7-0.2
			c1.1-0.3,2.1-0.7,3.1-1.1c0,0,0,0,0.1,0c0.2,0.7,0.4,1.3,0.5,2c0.1,0.5,0.3,1,0.4,1.5c0.3,1.4,0.5,2.8,0.8,4.2
			c0,0.2,0.1,0.5,0.1,0.7c0.2,1.7,0.4,3.3,0.5,5c0,0.5,0.1,1,0.1,1.5c0,0.9,0.1,1.7,0.1,2.6H52.3V34.7c0.1,0,0.1,0,0.2,0
			C53.6,34.6,54.7,34.5,55.8,34.4z M69.3,56.8c-0.1,1.7-0.3,3.4-0.5,5c0,0.2-0.1,0.5-0.1,0.7c-0.2,1.4-0.5,2.8-0.8,4.2
			c-0.1,0.5-0.2,1-0.4,1.6c-0.2,0.7-0.3,1.3-0.5,2c0,0-0.1,0-0.1,0c-1-0.4-2.1-0.8-3.1-1.1c-0.2-0.1-0.5-0.2-0.7-0.2
			c-1.1-0.3-2.1-0.6-3.2-0.9c-0.1,0-0.2,0-0.3-0.1c-1-0.2-2.1-0.4-3.1-0.5c-0.2,0-0.5-0.1-0.7-0.1c-1.1-0.1-2.2-0.2-3.3-0.3
			c-0.1,0-0.1,0-0.2,0V52.7h17.2c0,0.9,0,1.7-0.1,2.6C69.4,55.8,69.4,56.3,69.3,56.8z M79.6,78.2c-0.3-0.3-0.6-0.5-0.9-0.7
			c-0.3-0.2-0.5-0.5-0.8-0.7c-0.7-0.6-1.5-1.2-2.3-1.7c-0.1-0.1-0.2-0.2-0.3-0.2c-0.9-0.6-1.8-1.2-2.8-1.8c-0.3-0.2-0.5-0.3-0.8-0.4
			c-0.4-0.2-0.9-0.5-1.3-0.7c0-0.1,0.1-0.3,0.1-0.4c0.4-1.3,0.7-2.6,1-3.9c0-0.2,0.1-0.5,0.1-0.7c0.3-1.4,0.5-2.8,0.8-4.3
			c0,0,0,0,0,0c0.2-1.5,0.4-2.9,0.5-4.4c0-0.2,0-0.5,0.1-0.7c0.1-1.4,0.2-2.9,0.2-4.3c0-0.1,0-0.2,0-0.4h17.3
			C90,62.2,86.2,71.2,79.6,78.2z M73.2,49c0-0.1,0-0.2,0-0.4c0-1.5-0.1-2.9-0.2-4.3c0-0.2,0-0.5-0.1-0.7c-0.1-1.5-0.3-3-0.5-4.5
			c0,0,0,0,0,0c-0.2-1.5-0.5-2.9-0.8-4.3c0-0.2-0.1-0.4-0.1-0.6c-0.3-1.4-0.6-2.7-1-4c0-0.1-0.1-0.2-0.1-0.3
			c0.4-0.2,0.9-0.5,1.3-0.7c0.3-0.2,0.6-0.3,0.8-0.5c1-0.6,1.9-1.1,2.8-1.8c0.1-0.1,0.2-0.2,0.3-0.2c0.8-0.6,1.6-1.2,2.3-1.8
			c0.3-0.2,0.5-0.4,0.8-0.7c0.3-0.3,0.6-0.5,0.9-0.8c6.6,7,10.4,16,10.8,25.5H73.2z M77,20.9c-0.2,0.2-0.5,0.4-0.7,0.6
			c-0.2,0.2-0.4,0.3-0.6,0.5c-0.8,0.6-1.5,1.2-2.4,1.8c0,0-0.1,0.1-0.1,0.1c-0.8,0.5-1.6,1-2.4,1.5c-0.2,0.1-0.5,0.3-0.7,0.4
			c-0.3,0.1-0.5,0.3-0.8,0.4c0-0.1,0-0.1-0.1-0.2c-0.1-0.3-0.2-0.6-0.3-0.9c-0.2-0.4-0.3-0.9-0.5-1.3c-0.1-0.3-0.3-0.6-0.4-0.9
			c-0.2-0.4-0.3-0.8-0.5-1.2c-0.1-0.3-0.3-0.6-0.4-0.9c-0.2-0.4-0.4-0.7-0.5-1.1c-0.2-0.3-0.3-0.6-0.5-0.9c-0.2-0.3-0.4-0.7-0.6-1
			c-0.2-0.3-0.3-0.5-0.5-0.8c-0.2-0.3-0.4-0.6-0.6-0.9c-0.2-0.3-0.3-0.5-0.5-0.7c-0.2-0.3-0.4-0.6-0.6-0.8c-0.2-0.2-0.4-0.5-0.5-0.7
			c-0.2-0.3-0.4-0.5-0.6-0.8c-0.2-0.2-0.4-0.4-0.6-0.6c-0.1-0.1-0.2-0.2-0.2-0.3C67,13.9,72.4,16.9,77,20.9z M39.4,12.6
			c-0.2,0.2-0.4,0.4-0.6,0.6c-0.2,0.2-0.4,0.5-0.6,0.7c-0.2,0.2-0.4,0.5-0.6,0.7c-0.2,0.3-0.4,0.5-0.6,0.8c-0.2,0.3-0.4,0.5-0.6,0.8
			c-0.2,0.3-0.4,0.6-0.6,0.9c-0.2,0.3-0.4,0.6-0.5,0.9c-0.2,0.3-0.4,0.6-0.5,0.9c-0.2,0.3-0.3,0.6-0.5,0.9c-0.2,0.3-0.3,0.7-0.5,1
			c-0.2,0.3-0.3,0.6-0.5,0.9c-0.2,0.4-0.3,0.8-0.5,1.1c-0.1,0.3-0.3,0.6-0.4,1c-0.2,0.4-0.3,0.9-0.5,1.3c-0.1,0.3-0.2,0.6-0.3,0.9
			c0,0.1,0,0.1-0.1,0.2c-0.3-0.1-0.5-0.3-0.8-0.4c-0.2-0.1-0.5-0.3-0.7-0.4c-0.8-0.5-1.7-1-2.5-1.5c0,0-0.1,0-0.1-0.1
			c-0.8-0.6-1.6-1.2-2.4-1.8c-0.2-0.2-0.4-0.3-0.6-0.5c-0.2-0.2-0.5-0.4-0.7-0.6c4.6-4.1,10-7,15.8-8.6
			C39.6,12.4,39.5,12.5,39.4,12.6z M21.2,23.5c0.3,0.3,0.6,0.5,0.9,0.7c0.3,0.2,0.5,0.5,0.8,0.7c0.7,0.6,1.5,1.2,2.3,1.7
			c0.1,0.1,0.2,0.2,0.4,0.3c0.9,0.6,1.8,1.2,2.8,1.8c0.3,0.2,0.6,0.3,0.8,0.5c0.4,0.2,0.9,0.5,1.3,0.7c0,0.1-0.1,0.2-0.1,0.3
			c-0.4,1.3-0.7,2.6-1,4c0,0.2-0.1,0.4-0.1,0.6c-0.3,1.4-0.5,2.8-0.8,4.3c0,0,0,0,0,0c-0.2,1.5-0.4,2.9-0.5,4.4c0,0.2,0,0.5-0.1,0.7
			c-0.1,1.4-0.2,2.9-0.2,4.3c0,0.1,0,0.2,0,0.4H10.5C10.9,39.5,14.7,30.5,21.2,23.5z M27.7,52.7c0,0.1,0,0.2,0,0.4
			c0,1.5,0.1,2.9,0.2,4.3c0,0.2,0,0.5,0.1,0.7c0.1,1.5,0.3,3,0.5,4.4c0,0,0,0,0,0c0.2,1.5,0.5,2.9,0.8,4.3c0,0.2,0.1,0.4,0.1,0.6
			c0.3,1.4,0.6,2.7,1,4c0,0.1,0.1,0.2,0.1,0.3c-0.4,0.2-0.9,0.5-1.3,0.7c-0.3,0.2-0.6,0.3-0.8,0.5c-1,0.6-1.9,1.1-2.8,1.8
			c-0.1,0.1-0.2,0.2-0.4,0.3c-0.8,0.5-1.5,1.1-2.3,1.7c-0.3,0.2-0.5,0.5-0.8,0.7c-0.3,0.2-0.6,0.5-0.9,0.7c-6.6-7-10.4-16-10.8-25.5
			H27.7z"/>
		<path id="XMLID_20_" d="M50.4,94.6c-1.5,0-3-0.1-4.4-0.2c-0.6-0.1-1.1-0.1-1.6-0.2L43.1,94c-0.2,0-0.4-0.1-0.6-0.1l-0.5-0.1
			c-0.1,0-0.3,0-0.4-0.1l0,0c-1-0.2-2-0.5-3-0.8l-0.4-0.1c-0.2-0.1-0.5-0.1-0.7-0.2c-0.6-0.2-1.2-0.4-1.8-0.6L35.6,92
			c-0.5-0.2-1-0.4-1.5-0.6l-0.1,0c-0.2-0.1-0.3-0.1-0.3-0.1h-0.1l0,0c-0.8-0.3-1.5-0.7-2.3-1c-0.4-0.2-0.9-0.4-1.3-0.7l0-0.1
			l-0.1,0.1c0,0,0,0,0,0c-3.7-2-7-4.4-10-7.4C11.3,73.8,6.7,62.7,6.7,50.9c0-11.9,4.7-23,13.2-31.3c8.2-8.1,19.1-12.5,30.6-12.5
			s22.4,4.4,30.6,12.5c8.5,8.3,13.2,19.4,13.2,31.3c0,11.9-4.7,23-13.2,31.3l0,0c-0.7,0.7-1.5,1.4-2.3,2.1c-1.9,1.7-4.1,3.2-6.5,4.6
			C72.1,88.9,72,89,71.8,89c-0.2,0.1-0.5,0.3-0.8,0.4c-0.1,0-0.2,0.1-0.2,0.1c-0.1,0-0.1,0.1-0.2,0.1c-0.3,0.2-0.6,0.3-1,0.5
			c0,0-0.1,0-0.1,0l-0.1,0c-0.8,0.4-1.5,0.7-2.2,1c-0.1,0-0.2,0.1-0.3,0.1c-0.7,0.3-1.3,0.5-1.9,0.7l-0.1,0
			c-0.6,0.2-1.1,0.4-1.6,0.5c-0.2,0.1-0.5,0.1-0.7,0.2L62.3,93c-0.9,0.3-2,0.6-3.1,0.8c-0.4,0.1-0.9,0.2-1.4,0.2l-1.3,0.2
			c-0.5,0.1-1.1,0.2-1.6,0.2C53.4,94.6,51.9,94.6,50.4,94.6z M34.1,91.2L34.1,91.2c0.5,0.2,1,0.4,1.5,0.6l0.2,0.1
			c0.7,0.3,1.3,0.5,1.8,0.6c0.2,0.1,0.5,0.1,0.7,0.2l0.4,0.1c1.1,0.3,2,0.6,3,0.8c0,0,0,0,0,0c0.1,0,0.3,0,0.4,0.1l0.5,0.1
			c0.2,0,0.4,0.1,0.6,0.1l1.2,0.2c0.5,0.1,1.1,0.2,1.6,0.2c2.9,0.3,5.9,0.3,8.8,0c0.5-0.1,1.1-0.1,1.6-0.2l1.3-0.2
			c0.5-0.1,1-0.1,1.4-0.2c1.1-0.2,2.1-0.5,3.1-0.8l0.4-0.1c0.3-0.1,0.5-0.1,0.7-0.2c0.5-0.2,1-0.3,1.6-0.5l0.1,0
			c0.6-0.2,1.2-0.5,1.9-0.7c0.1,0,0.2-0.1,0.3-0.1c0.7-0.3,1.4-0.6,2.2-1c0,0,0.1,0,0.1,0c0,0,0.1,0,0.1,0c0.3-0.2,0.6-0.3,1-0.5
			c0.1,0,0.1-0.1,0.2-0.1c0.1,0,0.2-0.1,0.2-0.1c0.3-0.1,0.5-0.3,0.8-0.4c0.1-0.1,0.3-0.2,0.4-0.3c2.4-1.4,4.5-2.9,6.5-4.5
			c0.8-0.7,1.6-1.4,2.3-2.1l0,0C89.3,73.7,94,62.6,94,50.9c0-11.8-4.7-22.8-13.1-31.1c-8.2-8-19-12.4-30.4-12.4
			C39,7.3,28.2,11.7,20,19.8C11.6,28,6.9,39.1,6.9,50.9C6.9,62.6,11.6,73.7,20,82c3,2.9,6.3,5.4,9.9,7.3c0,0,0,0,0,0l0,0.1l0.1-0.1
			c0.4,0.2,0.9,0.5,1.3,0.7c0.8,0.4,1.6,0.7,2.3,1.1l0.1,0C33.8,91.1,33.9,91.1,34.1,91.2L34.1,91.2z M52.1,90.8V70.5l0.1,0
			c0,0,0.1,0,0.1,0c1,0.1,2,0.1,3.1,0.3c0.2,0,0.4,0.1,0.6,0.1l0.1,0c1.2,0.2,2.2,0.4,3.1,0.6c0,0,0.1,0,0.1,0c0,0,0.1,0,0.1,0
			c0.9,0.2,1.8,0.5,2.9,0.8l0.2,0.1c0.1,0,0.3,0.1,0.4,0.1c1,0.3,2,0.7,2.9,1.1l0.3,0.1L66.1,74c0,0.1,0,0.1-0.1,0.2
			c-0.1,0.3-0.2,0.5-0.3,0.8l0,0c-0.1,0.4-0.3,0.7-0.4,1.1c-0.1,0.3-0.2,0.5-0.3,0.8c-0.1,0.4-0.3,0.7-0.4,1L64.5,78
			c-0.1,0.2-0.2,0.4-0.3,0.6c-0.2,0.4-0.3,0.7-0.5,1l-0.1,0.2c-0.1,0.1-0.1,0.3-0.2,0.4c-0.2,0.4-0.4,0.8-0.7,1.3l-0.1,0.1
			c0,0.1-0.1,0.1-0.1,0.2c-0.3,0.5-0.6,0.9-0.9,1.4c-0.1,0.1-0.1,0.2-0.2,0.3l-0.1,0.2c-0.2,0.3-0.4,0.6-0.6,0.9
			c-0.1,0.1-0.2,0.3-0.3,0.4L60.4,85c-0.2,0.2-0.4,0.5-0.6,0.7c-0.1,0.2-0.3,0.3-0.4,0.5c-0.2,0.2-0.4,0.4-0.6,0.7
			c-0.1,0.1-0.3,0.3-0.4,0.4c-0.2,0.2-0.4,0.4-0.7,0.6L57.6,88c-0.1,0.1-0.2,0.1-0.2,0.2c-0.3,0.2-0.6,0.5-0.9,0.7
			c0,0-0.1,0-0.1,0.1c0,0-0.1,0-0.1,0.1c-0.3,0.2-0.7,0.5-1.1,0.7c-0.1,0-0.1,0.1-0.2,0.1l-0.1,0.1c-0.3,0.2-0.6,0.3-0.8,0.4
			c-0.1,0-0.2,0.1-0.3,0.1l-0.1,0c-0.3,0.1-0.5,0.2-0.7,0.3c-0.1,0-0.3,0.1-0.4,0.1c-0.1,0-0.1,0-0.2,0L52.1,90.8z M52.4,70.8v19.7
			c0.1,0,0.1,0,0.2,0c0.1,0,0.3-0.1,0.4-0.1c0.2-0.1,0.4-0.1,0.7-0.2l0.1,0c0.1,0,0.2-0.1,0.3-0.1c0.2-0.1,0.5-0.2,0.8-0.4l0.1-0.1
			c0.1,0,0.1-0.1,0.2-0.1c0.4-0.2,0.7-0.4,1.1-0.7c0,0,0,0,0.1-0.1c0,0,0.1,0,0.1-0.1c0.3-0.2,0.6-0.4,0.9-0.7
			c0.1-0.1,0.2-0.1,0.2-0.2l0.1-0.1c0.3-0.2,0.5-0.4,0.7-0.6c0.1-0.1,0.3-0.3,0.4-0.4c0.2-0.2,0.4-0.4,0.6-0.6
			c0.1-0.2,0.3-0.3,0.4-0.5c0.2-0.2,0.4-0.5,0.6-0.7l0.1-0.1c0.1-0.1,0.2-0.3,0.3-0.4c0.2-0.3,0.4-0.6,0.6-0.9l0.1-0.2
			c0.1-0.1,0.1-0.2,0.2-0.3c0.3-0.5,0.6-0.9,0.9-1.4c0-0.1,0.1-0.1,0.1-0.2l0.1-0.1c0.3-0.4,0.5-0.8,0.7-1.2
			c0.1-0.1,0.1-0.3,0.2-0.4l0.1-0.2c0.2-0.3,0.3-0.7,0.5-1c0.1-0.2,0.2-0.4,0.3-0.6l0.1-0.1c0.1-0.3,0.3-0.7,0.4-1
			c0.1-0.3,0.2-0.5,0.3-0.8c0.1-0.4,0.3-0.7,0.4-1.1l0,0c0.1-0.3,0.2-0.5,0.3-0.8c0-0.1,0-0.1,0.1-0.2l0,0l-0.1,0
			c-0.9-0.4-1.9-0.8-2.9-1.1c-0.1,0-0.3-0.1-0.4-0.1l-0.2-0.1c-1-0.3-2-0.6-2.9-0.8c0,0-0.1,0-0.1,0c0,0-0.1,0-0.1,0
			c-0.9-0.2-1.9-0.4-3.1-0.6l-0.1,0c-0.2,0-0.4-0.1-0.6-0.1C54.4,70.9,53.4,70.8,52.4,70.8z M48.8,90.8l-0.3-0.1c-0.1,0-0.1,0-0.2,0
			l0,0c-0.1,0-0.3-0.1-0.4-0.1c-0.2-0.1-0.5-0.1-0.7-0.3l-0.1,0c-0.1,0-0.2-0.1-0.3-0.1c-0.2-0.1-0.5-0.2-0.8-0.4l-0.1-0.1
			c-0.1,0-0.1-0.1-0.2-0.1c-0.4-0.2-0.7-0.4-1.1-0.7c0,0-0.1,0-0.1-0.1l-0.1-0.1c-0.3-0.2-0.6-0.5-0.9-0.7c-0.1-0.1-0.2-0.1-0.2-0.2
			l-0.1-0.1c-0.2-0.2-0.4-0.4-0.7-0.6c-0.1-0.1-0.3-0.3-0.4-0.4c-0.2-0.2-0.4-0.5-0.6-0.7c-0.1-0.2-0.3-0.3-0.4-0.5
			c-0.2-0.2-0.4-0.5-0.6-0.7l-0.1-0.1c-0.1-0.1-0.2-0.3-0.3-0.4c-0.2-0.3-0.4-0.6-0.6-0.9l-0.1-0.2c-0.1-0.1-0.1-0.2-0.2-0.3
			c-0.3-0.5-0.6-1-0.9-1.4c0-0.1-0.1-0.1-0.1-0.2l-0.1-0.1c-0.3-0.5-0.5-0.9-0.7-1.3c-0.1-0.1-0.1-0.3-0.2-0.4l-0.1-0.2
			c-0.2-0.3-0.3-0.7-0.5-1c-0.1-0.2-0.2-0.4-0.3-0.7l0-0.1c-0.1-0.3-0.3-0.7-0.4-1c-0.1-0.3-0.2-0.5-0.3-0.8
			c-0.1-0.4-0.3-0.7-0.4-1.1c-0.1-0.3-0.2-0.5-0.3-0.8c0-0.1,0-0.1-0.1-0.2l-0.1-0.2l0.1,0c0,0,0.1,0,0.1,0c0,0,0.1,0,0.1,0
			c1-0.4,1.9-0.8,2.9-1.1c0.1,0,0.3-0.1,0.4-0.1l0.2-0.1c1-0.3,2-0.6,2.9-0.8c0,0,0.1,0,0.1,0c0,0,0.1,0,0.1,0
			c0.9-0.2,1.9-0.4,3.1-0.6c0.2,0,0.5-0.1,0.7-0.1c1.1-0.1,2.1-0.2,3.1-0.3l0.3,0V90.8z M48.3,90.5c0.1,0,0.1,0,0.2,0V70.8l0,0
			c-1,0-2,0.1-3,0.3c-0.2,0-0.4,0.1-0.7,0.1c-1.1,0.2-2.1,0.3-3.1,0.6l-0.1,0c0,0-0.1,0-0.1,0c-0.9,0.2-1.8,0.5-2.9,0.8l-0.2,0.1
			c-0.1,0-0.3,0.1-0.4,0.1c-1,0.3-1.9,0.7-2.9,1.1c0,0-0.1,0-0.1,0l0,0c0,0.1,0,0.1,0.1,0.2c0.1,0.3,0.2,0.5,0.3,0.8
			c0.1,0.4,0.3,0.7,0.4,1.1c0.1,0.3,0.2,0.5,0.3,0.8c0.1,0.3,0.3,0.7,0.4,1l0,0.1c0.1,0.2,0.2,0.4,0.3,0.7c0.2,0.3,0.3,0.7,0.5,1
			l0.1,0.2c0.1,0.1,0.1,0.3,0.2,0.4c0.2,0.4,0.4,0.8,0.7,1.3l0.1,0.1c0,0.1,0.1,0.1,0.1,0.2c0.3,0.5,0.6,0.9,0.9,1.4
			c0.1,0.1,0.1,0.2,0.2,0.3l0.1,0.2c0.2,0.3,0.4,0.6,0.6,0.9c0.1,0.1,0.2,0.3,0.3,0.4l0.1,0.1c0.2,0.2,0.4,0.5,0.6,0.7
			c0.1,0.2,0.3,0.3,0.4,0.5c0.2,0.2,0.4,0.4,0.6,0.6c0.1,0.2,0.3,0.3,0.4,0.4c0.2,0.2,0.5,0.4,0.7,0.6l0.1,0.1
			c0.1,0.1,0.2,0.1,0.2,0.2c0.3,0.2,0.6,0.4,0.9,0.7c0,0,0.1,0,0.1,0.1c0,0,0.1,0,0.1,0.1c0.3,0.2,0.7,0.5,1.1,0.7
			c0.1,0,0.1,0.1,0.2,0.1l0.1,0.1c0.3,0.2,0.5,0.3,0.8,0.4c0.1,0,0.2,0.1,0.3,0.1l0.1,0c0.3,0.1,0.5,0.2,0.7,0.2
			C48.1,90.4,48.2,90.4,48.3,90.5L48.3,90.5z M60.9,89.6l0.3-0.3c0,0,0.1-0.1,0.1-0.1c0,0,0.1-0.1,0.1-0.1c0.2-0.2,0.4-0.4,0.5-0.6
			l0,0c0.2-0.2,0.4-0.5,0.6-0.7c0.2-0.2,0.4-0.5,0.6-0.7c0.2-0.3,0.4-0.5,0.6-0.8c0.2-0.2,0.3-0.5,0.5-0.8c0.2-0.3,0.4-0.6,0.6-0.9
			c0.2-0.3,0.3-0.5,0.5-0.8c0.2-0.3,0.4-0.7,0.6-1c0.2-0.3,0.3-0.5,0.4-0.8c0.2-0.4,0.4-0.7,0.6-1.1l0.1-0.2
			c0.1-0.2,0.2-0.4,0.3-0.6c0.2-0.4,0.4-0.8,0.5-1.2l0.1-0.3c0.1-0.2,0.2-0.4,0.3-0.6c0.2-0.4,0.4-0.9,0.5-1.4l0.1-0.3
			c0.1-0.2,0.2-0.4,0.2-0.6c0,0,0-0.1,0-0.1l0.1-0.2l0.1,0.1c0.1,0.1,0.2,0.1,0.3,0.2c0.2,0.1,0.3,0.2,0.5,0.2
			c0.2,0.1,0.5,0.3,0.7,0.4c0.9,0.6,1.7,1.1,2.5,1.6l0.1,0.1c0.7,0.5,1.5,1.1,2.4,1.8c0.2,0.2,0.4,0.3,0.6,0.5
			c0.1,0.1,0.3,0.2,0.4,0.4c0.1,0.1,0.2,0.2,0.3,0.2l0.1,0.1l-0.1,0.1C77,80.9,77,81,76.9,81c-0.1,0.1-0.1,0.1-0.2,0.2
			c-0.2,0.2-0.5,0.4-0.7,0.6l0,0c-0.4,0.3-0.9,0.7-1.3,1c-0.3,0.2-0.6,0.4-0.9,0.6c-0.4,0.3-0.8,0.6-1.3,0.9l-0.2,0.2
			c-0.2,0.2-0.5,0.3-0.7,0.4c-0.5,0.3-1.1,0.7-1.6,0.9c-0.1,0.1-0.2,0.1-0.3,0.2c-0.1,0.1-0.2,0.1-0.4,0.2l-0.2,0.1
			c-0.4,0.2-0.8,0.4-1.3,0.6c-0.4,0.2-0.8,0.4-1.1,0.5l-0.1,0c-0.1,0-0.2,0.1-0.3,0.1c-0.2,0.1-0.4,0.2-0.6,0.2l-0.3,0.1
			c-1.2,0.5-2.2,0.9-3.2,1.2l0,0c-0.2,0-0.3,0.1-0.5,0.1l-0.1,0c-0.1,0-0.2,0.1-0.3,0.1L60.9,89.6z M69.4,75.6
			C69.3,75.6,69.3,75.6,69.4,75.6c-0.1,0.3-0.2,0.5-0.2,0.7L69,76.5c-0.2,0.5-0.3,0.9-0.5,1.4c-0.1,0.2-0.2,0.4-0.3,0.6l-0.1,0.3
			c-0.2,0.4-0.4,0.8-0.5,1.2c-0.1,0.2-0.2,0.4-0.3,0.6l-0.1,0.2c-0.2,0.4-0.4,0.8-0.6,1.1c-0.1,0.3-0.3,0.6-0.5,0.8
			c-0.2,0.3-0.4,0.7-0.6,1c-0.2,0.3-0.3,0.5-0.5,0.8c-0.2,0.3-0.4,0.6-0.6,0.9c-0.2,0.3-0.3,0.5-0.5,0.8c-0.2,0.3-0.4,0.6-0.6,0.8
			c-0.2,0.2-0.4,0.5-0.6,0.7c-0.2,0.3-0.4,0.5-0.6,0.7l0,0c-0.2,0.2-0.3,0.4-0.5,0.5l0.1,0c0.1,0,0.3-0.1,0.4-0.1l0,0l0,0
			c1-0.3,2-0.7,3.2-1.2l0.3-0.1c0.2-0.1,0.4-0.2,0.5-0.2c0.1,0,0.2-0.1,0.3-0.1l0.1,0c0.4-0.2,0.8-0.3,1.1-0.5
			c0.4-0.2,0.9-0.4,1.2-0.6l0.2-0.1c0.1-0.1,0.3-0.1,0.4-0.2c0.1-0.1,0.2-0.1,0.3-0.2c0.5-0.3,1.1-0.6,1.6-0.9
			c0.2-0.1,0.5-0.3,0.7-0.4l0.2-0.2c0.5-0.3,0.9-0.6,1.3-0.9c0.3-0.2,0.6-0.4,0.9-0.6c0.5-0.3,0.9-0.7,1.3-1h0
			c0.2-0.2,0.5-0.4,0.7-0.6c0.1-0.1,0.1-0.1,0.2-0.2c0,0,0,0,0.1-0.1c-0.1,0-0.1-0.1-0.2-0.1c-0.1-0.1-0.3-0.2-0.4-0.4
			c-0.2-0.2-0.4-0.4-0.6-0.5c-0.9-0.7-1.6-1.3-2.4-1.8l-0.1-0.1c-0.7-0.5-1.5-1-2.4-1.5c-0.2-0.1-0.5-0.3-0.7-0.4
			c-0.1-0.1-0.3-0.2-0.5-0.2C69.5,75.7,69.4,75.6,69.4,75.6z M40,89.6l-0.4-0.1c-0.2,0-0.3-0.1-0.5-0.1c-0.2,0-0.3-0.1-0.5-0.1
			c-0.5-0.2-1.1-0.3-1.7-0.6c-0.5-0.2-1-0.4-1.5-0.6L35,87.9c-0.6-0.2-1.2-0.5-2-0.9c-0.5-0.2-0.9-0.4-1.3-0.7l-0.2-0.1
			c-0.7-0.4-1.5-0.8-2.3-1.3c-0.2-0.1-0.3-0.2-0.5-0.3l-0.2-0.2c-0.6-0.4-1.1-0.7-1.5-1c-0.3-0.2-0.5-0.4-0.8-0.6
			c-0.5-0.3-0.9-0.7-1.3-1.1c-0.3-0.2-0.5-0.4-0.7-0.6C24.1,81.1,24,81.1,24,81c-0.1,0-0.1-0.1-0.2-0.1l-0.1-0.1l0.1-0.1
			c0.1-0.1,0.2-0.2,0.3-0.2c0.1-0.1,0.3-0.3,0.4-0.4l0.1-0.1c0.2-0.2,0.4-0.3,0.5-0.5c0.9-0.7,1.6-1.3,2.4-1.8c0,0,0,0,0.1,0
			c0,0,0,0,0,0c0.7-0.5,1.5-1,2.4-1.5c0.2-0.1,0.4-0.3,0.7-0.4l0.1,0c0.2-0.1,0.3-0.2,0.5-0.2c0.1-0.1,0.2-0.1,0.3-0.2l0.1-0.1
			l0,0.1c0,0,0,0.1,0,0.1l0,0.1c0.1,0.2,0.1,0.4,0.2,0.6l0.1,0.4c0.2,0.4,0.3,0.8,0.5,1.2c0.1,0.2,0.2,0.5,0.3,0.7l0.1,0.3
			c0.2,0.4,0.3,0.8,0.5,1.2c0.1,0.3,0.2,0.5,0.4,0.8l0.1,0.1c0.2,0.4,0.3,0.7,0.5,1.1c0.2,0.3,0.3,0.6,0.5,0.9
			c0.2,0.3,0.4,0.7,0.6,1c0.2,0.3,0.3,0.6,0.5,0.8c0.2,0.3,0.4,0.6,0.6,0.9c0.2,0.3,0.4,0.5,0.5,0.8c0.2,0.3,0.4,0.5,0.6,0.8
			c0.2,0.2,0.4,0.5,0.6,0.7c0.2,0.2,0.4,0.5,0.6,0.7c0.2,0.2,0.4,0.4,0.6,0.6c0,0,0.1,0.1,0.1,0.1c0,0,0.1,0.1,0.1,0.1L40,89.6z
			 M38.7,89L38.7,89c0.2,0.1,0.3,0.1,0.5,0.1c0,0,0,0,0.1,0c-0.2-0.2-0.3-0.4-0.5-0.6c-0.2-0.2-0.4-0.5-0.6-0.7
			c-0.2-0.2-0.4-0.5-0.6-0.7c-0.2-0.3-0.4-0.5-0.6-0.8c-0.2-0.3-0.4-0.5-0.5-0.8c-0.2-0.3-0.4-0.6-0.6-0.9c-0.2-0.3-0.3-0.5-0.5-0.8
			c-0.2-0.3-0.4-0.6-0.6-1c-0.2-0.3-0.3-0.6-0.5-0.9c-0.2-0.3-0.4-0.7-0.5-1.1l-0.1-0.1c-0.1-0.3-0.3-0.5-0.4-0.8
			c-0.2-0.4-0.3-0.8-0.5-1.2l-0.1-0.3c-0.1-0.2-0.2-0.5-0.3-0.7c-0.2-0.4-0.3-0.8-0.5-1.2l-0.1-0.4c-0.1-0.2-0.2-0.4-0.2-0.6l0,0
			c-0.1,0-0.1,0.1-0.2,0.1c-0.2,0.1-0.3,0.2-0.5,0.2l-0.1,0c-0.2,0.1-0.4,0.3-0.7,0.4c-0.9,0.5-1.7,1-2.4,1.5c0,0,0,0-0.1,0
			c0,0,0,0,0,0c-0.7,0.5-1.5,1.1-2.4,1.8c-0.2,0.1-0.4,0.3-0.5,0.4l-0.1,0.1c-0.1,0.1-0.3,0.2-0.4,0.4c-0.1,0-0.1,0.1-0.2,0.1
			c0,0,0,0,0.1,0.1c0.1,0.1,0.1,0.1,0.2,0.2c0.2,0.2,0.5,0.4,0.7,0.6c0.4,0.4,0.9,0.7,1.3,1.1c0.3,0.2,0.5,0.4,0.8,0.6
			c0.4,0.3,0.9,0.6,1.5,1h0l0.2,0.2c0.2,0.1,0.3,0.2,0.5,0.3c0.8,0.5,1.6,0.9,2.3,1.3l0.2,0.1c0.4,0.2,0.8,0.4,1.3,0.6
			c0.7,0.4,1.3,0.6,1.9,0.9l0,0l0.4,0.2c0.5,0.2,1,0.4,1.5,0.6C37.7,88.6,38.2,88.8,38.7,89z M79.7,78.4L79.7,78.4
			c-0.3-0.2-0.5-0.4-0.6-0.5c-0.1-0.1-0.2-0.2-0.3-0.3l-0.2-0.2c-0.2-0.2-0.4-0.3-0.6-0.5c-0.8-0.6-1.5-1.2-2.3-1.7
			c-0.1,0-0.1-0.1-0.2-0.1c-0.1,0-0.1-0.1-0.2-0.1c-0.9-0.6-1.8-1.2-2.8-1.8C72.3,73,72.1,73,72,72.9c-0.1-0.1-0.2-0.1-0.3-0.2
			c-0.1-0.1-0.3-0.2-0.4-0.2c-0.3-0.2-0.6-0.3-0.9-0.5l-0.1,0l0-0.1c0-0.1,0-0.1,0-0.2c0-0.1,0-0.1,0-0.2c0.4-1.3,0.7-2.6,1-3.9
			c0-0.2,0.1-0.3,0.1-0.5l0-0.2c0.3-1.5,0.6-2.9,0.8-4.3l0.1,0l-0.1,0c0.2-1.3,0.4-2.8,0.5-4.4l0-0.3c0-0.2,0-0.3,0-0.5
			C72.9,56,73,54.5,73,53c0-0.1,0-0.1,0-0.2c0-0.1,0-0.1,0-0.2l0-0.1h17.5l0,0.1C90.1,62.2,86.3,71.3,79.7,78.4L79.7,78.4z
			 M70.6,71.8c0.3,0.1,0.5,0.3,0.8,0.4c0.1,0.1,0.3,0.2,0.4,0.2c0.1,0.1,0.2,0.1,0.3,0.2c0.2,0.1,0.3,0.2,0.5,0.3
			c1,0.6,2,1.2,2.8,1.8c0.1,0,0.1,0.1,0.2,0.1c0,0,0.1,0.1,0.1,0.1c0.8,0.5,1.6,1.1,2.3,1.8c0.2,0.2,0.4,0.3,0.6,0.5l0.2,0.2
			c0.1,0.1,0.2,0.2,0.3,0.3c0.2,0.1,0.3,0.3,0.5,0.4c6.4-6.9,10.2-15.8,10.7-25.2h-17c0,0,0,0,0,0.1c0,0.1,0,0.1,0,0.2
			c0,1.5-0.1,2.9-0.2,4.4c0,0.2,0,0.3,0,0.5l0,0.2c-0.1,1.7-0.3,3.1-0.5,4.4l0,0c-0.2,1.3-0.4,2.7-0.8,4.3l0,0.2
			c0,0.2-0.1,0.3-0.1,0.5c-0.3,1.3-0.6,2.6-1,3.9C70.6,71.6,70.6,71.6,70.6,71.8C70.6,71.7,70.6,71.8,70.6,71.8z M21.2,78.4
			L21.2,78.4c-6.6-7.1-10.5-16.2-10.9-25.7l0-0.1h17.5l0,0.1c0,0.1,0,0.1,0,0.2c0,0.1,0,0.1,0,0.2c0,1.5,0.1,2.9,0.2,4.3
			c0,0.2,0,0.3,0,0.5l0,0.3c0.1,1.7,0.3,3.1,0.5,4.4c0.2,1.3,0.4,2.8,0.8,4.3l0,0.2c0,0.1,0.1,0.3,0.1,0.4c0.3,1.3,0.6,2.7,1,4
			c0,0.1,0,0.1,0,0.2c0,0.1,0,0.1,0,0.2l0,0.1l-0.1,0c-0.3,0.2-0.6,0.3-0.9,0.5c-0.1,0.1-0.3,0.2-0.4,0.2c-0.1,0.1-0.2,0.1-0.3,0.2
			c-0.2,0.1-0.4,0.2-0.5,0.3c-1,0.6-2,1.2-2.8,1.8c-0.1,0-0.1,0.1-0.2,0.1c-0.1,0-0.1,0.1-0.2,0.1c-0.8,0.5-1.5,1.1-2.3,1.7
			c-0.2,0.2-0.4,0.4-0.6,0.5l-0.2,0.2c-0.1,0.1-0.2,0.2-0.3,0.3C21.7,78,21.5,78.1,21.2,78.4L21.2,78.4z M10.6,52.8
			C11,62.3,14.7,71,21.3,78c0.1-0.1,0.3-0.3,0.4-0.4c0.1-0.1,0.2-0.2,0.3-0.3l0.2-0.2c0.2-0.2,0.4-0.4,0.6-0.5
			c0.7-0.6,1.5-1.2,2.3-1.7c0.1,0,0.1-0.1,0.2-0.1c0.1,0,0.1-0.1,0.2-0.1c0.8-0.6,1.8-1.2,2.8-1.8c0.2-0.1,0.4-0.2,0.5-0.3l0.3-0.2
			c0.1-0.1,0.3-0.1,0.4-0.2c0.3-0.2,0.5-0.3,0.8-0.5c0,0,0,0,0-0.1c0-0.1,0-0.1,0-0.2c-0.4-1.3-0.7-2.7-1-4c0-0.1-0.1-0.3-0.1-0.4
			l0-0.2c-0.3-1.6-0.6-3-0.8-4.3c-0.2-1.4-0.4-2.8-0.5-4.5l0-0.3c0-0.2,0-0.3,0-0.5c-0.1-1.4-0.2-2.9-0.2-4.3c0-0.1,0-0.1,0-0.2
			c0,0,0,0,0-0.1H10.6z M67.1,70.5l-0.2-0.1c-1-0.4-2-0.8-3.1-1.1c-0.2-0.1-0.5-0.2-0.7-0.2c-1.2-0.4-2.2-0.6-3.2-0.9
			c0,0-0.1,0-0.1,0c0,0-0.1,0-0.1,0c-1-0.2-2-0.4-3.1-0.5l-0.2,0c-0.2,0-0.4-0.1-0.6-0.1c-1.1-0.1-2.2-0.2-3.3-0.3c0,0-0.1,0-0.1,0
			c0,0-0.1,0-0.1,0l-0.1,0V52.6h17.5l0,0.1c0,1,0,1.8-0.1,2.6c0,0.2,0,0.4,0,0.6c0,0.3,0,0.6-0.1,1v0c-0.1,1.8-0.3,3.5-0.5,5.1
			c0,0.1,0,0.3-0.1,0.4c0,0.1,0,0.2-0.1,0.3c-0.2,1.4-0.5,2.9-0.8,4.2c-0.1,0.4-0.2,0.7-0.3,1.1c0,0.2-0.1,0.3-0.1,0.5
			c-0.1,0.6-0.3,1.2-0.4,1.7L67.1,70.5z M52.4,66.9C52.4,66.9,52.5,66.9,52.4,66.9c1.2,0.1,2.3,0.2,3.4,0.3c0.2,0,0.4,0,0.6,0.1
			l0.2,0c1.1,0.2,2.1,0.3,3.1,0.5c0,0,0.1,0,0.1,0c0,0,0.1,0,0.1,0c1,0.2,2,0.5,3.2,0.9c0.3,0.1,0.5,0.2,0.8,0.2
			c1.1,0.4,2.1,0.7,3.1,1.1l0-0.1c0.2-0.6,0.3-1.1,0.4-1.7c0-0.2,0.1-0.3,0.1-0.5c0.1-0.4,0.2-0.7,0.2-1.1c0.3-1.3,0.5-2.7,0.8-4.2
			c0-0.1,0-0.2,0.1-0.3c0-0.1,0-0.3,0.1-0.4c0.2-1.6,0.4-3.2,0.5-5l0,0c0-0.3,0-0.6,0.1-1c0-0.2,0-0.4,0-0.6c0-0.8,0.1-1.6,0.1-2.5
			h-17V66.9z M33.8,70.4l-0.1-0.1L33.7,70c-0.2-0.6-0.3-1.1-0.5-1.7l-0.1-0.5c-0.1-0.4-0.2-0.7-0.2-1.1l0,0
			c-0.3-1.3-0.5-2.7-0.8-4.2c0-0.1,0-0.2-0.1-0.3c0-0.1,0-0.3-0.1-0.4c-0.2-1.6-0.4-3.3-0.5-5.1c0-0.3,0-0.6-0.1-1
			c0-0.2,0-0.4,0-0.6c0-0.9-0.1-1.8-0.1-2.6l0-0.1h17.5v14.6l-0.1,0c0,0-0.1,0-0.1,0c0,0-0.1,0-0.1,0c-1.1,0-2.2,0.1-3.3,0.3
			c-0.2,0-0.3,0-0.5,0.1l-0.2,0c-1.1,0.2-2.1,0.3-3.1,0.5c0,0-0.1,0-0.1,0c0,0-0.1,0-0.1,0c-1,0.2-2,0.5-3.2,0.9
			c-0.2,0.1-0.5,0.1-0.7,0.2C36,69.6,34.9,70,34,70.4c0,0,0,0,0,0L33.8,70.4z M33.1,66.7c0.1,0.4,0.2,0.7,0.2,1.1l0.1,0.5
			c0.1,0.6,0.3,1.2,0.4,1.7l0,0.1c1-0.4,2-0.8,3.1-1.1c0.2-0.1,0.5-0.2,0.7-0.2c1.2-0.4,2.3-0.7,3.2-0.9c0,0,0.1,0,0.1,0
			c0,0,0.1,0,0.1,0c1-0.2,2-0.4,3.1-0.6l0.2,0c0.2,0,0.3,0,0.5-0.1c1.1-0.1,2.2-0.2,3.3-0.3c0,0,0.1,0,0.1,0V52.8h-17
			c0,0.8,0,1.6,0.1,2.5c0,0.2,0,0.4,0,0.6c0,0.3,0,0.6,0.1,0.9c0.1,1.8,0.3,3.5,0.5,5c0,0.1,0,0.2,0.1,0.4c0,0.1,0,0.2,0.1,0.3
			C32.6,64,32.8,65.4,33.1,66.7L33.1,66.7z M90.6,49.2H73l0-0.1c0-0.1,0-0.1,0-0.2c0-0.1,0-0.1,0-0.2c0-1.5-0.1-2.9-0.2-4.3
			c0-0.2,0-0.3,0-0.5l0-0.2c-0.1-1.7-0.3-3.1-0.5-4.4c-0.2-1.3-0.4-2.8-0.8-4.3l-0.1-0.3c0-0.1-0.1-0.3-0.1-0.4
			c-0.3-1.3-0.6-2.7-1-4c0-0.1,0-0.1,0-0.2c0-0.1,0-0.1,0-0.2l0-0.1l0.1,0c0.3-0.1,0.6-0.3,0.9-0.5c0.1-0.1,0.3-0.2,0.4-0.2
			c0.1-0.1,0.2-0.1,0.3-0.2c0.2-0.1,0.3-0.2,0.5-0.3c1-0.6,1.9-1.2,2.8-1.8c0.1,0,0.1-0.1,0.2-0.1c0,0,0.1-0.1,0.1-0.1
			c0.8-0.5,1.6-1.1,2.3-1.8c0.2-0.2,0.4-0.4,0.6-0.5l0.1-0.1c0.1-0.1,0.2-0.2,0.3-0.3c0.2-0.2,0.4-0.3,0.5-0.5l0.1-0.1l0.1,0.1
			c6.6,7,10.4,16.1,10.8,25.6L90.6,49.2z M73.3,48.9h17c-0.4-9.4-4.2-18.3-10.7-25.2c-0.2,0.1-0.3,0.3-0.5,0.4
			c-0.1,0.1-0.2,0.2-0.3,0.3l-0.1,0.1c-0.2,0.2-0.4,0.4-0.6,0.5c-0.8,0.6-1.6,1.2-2.3,1.8c0,0-0.1,0.1-0.1,0.1
			c-0.1,0-0.1,0.1-0.2,0.1c-0.9,0.6-1.8,1.2-2.8,1.8c-0.2,0.1-0.3,0.2-0.5,0.3c-0.1,0.1-0.2,0.1-0.3,0.2c-0.1,0.1-0.3,0.2-0.4,0.2
			c-0.3,0.1-0.5,0.3-0.8,0.4c0,0,0,0.1,0,0.1c0,0,0,0.1,0,0.1c0.4,1.3,0.7,2.7,1,4c0,0.1,0.1,0.3,0.1,0.4l0.1,0.3
			c0.3,1.6,0.6,3,0.8,4.3c0.2,1.3,0.4,2.8,0.5,4.5l0,0.2c0,0.2,0,0.3,0,0.5c0.1,1.4,0.2,2.9,0.2,4.4C73.3,48.7,73.3,48.8,73.3,48.9
			C73.3,48.9,73.3,48.9,73.3,48.9z M69.6,49.2H52.1V34.6l0.1,0c0,0,0.1,0,0.1,0c0,0,0.1,0,0.1,0c1.1,0,2.2-0.1,3.3-0.3l0,0
			c0.2,0,0.4,0,0.5-0.1l0.2,0c1.1-0.2,2.1-0.3,3.1-0.5c0,0,0.1,0,0.1,0s0.1,0,0.1,0c1-0.2,2-0.5,3.2-0.9c0.3-0.1,0.5-0.2,0.7-0.2
			c1.1-0.4,2.1-0.7,3.1-1.1c0,0,0,0,0,0l0.1-0.1l0.1,0.1l0.1,0.3c0.2,0.5,0.3,1.1,0.4,1.7c0,0.2,0.1,0.3,0.1,0.5
			c0.1,0.3,0.2,0.7,0.2,1c0.3,1.3,0.5,2.7,0.8,4.2c0,0.1,0,0.2,0.1,0.3c0,0.1,0,0.2,0.1,0.4c0.2,1.6,0.4,3.2,0.5,5.1
			c0,0.3,0,0.6,0.1,1c0,0.2,0,0.4,0,0.6c0,0.8,0.1,1.6,0.1,2.6L69.6,49.2z M52.4,48.9h17c0-0.9,0-1.7-0.1-2.5c0-0.2,0-0.4,0-0.6
			c0-0.3,0-0.6-0.1-1c-0.1-1.8-0.3-3.5-0.5-5c0-0.1,0-0.2-0.1-0.4c0-0.1,0-0.2-0.1-0.3c-0.2-1.5-0.5-2.9-0.8-4.2
			c-0.1-0.3-0.2-0.7-0.2-1c0-0.2-0.1-0.3-0.1-0.5c-0.1-0.6-0.3-1.1-0.4-1.7l0-0.2c-1,0.4-2,0.8-3.1,1.1c-0.3,0.1-0.5,0.2-0.8,0.2
			c-1.2,0.4-2.3,0.7-3.2,0.9c0,0-0.1,0-0.1,0c0,0-0.1,0-0.1,0c-1,0.2-2,0.4-3.1,0.5l-0.2,0c-0.2,0-0.4,0.1-0.5,0.1
			c-1.1,0.1-2.2,0.2-3.3,0.3c0,0-0.1,0-0.1,0V48.9z M48.8,49.2H31.3l0-0.1c0-0.8,0-1.7,0.1-2.6c0-0.2,0-0.4,0-0.6c0-0.3,0-0.7,0.1-1
			l0,0c0.1-1.8,0.3-3.5,0.5-5.1c0-0.1,0-0.2,0.1-0.4c0-0.1,0-0.2,0.1-0.3c0.2-1.5,0.5-2.9,0.8-4.2c0.1-0.4,0.2-0.7,0.2-1.1l0.1-0.5
			c0.1-0.6,0.3-1.1,0.4-1.7l0.1-0.5l0.2,0.1c1,0.4,2,0.8,3.2,1.2c0.2,0.1,0.5,0.2,0.7,0.2c1.2,0.4,2.2,0.7,3.2,0.9c0,0,0.1,0,0.1,0
			l0.1,0c1,0.2,2,0.4,3.1,0.5l0.2,0c0.2,0,0.4,0.1,0.5,0.1c1.1,0.1,2.2,0.2,3.3,0.3c0,0,0.1,0,0.1,0c0,0,0.1,0,0.1,0l0.1,0V49.2z
			 M31.5,48.9h17V34.8c0,0-0.1,0-0.1,0c-1.1-0.1-2.2-0.1-3.3-0.3c-0.2,0-0.4,0-0.5-0.1l-0.2,0c-1.1-0.2-2.2-0.3-3.1-0.6l-0.1,0
			c-0.1,0-0.1,0-0.2,0c-1-0.2-2-0.5-3.2-0.9c-0.2-0.1-0.5-0.1-0.7-0.2c-1.1-0.4-2.1-0.7-3.1-1.1l-0.1,0.2c-0.1,0.5-0.3,1.1-0.4,1.7
			l-0.1,0.5c-0.1,0.3-0.2,0.7-0.2,1.1c-0.3,1.3-0.5,2.7-0.8,4.2c0,0.1,0,0.2-0.1,0.3c0,0.1,0,0.2-0.1,0.4c-0.2,1.6-0.4,3.3-0.5,5
			l0,0c0,0.3,0,0.6-0.1,1c0,0.2,0,0.4,0,0.6C31.6,47.3,31.6,48.2,31.5,48.9z M27.8,49.2H10.3l0-0.1c0.4-9.5,4.3-18.6,10.8-25.6
			l0.1-0.1l0.1,0.1c0.2,0.2,0.4,0.3,0.5,0.5c0.1,0.1,0.2,0.2,0.3,0.3l0.2,0.1c0.2,0.2,0.4,0.4,0.6,0.5c0.7,0.6,1.5,1.2,2.3,1.7
			c0.1,0,0.1,0.1,0.2,0.1c0.1,0,0.1,0.1,0.2,0.1c0.8,0.6,1.8,1.2,2.8,1.8c0.2,0.1,0.3,0.2,0.5,0.3l0.3,0.2c0.1,0.1,0.3,0.2,0.4,0.2
			c0.3,0.2,0.6,0.3,0.9,0.5l0.1,0l0,0.1c0,0.1,0,0.1,0,0.2c0,0.1,0,0.1,0,0.2c-0.4,1.3-0.7,2.7-1,4c0,0.1-0.1,0.3-0.1,0.4l0,0.3
			c-0.3,1.6-0.6,3-0.8,4.3c-0.2,1.3-0.4,2.8-0.5,4.5l0,0.3c0,0.2,0,0.3,0,0.5c-0.1,1.4-0.2,2.9-0.2,4.3c0,0.1,0,0.1,0,0.2
			c0,0.1,0,0.1,0,0.2L27.8,49.2z M10.6,48.9h17c0,0,0,0,0-0.1c0-0.1,0-0.1,0-0.2c0-1.5,0.1-2.9,0.2-4.3c0-0.2,0-0.3,0-0.5l0-0.3
			c0.1-1.7,0.3-3.1,0.5-4.4c0.2-1.4,0.4-2.8,0.8-4.3l0-0.2c0-0.1,0.1-0.3,0.1-0.4c0.3-1.3,0.6-2.7,1-4c0-0.1,0-0.1,0-0.2
			c0,0,0-0.1,0-0.1c-0.3-0.1-0.5-0.3-0.8-0.4c-0.1-0.1-0.3-0.2-0.4-0.2l-0.3-0.2c-0.2-0.1-0.4-0.2-0.5-0.3c-1-0.6-2-1.2-2.8-1.8
			c-0.1,0-0.1-0.1-0.2-0.1c-0.1,0-0.1-0.1-0.2-0.1c-0.8-0.5-1.5-1.1-2.3-1.7c-0.2-0.2-0.4-0.4-0.6-0.5L22,24.4
			c-0.1-0.1-0.2-0.2-0.3-0.3c-0.2-0.1-0.3-0.3-0.5-0.4C14.8,30.6,11,39.5,10.6,48.9z M52.1,31.2V10.9l0.3,0.1c0.1,0,0.1,0,0.2,0
			c0.1,0,0.3,0.1,0.4,0.1c0.2,0.1,0.4,0.1,0.7,0.2l0.1,0c0.1,0,0.2,0.1,0.3,0.1c0.3,0.1,0.6,0.3,0.8,0.4c0,0,0.1,0,0.1,0.1
			c0.1,0,0.1,0.1,0.2,0.1c0.4,0.2,0.7,0.4,1.1,0.7c0,0,0.1,0,0.1,0.1c0,0,0.1,0,0.1,0.1c0.3,0.2,0.6,0.5,0.9,0.7
			c0.1,0.1,0.2,0.1,0.3,0.2l0.1,0.1c0.2,0.2,0.4,0.4,0.7,0.6c0.1,0.1,0.2,0.2,0.4,0.4l0,0c0.2,0.2,0.4,0.4,0.6,0.6
			c0.1,0.2,0.3,0.3,0.4,0.5c0.2,0.2,0.4,0.5,0.6,0.7l0.1,0.1c0.1,0.1,0.2,0.2,0.3,0.4c0.2,0.2,0.4,0.5,0.6,0.9l0.1,0.2
			c0.1,0.1,0.1,0.2,0.2,0.3c0.3,0.5,0.6,1,0.9,1.4c0,0.1,0.1,0.1,0.1,0.2c0,0,0,0.1,0.1,0.1c0.2,0.4,0.5,0.8,0.7,1.3
			c0.1,0.1,0.1,0.3,0.2,0.4l0.1,0.2c0.2,0.3,0.3,0.7,0.5,1c0.1,0.2,0.2,0.4,0.3,0.6l0,0.1c0.2,0.3,0.3,0.7,0.4,1
			c0.1,0.3,0.2,0.5,0.3,0.8c0.1,0.4,0.3,0.7,0.4,1.1l0.1,0.2c0.1,0.2,0.1,0.4,0.2,0.6c0,0.1,0,0.1,0.1,0.2l0.1,0.2l-0.2,0.1
			c0,0-0.1,0-0.1,0c-0.9,0.4-1.9,0.8-2.9,1.1c-0.1,0-0.3,0.1-0.4,0.1l-0.2,0.1c-1,0.3-2,0.6-2.9,0.8l-0.1,0c0,0-0.1,0-0.1,0
			c-0.9,0.2-1.9,0.4-3.1,0.6c-0.2,0-0.4,0.1-0.7,0.1c-1.1,0.1-2.1,0.2-3.1,0.3c0,0-0.1,0-0.1,0L52.1,31.2z M52.4,11.2v19.7
			c0,0,0,0,0,0c1,0,2-0.1,3-0.3c0.2,0,0.4-0.1,0.7-0.1c1.1-0.2,2.1-0.3,3.1-0.6c0,0,0.1,0,0.1,0l0.1,0c0.9-0.2,1.8-0.5,2.9-0.8
			l0.2-0.1c0.1,0,0.3-0.1,0.4-0.1c1-0.3,2-0.7,2.9-1.1c0,0,0.1,0,0.1,0c0-0.1,0-0.1-0.1-0.2c-0.1-0.2-0.1-0.4-0.2-0.6l-0.1-0.2
			c-0.1-0.4-0.3-0.7-0.4-1.1c-0.1-0.3-0.2-0.5-0.3-0.8c-0.1-0.3-0.3-0.7-0.4-1l0-0.1c-0.1-0.2-0.2-0.4-0.3-0.6
			c-0.2-0.3-0.3-0.7-0.5-1L63.4,22c-0.1-0.1-0.1-0.3-0.2-0.4c-0.2-0.4-0.4-0.8-0.7-1.2c0,0,0-0.1-0.1-0.1c0-0.1-0.1-0.1-0.1-0.2
			c-0.3-0.5-0.5-0.9-0.9-1.4c-0.1-0.1-0.1-0.2-0.2-0.3l-0.1-0.2c-0.2-0.4-0.4-0.6-0.6-0.9c-0.1-0.1-0.2-0.3-0.3-0.4l-0.1-0.1
			c-0.2-0.2-0.4-0.5-0.6-0.7c-0.1-0.2-0.3-0.3-0.4-0.5c-0.2-0.2-0.4-0.4-0.6-0.6l0,0c-0.1-0.1-0.2-0.2-0.4-0.4
			c-0.2-0.2-0.5-0.4-0.7-0.6l-0.1-0.1c-0.1-0.1-0.2-0.1-0.2-0.2c-0.3-0.2-0.5-0.4-0.9-0.7c0,0-0.1,0-0.1-0.1c0,0-0.1,0-0.1-0.1
			c-0.3-0.2-0.7-0.5-1-0.7c-0.1,0-0.1-0.1-0.2-0.1c0,0-0.1,0-0.1-0.1c-0.2-0.1-0.5-0.2-0.8-0.4c-0.1,0-0.2-0.1-0.3-0.1l-0.1,0
			c-0.3-0.1-0.5-0.2-0.7-0.2l0,0c-0.1,0-0.3-0.1-0.4-0.1C52.5,11.2,52.4,11.2,52.4,11.2z M48.8,31.2l-0.1,0c0,0-0.1,0-0.1,0
			c-1,0-2-0.1-3.1-0.3c-0.2,0-0.4-0.1-0.7-0.1c-1.1-0.2-2.1-0.4-3.1-0.6c0,0-0.1,0-0.1,0c0,0-0.1,0-0.1,0c-0.9-0.2-1.9-0.5-2.9-0.8
			l-0.2-0.1c-0.1,0-0.3-0.1-0.4-0.1c-1-0.3-2-0.7-2.9-1.1L34.8,28l0.1-0.2c0-0.1,0-0.1,0.1-0.2c0.1-0.2,0.2-0.5,0.3-0.7l0-0.1
			c0.1-0.4,0.3-0.7,0.4-1.1c0.1-0.3,0.2-0.5,0.3-0.8c0.1-0.4,0.3-0.7,0.4-1c0.1-0.2,0.2-0.5,0.3-0.7c0.2-0.4,0.3-0.7,0.5-1l0.1-0.2
			c0.1-0.1,0.1-0.3,0.2-0.4c0.2-0.4,0.4-0.8,0.7-1.3c0,0,0.1-0.1,0.1-0.1c0,0,0.1-0.1,0.1-0.1c0.3-0.5,0.6-0.9,0.9-1.4
			c0.1-0.1,0.1-0.2,0.2-0.3l0.1-0.2c0.2-0.3,0.4-0.6,0.6-0.9c0.1-0.1,0.2-0.3,0.3-0.4l0.1-0.1c0.2-0.2,0.4-0.5,0.6-0.7
			c0.1-0.2,0.3-0.3,0.4-0.5c0.2-0.2,0.4-0.4,0.6-0.6l0,0c0.1-0.1,0.2-0.2,0.4-0.4c0.2-0.2,0.4-0.4,0.7-0.6l0.1-0.1
			c0.1-0.1,0.2-0.2,0.3-0.2c0.3-0.2,0.6-0.5,0.9-0.7c0,0,0,0,0.1-0.1c0,0,0.1,0,0.1-0.1c0.3-0.2,0.7-0.5,1.1-0.7
			c0.1,0,0.1-0.1,0.2-0.1c0,0,0.1,0,0.1-0.1c0.3-0.2,0.6-0.3,0.8-0.4c0.1,0,0.2-0.1,0.3-0.1l0.1,0c0.3-0.1,0.5-0.2,0.7-0.2
			c0.1,0,0.3-0.1,0.4-0.1c0.1,0,0.1,0,0.2,0l0.3-0.1V31.2z M35.1,27.8L35.1,27.8c1,0.4,2,0.8,3,1.1c0.1,0,0.3,0.1,0.4,0.1l0.2,0.1
			c1,0.3,2,0.6,2.9,0.8c0,0,0.1,0,0.1,0c0,0,0.1,0,0.1,0c0.9,0.2,1.9,0.4,3.1,0.6c0.2,0,0.4,0.1,0.7,0.1c1.1,0.1,2.1,0.2,3.1,0.3
			V11.2c-0.1,0-0.1,0-0.2,0c-0.1,0-0.3,0.1-0.4,0.1c-0.2,0.1-0.4,0.1-0.7,0.2l-0.1,0c-0.1,0-0.2,0.1-0.3,0.1
			c-0.2,0.1-0.5,0.2-0.8,0.4c0,0-0.1,0-0.1,0.1c-0.1,0-0.1,0.1-0.2,0.1c-0.4,0.2-0.7,0.4-1.1,0.7c0,0-0.1,0-0.1,0.1
			c0,0-0.1,0-0.1,0.1c-0.3,0.2-0.6,0.4-0.9,0.7c-0.1,0.1-0.2,0.1-0.3,0.2L43.3,14c-0.3,0.2-0.5,0.4-0.7,0.6
			c-0.1,0.1-0.2,0.2-0.4,0.4l0,0c-0.2,0.2-0.4,0.4-0.6,0.6c-0.1,0.2-0.3,0.3-0.4,0.5c-0.2,0.2-0.4,0.5-0.6,0.7l-0.1,0.1
			c-0.1,0.1-0.2,0.3-0.3,0.4c-0.2,0.3-0.4,0.6-0.6,0.9l-0.1,0.2c-0.1,0.1-0.1,0.2-0.2,0.3c-0.3,0.5-0.6,0.9-0.9,1.4
			c0,0,0,0.1-0.1,0.1c0,0-0.1,0.1-0.1,0.1c-0.3,0.4-0.5,0.9-0.7,1.3c-0.1,0.1-0.1,0.3-0.2,0.4l-0.1,0.2c-0.2,0.3-0.3,0.7-0.5,1
			c-0.1,0.2-0.2,0.5-0.3,0.7c-0.1,0.3-0.3,0.7-0.4,1c-0.1,0.3-0.2,0.5-0.3,0.8c-0.1,0.4-0.3,0.7-0.4,1.1l0,0.1
			c-0.1,0.2-0.2,0.5-0.3,0.7C35.1,27.7,35.1,27.8,35.1,27.8L35.1,27.8z M69.2,26.5l-0.1-0.2c0,0,0-0.1,0-0.1
			c-0.1-0.2-0.2-0.4-0.2-0.7l-0.1-0.3c-0.2-0.4-0.3-0.9-0.5-1.3c-0.1-0.2-0.2-0.5-0.3-0.7L67.9,23c-0.2-0.4-0.3-0.8-0.5-1.2
			c-0.1-0.2-0.2-0.5-0.3-0.7l-0.1-0.2c-0.2-0.4-0.4-0.7-0.5-1.1c-0.1-0.3-0.3-0.5-0.4-0.8l0-0.1c-0.2-0.3-0.4-0.7-0.6-1
			c-0.2-0.3-0.3-0.5-0.5-0.8c-0.2-0.3-0.4-0.6-0.6-0.9c-0.2-0.3-0.3-0.5-0.5-0.7c-0.2-0.3-0.4-0.6-0.6-0.8c-0.2-0.2-0.4-0.5-0.5-0.7
			c-0.2-0.3-0.4-0.5-0.6-0.8c-0.2-0.2-0.4-0.4-0.6-0.6c0,0-0.1-0.1-0.1-0.1c0,0-0.1-0.1-0.1-0.1l-0.3-0.3l0.4,0.1
			c5.9,1.6,11.2,4.6,15.8,8.7l0.1,0.1L77.1,21c-0.1,0.1-0.2,0.2-0.3,0.2c-0.1,0.1-0.3,0.3-0.4,0.4c-0.2,0.2-0.4,0.4-0.6,0.5
			c-0.8,0.7-1.6,1.3-2.4,1.8c0,0-0.1,0-0.1,0.1l-0.1,0c-0.7,0.5-1.5,1-2.4,1.5c-0.2,0.1-0.5,0.3-0.8,0.4c-0.1,0.1-0.3,0.2-0.5,0.2
			c-0.1,0.1-0.2,0.1-0.3,0.2L69.2,26.5z M61.6,12.6c0.2,0.2,0.3,0.4,0.5,0.6c0.2,0.2,0.4,0.5,0.6,0.8c0.2,0.2,0.4,0.4,0.5,0.7
			c0.2,0.3,0.4,0.6,0.6,0.8c0.2,0.2,0.3,0.5,0.5,0.7c0.2,0.3,0.4,0.6,0.6,0.9c0.2,0.3,0.3,0.5,0.5,0.8c0.2,0.3,0.4,0.7,0.6,1l0,0.1
			c0.1,0.3,0.3,0.5,0.4,0.8c0.2,0.4,0.4,0.7,0.5,1.1l0.1,0.2c0.1,0.2,0.2,0.5,0.3,0.7c0.2,0.4,0.3,0.8,0.5,1.2l0.1,0.3
			c0.1,0.2,0.2,0.4,0.3,0.7c0.2,0.4,0.3,0.9,0.5,1.3l0.1,0.3c0.1,0.2,0.2,0.4,0.2,0.7c0,0,0,0,0,0c0.1,0,0.1-0.1,0.2-0.1
			c0.1-0.1,0.3-0.2,0.4-0.2c0.3-0.1,0.5-0.3,0.7-0.4c0.9-0.5,1.7-1,2.4-1.5l0.1,0c0,0,0,0,0.1,0c0.7-0.5,1.5-1.1,2.4-1.8
			c0.2-0.2,0.4-0.3,0.6-0.5c0.2-0.1,0.3-0.3,0.4-0.4c0.1-0.1,0.1-0.1,0.2-0.2C72.4,17,67.3,14.2,61.6,12.6z M31.7,26.5l-0.1-0.1
			c-0.1-0.1-0.2-0.1-0.3-0.2c-0.2-0.1-0.3-0.2-0.5-0.2c-0.2-0.1-0.5-0.3-0.7-0.4c-0.9-0.5-1.7-1.1-2.5-1.6L27.5,24
			c-0.7-0.5-1.5-1.1-2.4-1.8c-0.2-0.2-0.4-0.3-0.6-0.5l0,0c-0.1-0.1-0.3-0.3-0.4-0.4c-0.1-0.1-0.2-0.2-0.3-0.2l-0.1-0.1l0.1-0.1
			c4.6-4.1,9.9-7,15.8-8.7l0.5-0.1l-0.3,0.3c0,0-0.1,0.1-0.1,0.1c0,0-0.1,0.1-0.1,0.1l0,0c-0.2,0.2-0.4,0.4-0.6,0.6
			c-0.2,0.2-0.4,0.5-0.6,0.7c-0.2,0.2-0.4,0.5-0.6,0.7c-0.2,0.3-0.4,0.5-0.6,0.8c-0.2,0.3-0.4,0.5-0.6,0.8c-0.2,0.3-0.4,0.6-0.6,0.9
			c-0.2,0.3-0.4,0.6-0.5,0.9c-0.2,0.3-0.4,0.6-0.5,0.9c-0.2,0.3-0.3,0.6-0.5,0.9c-0.2,0.3-0.3,0.7-0.5,1c-0.2,0.3-0.3,0.6-0.5,0.9
			c-0.2,0.4-0.3,0.8-0.5,1.1l-0.1,0.2c-0.1,0.2-0.2,0.5-0.3,0.7c-0.2,0.4-0.3,0.8-0.5,1.2L32,25.5c-0.1,0.2-0.2,0.4-0.2,0.6
			L31.7,26.5z M24.1,20.9c0.1,0,0.1,0.1,0.2,0.2c0.1,0.1,0.3,0.3,0.4,0.4l0,0c0.2,0.2,0.4,0.3,0.6,0.5c0.9,0.7,1.6,1.3,2.4,1.8l0,0
			c0,0,0,0,0.1,0c0.7,0.5,1.5,1,2.4,1.5c0.2,0.1,0.5,0.3,0.7,0.4c0.1,0.1,0.3,0.2,0.5,0.2c0.1,0,0.1,0.1,0.2,0.1l0,0
			c0.1-0.2,0.2-0.4,0.2-0.6l0.1-0.4c0.2-0.4,0.3-0.8,0.5-1.2c0.1-0.2,0.2-0.5,0.3-0.7l0.1-0.2c0.2-0.4,0.3-0.8,0.5-1.2
			c0.1-0.3,0.3-0.6,0.4-0.9c0.2-0.4,0.4-0.7,0.5-1.1c0.2-0.3,0.3-0.6,0.5-0.9c0.2-0.3,0.4-0.6,0.5-0.9c0.2-0.3,0.4-0.6,0.5-0.9
			c0.2-0.3,0.4-0.6,0.6-0.9c0.2-0.3,0.4-0.5,0.6-0.8c0.2-0.3,0.4-0.5,0.6-0.8c0.2-0.2,0.4-0.5,0.6-0.7c0.2-0.3,0.4-0.5,0.6-0.7
			c0.2-0.2,0.3-0.4,0.5-0.6C33.6,14.2,28.5,17,24.1,20.9z"/>
	</g>
</g>
</svg>
