<?xml version="1.0" encoding="utf-8"?>
<!-- Generator: Adobe Illustrator 19.0.0, SVG Export Plug-In . SVG Version: 6.00 Build 0)  -->
<svg version="1.1" id="Layer_1" xmlns="http://www.w3.org/2000/svg" xmlns:xlink="http://www.w3.org/1999/xlink" x="0px" y="0px"
	 viewBox="0 0 100 100" style="enable-background:new 0 0 100 100;" xml:space="preserve">
<g id="XMLID_4353_">
	<path id="XMLID_4365_" d="M49.7,52.9c6,0,10.9-4.9,10.9-10.9c0-6-4.9-10.9-10.9-10.9c-6,0-10.9,4.9-10.9,10.9
		C38.8,48,43.6,52.9,49.7,52.9z M49.7,35.4c3.7,0,6.7,3,6.7,6.7c0,3.7-3,6.7-6.7,6.7c-3.7,0-6.7-3-6.7-6.7
		C43,38.4,46,35.4,49.7,35.4z"/>
	<path id="XMLID_4362_" d="M49.7,56.9c-4.4,0-8.7,1.8-11.8,4.9c-3.2,3.2-4.9,7.6-4.9,12.3c0,1.2,0.9,2.1,2.1,2.1h29.2
		c1.2,0,2.1-0.9,2.1-2.1c0-4.8-1.7-9.1-4.9-12.3C58.4,58.7,54.1,56.9,49.7,56.9z M37.3,72.1c0.4-2.8,1.6-5.3,3.5-7.3
		c2.3-2.4,5.5-3.7,8.8-3.7c3.3,0,6.5,1.3,8.8,3.7c1.9,2,3.2,4.6,3.5,7.3H37.3z"/>
	<path id="XMLID_4355_" d="M74.9,2.2H24.4c-5.8,0-10.5,4.7-10.5,10.5v74.5c0,5.8,4.7,10.5,10.5,10.5h50.5c5.8,0,10.5-4.7,10.5-10.5
		V12.7C85.4,6.9,80.7,2.2,74.9,2.2z M81.2,87.2c0,3.5-2.8,6.3-6.3,6.3H24.4c-3.5,0-6.3-2.8-6.3-6.3V12.7c0-3.5,2.8-6.3,6.3-6.3h50.5
		c3.5,0,6.3,2.8,6.3,6.3V87.2z"/>
	<path id="XMLID_4354_" d="M40.9,16.3h16.8c1.2,0,2.1-0.9,2.1-2.1s-0.9-2.1-2.1-2.1H40.9c-1.2,0-2.1,0.9-2.1,2.1
		S39.7,16.3,40.9,16.3z"/>
</g>
</svg>
