<?xml version="1.0" encoding="utf-8"?>
<!-- Generator: Adobe Illustrator 19.0.0, SVG Export Plug-In . SVG Version: 6.00 Build 0)  -->
<svg version="1.1" id="Layer_1" xmlns="http://www.w3.org/2000/svg" xmlns:xlink="http://www.w3.org/1999/xlink" x="0px" y="0px"
	 viewBox="0 0 100 100" style="enable-background:new 0 0 100 100;" xml:space="preserve">
<g id="XMLID_25572_">
	<g id="XMLID_109_">
		<g id="XMLID_110_">
			<path id="XMLID_111_" d="M91.3,25.5h-3.1v-7.6c0-2.5-2.1-4.6-4.6-4.6h-6.1c-2.5,0-4.6,2.1-4.6,4.6v12.2h-3.6L69,29.3
				c-1.6-4.1-5.5-6.8-10-6.8h-0.1c-0.6-1.8-2.3-3.1-4.3-3.1c-1.2,0-2.2,0.5-3.1,1.2c-0.8-0.7-1.9-1.2-3.1-1.2
				c-1.2,0-2.2,0.5-3.1,1.2c-0.8-0.7-1.9-1.2-3.1-1.2s-2.2,0.5-3.1,1.2c-0.8-0.7-1.9-1.2-3.1-1.2c-2.5,0-4.6,2.1-4.6,4.6v6.1h-4.6
				V17.9c0-2.5-2.1-4.6-4.6-4.6h-6.1c-2.5,0-4.6,2.1-4.6,4.6v7.6H8.7c-2.5,0-4.6,2.1-4.6,4.6v15.3c0,2.5,2.1,4.6,4.6,4.6h3.1v7.6
				c0,2.5,2.1,4.6,4.6,4.6h6.1c2.5,0,4.6-2.1,4.6-4.6V45.4h3.5l1.2,3.8c0.1,0.2,0.1,0.3,0.2,0.5l4.1,5.3l-2.6,27.5
				c-0.1,1.1,0.3,2.2,1,3c0.7,0.8,1.8,1.3,2.9,1.3h20.7c1.1,0,2.2-0.5,2.9-1.3c0.7-0.8,1.1-1.9,1-3l-2.7-26.7c0-0.3,0.1-0.6,0.3-0.7
				l8.4-7.2c0.7-0.6,1.2-1.4,1.6-2.3h3.4v12.2c0,2.5,2.1,4.6,4.6,4.6h6.1c2.5,0,4.6-2.1,4.6-4.6V50h3.1c2.5,0,4.6-2.1,4.6-4.6V30.1
				C95.9,27.6,93.8,25.5,91.3,25.5z M11.8,46.9H8.7c-0.8,0-1.5-0.7-1.5-1.5V30.1c0-0.8,0.7-1.5,1.5-1.5h3.1V46.9z M24,31.6v12.2
				v13.8c0,0.8-0.7,1.5-1.5,1.5h-6.1c-0.8,0-1.5-0.7-1.5-1.5v-9.2V27.1v-9.2c0-0.8,0.7-1.5,1.5-1.5h6.1c0.8,0,1.5,0.7,1.5,1.5V31.6z
				 M53.1,24c0-0.8,0.7-1.5,1.5-1.5c0.8,0,1.5,0.7,1.5,1.5v7.6V33c0,0.6-0.3,1.1-0.7,1.4c0,0-0.1,0.1-0.1,0.1
				c-0.1,0-0.2,0.1-0.3,0.1c-0.1,0-0.2,0.1-0.3,0.1c-0.1,0-0.2,0-0.4,0c-0.1,0-0.2,0-0.3-0.1c-0.1,0-0.2-0.1-0.3-0.2
				c-0.1,0-0.1-0.1-0.2-0.1c-0.1-0.1-0.2-0.2-0.3-0.3c0-0.1-0.1-0.1-0.1-0.2c-0.1-0.2-0.1-0.4-0.1-0.6L53.1,24L53.1,24z M46.9,24
				c0-0.8,0.7-1.5,1.5-1.5c0.8,0,1.5,0.7,1.5,1.5v9.2c0,0.8-0.7,1.5-1.5,1.5c-0.8,0-1.5-0.7-1.5-1.5V24z M40.8,24
				c0-0.8,0.7-1.5,1.5-1.5s1.5,0.7,1.5,1.5v9.2c0,0.8-0.7,1.5-1.5,1.5s-1.5-0.7-1.5-1.5V24z M34.7,31.6V24c0-0.8,0.7-1.5,1.5-1.5
				c0.8,0,1.5,0.7,1.5,1.5v9.2c0,0.2-0.1,0.4-0.1,0.6c0,0.1-0.1,0.1-0.1,0.2c-0.1,0.1-0.2,0.2-0.3,0.3c-0.1,0.1-0.1,0.1-0.2,0.1
				c-0.1,0.1-0.2,0.1-0.4,0.2c-0.1,0-0.2,0-0.3,0.1c-0.1,0-0.2,0-0.4,0c-0.1,0-0.2,0-0.3-0.1c-0.1,0-0.2-0.1-0.3-0.1
				c0,0-0.1-0.1-0.1-0.1c-0.4-0.3-0.7-0.8-0.7-1.4V31.6z M27.1,42.4v-9.2h4.6c0,1.7,0.9,3.1,2.3,3.9c0.1,0.1,0.2,0.1,0.3,0.1
				c0.1,0.1,0.3,0.1,0.4,0.2c0.2,0.1,0.3,0.1,0.5,0.2c0.1,0,0.2,0.1,0.3,0.1c0,0,0.1,0,0.1,0c0.1,0,0.2,0,0.3,0c0.1,0,0.3,0,0.4,0
				c0,0,0.1,0,0.1,0c0.1,0,0.3,0,0.4,0c0.2,0,0.4,0,0.5-0.1c0.1,0,0.3-0.1,0.4-0.1c0.2-0.1,0.3-0.1,0.5-0.2c0.1-0.1,0.2-0.1,0.4-0.2
				c0.2-0.1,0.3-0.2,0.4-0.3c0.1,0,0.1-0.1,0.2-0.1c0,0,0.1-0.1,0.1-0.1c0.1,0.1,0.2,0.1,0.3,0.2c0.1,0.1,0.2,0.1,0.3,0.2
				c0.1,0.1,0.3,0.2,0.5,0.2c0.1,0.1,0.2,0.1,0.3,0.2c0.2,0.1,0.4,0.1,0.6,0.2c0.1,0,0.2,0.1,0.3,0.1c0.3,0.1,0.6,0.1,0.9,0.1
				s0.6,0,0.9-0.1c0.1,0,0.2-0.1,0.3-0.1c0.2-0.1,0.4-0.1,0.5-0.2c0.1,0,0.2-0.1,0.3-0.2c0.2-0.1,0.3-0.2,0.4-0.2
				c0.1-0.1,0.2-0.1,0.3-0.2c0.1-0.1,0.2-0.1,0.3-0.2c0.1,0.1,0.2,0.1,0.3,0.2c0.1,0.1,0.2,0.2,0.3,0.2c0.1,0.1,0.3,0.2,0.4,0.2
				c0.1,0.1,0.2,0.1,0.3,0.2c0.2,0.1,0.4,0.1,0.5,0.2c0.1,0,0.2,0.1,0.3,0.1c0.3,0.1,0.6,0.1,0.9,0.1c0.3,0,0.6,0,0.9-0.1
				c0.1,0,0.2-0.1,0.3-0.1c0.2-0.1,0.4-0.1,0.6-0.2c0.1,0,0.2-0.1,0.3-0.2c0.2-0.1,0.3-0.2,0.5-0.2c0.1-0.1,0.2-0.1,0.3-0.2
				c0.1-0.1,0.2-0.1,0.3-0.2c0,0,0.1,0.1,0.1,0.1c0.1,0.1,0.1,0.1,0.2,0.1c0.1,0.1,0.3,0.2,0.4,0.3c0.1,0.1,0.2,0.1,0.4,0.2
				c0.2,0.1,0.3,0.1,0.5,0.2c0.1,0,0.2,0.1,0.4,0.1c0.2,0,0.4,0.1,0.6,0.1c0.1,0,0.3,0,0.4,0c0,0,0.1,0,0.1,0c0.2,0,0.3,0,0.4,0
				c0.1,0,0.2,0,0.3,0c0,0,0.1,0,0.1,0c0.1,0,0.1,0,0.2-0.1c0.2,0,0.4-0.1,0.6-0.2c0.1,0,0.2-0.1,0.3-0.1c0.1-0.1,0.2-0.1,0.3-0.2
				c1.1-0.6,2-1.7,2.2-3c0.1,0.2,0.1,0.4,0.1,0.5v5.5L57,42.4H27.1z M66.8,43.6c0,0.7-0.3,1.4-0.8,1.8l-8.4,7.2
				c-1,0.8-1.5,2.1-1.4,3.4l2.7,26.7c0,0.3-0.1,0.6-0.2,0.7c-0.1,0.1-0.3,0.3-0.6,0.3H37.3c-0.3,0-0.5-0.2-0.6-0.3
				c-0.1-0.1-0.3-0.3-0.2-0.7l2.7-28.1c0-0.4-0.1-0.8-0.3-1.1L34.5,48l-0.8-2.6H57c0.8,0,1.6-0.3,2.2-0.9l2.2-2.2
				c0.6-0.6,0.9-1.3,0.9-2.2v-5.5c0-2-1.3-3.7-3.1-4.3v-4.9c3.1,0.1,5.8,1.9,7,4.8l0.6,1.4c0.1,0.1,0.1,0.3,0.1,0.4V43.6z
				 M72.9,42.4h-3.1v-9.2h3.1V42.4z M85.2,27.1v21.4v9.2c0,0.8-0.7,1.5-1.5,1.5h-6.1c-0.8,0-1.5-0.7-1.5-1.5V43.9V31.6V17.9
				c0-0.8,0.7-1.5,1.5-1.5h6.1c0.8,0,1.5,0.7,1.5,1.5V27.1z M92.8,45.4c0,0.8-0.7,1.5-1.5,1.5h-3.1V28.6h3.1c0.8,0,1.5,0.7,1.5,1.5
				V45.4z"/>
		</g>
	</g>
</g>
</svg>
