<?xml version="1.0" encoding="utf-8"?>
<!-- Generator: Adobe Illustrator 19.0.0, SVG Export Plug-In . SVG Version: 6.00 Build 0)  -->
<svg version="1.1" id="Layer_1" xmlns="http://www.w3.org/2000/svg" xmlns:xlink="http://www.w3.org/1999/xlink" x="0px" y="0px"
	 viewBox="0 0 100 100" style="enable-background:new 0 0 100 100;" xml:space="preserve">
<g id="XMLID_24126_">
	<g id="XMLID_24133_">
		<g id="XMLID_24135_">
			<path id="XMLID_24136_" d="M49.2,5c-24.3,0-44,19.7-44,44c0,24.3,19.7,44,44,44c24.3,0,44-19.7,44-44C93.2,24.7,73.5,5,49.2,5z
				 M49.2,87.1C28.1,87.1,11,70,11,49s17.1-38.1,38.1-38.1S87.3,28,87.3,49S70.2,87.1,49.2,87.1z"/>
		</g>
	</g>
	<g id="XMLID_24130_">
		<g id="XMLID_24131_">
			<path id="XMLID_24123_" d="M49.2,41c-1.6,0-2.9,1.3-2.9,2.9v24.7c0,1.6,1.3,2.9,2.9,2.9c1.6,0,2.9-1.3,2.9-2.9V44
				C52.1,42.4,50.8,41,49.2,41z"/>
		</g>
	</g>
	<g id="XMLID_24127_">
		<g id="XMLID_24128_">
			<path id="XMLID_24122_" d="M49.2,26.3c-3.2,0-5.9,2.6-5.9,5.9c0,3.2,2.6,5.9,5.9,5.9c3.2,0,5.9-2.6,5.9-5.9
				C55,29,52.4,26.3,49.2,26.3z"/>
		</g>
	</g>
</g>
</svg>
