<?xml version="1.0" encoding="utf-8"?>
<!-- Generator: Adobe Illustrator 19.0.0, SVG Export Plug-In . SVG Version: 6.00 Build 0)  -->
<svg version="1.1" id="Layer_1" xmlns="http://www.w3.org/2000/svg" xmlns:xlink="http://www.w3.org/1999/xlink" x="0px" y="0px"
	 viewBox="0 0 100 100" style="enable-background:new 0 0 100 100;" xml:space="preserve">
<g id="XMLID_24126_">
	<g id="XMLID_24133_">
		<g id="XMLID_24135_">
			<path id="XMLID_24136_" d="M50.9,4.8C26.5,4.8,6.8,24.5,6.8,48.9C6.8,73.3,26.5,93,50.9,93C75.3,93,95,73.3,95,48.9
				C95,24.5,75.3,4.8,50.9,4.8z M50.9,87.1c-21.1,0-38.2-17.1-38.2-38.2s17.1-38.2,38.2-38.2s38.2,17.1,38.2,38.2S72,87.1,50.9,87.1
				z"/>
		</g>
	</g>
	<g id="XMLID_24130_">
		<g id="XMLID_24131_">
			<path id="XMLID_24123_" d="M50.9,41c-1.6,0-2.9,1.3-2.9,2.9v24.8c0,1.6,1.3,2.9,2.9,2.9s2.9-1.3,2.9-2.9V43.9
				C53.9,42.3,52.5,41,50.9,41z"/>
		</g>
	</g>
	<g id="XMLID_24127_">
		<g id="XMLID_24128_">
			<path id="XMLID_24122_" d="M50.9,26.2c-3.2,0-5.9,2.6-5.9,5.9s2.6,5.9,5.9,5.9c3.2,0,5.9-2.6,5.9-5.9S54.2,26.2,50.9,26.2z"/>
		</g>
	</g>
</g>
</svg>
