<?xml version="1.0" encoding="utf-8"?>
<!-- Generator: Adobe Illustrator 19.0.0, SVG Export Plug-In . SVG Version: 6.00 Build 0)  -->
<svg version="1.1" id="Layer_1" xmlns="http://www.w3.org/2000/svg" xmlns:xlink="http://www.w3.org/1999/xlink" x="0px" y="0px"
	 viewBox="0 0 100 100" style="enable-background:new 0 0 100 100;" xml:space="preserve">
<style type="text/css">
	.st0{fill:#E9E8E0;}
	.st1{fill:#DAD7CB;}
	.st2{fill:#F3D55B;}
	.st3{fill:#29B99A;}
	.st4{fill:#13A086;}
	.st5{fill:#FFFFFF;}
</style>
<g id="XMLID_115_">
	<path id="XMLID_126_" class="st0" d="M65.2,2.4H16c-1.4,0-2.5,1.1-2.5,3.3v90c0,0.6,1.1,1.7,2.5,1.7h68c1.4,0,2.5-1.1,2.5-1.7V24.4
		c0-1.2-0.2-1.6-0.4-1.8L66.3,2.8C66,2.6,65.6,2.4,65.2,2.4z"/>
	<polygon id="XMLID_125_" class="st1" points="66.1,2.7 66.1,22.7 86.2,22.7 	"/>
	<circle id="XMLID_124_" class="st2" cx="34.6" cy="26.9" r="7.7"/>
	<polygon id="XMLID_123_" class="st3" points="13.5,68.5 32.2,68.5 86.5,68.5 86.5,49.9 69.5,33.8 51.7,53.3 42.4,44 	"/>
	<path id="XMLID_122_" class="st4" d="M84,97.4H16c-1.4,0-2.5-1.1-2.5-2.5V68.5h72.9v26.4C86.5,96.3,85.4,97.4,84,97.4z"/>
	<g id="XMLID_116_">
		<path id="XMLID_121_" class="st5" d="M38.9,74.7V88c0,0.8-0.1,1.5-0.4,2s-0.7,1-1.2,1.3c-0.5,0.3-1.1,0.6-1.7,0.7
			c-0.6,0.1-1.3,0.2-2,0.2c-0.3,0-0.7,0-1.2-0.1c-0.5-0.1-0.9-0.2-1.4-0.3s-1-0.3-1.4-0.5c-0.4-0.2-0.8-0.4-1.1-0.6l1.2-1.9
			c0.2,0.1,0.4,0.2,0.7,0.3c0.3,0.1,0.6,0.2,0.9,0.3c0.3,0.1,0.7,0.2,1.1,0.3c0.4,0.1,0.7,0.1,1,0.1c0.8,0,1.5-0.2,2-0.5
			c0.5-0.3,0.7-0.9,0.8-1.6V74.7H38.9z"/>
		<path id="XMLID_118_" class="st5" d="M45.8,92.2H43V75.1h4.9c0.7,0,1.4,0.1,2.2,0.3c0.7,0.2,1.3,0.6,1.9,1c0.6,0.5,1,1,1.4,1.7
			c0.3,0.7,0.5,1.4,0.5,2.2c0,0.9-0.1,1.7-0.4,2.4c-0.3,0.7-0.7,1.3-1.2,1.8c-0.5,0.5-1.2,0.8-1.9,1.1c-0.7,0.3-1.6,0.4-2.5,0.4
			h-2.1L45.8,92.2L45.8,92.2z M45.8,77.2V84h2.6c0.3,0,0.7-0.1,1-0.2c0.3-0.1,0.6-0.3,0.9-0.6c0.3-0.3,0.5-0.6,0.7-1.1
			c0.2-0.5,0.3-1.1,0.3-1.8c0-0.3,0-0.6-0.1-1c-0.1-0.4-0.2-0.7-0.5-1c-0.2-0.3-0.6-0.6-1-0.8c-0.4-0.2-1-0.3-1.7-0.3H45.8z"/>
		<path id="XMLID_117_" class="st5" d="M69.5,83.4V90c-0.4,0.4-0.8,0.8-1.2,1.1c-0.4,0.3-0.9,0.5-1.4,0.7s-1,0.3-1.5,0.4
			c-0.5,0.1-1,0.1-1.5,0.1c-1,0-2-0.2-2.8-0.6c-0.9-0.4-1.6-0.9-2.2-1.6c-0.6-0.7-1.1-1.6-1.5-2.7c-0.4-1.1-0.5-2.4-0.5-3.8
			s0.2-2.7,0.5-3.8c0.4-1.1,0.9-2,1.5-2.7c0.6-0.7,1.4-1.3,2.3-1.7c0.9-0.4,1.8-0.6,2.8-0.6c0.9,0,1.8,0.2,2.6,0.5
			c0.8,0.3,1.5,0.8,2.2,1.4l-1.9,1.7c-0.4-0.4-0.8-0.8-1.3-1c-0.5-0.2-1-0.3-1.5-0.3c-0.6,0-1.1,0.1-1.6,0.3c-0.5,0.2-1,0.6-1.4,1.1
			c-0.4,0.5-0.7,1.2-1,2c-0.2,0.8-0.4,1.8-0.4,3c0,1.2,0.1,2.2,0.4,3c0.2,0.8,0.5,1.5,0.9,2.1s0.8,0.9,1.3,1.2
			c0.5,0.3,1,0.4,1.6,0.4c0.2,0,0.4,0,0.7,0c0.3,0,0.6-0.1,0.9-0.1c0.3-0.1,0.6-0.1,0.8-0.2c0.3-0.1,0.5-0.2,0.6-0.4v-4.2h-2.9v-1.9
			L69.5,83.4L69.5,83.4z"/>
	</g>
</g>
</svg>
