<?xml version="1.0" encoding="utf-8"?>
<!-- Generator: Adobe Illustrator 19.0.0, SVG Export Plug-In . SVG Version: 6.00 Build 0)  -->
<svg version="1.1" id="Layer_1" xmlns="http://www.w3.org/2000/svg" xmlns:xlink="http://www.w3.org/1999/xlink" x="0px" y="0px"
	 viewBox="-255 347 100 100" style="enable-background:new -255 347 100 100;" xml:space="preserve">
<g>
	<g>
		<path d="M-228.8,399.5l39.8,39.8c0.9,0.9,2.1,1.4,3.5,1.4s2.5-0.5,3.5-1.4l2.9-2.9c1.9-1.9,1.9-5,0-6.9l-33.4-33.4l33.4-33.4
			c0.9-0.9,1.4-2.1,1.4-3.5c0-1.3-0.5-2.5-1.4-3.5l-2.9-2.9c-0.9-0.9-2.1-1.4-3.5-1.4s-2.5,0.5-3.5,1.4l-39.8,39.8
			c-0.9,0.9-1.4,2.2-1.4,3.5C-230.2,397.3-229.7,398.6-228.8,399.5z"/>
	</g>
</g>
</svg>
