<?xml version="1.0" encoding="utf-8"?>
<!-- Generator: Adobe Illustrator 19.0.0, SVG Export Plug-In . SVG Version: 6.00 Build 0)  -->
<svg version="1.1" id="Layer_1" xmlns="http://www.w3.org/2000/svg" xmlns:xlink="http://www.w3.org/1999/xlink" x="0px" y="0px"
	 viewBox="-255 347 100 100" style="enable-background:new -255 347 100 100;" xml:space="preserve">
<path id="XMLID_8889_" d="M-248.8,393.1c-0.9,0.9-1.4,2.1-1.4,3.3c0,1.2,0.5,2.4,1.4,3.3l30,30c1.9,1.9,4.8,1.9,6.7,0
	c1.9-1.9,1.9-4.8,0-6.7l-22-22h70.2c2.6,0,4.7-2.1,4.7-4.7c0-2.6-2.1-4.7-4.7-4.7h-70.2l22-22c1.9-1.9,1.9-4.8,0-6.7
	c-1.9-1.9-4.8-1.9-6.7,0L-248.8,393.1z"/>
</svg>
