<?xml version="1.0" encoding="utf-8"?>
<!-- Generator: Adobe Illustrator 19.0.0, SVG Export Plug-In . SVG Version: 6.00 Build 0)  -->
<svg version="1.1" id="Layer_1" xmlns="http://www.w3.org/2000/svg" xmlns:xlink="http://www.w3.org/1999/xlink" x="0px" y="0px"
	 viewBox="0 0 100 100" style="enable-background:new 0 0 100 100;" xml:space="preserve">
<g id="XMLID_5113_">
	<path id="XMLID_5117_" d="M49.5,23.4c-6.5,0-11.9,5.3-11.9,11.9s5.3,11.9,11.9,11.9s11.9-5.3,11.9-11.9S56,23.4,49.5,23.4z
		 M49.5,43.7c-4.7,0-8.5-3.8-8.5-8.5s3.8-8.5,8.5-8.5s8.5,3.8,8.5,8.5S54.1,43.7,49.5,43.7z"/>
	<path id="XMLID_5114_" d="M72.1,12.5C66,6.4,57.9,3,49.2,3c-8.7,0-16.8,3.4-23,9.5c-11.4,11.4-12.8,32.7-3.1,45.6l26,37.6l26-37.5
		C84.9,45.3,83.5,23.9,72.1,12.5z M72.4,56.3L49.2,89.8L25.9,56.2c-8.8-11.7-7.5-31,2.7-41.3c5.5-5.5,12.8-8.5,20.6-8.5
		s15.1,3,20.6,8.5C80,25.2,81.3,44.5,72.4,56.3z"/>
</g>
</svg>
