<?xml version="1.0" encoding="utf-8"?>
<!-- Generator: Adobe Illustrator 19.0.0, SVG Export Plug-In . SVG Version: 6.00 Build 0)  -->
<svg version="1.1" id="Layer_1" xmlns="http://www.w3.org/2000/svg" xmlns:xlink="http://www.w3.org/1999/xlink" x="0px" y="0px"
	 viewBox="0 0 100 100" style="enable-background:new 0 0 100 100;" xml:space="preserve">
<g id="XMLID_28516_">
	<g id="XMLID_305_">
		<g id="XMLID_333_">
			<path id="XMLID_343_" d="M93.6,75.9c0.6,0,1-0.5,1-1v-10c0-2.1-0.6-4.2-1.8-5.9c-4-5.8-10.5-9.2-17.5-9.2c-3.4,0-6.7,0.8-9.7,2.3
				c-4.5-3.7-10.1-5.7-16-5.7c-5.8-0.1-11.5,1.9-16,5.6c-3-1.6-6.3-2.4-9.7-2.3c-7,0-13.5,3.4-17.5,9.2c-1.2,1.7-1.9,3.8-1.8,5.9v10
				c0,0.6,0.5,1,1,1H93.6z M91.1,60.2c1,1.4,1.5,3,1.5,4.7v9h-20V63.7c0-2-0.6-4-1.7-5.6c-1.1-1.6-2.3-3.1-3.7-4.5
				c2.5-1.2,5.3-1.8,8.1-1.8C81.6,51.8,87.5,54.9,91.1,60.2z M6.7,64.9c0-1.7,0.5-3.3,1.5-4.7c3.6-5.2,9.5-8.3,15.8-8.3
				c2.8,0,5.5,0.6,8.1,1.8c-1.4,1.4-2.6,2.9-3.7,4.5c-1.1,1.7-1.7,3.6-1.7,5.6v10.2h-20L6.7,64.9z M62.5,73.8H28.7V63.7
				c0-1.6,0.4-3.2,1.3-4.5c7.1-10.8,21.6-13.9,32.4-6.8c2.7,1.8,5.1,4.1,6.8,6.8c0.9,1.3,1.3,2.9,1.3,4.5v10.2L62.5,73.8z"/>
			<path id="XMLID_334_" d="M93.6,76.3H5.7c-0.8,0-1.4-0.6-1.4-1.4v-10c0-2.2,0.6-4.3,1.9-6.1c4-5.8,10.6-9.3,17.7-9.3
				c0.1,0,0.1,0,0.2,0c3.3,0,6.6,0.8,9.5,2.3c4.5-3.7,10.2-5.6,16-5.6c5.8-0.1,11.5,1.9,16,5.6c3-1.5,6.3-2.3,9.7-2.3c0,0,0,0,0.1,0
				c7.1,0,13.7,3.5,17.7,9.3c1.3,1.8,1.9,3.9,1.9,6.1v10C95,75.6,94.4,76.3,93.6,76.3z M23.9,50.2c-6.8,0-13.2,3.4-17.1,9
				C5.6,60.8,5,62.8,5,64.9v10c0,0.3,0.3,0.6,0.6,0.6h87.9c0.3,0,0.6-0.3,0.6-0.6v-10c0-2-0.6-4-1.8-5.7c-3.9-5.6-10.3-9-17.1-9
				c-0.1,0-0.1,0-0.2,0c-3.3,0-6.5,0.8-9.4,2.3l-0.2,0.1l-0.2-0.2c-4.3-3.6-9.8-5.6-15.4-5.6c-0.2,0-0.4,0-0.7,0
				c-5.6,0-11.1,2-15.4,5.5l-0.2,0.2l-0.2-0.1c-2.9-1.5-6.1-2.3-9.4-2.3C24.1,50.2,24,50.2,23.9,50.2z M93,74.2H72.2V63.7
				c0-1.9-0.5-3.8-1.6-5.4c-1.1-1.6-2.3-3.1-3.7-4.4l-0.4-0.4l0.5-0.2c2.6-1.2,5.4-1.8,8.2-1.8c0,0,0,0,0,0c6.4,0,12.5,3.2,16.1,8.5
				c1,1.4,1.6,3.2,1.5,4.9V74.2z M73,73.5h19.2v-8.6c0-1.6-0.5-3.2-1.4-4.5l0,0c-3.5-5.1-9.3-8.2-15.5-8.2c-0.1,0-0.1,0-0.2,0
				c-2.5,0-5,0.5-7.3,1.5c1.2,1.3,2.4,2.7,3.4,4.1c1.1,1.7,1.7,3.8,1.7,5.8V73.5z M62.5,74.2H28.3V63.7c0-1.7,0.5-3.3,1.4-4.7
				c3.5-5.3,8.8-9,15-10.3c6.2-1.3,12.6-0.1,17.9,3.3c2.8,1.8,5.1,4.2,6.9,6.9c0.9,1.4,1.4,3,1.4,4.7v10.6L62.5,74.2z M29.1,73.5
				l41.1,0v-9.8c0-1.5-0.4-3-1.3-4.3c-1.8-2.7-4-5-6.7-6.7c-10.6-6.9-24.9-3.9-31.9,6.7c-0.8,1.3-1.3,2.8-1.3,4.3V73.5z M27.1,74.2
				H6.3l0-9.4c0-1.8,0.5-3.5,1.6-4.9c3.6-5.3,9.7-8.5,16.1-8.5c0.1,0,0.1,0,0.2,0c2.8,0,5.6,0.6,8.1,1.8l0.5,0.2l-0.4,0.4
				c-1.4,1.3-2.6,2.8-3.7,4.4c-1.1,1.6-1.6,3.5-1.6,5.4V74.2z M7.1,73.5h19.2v-9.8c0-2.1,0.6-4.1,1.7-5.8c1-1.5,2.1-2.9,3.4-4.1
				c-2.3-1-4.9-1.5-7.4-1.5c0,0,0,0,0,0c-6.2,0-12,3.1-15.5,8.2C7.5,61.7,7,63.2,7,64.9L7.1,73.5z"/>
		</g>
		<g id="XMLID_324_">
			<path id="XMLID_330_" d="M61.6,32.9c0-6.6-5.4-12-12-12s-12,5.4-12,12c0,6.6,5.4,12,12,12C56.3,44.9,61.6,39.5,61.6,32.9z
				 M39.7,32.9c0-5.5,4.5-10,10-10c5.5,0,10,4.5,10,10c0,5.5-4.5,10-10,10c0,0,0,0,0,0C44.1,42.9,39.7,38.4,39.7,32.9L39.7,32.9z"/>
			<path id="XMLID_325_" d="M49.6,45.3c-6.8,0-12.4-5.6-12.4-12.4s5.6-12.4,12.4-12.4S62,26.1,62,32.9l0,0
				C62,39.7,56.5,45.3,49.6,45.3z M49.6,21.3c-6.4,0-11.6,5.2-11.6,11.6s5.2,11.6,11.6,11.6c6.4,0,11.6-5.2,11.6-11.6
				C61.2,26.5,56,21.3,49.6,21.3z M49.6,43.3c-5.7,0-10.4-4.6-10.4-10.3l0-0.4c0.2-5.5,4.8-10,10.3-10c5.7,0,10.3,4.6,10.3,10.3
				S55.4,43.3,49.6,43.3z M40.1,33.3c0.2,5.1,4.4,9.2,9.6,9.2c5.3,0,9.6-4.3,9.6-9.6s-4.3-9.6-9.6-9.6s-9.6,4.3-9.6,9.6L40.1,33.3z"
				/>
		</g>
		<g id="XMLID_315_">
			<path id="XMLID_321_" d="M34.1,38.8c0-5.6-4.6-10.2-10.2-10.2s-10.2,4.6-10.2,10.2S18.3,48.9,24,48.9S34.1,44.4,34.1,38.8z
				 M15.8,38.8c0-4.5,3.6-8.1,8.1-8.1s8.1,3.6,8.1,8.1s-3.6,8.1-8.1,8.1C19.5,46.9,15.8,43.3,15.8,38.8L15.8,38.8z"/>
			<path id="XMLID_316_" d="M24,49.3c-5.8,0-10.6-4.7-10.6-10.6S18.1,28.2,24,28.2s10.6,4.7,10.6,10.6S29.8,49.3,24,49.3z M24,29
				c-5.4,0-9.8,4.4-9.8,9.8s4.4,9.8,9.8,9.8s9.8-4.4,9.8-9.8S29.4,29,24,29z M24,47.3c-4.6,0-8.3-3.6-8.5-8.1h0l0-0.4
				c0-4.7,3.8-8.5,8.5-8.5s8.5,3.8,8.5,8.5S28.7,47.3,24,47.3z M16.2,38.4L16.2,38.4l0,0.4c0,4.3,3.5,7.7,7.7,7.8
				c4.3,0,7.8-3.5,7.8-7.8S28.2,31,24,31C19.8,31,16.4,34.3,16.2,38.4z"/>
		</g>
		<g id="XMLID_306_">
			<path id="XMLID_312_" d="M85.5,38.8c0-5.6-4.6-10.2-10.2-10.2c-5.6,0-10.2,4.6-10.2,10.2s4.6,10.2,10.2,10.2
				C80.9,48.9,85.5,44.4,85.5,38.8z M67.1,38.8c0-4.5,3.6-8.1,8.1-8.1c4.5,0,8.1,3.6,8.1,8.1s-3.6,8.1-8.1,8.1
				C70.8,46.9,67.2,43.3,67.1,38.8L67.1,38.8z"/>
			<path id="XMLID_307_" d="M75.3,49.3c-5.8,0-10.6-4.7-10.6-10.6s4.7-10.6,10.6-10.6c5.8,0,10.6,4.7,10.6,10.6S81.1,49.3,75.3,49.3
				z M75.3,29c-5.4,0-9.8,4.4-9.8,9.8s4.4,9.8,9.8,9.8c5.4,0,9.8-4.4,9.8-9.8S80.7,29,75.3,29z M75.3,47.3c-4.6,0-8.3-3.6-8.5-8.1h0
				l0-0.4c0-4.7,3.8-8.5,8.5-8.5s8.5,3.8,8.5,8.5S80,47.3,75.3,47.3z M67.5,38.4L67.5,38.4l0,0.4c0,4.3,3.5,7.7,7.7,7.8
				c4.3,0,7.8-3.5,7.8-7.8S79.6,31,75.3,31C71.1,31,67.7,34.3,67.5,38.4z"/>
		</g>
	</g>
</g>
</svg>
