<?xml version="1.0" encoding="utf-8"?>
<!-- Generator: Adobe Illustrator 19.0.0, SVG Export Plug-In . SVG Version: 6.00 Build 0)  -->
<svg version="1.1" id="Layer_1" xmlns="http://www.w3.org/2000/svg" xmlns:xlink="http://www.w3.org/1999/xlink" x="0px" y="0px"
	 viewBox="0 0 100 100" style="enable-background:new 0 0 100 100;" xml:space="preserve">
<style type="text/css">
	.st0{fill:#F47B23;}
	.st1{fill:#F9F9FA;}
</style>
<g id="XMLID_31049_">
	<circle id="XMLID_953_" class="st0" cx="49.9" cy="49.5" r="46.8"/>
	<g id="XMLID_37015_">
		<path id="XMLID_37025_" class="st1" d="M46.2,27.4H28.8c-0.6,0-1.1,0.5-1.1,1.1v17.4c0,0.6,0.5,1.1,1.1,1.1h17.4
			c0.6,0,1.1-0.5,1.1-1.1V28.4C47.2,27.9,46.8,27.4,46.2,27.4z M45.1,44.8H29.9V29.5h15.3V44.8z"/>
		<path id="XMLID_37022_" class="st1" d="M70.9,27.4H53.5c-0.6,0-1.1,0.5-1.1,1.1v17.4c0,0.6,0.5,1.1,1.1,1.1h17.4
			c0.6,0,1.1-0.5,1.1-1.1V28.4C72,27.9,71.5,27.4,70.9,27.4z M69.9,44.8H54.6V29.5h15.3L69.9,44.8L69.9,44.8z"/>
		<path id="XMLID_37019_" class="st1" d="M46.2,52.1H28.8c-0.6,0-1.1,0.5-1.1,1.1v17.4c0,0.6,0.5,1.1,1.1,1.1h17.4
			c0.6,0,1.1-0.5,1.1-1.1V53.2C47.2,52.6,46.8,52.1,46.2,52.1z M45.1,69.5H29.9V54.2h15.3V69.5z"/>
		<path id="XMLID_37016_" class="st1" d="M70.9,52.1H53.5c-0.6,0-1.1,0.5-1.1,1.1v17.4c0,0.6,0.5,1.1,1.1,1.1h17.4
			c0.6,0,1.1-0.5,1.1-1.1V53.2C72,52.6,71.5,52.1,70.9,52.1z M69.9,69.5H54.6V54.2h15.3L69.9,69.5L69.9,69.5z"/>
	</g>
</g>
</svg>
