<?xml version="1.0" encoding="utf-8"?>
<!-- Generator: Adobe Illustrator 19.0.0, SVG Export Plug-In . SVG Version: 6.00 Build 0)  -->
<svg version="1.1" id="Layer_1" xmlns="http://www.w3.org/2000/svg" xmlns:xlink="http://www.w3.org/1999/xlink" x="0px" y="0px"
	 viewBox="0 0 100 100" style="enable-background:new 0 0 100 100;" xml:space="preserve">
<style type="text/css">
	.st0{fill:#7168AF;}
	.st1{fill:#FFFFFF;}
</style>
<circle id="XMLID_31233_" class="st0" cx="50" cy="49.5" r="46.8"/>
<g id="XMLID_11_">
	<g id="XMLID_30_">
		<g id="XMLID_31_">
			<path id="XMLID_32_" class="st1" d="M70.4,43.4H31.6c-0.6,0-1,0.5-1,1v27.2c0,0.6,0.5,1,1,1h38.8c0.6,0,1-0.5,1-1V44.4
				C71.3,43.9,70.9,43.4,70.4,43.4z M69.4,70.6H32.6V45.4h36.9V70.6L69.4,70.6z"/>
		</g>
	</g>
	<g id="XMLID_25_">
		<g id="XMLID_26_">
			<path id="XMLID_27_" class="st1" d="M72.3,35.7H29.7c-0.6,0-1,0.5-1,1v7.8c0,0.6,0.5,1,1,1h42.7c0.6,0,1-0.5,1-1v-7.8
				C73.3,36.1,72.8,35.7,72.3,35.7z M71.3,43.4H30.6v-5.8h40.7C71.3,37.6,71.3,43.4,71.3,43.4z"/>
		</g>
	</g>
	<g id="XMLID_22_">
		<g id="XMLID_23_">
			<path id="XMLID_5_" class="st1" d="M51,35.7c-0.6,0-1,0.5-1,1v34.9c0,0.6,0.5,1,1,1c0.6,0,1-0.5,1-1V36.7
				C51.9,36.1,51.5,35.7,51,35.7z"/>
		</g>
	</g>
	<g id="XMLID_17_">
		<g id="XMLID_18_">
			<path id="XMLID_19_" class="st1" d="M52,36.4c-1-4.6-7-9.7-10.9-10.4C40.8,26,40.6,26,40.3,26c-2.1,0-3.9,1.7-3.9,3.9
				c0,0.9,0.3,1.8,0.9,2.5l0,0c2.9,3.7,12.5,5.1,13.5,5.3c0.1,0,0.1,0,0.2,0c0.3,0,0.5-0.1,0.7-0.3C51.9,37.1,52,36.7,52,36.4z
				 M38.8,31.1L38.8,31.1c-0.3-0.4-0.5-0.8-0.5-1.2c0-1.1,0.9-2,2-2c0.2,0,0.3,0,0.4,0.1c2.9,0.5,7.3,4,8.9,7.4
				C46.2,34.8,40.5,33.3,38.8,31.1z"/>
		</g>
	</g>
	<g id="XMLID_12_">
		<g id="XMLID_13_">
			<path id="XMLID_14_" class="st1" d="M61.6,26c-0.3,0-0.5,0-0.7,0.1c-4,0.7-9.9,5.7-11,10.4c-0.1,0.3,0,0.6,0.3,0.9
				c0.2,0.2,0.5,0.3,0.7,0.3c0.1,0,0.1,0,0.2,0c1.1-0.2,10.7-1.6,13.5-5.3l0,0c0.6-0.7,0.9-1.6,0.9-2.5C65.5,27.7,63.8,26,61.6,26z
				 M63.2,31L63.2,31c-1.7,2.3-7.4,3.7-10.8,4.3c1.6-3.4,6-6.9,8.9-7.4c0.1-0.1,0.3-0.1,0.4-0.1c1.1,0,1.9,0.9,1.9,1.9
				C63.6,30.3,63.5,30.7,63.2,31z"/>
		</g>
	</g>
</g>
</svg>
