<?xml version="1.0" encoding="utf-8"?>
<!-- Generator: Adobe Illustrator 19.0.0, SVG Export Plug-In . SVG Version: 6.00 Build 0)  -->
<svg version="1.1" id="Layer_1" xmlns="http://www.w3.org/2000/svg" xmlns:xlink="http://www.w3.org/1999/xlink" x="0px" y="0px"
	 viewBox="0 0 100 100" style="enable-background:new 0 0 100 100;" xml:space="preserve">
<style type="text/css">
	.st0{fill:#FFC53B;}
	.st1{fill:#FFFFFF;}
</style>
<circle id="XMLID_31233_" class="st0" cx="50" cy="49.5" r="46.8"/>
<g id="XMLID_2_">
	<g id="XMLID_3_">
		<path id="XMLID_7_" class="st1" d="M68.3,31.4c-4.7-4.8-11-7.4-17.8-7.4s-13.1,2.6-17.8,7.4c-9.2,9.2-9.8,23.8-1.7,33.7
			c-1.1,2.3-2.5,3.8-3.9,4.6c-0.9,0.5-1.4,1.5-1.3,2.5c0.2,1,1,1.8,2,2c0.6,0.1,1.2,0.1,1.8,0.1l0,0c3.1,0,6.3-1.1,9-2.9
			c3.7,2,7.7,3,11.9,3c6.7,0,13-2.6,17.8-7.4c4.7-4.8,7.4-11,7.4-17.8S73.1,36.2,68.3,31.4z M66.3,65c-4.2,4.2-9.8,6.5-15.8,6.5
			c-4,0-7.9-1.1-11.3-3c-0.2-0.1-0.5-0.2-0.7-0.2s-0.6,0.1-0.9,0.3c-3.2,2.5-6.5,2.9-7.9,2.9c1.7-1.2,3.1-3.2,4.3-6
			c0.2-0.5,0.1-1.1-0.2-1.5c-7.7-8.7-7.3-22.2,1-30.5c4.2-4.2,9.8-6.5,15.8-6.5s11.6,2.3,15.8,6.5C75,42.1,75,56.3,66.3,65z"/>
		<path id="XMLID_4_" class="st1" d="M61,40.9H40c-0.8,0-1.4,0.6-1.4,1.4c0,0.8,0.6,1.4,1.4,1.4h21.1c0.8,0,1.4-0.6,1.4-1.4
			C62.5,41.5,61.8,40.9,61,40.9z"/>
		<path id="XMLID_16_" class="st1" d="M61,47.8H40c-0.8,0-1.4,0.6-1.4,1.4s0.6,1.4,1.4,1.4h21.1c0.8,0,1.4-0.6,1.4-1.4
			S61.8,47.8,61,47.8z"/>
		<path id="XMLID_1_" class="st1" d="M61,54.7H40c-0.8,0-1.4,0.6-1.4,1.4s0.6,1.4,1.4,1.4h21.1c0.8,0,1.4-0.6,1.4-1.4
			S61.8,54.7,61,54.7z"/>
	</g>
</g>
</svg>
