<?xml version="1.0" encoding="utf-8"?>
<!-- Generator: Adobe Illustrator 19.0.0, SVG Export Plug-In . SVG Version: 6.00 Build 0)  -->
<svg version="1.1" id="Layer_1" xmlns="http://www.w3.org/2000/svg" xmlns:xlink="http://www.w3.org/1999/xlink" x="0px" y="0px"
	 viewBox="0 0 100 100" style="enable-background:new 0 0 100 100;" xml:space="preserve">
<style type="text/css">
	.st0{fill:#F3B647;}
	.st1{fill:#FFFFFF;}
</style>
<g id="XMLID_1_">
	<ellipse id="XMLID_31247_" class="st0" cx="50" cy="49.6" rx="46.3" ry="46.1"/>
	<g id="XMLID_31234_">
		<g id="XMLID_31235_">
			<path id="XMLID_31236_" class="st1" d="M51.1,60.2H40.3c-0.5,0-0.9,0.4-0.9,0.9s0.4,0.9,0.9,0.9h10.7c0.5,0,0.9-0.4,0.9-0.9
				S51.6,60.2,51.1,60.2z M56.6,69.1H34.1v-32h6.2c0.5,0,0.9-0.4,0.9-0.9V30h19.6v13.8c0,0.5,0.4,0.9,0.9,0.9s0.9-0.4,0.9-0.9V29.2
				c0-0.5-0.4-0.9-0.9-0.9H40.3c-0.1,0-0.2,0-0.3,0.1c-0.1,0-0.1,0.1-0.1,0.1c0,0-0.1,0.1-0.1,0.1l-7.1,7.1c0,0-0.1,0.1-0.1,0.1
				s-0.1,0.1-0.1,0.1c0,0.1-0.1,0.2-0.1,0.3V70c0,0.5,0.4,0.9,0.9,0.9h23.4c0.5,0,0.9-0.4,0.9-0.9S57.1,69.1,56.6,69.1z M39.5,31.3
				v4.1h-4.1L39.5,31.3z M51.1,54.9H40.3c-0.5,0-0.9,0.4-0.9,0.9s0.4,0.9,0.9,0.9h10.7c0.5,0,0.9-0.4,0.9-0.9S51.6,54.9,51.1,54.9z
				 M54.6,38.9H40.3c-0.5,0-0.9,0.4-0.9,0.9s0.4,0.9,0.9,0.9h14.3c0.5,0,0.9-0.4,0.9-0.9S55.1,38.9,54.6,38.9z M69.8,51.4
				c1.1-1,1.8-2.5,1.8-4.5c0-0.5-0.4-0.9-0.9-0.9c-2,0-4.1,0.9-5.3,2.7c-0.4-1.2-0.9-2-1.1-2.3c-0.3-0.4-0.8-0.5-1.2-0.3
				c-0.4,0.3-0.5,0.8-0.3,1.2c0.7,1.1,1.4,2.8,1.6,4.8c-0.1,0-0.2-0.1-0.3-0.1c-0.7-0.3-1.6-0.7-2.7-0.7c-3.5,0-5.9,3.3-5.9,8.2
				c0,4.5,3.1,11.3,7.9,11.3c0.8,0,1.2-0.2,1.6-0.4c0.2-0.1,0.2-0.1,0.3-0.1c0.1,0,0.2,0,0.3,0.1c0.4,0.2,0.8,0.4,1.6,0.4
				c4.7,0,7.9-6.8,7.9-11.3C75.2,54.9,73,51.7,69.8,51.4z M69.7,47.9c-0.4,2-1.8,3-3.4,3.4C66.7,49.3,68.1,48.2,69.7,47.9z
				 M67.3,69.1c-0.4,0-0.6-0.1-0.8-0.2c-0.2-0.1-0.6-0.3-1.2-0.3c-0.1,0-0.1,0-0.2,0c-0.5,0-0.8,0.2-1.1,0.3
				c-0.2,0.1-0.3,0.2-0.8,0.2c-3.1,0-6.1-5.4-6.1-9.6c0-3.8,1.6-6.4,4.1-6.4c0.7,0,1.3,0.3,2,0.5c0.6,0.3,1.2,0.5,1.9,0.5h0
				c0.7,0,1.3-0.3,1.9-0.5c0.6-0.3,1.3-0.5,2-0.5c2.4,0,4.1,2.6,4.1,6.4C73.4,63.7,70.4,69.1,67.3,69.1z M55.5,45.1
				c0-0.5-0.4-0.9-0.9-0.9H40.3c-0.5,0-0.9,0.4-0.9,0.9s0.4,0.9,0.9,0.9h14.3C55.1,46,55.5,45.6,55.5,45.1z M53.7,50.5
				c0-0.5-0.4-0.9-0.9-0.9H40.3c-0.5,0-0.9,0.4-0.9,0.9c0,0.5,0.4,0.9,0.9,0.9h12.5C53.3,51.4,53.7,51,53.7,50.5z"/>
		</g>
	</g>
</g>
</svg>
