<?xml version="1.0" encoding="utf-8"?>
<!-- Generator: Adobe Illustrator 19.0.0, SVG Export Plug-In . SVG Version: 6.00 Build 0)  -->
<svg version="1.1" id="Layer_1" xmlns="http://www.w3.org/2000/svg" xmlns:xlink="http://www.w3.org/1999/xlink" x="0px" y="0px"
	 viewBox="0 0 100 100" style="enable-background:new 0 0 100 100;" xml:space="preserve">
<style type="text/css">
	.st0{fill:#EE4280;}
	.st1{fill:#FFFFFF;stroke:#FFFFFF;stroke-width:0.5;stroke-miterlimit:10;}
</style>
<circle id="XMLID_31233_" class="st0" cx="50" cy="49.5" r="46.8"/>
<g id="XMLID_130_">
	<g id="XMLID_131_">
		<path id="XMLID_161_" class="st1" d="M50.8,22.4c1.9,0,3.8,0.8,5,2.1c1.2,1.2,2.1,2.9,2.1,5s-0.8,3.8-2.1,5
			c-1.2,1.2-2.9,2.1-5,2.1c-1.9,0-3.8-0.8-5-2.1c-1.2-1.2-2.1-2.9-2.1-5s0.8-3.8,2.1-5C47.2,23.3,49,22.4,50.8,22.4z M54.7,25.6
			c-1-1-2.3-1.6-4-1.6s-2.8,0.6-3.9,1.6c-1,1-1.6,2.3-1.6,4s0.6,2.8,1.6,4c1,1,2.3,1.6,4,1.6c1.6,0,2.8-0.6,4-1.6c1-1,1.6-2.3,1.6-4
			S55.8,26.6,54.7,25.6z"/>
		<path id="XMLID_160_" class="st1" d="M41,54.8L41,54.8L41,54.8C41,54.8,41,54.8,41,54.8c-0.8,1.6-3.6,4.2-5.7,6.1
			c-0.8,0.8-1.5,1.3-2.1,1.8c-1.1,1.1-2.5,1.2-3.7,0.8c-0.4-0.2-0.8-0.4-1.1-0.8c-0.3-0.3-0.6-0.8-0.8-1.1c-0.5-1.1-0.4-2.5,0.8-3.7
			l6.9-6.9l6.3-10.8c1.6-2.8,6.4-2.8,9.2-2.8l0,0h0.2c1.2,0,3,0,4.9,0.4c1.8,0.4,3.7,1.1,4.5,2.6l6.2,10.9l6.9,6.9
			c1.1,1.1,1.2,2.5,0.8,3.7c-0.2,0.4-0.4,0.8-0.8,1.1c-0.3,0.3-0.8,0.6-1.1,0.8c-1.1,0.5-2.5,0.4-3.7-0.8c-0.5-0.5-1.2-1.1-2.1-1.8
			c-2.2-1.9-4.9-4.5-5.7-6.1l0,0l0,0l0,0l-1.8-2.9l-0.5,9.8l8.3,2.3c1.5,0.4,2.6,2.1,2.8,3.9c0.1,0.6,0.1,1.3,0,1.9
			c-0.1,0.6-0.4,1.2-0.8,1.8c-0.9,1-2.3,1.6-4.8,1.1l-13.1-2.7l-13.3,2.8c-2.3,0.5-3.9-0.1-4.8-1.1c-0.4-0.5-0.8-1.1-0.8-1.8
			c-0.1-0.6-0.1-1.3,0-1.9c0.3-1.8,1.3-3.5,2.8-3.9l8.3-2.3l-0.4-10L41,54.8L41,54.8z M34.2,59.9c2.1-1.8,4.7-4.3,5.4-5.6v-0.1l0,0
			l2.9-5.2c0.1-0.2,0.3-0.4,0.6-0.4c0.4,0,0.8,0.3,0.8,0.8h-0.8H44l0.6,12.8c0,0.3-0.2,0.8-0.5,0.8l0,0l-8.8,2.5
			c-1,0.3-1.6,1.4-1.8,2.6c-0.1,0.5-0.1,0.9,0,1.4c0.1,0.4,0.2,0.8,0.5,1.1c0.6,0.8,1.6,1,3.3,0.8l13.4-2.8c0.1,0,0.2,0,0.3,0l0,0
			l13.4,2.6c1.6,0.3,2.8,0,3.3-0.8c0.3-0.3,0.4-0.8,0.5-1.1c0.1-0.4,0.1-0.9,0-1.4c-0.2-1.2-0.9-2.3-1.8-2.6l-8.8-2.5
			c-0.3-0.1-0.6-0.4-0.5-0.8l0,0l0.6-13c0-0.3,0.1-0.5,0.4-0.6c0.3-0.2,0.8-0.1,1,0.3l-0.6,0.4l0.6-0.4l2.9,5.2c0,0,0,0.1,0.1,0.1
			l-0.6,0.3l0.6-0.3c0.8,1.4,3.3,3.8,5.4,5.7c0.8,0.8,1.5,1.4,2.1,1.9c0.6,0.6,1.4,0.8,2.1,0.4c0.2-0.1,0.5-0.3,0.8-0.5
			s0.4-0.4,0.5-0.8c0.3-0.6,0.2-1.4-0.4-2.1l-7.2-6.6c0,0-0.1-0.1-0.1-0.2l0.6-0.4L65.3,52l-6.3-11.1c-0.6-1-1.9-1.5-3.6-1.8
			c-1.6-0.3-3.5-0.3-4.7-0.3h-0.1l0,0c-2.5,0-6.6,0-7.9,2.2l-6.2,11c0,0.1-0.1,0.1-0.1,0.2l0,0l-6.9,6.8c-0.6,0.6-0.8,1.4-0.4,2.1
			c0.1,0.2,0.3,0.5,0.5,0.8c0.2,0.2,0.4,0.4,0.8,0.5c0.6,0.3,1.4,0.2,2.1-0.4C32.7,61.3,33.4,60.6,34.2,59.9z"/>
	</g>
</g>
</svg>
