<?xml version="1.0" encoding="utf-8"?>
<!-- Generator: Adobe Illustrator 19.0.0, SVG Export Plug-In . SVG Version: 6.00 Build 0)  -->
<svg version="1.1" id="Layer_1" xmlns="http://www.w3.org/2000/svg" xmlns:xlink="http://www.w3.org/1999/xlink" x="0px" y="0px"
	 viewBox="0 0 100 100" style="enable-background:new 0 0 100 100;" xml:space="preserve">
<style type="text/css">
	.st0{fill:#424AAB;}
	.st1{fill:#FFFFFF;}
</style>
<circle id="XMLID_31233_" class="st0" cx="50" cy="49.5" r="46.8"/>
<g>
	<g>
		<g>
			<g>
				<path class="st1" d="M57,29.1H42.6c-0.5,0-0.9,0.4-0.9,0.9c0,0.5,0.4,0.9,0.9,0.9H57c0.5,0,0.9-0.4,0.9-0.9
					C57.9,29.5,57.5,29.1,57,29.1z"/>
				<path class="st1" d="M57,31.1H42.6c-0.6,0-1-0.5-1-1s0.5-1,1-1H57c0.6,0,1,0.5,1,1S57.5,31.1,57,31.1z M42.6,29.3
					c-0.4,0-0.8,0.3-0.8,0.8s0.3,0.8,0.8,0.8H57c0.4,0,0.8-0.3,0.8-0.8s-0.3-0.8-0.8-0.8H42.6z"/>
			</g>
		</g>
	</g>
	<g>
		<g>
			<g>
				<path class="st1" d="M61.4,25.6c-0.5,0-0.9,0.4-0.9,0.9v6.9c0,0.5,0.4,0.9,0.9,0.9s0.9-0.4,0.9-0.9v-6.9
					C62.3,26,61.9,25.6,61.4,25.6z"/>
				<path class="st1" d="M61.4,34.5c-0.6,0-1-0.5-1-1v-6.9c0-0.6,0.5-1,1-1c0.6,0,1,0.5,1,1v6.9C62.4,34,61.9,34.5,61.4,34.5z
					 M61.4,25.8c-0.4,0-0.8,0.3-0.8,0.8v6.9c0,0.4,0.3,0.8,0.8,0.8c0.4,0,0.8-0.3,0.8-0.8v-6.9C62.1,26.1,61.8,25.8,61.4,25.8z"/>
			</g>
		</g>
	</g>
	<g>
		<g>
			<g>
				<path class="st1" d="M38.3,25.6c-0.5,0-0.9,0.4-0.9,0.9v6.9c0,0.5,0.4,0.9,0.9,0.9s0.9-0.4,0.9-0.9v-6.9
					C39.2,26,38.8,25.6,38.3,25.6z"/>
				<path class="st1" d="M38.3,34.5c-0.6,0-1-0.5-1-1v-6.9c0-0.6,0.5-1,1-1c0.6,0,1,0.5,1,1v6.9C39.3,34,38.9,34.5,38.3,34.5z
					 M38.3,25.8c-0.4,0-0.8,0.3-0.8,0.8v6.9c0,0.4,0.3,0.8,0.8,0.8s0.8-0.3,0.8-0.8v-6.9C39.1,26.1,38.7,25.8,38.3,25.8z"/>
			</g>
		</g>
	</g>
	<g>
		<g>
			<g>
				<path class="st1" d="M67.2,40.1H32.5c-0.5,0-0.9,0.4-0.9,0.9s0.4,0.9,0.9,0.9h34.7c0.5,0,0.9-0.4,0.9-0.9S67.7,40.1,67.2,40.1z"
					/>
				<path class="st1" d="M67.2,42H32.5c-0.6,0-1-0.5-1-1s0.5-1,1-1h34.7c0.6,0,1,0.5,1,1S67.8,42,67.2,42z M32.5,40.2
					c-0.4,0-0.8,0.3-0.8,0.8s0.3,0.8,0.8,0.8h34.7c0.4,0,0.8-0.3,0.8-0.8s-0.3-0.8-0.8-0.8H32.5z"/>
			</g>
		</g>
	</g>
	<g>
		<g>
			<g>
				<path class="st1" d="M59.1,47.1H32.5c-0.5,0-0.9,0.4-0.9,0.9s0.4,0.9,0.9,0.9h26.6c0.5,0,0.9-0.4,0.9-0.9
					C60,47.5,59.6,47.1,59.1,47.1z"/>
				<path class="st1" d="M59.1,49H32.5c-0.6,0-1-0.5-1-1s0.5-1,1-1h26.6c0.6,0,1,0.5,1,1S59.7,49,59.1,49z M32.5,47.2
					c-0.4,0-0.8,0.3-0.8,0.8c0,0.4,0.3,0.8,0.8,0.8h26.6c0.4,0,0.8-0.3,0.8-0.8c0-0.4-0.3-0.8-0.8-0.8H32.5z"/>
			</g>
		</g>
	</g>
	<g>
		<g>
			<g>
				<path class="st1" d="M47.5,54h-15c-0.5,0-0.9,0.4-0.9,0.9s0.4,0.9,0.9,0.9h15c0.5,0,0.9-0.4,0.9-0.9S48,54,47.5,54z"/>
				<path class="st1" d="M47.5,55.9h-15c-0.6,0-1-0.5-1-1c0-0.6,0.5-1,1-1h15c0.6,0,1,0.5,1,1C48.5,55.4,48.1,55.9,47.5,55.9z
					 M32.5,54.1c-0.4,0-0.8,0.3-0.8,0.8c0,0.4,0.3,0.8,0.8,0.8h15c0.4,0,0.8-0.3,0.8-0.8c0-0.4-0.3-0.8-0.8-0.8H32.5z"/>
			</g>
		</g>
	</g>
	<g>
		<g>
			<g>
				<path class="st1" d="M78.9,58.1c-1.1-2.2-2.9-3.9-5-5V30c0-0.5-0.4-0.8-0.8-0.8c0,0,0,0,0,0h-8.1c-0.5,0-0.9,0.4-0.9,0.9
					c0,0.5,0.4,0.9,0.9,0.9h7.2v21.4c-1.2-0.4-2.5-0.6-3.7-0.6c-6.6,0-11.9,5.3-11.9,11.9c0,1.3,0.2,2.5,0.6,3.7H27.6V30.9h6
					c0.5,0,0.9-0.4,0.9-0.9c0-0.5-0.4-0.9-0.9-0.9h-6.9c-0.5,0-0.8,0.3-0.9,0.8c0,0,0,0,0,0.1v38.2c0,0.5,0.3,0.8,0.8,0.8
					c0,0,0,0,0.1,0h31.2c3,5.8,10.2,8.1,16,5.1C79.7,71.1,81.9,63.9,78.9,58.1z M68.4,73.7c-5.6,0-10.1-4.5-10.1-10.1
					s4.5-10.1,10.1-10.1S78.5,58,78.5,63.6C78.5,69.1,73.9,73.7,68.4,73.7z"/>
				<path class="st1" d="M68.4,75.6c-1.2,0-2.4-0.2-3.6-0.6c-3-1-5.5-3-7-5.8H26.6c-0.5,0-0.9-0.5-0.9-1V29.9c0-0.5,0.4-0.9,1-0.9
					c0,0,0,0,0,0h6.9c0.6,0,1,0.5,1,1s-0.5,1-1,1h-5.9v36.1h29.2c-0.4-1.1-0.6-2.3-0.6-3.6c0-6.6,5.4-12,12-12
					c1.2,0,2.4,0.2,3.6,0.6V31.1h-7.1c-0.6,0-1-0.5-1-1s0.5-1,1-1H73c0.3,0,0.5,0.1,0.7,0.3c0.2,0.2,0.3,0.4,0.3,0.7v23
					c2.1,1.1,3.9,2.9,5,5.1l0,0c1.5,2.8,1.8,6.1,0.8,9.2c-1,3.1-3.1,5.6-5.9,7C72.2,75.1,70.3,75.6,68.4,75.6z M26.7,68.9h31.2
					l0,0.1c1.4,2.8,3.9,4.8,6.9,5.8c3,0.9,6.2,0.7,9-0.8c2.8-1.4,4.8-3.9,5.8-6.9c0.9-3,0.7-6.2-0.8-9l0,0c-1.1-2.2-2.9-3.9-5-5
					l-0.1,0V30c0-0.2-0.1-0.4-0.2-0.5c-0.1-0.1-0.3-0.2-0.5-0.2h-8.1c-0.4,0-0.8,0.3-0.8,0.8s0.3,0.8,0.8,0.8h7.3v21.6L72,52.4
					c-1.2-0.4-2.4-0.6-3.6-0.6c0,0-0.1,0-0.1,0c-6.5,0-11.8,5.3-11.8,11.7c0,1.3,0.2,2.5,0.6,3.7l0.1,0.2H27.5V30.8h6.1
					c0.4,0,0.8-0.3,0.8-0.8s-0.3-0.8-0.8-0.8h-6.9c0,0,0,0,0,0c-0.4,0-0.7,0.3-0.7,0.7v38.3C25.9,68.6,26.2,68.9,26.7,68.9
					L26.7,68.9z M68.4,73.8L68.4,73.8c-5.6,0-10.2-4.6-10.2-10.2c0-5.6,4.6-10.2,10.2-10.2s10.2,4.6,10.2,10.2
					C78.6,69.2,74,73.8,68.4,73.8z M68.4,53.6c-5.5,0-10,4.5-10,10c0,5.5,4.5,10,10,10c5.5,0,10-4.5,10-10
					C78.3,58.1,73.9,53.6,68.4,53.6z"/>
			</g>
		</g>
	</g>
	<g>
		<g>
			<g>
				<path class="st1" d="M73.7,63.2h-4.4v-6.1c0-0.5-0.4-0.9-0.9-0.9c-0.5,0-0.9,0.4-0.9,0.9v6.9c0,0.5,0.3,0.9,0.8,0.9c0,0,0,0,0,0
					h5.3c0.5,0,0.9-0.4,0.9-0.9C74.6,63.6,74.2,63.2,73.7,63.2z"/>
				<path class="st1" d="M73.7,65.1h-5.4c-0.3,0-0.5-0.1-0.7-0.3c-0.2-0.2-0.3-0.4-0.3-0.7v-6.9c0-0.6,0.5-1,1-1c0.6,0,1,0.5,1,1
					v5.9h4.3c0.6,0,1,0.5,1,1C74.7,64.7,74.3,65.1,73.7,65.1z M68.4,56.4c-0.4,0-0.8,0.3-0.8,0.8v6.9c0,0.2,0.1,0.4,0.2,0.5
					c0.1,0.1,0.3,0.2,0.5,0.2h5.4c0.4,0,0.8-0.3,0.8-0.8c0-0.4-0.3-0.8-0.8-0.8h-4.5v-6.2C69.2,56.8,68.8,56.4,68.4,56.4z"/>
			</g>
		</g>
	</g>
</g>
</svg>
