<?xml version="1.0" encoding="utf-8"?>
<!-- Generator: Adobe Illustrator 19.0.0, SVG Export Plug-In . SVG Version: 6.00 Build 0)  -->
<svg version="1.1" id="Layer_1" xmlns="http://www.w3.org/2000/svg" xmlns:xlink="http://www.w3.org/1999/xlink" x="0px" y="0px"
	 viewBox="0 0 100 100" style="enable-background:new 0 0 100 100;" xml:space="preserve">
<style type="text/css">
	.st0{fill:#AECD44;}
	.st1{fill:#FFFFFF;}
</style>
<g id="XMLID_28965_">
	<circle id="XMLID_31270_" class="st0" cx="50" cy="49.3" r="46.4"/>
	<g id="XMLID_29426_">
		<path id="XMLID_29463_" class="st1" d="M72.2,60.6L52.9,27.4c-0.7-1.2-1.9-1.9-3.3-1.9c-1.4,0-2.6,0.7-3.3,1.9L27.1,60.6
			c-0.7,1.2-0.7,2.6,0,3.8c0.7,1.2,1.9,1.9,3.3,1.9h38.5c1.4,0,2.6-0.7,3.3-1.9C72.8,63.1,72.8,61.8,72.2,60.6z M48.9,28.8
			c0.3-0.4,0.7-0.5,0.7-0.5s0.5,0,0.8,0.5L69.6,62c0.3,0.5,0,0.9,0,0.9l-0.1,0.1c0,0.1-0.3,0.4-0.7,0.4H30.4c-0.4,0-0.6-0.3-0.8-0.5
			c0,0-0.3-0.4,0-0.9L48.9,28.8z"/>
		<rect id="XMLID_29430_" x="48.2" y="45.3" class="st1" width="2.9" height="14"/>
		<rect id="XMLID_29429_" x="48.2" y="40" class="st1" width="2.9" height="3.5"/>
	</g>
</g>
</svg>
