<?xml version="1.0" encoding="utf-8"?>
<!-- Generator: Adobe Illustrator 19.0.0, SVG Export Plug-In . SVG Version: 6.00 Build 0)  -->
<svg version="1.1" id="Layer_1" xmlns="http://www.w3.org/2000/svg" xmlns:xlink="http://www.w3.org/1999/xlink" x="0px" y="0px"
	 viewBox="0 0 100 100" style="enable-background:new 0 0 100 100;" xml:space="preserve">
<style type="text/css">
	.st0{fill:#47B649;}
	.st1{fill:#FFFFFF;}
</style>
<g id="XMLID_31217_">
	<circle id="XMLID_31233_" class="st0" cx="50" cy="49.5" r="46.8"/>
	<g id="XMLID_31218_">
		<g id="XMLID_53_">
			<path id="XMLID_54_" class="st1" d="M70.9,37.2c0-0.2,0-0.3-0.1-0.5c-0.1-0.3-0.4-0.5-0.8-0.6L51.1,27c-0.3-0.1-0.7-0.1-1,0
				L31,36.2c-0.4,0.2-0.6,0.5-0.6,1v0c0,0,0,0,0,0v23.2c0,0.4,0.2,0.8,0.6,1l19.1,9.3c0,0,0,0,0,0c0,0,0.1,0,0.1,0l0,0
				c0,0,0.1,0,0.1,0l0,0c0,0,0.1,0,0.1,0h0c0,0,0.1,0,0.1,0s0.1,0,0.1,0h0c0,0,0.1,0,0.1,0l0,0c0,0,0.1,0,0.1,0l0,0c0,0,0.1,0,0.1,0
				c0,0,0,0,0,0l19.2-9.3c0.4-0.2,0.6-0.6,0.6-1L70.9,37.2C70.9,37.2,70.9,37.2,70.9,37.2z M50.6,29.2l16.6,8l-6.1,3l-16.6-8
				L50.6,29.2z M50.6,45.3l-16.6-8l7.9-3.8l16.6,8L50.6,45.3z M32.6,39l16.9,8.2v20.7l-16.9-8.2V39z M51.7,67.9V47.2l7.9-3.8v5.4
				c0,0.6,0.5,1.1,1.1,1.1s1.1-0.5,1.1-1.1v-6.5l6.8-3.3v20.7L51.7,67.9z"/>
		</g>
	</g>
</g>
</svg>
