<?xml version="1.0" encoding="utf-8"?>
<!-- Generator: Adobe Illustrator 19.0.0, SVG Export Plug-In . SVG Version: 6.00 Build 0)  -->
<svg version="1.1" id="Layer_1" xmlns="http://www.w3.org/2000/svg" xmlns:xlink="http://www.w3.org/1999/xlink" x="0px" y="0px"
	 viewBox="0 0 100 100" style="enable-background:new 0 0 100 100;" xml:space="preserve">
<style type="text/css">
	.st0{fill:#ED4335;}
	.st1{fill:#FDFEFF;}
	.st2{fill:#FFFFFF;}
</style>
<g id="XMLID_31154_">
	<circle id="XMLID_31216_" class="st0" cx="50" cy="49.5" r="46.8"/>
	<g id="XMLID_31155_">
		<g id="XMLID_31156_">
			<g id="XMLID_31157_">
				<path id="XMLID_31208_" class="st1" d="M74.3,45.9c1.8-1.3,3-3.4,3-5.8c0-3.9-3.2-7.1-7.1-7.1s-7.1,3.2-7.1,7.1
					c0,2.4,1.2,4.5,3,5.8c-1.6,0.5-3,1.4-4.2,2.5c-1.7-1.4-3.6-2.5-5.8-3.1c2.6-1.6,4.4-4.5,4.4-7.7c0-5-4-9-9-9s-9,4-9,9
					c0,3.3,1.7,6.1,4.4,7.7c-2.1,0.6-4.1,1.7-5.7,3.1c-1.2-1.1-2.6-1.9-4.2-2.4c1.8-1.3,3-3.4,3-5.8c0-3.9-3.2-7.1-7.1-7.1
					s-7.1,3.2-7.1,7.1c0,2.4,1.2,4.5,3,5.8c-4.9,1.7-8.4,6.3-8.4,11.8v0.8c0,0,0,0,0,0h15.1c-0.1,0.7-0.1,1.4-0.1,2.1v0.8
					c0,3.6,2.9,6.6,6.6,6.6H61c3.6,0,6.6-2.9,6.6-6.6v-0.8c0-0.7,0-1.4-0.1-2.1h15.2c0,0,0,0,0,0v-0.8
					C82.7,52.2,79.2,47.6,74.3,45.9z M65.1,40c0-2.8,2.3-5.1,5.1-5.1c2.8,0,5.1,2.3,5.1,5.1c0,2.8-2.3,5.1-5.1,5.1c0,0-0.1,0-0.1,0
					s-0.1,0-0.1,0C67.3,45.1,65.1,42.8,65.1,40z M44.4,37.5c0-3.9,3.2-7.1,7.1-7.1s7.1,3.2,7.1,7.1c0,3.8-3,6.8-6.6,7
					c-0.1,0-0.3,0-0.4,0s-0.3,0-0.4,0C47.3,44.3,44.4,41.2,44.4,37.5z M27.6,40c0-2.8,2.3-5.1,5.1-5.1s5.1,2.3,5.1,5.1
					c0,2.8-2.3,5.1-5.1,5.1c0,0-0.1,0-0.1,0c0,0-0.1,0-0.1,0C29.9,45.1,27.6,42.8,27.6,40z M35.8,56.6H22.3c0.6-5.3,5-9.4,10.4-9.4
					c0,0,0,0,0.1,0c0,0,0,0,0.1,0c2.6,0,4.9,1,6.7,2.5C37.8,51.6,36.5,54,35.8,56.6z M65.6,61.5c0,2.5-2.1,4.6-4.6,4.6H41.9
					c-2.5,0-4.6-2.1-4.6-4.6v-0.8c0-7.7,6.1-13.9,13.7-14.2c0.1,0,0.3,0,0.4,0c0.1,0,0.3,0,0.4,0c7.6,0.2,13.7,6.5,13.7,14.2V61.5z
					 M67.1,56.6c-0.7-2.6-2-4.9-3.7-6.9c1.8-1.6,4.2-2.5,6.8-2.6c0,0,0,0,0.1,0s0,0,0.1,0c5.4,0,9.8,4.2,10.4,9.4H67.1z"/>
				<path id="XMLID_31158_" class="st2" d="M61,68.5H41.9c-3.8,0-7-3.1-7-7v-0.8c0-0.5,0-1.1,0.1-1.7H20l0-0.4v-0.8
					c0-5.3,3.2-10,8-11.9c-1.7-1.4-2.6-3.5-2.6-5.7c0-4.1,3.4-7.5,7.5-7.5s7.5,3.4,7.5,7.5c0,2.2-1,4.3-2.6,5.7
					c1.2,0.5,2.3,1.2,3.4,2c1.5-1.2,3.1-2.1,4.8-2.7c-2.4-1.8-3.9-4.6-3.9-7.6c0-5.2,4.2-9.4,9.4-9.4s9.4,4.2,9.4,9.4
					c0,3-1.5,5.8-3.9,7.6c1.8,0.6,3.4,1.5,4.9,2.8c1-0.9,2.2-1.6,3.4-2.1c-1.7-1.4-2.6-3.5-2.6-5.7c0-4.1,3.4-7.5,7.5-7.5
					c4.1,0,7.5,3.4,7.5,7.5c0,2.2-1,4.3-2.6,5.7c4.8,2,8,6.7,8,11.9v1.2l-0.4,0H67.9c0.1,0.6,0.1,1.1,0.1,1.7v0.8
					C68,65.3,64.9,68.5,61,68.5z M20.7,58.2h15.2l-0.1,0.4c-0.1,0.7-0.1,1.4-0.1,2v0.8c0,3.4,2.8,6.2,6.2,6.2H61
					c3.4,0,6.2-2.8,6.2-6.2v-0.8c0-0.7,0-1.3-0.1-2L67,58.2h15.3v-0.5c0-5.2-3.3-9.8-8.2-11.5L73.4,46l0.6-0.4
					c1.8-1.3,2.9-3.3,2.9-5.5c0-3.7-3-6.7-6.7-6.7c-3.7,0-6.7,3-6.7,6.7c0,2.2,1.1,4.2,2.9,5.5L67,46l-0.7,0.3
					c-1.5,0.5-2.9,1.3-4.1,2.4l-0.3,0.2l-0.3-0.2c-1.7-1.4-3.6-2.5-5.6-3.1l-0.9-0.3l0.8-0.5c2.6-1.6,4.2-4.4,4.2-7.4
					c0-4.8-3.9-8.6-8.6-8.6s-8.6,3.9-8.6,8.6c0,3,1.6,5.8,4.2,7.4l0.8,0.5l-0.9,0.3c-2,0.6-3.9,1.6-5.6,3l-0.3,0.2l-0.3-0.2
					c-1.2-1-2.5-1.8-4-2.3L36,46l0.6-0.4c1.8-1.3,2.9-3.3,2.9-5.5c0-3.7-3-6.7-6.7-6.7s-6.7,3-6.7,6.7c0,2.2,1.1,4.2,2.9,5.5
					l0.6,0.4l-0.7,0.3c-4.9,1.7-8.2,6.3-8.2,11.4V58.2z M61,66.5H41.9c-2.8,0-5-2.2-5-5v-0.8c0-7.8,6.3-14.3,14.1-14.6
					c0.2,0,0.3,0,0.4,0c0.1,0,0.3,0,0.4,0C59.7,46.3,66,52.9,66,60.7v0.8C66,64.2,63.8,66.5,61,66.5z M51,46.9
					c-7.3,0.2-13.3,6.4-13.3,13.8v0.8c0,2.3,1.9,4.2,4.2,4.2H61c2.3,0,4.2-1.9,4.2-4.2v-0.8c0-7.4-6-13.5-13.4-13.8
					C51.7,46.9,51.3,46.9,51,46.9z M81.1,57H66.8l-0.1-0.3C66,54.2,64.8,51.9,63,50l-0.3-0.3l0.3-0.3c1.9-1.7,4.5-2.6,7-2.7h0.2
					c5.6,0,10.2,4.2,10.8,9.8L81.1,57z M67.4,56.2h12.8c-0.7-4.9-4.9-8.6-9.9-8.6l-0.1-0.4l0,0.4c-2.3,0-4.5,0.8-6.2,2.2
					C65.5,51.6,66.7,53.8,67.4,56.2z M36.1,57H21.9l0-0.4c0.6-5.5,5.2-9.7,10.8-9.8h0.2c2.5,0,5,0.9,7,2.6l0.3,0.3l-0.3,0.3
					c-1.8,1.9-3,4.2-3.7,6.7L36.1,57z M22.8,56.2h12.7c0.7-2.4,1.9-4.6,3.5-6.5c-1.8-1.4-3.9-2.1-6.2-2.2l-0.1-0.4l0,0.4
					C27.7,47.6,23.5,51.3,22.8,56.2z M70.3,45.6h-0.2c-3-0.1-5.4-2.5-5.4-5.5c0-3.1,2.5-5.5,5.5-5.5c3.1,0,5.5,2.5,5.5,5.5
					C75.7,43,73.3,45.5,70.3,45.6L70.3,45.6z M70.2,35.3c-2.6,0-4.8,2.1-4.8,4.8c0,2.6,2.1,4.7,4.7,4.8h0.1c2.7-0.1,4.8-2.2,4.8-4.8
					C75,37.4,72.8,35.3,70.2,35.3z M32.9,45.6h-0.2c-3-0.1-5.4-2.5-5.4-5.5c0-3.1,2.5-5.5,5.5-5.5c3.1,0,5.5,2.5,5.5,5.5
					C38.3,43,35.9,45.5,32.9,45.6L32.9,45.6z M32.8,35.3c-2.6,0-4.8,2.1-4.8,4.8c0,2.6,2.1,4.7,4.7,4.8l0.2,0.4l0-0.4
					c2.6-0.1,4.7-2.2,4.7-4.8C37.5,37.4,35.4,35.3,32.8,35.3z M51.4,44.9H51c-4-0.2-7-3.5-7-7.4c0-4.1,3.3-7.4,7.4-7.4
					s7.4,3.3,7.4,7.4c0,3.9-3.1,7.2-7,7.4L51.4,44.9z M51.4,30.8c-3.7,0-6.7,3-6.7,6.7c0,3.5,2.8,6.4,6.3,6.6l0.8,0
					c3.5-0.2,6.2-3.1,6.2-6.6C58.1,33.8,55.1,30.8,51.4,30.8z"/>
			</g>
		</g>
	</g>
</g>
</svg>
