<?xml version="1.0" encoding="utf-8"?>
<!-- Generator: Adobe Illustrator 19.0.0, SVG Export Plug-In . SVG Version: 6.00 Build 0)  -->
<svg version="1.1" id="Layer_1" xmlns="http://www.w3.org/2000/svg" xmlns:xlink="http://www.w3.org/1999/xlink" x="0px" y="0px"
	 viewBox="0 0 100 100" style="enable-background:new 0 0 100 100;" xml:space="preserve">
<style type="text/css">
	.st0{fill:#60C4B1;}
	.st1{fill:#FFFFFF;}
</style>
<g id="XMLID_6_">
	<circle id="XMLID_14_" class="st0" cx="50" cy="49.3" r="46.4"/>
	<g id="XMLID_7_">
		<g id="XMLID_8_">
			<path id="XMLID_13_" class="st1" d="M66,33.6c-4.2-4.2-9.8-6.5-15.7-6.5c-6,0-11.7,2.4-15.9,6.7c-0.5,0.5-0.4,1.2,0,1.7
				c0.5,0.5,1.2,0.4,1.7,0c3.8-3.9,8.8-6,14.2-6c10.9,0,19.8,8.9,19.8,19.8S61.2,69,50.3,69s-19.8-8.9-19.8-19.8V49l2,2
				c0.2,0.2,0.5,0.3,0.8,0.3c0.3,0,0.6-0.1,0.8-0.3c0.5-0.5,0.5-1.2,0-1.7l-4-4c-0.5-0.5-1.2-0.5-1.7,0l-4,4c-0.5,0.5-0.5,1.2,0,1.7
				c0.2,0.2,0.5,0.3,0.8,0.3c0.3,0,0.6-0.1,0.8-0.3l2-2v0.2c0,5.9,2.3,11.5,6.5,15.7s9.8,6.5,15.7,6.5s11.5-2.3,15.7-6.5
				c4.2-4.2,6.5-9.8,6.5-15.7S70.2,37.8,66,33.6z"/>
			<path id="XMLID_9_" class="st1" d="M50.3,36.4c-3.9,0-7,3.2-7,7v3.4h-2.2c-0.7,0-1.2,0.5-1.2,1.2v11.9c0,0.7,0.5,1.2,1.2,1.2
				h18.5c0.7,0,1.2-0.5,1.2-1.2V48c0-0.7-0.5-1.2-1.2-1.2h-2.2v-3.4C57.4,39.5,54.2,36.4,50.3,36.4z M45.7,43.4
				c0-2.6,2.1-4.6,4.6-4.6c2.6,0,4.6,2.1,4.6,4.6v3.4h-9.3V43.4L45.7,43.4z M58.4,58.7H42.3v-9.5h16.1V58.7z"/>
		</g>
	</g>
</g>
</svg>
