<?xml version="1.0" encoding="utf-8"?>
<!-- Generator: Adobe Illustrator 19.0.0, SVG Export Plug-In . SVG Version: 6.00 Build 0)  -->
<svg version="1.1" id="Layer_1" xmlns="http://www.w3.org/2000/svg" xmlns:xlink="http://www.w3.org/1999/xlink" x="0px" y="0px"
	 viewBox="0 0 100 100" style="enable-background:new 0 0 100 100;" xml:space="preserve">
<style type="text/css">
	.st0{fill:#44B79C;}
	.st1{fill:#F9F9F9;}
	.st2{fill:#FFFFFF;}
</style>
<circle id="XMLID_31233_" class="st0" cx="50" cy="49.5" r="46.8"/>
<g id="XMLID_12_">
	<g id="XMLID_13_">
		<g id="XMLID_14_">
			<g id="XMLID_10_">
				<circle class="st1" cx="32.8" cy="32.1" r="1"/>
				<path class="st2" d="M32.8,33.3c-0.6,0-1.1-0.5-1.1-1.1c0-0.6,0.5-1.1,1.1-1.1c0.6,0,1.1,0.5,1.1,1.1
					C34,32.7,33.5,33.3,32.8,33.3z M32.8,31.2c-0.5,0-0.9,0.4-0.9,0.9c0,0.5,0.4,0.9,0.9,0.9c0.5,0,0.9-0.4,0.9-0.9
					C33.7,31.6,33.3,31.2,32.8,31.2z"/>
			</g>
			<g id="XMLID_9_">
				<circle class="st1" cx="36.9" cy="32.1" r="1"/>
				<path class="st2" d="M36.9,33.3c-0.6,0-1.1-0.5-1.1-1.1c0-0.6,0.5-1.1,1.1-1.1s1.1,0.5,1.1,1.1C38,32.7,37.5,33.3,36.9,33.3z
					 M36.9,31.2c-0.5,0-0.9,0.4-0.9,0.9c0,0.5,0.4,0.9,0.9,0.9c0.5,0,0.9-0.4,0.9-0.9C37.8,31.6,37.4,31.2,36.9,31.2z"/>
			</g>
			<g id="XMLID_8_">
				<circle class="st1" cx="41" cy="32.1" r="1"/>
				<path class="st2" d="M41,33.3c-0.6,0-1.1-0.5-1.1-1.1c0-0.6,0.5-1.1,1.1-1.1s1.1,0.5,1.1,1.1C42.1,32.7,41.6,33.3,41,33.3z
					 M41,31.2c-0.5,0-0.9,0.4-0.9,0.9c0,0.5,0.4,0.9,0.9,0.9s0.9-0.4,0.9-0.9C41.8,31.6,41.4,31.2,41,31.2z"/>
			</g>
			<g id="XMLID_5_">
				<path class="st1" d="M38.9,47.5h22.4c0.6,0,1-0.5,1-1c0-0.5-0.5-1-1-1H38.9c-0.6,0-1,0.5-1,1C37.9,47,38.4,47.5,38.9,47.5z"/>
				<path class="st2" d="M61.4,47.6H38.9c-0.6,0-1.1-0.5-1.1-1.1c0-0.6,0.5-1.1,1.1-1.1h22.4c0.6,0,1.1,0.5,1.1,1.1
					C62.5,47.1,62,47.6,61.4,47.6z M38.9,45.5c-0.5,0-0.9,0.4-0.9,0.9c0,0.5,0.4,0.9,0.9,0.9h22.4c0.5,0,0.9-0.4,0.9-0.9
					c0-0.5-0.4-0.9-0.9-0.9H38.9z"/>
			</g>
			<g id="XMLID_6_">
				<path class="st1" d="M51.2,57.7H38.9c-0.6,0-1,0.5-1,1c0,0.6,0.5,1,1,1h12.2c0.6,0,1-0.5,1-1C52.2,58.1,51.7,57.7,51.2,57.7z"/>
				<path class="st2" d="M51.2,59.8H38.9c-0.6,0-1.1-0.5-1.1-1.1s0.5-1.1,1.1-1.1h12.2c0.3,0,0.7,0.1,0.9,0.4
					c0.2,0.2,0.3,0.5,0.3,0.8C52.3,59.3,51.8,59.8,51.2,59.8z M38.9,57.8c-0.5,0-0.9,0.4-0.9,0.9s0.4,0.9,0.9,0.9h12.2
					c0.5,0,0.9-0.4,0.9-0.9c0-0.2,0-0.4-0.2-0.6c-0.2-0.2-0.4-0.3-0.7-0.3H38.9z"/>
			</g>
			<g id="XMLID_15_">
				<path class="st1" d="M72.8,39.3c-0.1,0-0.1,0-0.2,0v-8.2c0-2.2-1.8-4.1-4.1-4.1H31.8c-2.2,0-4.1,1.8-4.1,4.1v36.8
					c0,2.2,1.8,4.1,4.1,4.1h36.8c2.2,0,4.1-1.8,4.1-4.1v-19l2.9-2.9l0,0c0.7-0.7,1.1-1.7,1.1-2.8C76.7,41,74.9,39.3,72.8,39.3z
					 M29.7,31.1c0-1.1,0.9-2,2-2h36.8c1.1,0,2,0.9,2,2v4.1H29.7V31.1z M70.6,67.9c0,1.1-0.9,2-2,2H31.8c-1.1,0-2-0.9-2-2V37.2h40.8
					V40c-0.2,0.1-0.4,0.3-0.5,0.4L58.9,51.5h-20c-0.6,0-1,0.5-1,1c0,0.6,0.5,1,1,1h18.3l-1,4.9c-0.1,0.3,0.1,0.7,0.3,0.9
					c0.2,0.2,0.5,0.3,0.7,0.3c0.1,0,0.1,0,0.2,0l5.1-1c0.2-0.1,0.4-0.2,0.5-0.3l7.4-7.5V67.9z M61.9,56.7l-3.3,0.6l0.6-3.3l9.2-9.2
					l2.6,2.6L61.9,56.7z M74.1,44.5L72.6,46L70,43.4l1.5-1.5c0.3-0.3,0.8-0.5,1.3-0.5c1,0,1.9,0.9,1.9,1.9
					C74.7,43.7,74.5,44.1,74.1,44.5z"/>
				<path class="st2" d="M68.6,72.1H31.8c-2.3,0-4.2-1.9-4.2-4.2V31.1c0-2.3,1.9-4.2,4.2-4.2h36.8c2.3,0,4.2,1.9,4.2,4.2v8.1h0
					c2.2,0,4,1.8,4,4c0,1.1-0.4,2.1-1.2,2.9l-2.9,2.9v18.9C72.8,70.2,70.9,72.1,68.6,72.1z M31.8,27.2c-2.2,0-3.9,1.8-3.9,3.9v36.8
					c0,2.2,1.8,3.9,3.9,3.9h36.8c2.2,0,3.9-1.8,3.9-3.9v-19l0,0l2.9-2.9c0.7-0.7,1.1-1.6,1.1-2.7c0-2.1-1.7-3.8-3.8-3.8h-0.3v-8.3
					c0-2.2-1.8-3.9-3.9-3.9H31.8z M68.5,70H31.8c-1.2,0-2.2-1-2.2-2.2V37.1h41V40l-0.1,0c-0.2,0.1-0.3,0.2-0.5,0.4L59,51.6h-20
					c-0.5,0-0.9,0.4-0.9,0.9s0.4,0.9,0.9,0.9h18.5l0,0.1l-1,4.9c0,0.3,0,0.6,0.2,0.8c0.2,0.2,0.4,0.3,0.7,0.3h0.2l5.1-1
					c0.2,0,0.3-0.1,0.5-0.2l7.6-7.7v17.2C70.7,69.1,69.7,70,68.5,70z M29.9,37.4v30.5c0,1.1,0.9,1.9,1.9,1.9h36.7
					c1.1,0,1.9-0.9,1.9-1.9V51.2l-7.2,7.3c-0.2,0.1-0.4,0.2-0.6,0.3l-5.1,1l-0.2,0c-0.3,0-0.6-0.1-0.8-0.4c-0.2-0.2-0.4-0.6-0.3-1
					l0.9-4.8H38.9c-0.6,0-1.1-0.5-1.1-1.1s0.5-1.1,1.1-1.1h19.9l11.1-11.1c0.2-0.1,0.3-0.3,0.5-0.4v-2.5H29.9z M58.4,57.5l0.7-3.5
					l0,0l9.3-9.3l2.8,2.8l-0.1,0.1L62,56.8l0,0L58.4,57.5z M59.3,54.1l-0.6,3.1l3.1-0.6l9.1-9.2L68.5,45L59.3,54.1z M72.6,46.2
					l-2.8-2.8l1.6-1.6c0.4-0.4,0.9-0.6,1.4-0.6c1.1,0,2,0.9,2,2c-0.1,0.5-0.3,1-0.6,1.4l0,0L72.6,46.2z M70.2,43.4l2.4,2.4l1.4-1.4
					c0.3-0.3,0.5-0.8,0.6-1.2c0-0.9-0.8-1.7-1.7-1.7c-0.5,0-0.9,0.2-1.2,0.5L70.2,43.4z M70.7,35.3H29.6v-4.2c0-1.2,1-2.2,2.2-2.2
					h36.8c1.2,0,2.2,1,2.2,2.2V35.3z M29.9,35h40.6v-3.9c0-1.1-0.9-1.9-1.9-1.9H31.8c-1.1,0-1.9,0.9-1.9,1.9V35z"/>
			</g>
		</g>
	</g>
</g>
</svg>
