<?xml version="1.0" encoding="utf-8"?>
<!-- Generator: Adobe Illustrator 19.0.0, SVG Export Plug-In . SVG Version: 6.00 Build 0)  -->
<svg version="1.1" id="Layer_1" xmlns="http://www.w3.org/2000/svg" xmlns:xlink="http://www.w3.org/1999/xlink" x="0px" y="0px"
	 viewBox="0 0 100 100" style="enable-background:new 0 0 100 100;" xml:space="preserve">
<style type="text/css">
	.st0{fill:#F6B818;}
	.st1{fill:#FFFFFF;}
	.st2{fill:#F15A5A;}
</style>
<g id="XMLID_31254_">
	<circle id="XMLID_31258_" class="st0" cx="50" cy="49.3" r="46.1"/>
	<g id="XMLID_31255_">
		<path id="XMLID_31257_" class="st1" d="M61.4,30.5c-0.3-0.3-0.7-0.5-1.1-0.4l-6-0.4c-0.6-0.1-1.2,0.4-1.2,1
			c-0.1,0.6,0.4,1.2,1.1,1.2l3.3,0.2l-7.1,5.5l-6-4.7c-0.5-0.3-1.1-0.3-1.5,0.1l-6.5,6.2c-0.5,0.4-0.5,1.1-0.1,1.6
			c0.2,0.2,0.5,0.3,0.8,0.3c0.3,0,0.6-0.1,0.8-0.3l5.7-5.5l5.9,4.7c0.4,0.3,1,0.3,1.4,0l8.1-6.3l-0.2,3.3c-0.1,0.6,0.4,1.1,1,1.2
			c0.1,0,0.1,0,0.1,0c0.6,0,1.1-0.5,1.1-1l0.5-5.8c0-0.1,0-0.1,0-0.1C61.6,30.9,61.5,30.6,61.4,30.5z"/>
		<path id="XMLID_31256_" class="st1" d="M73.6,61.1h-5.3V50.6c0-1-0.8-1.8-1.8-1.8c-1,0-1.8,0.8-1.8,1.8v10.5h-5.1V47
			c0-1-0.8-1.8-1.8-1.8c-1,0-1.8,0.8-1.8,1.8v14.1h-5.1V52c0-1-0.8-1.8-1.8-1.8c-1,0-1.8,0.8-1.8,1.8v9.1h-5.1V44.9
			c0-1-0.8-1.8-1.8-1.8c-1,0-1.8,0.8-1.8,1.8v16.2H34v-8.4c0-1-0.8-1.8-1.8-1.8c-1,0-1.8,0.8-1.8,1.8v8.4h-5.4c-1,0-1.8,0.8-1.8,1.8
			c0,1,0.8,1.8,1.8,1.8h48.5c1,0,1.8-0.8,1.8-1.8C75.4,61.9,74.6,61.1,73.6,61.1z"/>
	</g>
</g>
<g id="XMLID_1_">
	<ellipse id="XMLID_31276_" class="st2" cx="49.7" cy="49.3" rx="46.4" ry="46.1"/>
	<g id="XMLID_2_">
		<path id="XMLID_31273_" class="st1" d="M42.7,37.4H31.9c-0.4,0-0.7-0.2-0.9-0.6s0-0.8,0.2-1L42,25.1c0.3-0.3,0.7-0.3,1-0.2
			c0.3,0.1,0.6,0.5,0.6,0.8v10.7C43.6,37,43.2,37.4,42.7,37.4 M34.1,35.6h7.6V28L34.1,35.6z"/>
		<path id="XMLID_31270_" class="st1" d="M42.7,37.4H31.9c-0.4,0-0.7-0.2-0.9-0.6s0-0.8,0.2-1L42,25.1c0.3-0.3,0.7-0.3,1-0.2
			c0.3,0.1,0.6,0.5,0.6,0.8v10.7C43.6,37,43.2,37.4,42.7,37.4z M34.1,35.6h7.6V28L34.1,35.6z"/>
		<path id="XMLID_31267_" class="st1" d="M65.9,68.7h-34c-0.5,0-0.9-0.4-0.9-0.9V36.5c0-0.2,0.1-0.5,0.3-0.7l10.8-10.7
			c0.2-0.2,0.4-0.3,0.7-0.3H66c0.5,0,0.9,0.4,0.9,0.9v42C66.8,68.3,66.4,68.7,65.9,68.7 M32.8,66.9H65V26.7H43.1L32.8,36.9V66.9
			L32.8,66.9z"/>
		<path id="XMLID_31264_" class="st1" d="M65.9,68.7h-34c-0.5,0-0.9-0.4-0.9-0.9V36.5c0-0.2,0.1-0.5,0.3-0.7l10.8-10.7
			c0.2-0.2,0.4-0.3,0.7-0.3H66c0.5,0,0.9,0.4,0.9,0.9v42C66.8,68.3,66.4,68.7,65.9,68.7z M32.8,66.9H65V26.7H43.1L32.8,36.9V66.9
			L32.8,66.9z"/>
		<path id="XMLID_31263_" class="st1" d="M57.4,60.8H38c-0.5,0-0.9-0.4-0.9-0.9V41.4c0-0.5,0.4-0.9,0.9-0.9c0.5,0,0.9,0.4,0.9,0.9
			v17.6h18.4c0.5,0,0.9,0.4,0.9,0.9C58.3,60.4,57.9,60.8,57.4,60.8"/>
		<path id="XMLID_31262_" class="st1" d="M57.4,60.8H38c-0.5,0-0.9-0.4-0.9-0.9V41.4c0-0.5,0.4-0.9,0.9-0.9c0.5,0,0.9,0.4,0.9,0.9
			v17.6h18.4c0.5,0,0.9,0.4,0.9,0.9C58.3,60.4,57.9,60.8,57.4,60.8z"/>
		<path id="XMLID_31261_" class="st1" d="M57.4,57c-0.5,0-0.9-0.4-0.9-0.9V45.9c0-0.5,0.4-0.9,0.9-0.9s0.9,0.4,0.9,0.9v10.2
			C58.3,56.6,57.9,57,57.4,57"/>
		<path id="XMLID_31260_" class="st1" d="M57.4,57c-0.5,0-0.9-0.4-0.9-0.9V45.9c0-0.5,0.4-0.9,0.9-0.9s0.9,0.4,0.9,0.9v10.2
			C58.3,56.6,57.9,57,57.4,57z"/>
		<path id="XMLID_31259_" class="st1" d="M51,57.1c-0.5,0-0.9-0.4-0.9-0.9V42.3c0-0.5,0.4-0.9,0.9-0.9c0.5,0,0.9,0.4,0.9,0.9v13.9
			C51.9,56.7,51.4,57.1,51,57.1"/>
		<path id="XMLID_5_" class="st1" d="M51,57.1c-0.5,0-0.9-0.4-0.9-0.9V42.3c0-0.5,0.4-0.9,0.9-0.9c0.5,0,0.9,0.4,0.9,0.9v13.9
			C51.9,56.7,51.4,57.1,51,57.1z"/>
		<path id="XMLID_4_" class="st1" d="M44.5,57.1c-0.5,0-0.9-0.4-0.9-0.9V51c0-0.5,0.4-0.9,0.9-0.9c0.5,0,0.9,0.4,0.9,0.9v5.2
			C45.4,56.7,45,57.1,44.5,57.1"/>
		<path id="XMLID_3_" class="st1" d="M44.5,57.1c-0.5,0-0.9-0.4-0.9-0.9V51c0-0.5,0.4-0.9,0.9-0.9c0.5,0,0.9,0.4,0.9,0.9v5.2
			C45.4,56.7,45,57.1,44.5,57.1z"/>
	</g>
</g>
</svg>
