<?xml version="1.0" encoding="utf-8"?>
<!-- Generator: Adobe Illustrator 19.0.0, SVG Export Plug-In . SVG Version: 6.00 Build 0)  -->
<svg version="1.1" id="Layer_1" xmlns="http://www.w3.org/2000/svg" xmlns:xlink="http://www.w3.org/1999/xlink" x="0px" y="0px"
	 viewBox="0 0 100 100" style="enable-background:new 0 0 100 100;" xml:space="preserve">
<style type="text/css">
	.st0{fill:#066292;}
	.st1{fill:#FFFFFF;}
</style>
<g id="XMLID_31218_">
	<circle id="XMLID_31253_" class="st0" cx="50" cy="49.4" r="46.1"/>
	<g id="XMLID_31219_">
		<g id="XMLID_2_">
			<g id="XMLID_3_">
				<path id="XMLID_15_" class="st1" d="M67.6,35.3h-8.7v-1.7c0-1.9-1.6-3.5-3.5-3.5H45c-1.9,0-3.5,1.6-3.5,3.5v1.7h-8.7
					c-1.9,0-3.5,1.6-3.5,3.5v22.7c0,1.9,1.6,3.5,3.5,3.5h34.9c1.9,0,3.5-1.6,3.5-3.5V38.8C71.1,36.9,69.6,35.3,67.6,35.3z
					 M43.2,33.6c0-1,0.8-1.7,1.7-1.7h10.5c1,0,1.7,0.8,1.7,1.7v1.7h-14V33.6z M69.4,61.5c0,1-0.8,1.7-1.7,1.7H32.7
					c-1,0-1.7-0.8-1.7-1.7V48.8c0.5,0.3,1.1,0.5,1.7,0.5h14v2.6c0,0.5,0.4,0.9,0.9,0.9h5.2c0.5,0,0.9-0.4,0.9-0.9v-2.6h14
					c0.6,0,1.2-0.2,1.7-0.5L69.4,61.5L69.4,61.5z M48.4,51v-3.5h3.5V51H48.4z M69.4,45.8c0,1-0.8,1.7-1.7,1.7h-14v-0.9
					c0-0.5-0.4-0.9-0.9-0.9h-5.2c-0.5,0-0.9,0.4-0.9,0.9v0.9h-14c-1,0-1.7-0.8-1.7-1.7v-7c0-1,0.8-1.7,1.7-1.7h34.9
					c1,0,1.7,0.8,1.7,1.7V45.8z"/>
				<path id="XMLID_4_" class="st1" d="M67.6,65.2H32.7c-2.1,0-3.8-1.7-3.8-3.8V38.8c0-2.1,1.7-3.8,3.8-3.8h8.4v-1.5
					c0-2.1,1.7-3.8,3.8-3.8h10.5c2.1,0,3.8,1.7,3.8,3.8V35h8.4c2.1,0,3.8,1.7,3.8,3.8v22.7C71.4,63.5,69.7,65.2,67.6,65.2z
					 M32.7,35.6c-1.8,0-3.2,1.4-3.2,3.2v22.7c0,1.8,1.4,3.2,3.2,3.2h34.9c1.8,0,3.2-1.4,3.2-3.2V38.8c0-1.8-1.4-3.2-3.2-3.2h-9v-2
					c0-1.8-1.4-3.2-3.2-3.2H45c-1.8,0-3.2,1.4-3.2,3.2v2H32.7z M67.6,63.5H32.7c-1.1,0-2-0.9-2-2V48.3l0.4,0.2
					c0.5,0.3,1.1,0.4,1.6,0.4H47v2.9c0,0.3,0.3,0.6,0.6,0.6h5.2c0.3,0,0.6-0.3,0.6-0.6V49h14.2c0.6,0,1.1-0.2,1.6-0.4l0.4-0.2v13.2
					C69.6,62.6,68.7,63.5,67.6,63.5z M31.3,49.2v12.3c0,0.8,0.7,1.5,1.5,1.5h34.9c0.8,0,1.5-0.7,1.5-1.5V49.2
					c-0.5,0.2-1,0.3-1.5,0.3H54v2.3c0,0.6-0.5,1.1-1.1,1.1h-5.2c-0.6,0-1.1-0.5-1.1-1.1v-2.3H32.7C32.2,49.5,31.7,49.4,31.3,49.2z
					 M52.2,51.3h-4v-4h4V51.3z M48.7,50.7h2.9v-2.9h-2.9V50.7z M67.6,47.8H53.4v-1.1c0-0.3-0.3-0.6-0.6-0.6h-5.2
					c-0.3,0-0.6,0.3-0.6,0.6v1.1H32.7c-1.1,0-2-0.9-2-2v-7c0-1.1,0.9-2,2-2h34.9c1.1,0,2,0.9,2,2v7C69.6,46.9,68.7,47.8,67.6,47.8z
					 M54,47.2h13.7c0.8,0,1.5-0.7,1.5-1.5v-7c0-0.8-0.7-1.5-1.5-1.5H32.7c-0.8,0-1.5,0.7-1.5,1.5v7c0,0.8,0.7,1.5,1.5,1.5h13.7v-0.6
					c0-0.6,0.5-1.1,1.1-1.1h5.2c0.6,0,1.1,0.5,1.1,1.1V47.2z M57.4,35.6H42.9v-2c0-1.1,0.9-2,2-2h10.5c1.1,0,2,0.9,2,2V35.6z
					 M43.5,35h13.4v-1.5c0-0.8-0.7-1.5-1.5-1.5H45c-0.8,0-1.5,0.7-1.5,1.5V35z"/>
			</g>
		</g>
	</g>
</g>
</svg>
