<?xml version="1.0" encoding="utf-8"?>
<!-- Generator: Adobe Illustrator 19.0.0, SVG Export Plug-In . SVG Version: 6.00 Build 0)  -->
<svg version="1.1" id="Layer_1" xmlns="http://www.w3.org/2000/svg" xmlns:xlink="http://www.w3.org/1999/xlink" x="0px" y="0px"
	 viewBox="0 0 100 100" style="enable-background:new 0 0 100 100;" xml:space="preserve">
<style type="text/css">
	.st0{fill:#59C4BF;}
	.st1{fill:#FFFFFF;}
</style>
<g id="XMLID_31218_">
	<circle id="XMLID_31264_" class="st0" cx="49.9" cy="49.7" r="46.2"/>
	<g id="XMLID_31219_">
		<g id="XMLID_109_">
			<g id="XMLID_110_">
				<path id="XMLID_111_" class="st1" d="M73.3,38.2h-1.6v-4.1c0-1.4-1.1-2.5-2.5-2.5h-3.3c-1.4,0-2.5,1.1-2.5,2.5v6.6h-1.9
					l-0.2-0.5c-0.9-2.2-3-3.7-5.4-3.7h-0.1c-0.3-1-1.2-1.6-2.3-1.6c-0.6,0-1.2,0.2-1.6,0.6c-0.4-0.4-1-0.6-1.6-0.6s-1.2,0.2-1.6,0.6
					c-0.4-0.4-1-0.6-1.6-0.6s-1.2,0.2-1.6,0.6c-0.4-0.4-1-0.6-1.6-0.6c-1.4,0-2.5,1.1-2.5,2.5v3.3h-2.5v-6.6c0-1.4-1.1-2.5-2.5-2.5
					h-3.3c-1.4,0-2.5,1.1-2.5,2.5v4.1h-1.6c-1.4,0-2.5,1.1-2.5,2.5V49c0,1.4,1.1,2.5,2.5,2.5h1.6v4.1c0,1.4,1.1,2.5,2.5,2.5h3.3
					c1.4,0,2.5-1.1,2.5-2.5V49h1.9l0.6,2c0,0.1,0.1,0.2,0.1,0.3l2.2,2.8l-1.4,14.8c-0.1,0.6,0.1,1.2,0.5,1.6c0.4,0.4,1,0.7,1.6,0.7
					h11.2c0.6,0,1.2-0.3,1.6-0.7c0.4-0.4,0.6-1,0.5-1.6L56,54.5c0-0.2,0-0.3,0.2-0.4l4.5-3.9c0.4-0.3,0.7-0.8,0.8-1.3h1.8v6.6
					c0,1.4,1.1,2.5,2.5,2.5h3.3c1.4,0,2.5-1.1,2.5-2.5v-4.1h1.6c1.4,0,2.5-1.1,2.5-2.5v-8.2C75.7,39.3,74.6,38.2,73.3,38.2z
					 M30.4,49.8h-1.6c-0.5,0-0.8-0.4-0.8-0.8v-8.2c0-0.5,0.4-0.8,0.8-0.8h1.6V49.8z M37,41.5v6.6v7.4c0,0.5-0.4,0.8-0.8,0.8h-3.3
					c-0.5,0-0.8-0.4-0.8-0.8v-4.9V39.1v-4.9c0-0.5,0.4-0.8,0.8-0.8h3.3c0.5,0,0.8,0.4,0.8,0.8V41.5z M52.6,37.4
					c0-0.5,0.4-0.8,0.8-0.8s0.8,0.4,0.8,0.8v4.1v0.7c0,0.3-0.2,0.6-0.4,0.8c0,0,0,0-0.1,0c0,0-0.1,0-0.1,0.1c-0.1,0-0.1,0-0.2,0
					c-0.1,0-0.1,0-0.2,0c0,0-0.1,0-0.1,0c-0.1,0-0.1-0.1-0.2-0.1c0,0-0.1,0-0.1-0.1c-0.1-0.1-0.1-0.1-0.1-0.2c0,0,0-0.1-0.1-0.1
					c0-0.1-0.1-0.2-0.1-0.3V37.4L52.6,37.4z M49.3,37.4c0-0.5,0.4-0.8,0.8-0.8S51,37,51,37.4v4.9c0,0.5-0.4,0.8-0.8,0.8
					s-0.8-0.4-0.8-0.8V37.4z M46,37.4c0-0.5,0.4-0.8,0.8-0.8s0.8,0.4,0.8,0.8v4.9c0,0.5-0.4,0.8-0.8,0.8S46,42.8,46,42.4V37.4z
					 M42.7,41.5v-4.1c0-0.5,0.4-0.8,0.8-0.8c0.5,0,0.8,0.4,0.8,0.8v4.9c0,0.1,0,0.2-0.1,0.3c0,0,0,0.1-0.1,0.1
					c0,0.1-0.1,0.1-0.1,0.2c0,0-0.1,0-0.1,0.1c-0.1,0-0.1,0.1-0.2,0.1c0,0-0.1,0-0.1,0c-0.1,0-0.1,0-0.2,0c-0.1,0-0.1,0-0.2,0
					c0,0-0.1,0-0.1-0.1c0,0,0,0-0.1,0c-0.2-0.2-0.4-0.4-0.4-0.8V41.5z M38.6,47.3v-4.9h2.5c0,0.9,0.5,1.7,1.2,2.1c0,0,0.1,0,0.1,0.1
					c0.1,0,0.1,0.1,0.2,0.1c0.1,0,0.2,0.1,0.3,0.1c0.1,0,0.1,0,0.2,0c0,0,0,0,0,0c0.1,0,0.1,0,0.2,0c0.1,0,0.2,0,0.2,0
					c0,0,0,0,0.1,0c0.1,0,0.1,0,0.2,0c0.1,0,0.2,0,0.3,0c0.1,0,0.1,0,0.2-0.1c0.1,0,0.2-0.1,0.3-0.1c0.1,0,0.1-0.1,0.2-0.1
					c0.1,0,0.2-0.1,0.2-0.2c0,0,0.1,0,0.1-0.1c0,0,0,0,0,0c0,0,0.1,0.1,0.2,0.1c0.1,0,0.1,0.1,0.2,0.1c0.1,0.1,0.2,0.1,0.2,0.1
					c0.1,0,0.1,0.1,0.2,0.1c0.1,0,0.2,0.1,0.3,0.1c0.1,0,0.1,0,0.2,0c0.2,0,0.3,0,0.5,0c0.2,0,0.3,0,0.5,0c0.1,0,0.1,0,0.2,0
					c0.1,0,0.2-0.1,0.3-0.1c0.1,0,0.1-0.1,0.2-0.1c0.1,0,0.2-0.1,0.2-0.1c0.1,0,0.1-0.1,0.2-0.1c0.1,0,0.1-0.1,0.2-0.1
					c0,0,0.1,0.1,0.2,0.1c0.1,0,0.1,0.1,0.2,0.1c0.1,0,0.2,0.1,0.2,0.1c0.1,0,0.1,0.1,0.2,0.1c0.1,0,0.2,0.1,0.3,0.1
					c0.1,0,0.1,0,0.2,0c0.2,0,0.3,0,0.5,0s0.3,0,0.5,0c0.1,0,0.1,0,0.2,0c0.1,0,0.2-0.1,0.3-0.1c0.1,0,0.1-0.1,0.2-0.1
					c0.1,0,0.2-0.1,0.2-0.1c0.1,0,0.1-0.1,0.2-0.1c0.1,0,0.1-0.1,0.2-0.1c0,0,0,0,0,0c0,0,0.1,0,0.1,0.1c0.1,0.1,0.2,0.1,0.2,0.2
					c0.1,0,0.1,0.1,0.2,0.1c0.1,0,0.2,0.1,0.3,0.1c0.1,0,0.1,0,0.2,0.1c0.1,0,0.2,0,0.3,0.1c0.1,0,0.1,0,0.2,0c0,0,0,0,0.1,0
					c0.1,0,0.2,0,0.2,0c0.1,0,0.1,0,0.2,0c0,0,0,0,0.1,0c0,0,0.1,0,0.1,0c0.1,0,0.2-0.1,0.3-0.1c0.1,0,0.1,0,0.2-0.1
					c0.1,0,0.1-0.1,0.2-0.1c0.6-0.3,1.1-0.9,1.2-1.6c0,0.1,0.1,0.2,0.1,0.3v3l-1.2,1.2H38.6z M60.1,48c0,0.4-0.2,0.7-0.4,1l-4.5,3.9
					c-0.5,0.4-0.8,1.1-0.7,1.8l1.4,14.4c0,0.2-0.1,0.3-0.1,0.4c-0.1,0.1-0.2,0.2-0.3,0.2H44.2c-0.2,0-0.3-0.1-0.3-0.2
					c-0.1-0.1-0.1-0.2-0.1-0.4l1.4-15.1c0-0.2,0-0.4-0.2-0.6l-2.3-3L42.2,49h12.6c0.4,0,0.9-0.2,1.2-0.5l1.2-1.2
					c0.3-0.3,0.5-0.7,0.5-1.2v-3c0-1.1-0.7-2-1.6-2.3v-2.6c1.7,0,3.1,1,3.8,2.6l0.3,0.8c0,0.1,0,0.1,0,0.2V48z M63.4,47.3h-1.6v-4.9
					h1.6V47.3z M70,39.1v11.5v4.9c0,0.5-0.4,0.8-0.8,0.8h-3.3c-0.5,0-0.8-0.4-0.8-0.8v-7.4v-6.6v-7.4c0-0.5,0.4-0.8,0.8-0.8h3.3
					c0.5,0,0.8,0.4,0.8,0.8V39.1z M74.1,49c0,0.5-0.4,0.8-0.8,0.8h-1.6v-9.9h1.6c0.5,0,0.8,0.4,0.8,0.8V49z"/>
			</g>
		</g>
	</g>
</g>
</svg>
