<?xml version="1.0" encoding="utf-8"?>
<!-- Generator: Adobe Illustrator 19.0.0, SVG Export Plug-In . SVG Version: 6.00 Build 0)  -->
<svg version="1.1" id="Layer_1" xmlns="http://www.w3.org/2000/svg" xmlns:xlink="http://www.w3.org/1999/xlink" x="0px" y="0px"
	 viewBox="0 0 100 100" style="enable-background:new 0 0 100 100;" xml:space="preserve">
<g id="XMLID_36760_">
	<g id="XMLID_123_">
		<g id="XMLID_137_">
			<g id="XMLID_138_">
				<path id="XMLID_139_" d="M19.4,85.2c-0.3-0.3-0.8-0.5-1.3-0.5c-0.5,0-0.9,0.2-1.3,0.5c-0.3,0.3-0.5,0.8-0.5,1.3
					c0,0.5,0.2,0.9,0.5,1.3c0.3,0.3,0.8,0.5,1.3,0.5c0.5,0,0.9-0.2,1.3-0.5c0.3-0.3,0.5-0.8,0.5-1.3C19.9,86,19.7,85.6,19.4,85.2z"
					/>
			</g>
		</g>
		<g id="XMLID_134_">
			<g id="XMLID_135_">
				<path id="XMLID_136_" d="M88.2,36.6c-0.3-0.3-0.8-0.5-1.3-0.5c-0.5,0-0.9,0.2-1.3,0.5c-0.3,0.3-0.5,0.8-0.5,1.3
					c0,0.5,0.2,0.9,0.5,1.3c0.3,0.3,0.8,0.5,1.3,0.5c0.5,0,0.9-0.2,1.3-0.5c0.3-0.3,0.5-0.8,0.5-1.3C88.7,37.4,88.5,36.9,88.2,36.6z
					"/>
			</g>
		</g>
		<g id="XMLID_124_">
			<g id="XMLID_125_">
				<path id="XMLID_126_" d="M95.2,4.4C94.9,4,94.5,3.8,94,3.8l-44,0c-1,0-1.8,0.8-1.8,1.8v5.1l-17,4.5c-1,0.3-1.5,1.2-1.3,2.2
					l8.8,32.8l-7.6,7.6c-1-1.4-2.6-2.3-4.4-2.3H9.5c-3,0-5.4,2.4-5.4,5.4v29.2c0,3,2.4,5.4,5.4,5.4h17.2c2.5,0,4.6-1.7,5.2-4.1
					l2.1,1.9c1.6,1.4,3.7,2.2,5.9,2.2h54c1,0,1.8-0.8,1.8-1.8v-88C95.8,5.1,95.6,4.7,95.2,4.4z M28.5,90.1c0,1-0.8,1.8-1.8,1.8H9.5
					c-1,0-1.8-0.8-1.8-1.8V60.9c0-1,0.8-1.8,1.8-1.8h6.8v20.6c0,1,0.8,1.8,1.8,1.8c1,0,1.8-0.8,1.8-1.8V59.1h6.8
					c1,0,1.8,0.8,1.8,1.8L28.5,90.1L28.5,90.1z M33.9,18.3l14.3-3.8v6.6L47,21.4c-0.5,0.1-0.8,0.4-1.1,0.8c-0.2,0.4-0.3,0.9-0.2,1.4
					c0.7,2.6-0.8,5.2-3.4,5.9c-0.5,0.1-0.9,0.4-1.1,0.8c-0.2,0.4-0.3,0.9-0.2,1.4l7,25.8h-3.6l-1.9-7.2c-0.1-0.2-0.2-0.4-0.3-0.6
					L33.9,18.3z M48.2,29.3v15.1l-3.3-12.1C46.3,31.6,47.4,30.5,48.2,29.3z M73.9,91.8H40l0,0c-1.3,0-2.6-0.5-3.6-1.3l-4.3-3.8V62
					l7.8-7.8l1.4,5.5c0.2,0.8,0.9,1.3,1.7,1.3l35.2,0c1.4,0,2.5,1.1,2.5,2.5s-1.1,2.5-2.5,2.5h-18c-1,0-1.8,0.8-1.8,1.8
					s0.8,1.8,1.8,1.8h23.6c1.4,0,2.5,1.1,2.5,2.5s-1.1,2.5-2.5,2.5H60.2c-1,0-1.8,0.8-1.8,1.8s0.8,1.8,1.8,1.8H80
					c1.4,0,2.5,1.1,2.5,2.5s-1.1,2.5-2.5,2.5H60.2c-1,0-1.8,0.8-1.8,1.8s0.8,1.8,1.8,1.8h13.7c1.4,0,2.5,1.1,2.5,2.5
					C76.4,90.7,75.3,91.8,73.9,91.8z M92.2,91.8L92.2,91.8H79.4c0.3-0.8,0.5-1.6,0.5-2.5s-0.2-1.7-0.5-2.5H80c3.4,0,6.1-2.7,6.1-6.1
					c0-1-0.2-1.9-0.6-2.7c2.6-0.7,4.5-3.1,4.5-5.9c0-1.4-0.4-2.6-1.2-3.6V45.9c0-1-0.8-1.8-1.8-1.8s-1.8,0.8-1.8,1.8v20.4
					c-0.4-0.1-0.9-0.1-1.3-0.1h-0.1c0.3-0.8,0.5-1.6,0.5-2.5c0-3.4-2.7-6.1-6.1-6.1h-2.9c3.1-1.3,5.2-4.3,5.2-7.9
					c0-4.7-3.8-8.6-8.6-8.6c-4.7,0-8.6,3.8-8.6,8.6c0,3.5,2.1,6.6,5.2,7.9h-9.8v-34c3.2-0.7,5.7-3.2,6.4-6.4h13.5
					c0.7,3.2,3.2,5.7,6.4,6.4v25.9c0,1,0.8,1.8,1.8,1.8s1.8-0.8,1.8-1.8V21.9c0-1-0.8-1.8-1.8-1.8c-2.7,0-4.8-2.2-4.8-4.8
					c0-1-0.8-1.8-1.8-1.8H63.7c-1,0-1.8,0.8-1.8,1.8c0,2.7-2.2,4.8-4.8,4.8c-1,0-1.8,0.8-1.8,1.8v35.6h-3.5V7.4l40.4,0V91.8z
					 M72,54.6c-2.7,0-5-2.2-5-5s2.2-5,5-5s5,2.2,5,5C77,52.4,74.7,54.6,72,54.6z"/>
			</g>
		</g>
	</g>
</g>
</svg>
