<?xml version="1.0" encoding="utf-8"?>
<!-- Generator: Adobe Illustrator 19.0.0, SVG Export Plug-In . SVG Version: 6.00 Build 0)  -->
<svg version="1.1" id="Layer_1" xmlns="http://www.w3.org/2000/svg" xmlns:xlink="http://www.w3.org/1999/xlink" x="0px" y="0px"
	 viewBox="0 0 100 100" style="enable-background:new 0 0 100 100;" xml:space="preserve">
<g id="XMLID_34208_">
	<path id="XMLID_34212_" d="M49.9,49.9C62.6,49.9,73,39.5,73,26.7S62.6,3.6,49.9,3.6S26.8,14,26.8,26.7
		C26.8,39.5,37.2,49.9,49.9,49.9z M49.9,8.3c10.1,0,18.4,8.2,18.4,18.4s-8.2,18.4-18.4,18.4s-18.4-8.2-18.4-18.4S39.8,8.3,49.9,8.3z
		"/>
	<path id="XMLID_34209_" d="M70.8,45.7l-1.5-0.8L68.1,46c-5,4.5-11.5,7-18.2,7c-6.8,0-13.2-2.5-18.1-6.9l-1.3-1.1L29,45.8
		C15,53.5,6.3,68.2,6.3,84.2v12.3h87.3l0.1-12.4C93.6,68,84.9,53.3,70.8,45.7z M88.8,91.7H11v-7.6c0-13.7,7.2-26.3,18.8-33.3
		c5.6,4.5,12.6,6.9,20,6.9c7.3,0,14.4-2.5,20.1-7.1c11.8,7,19,19.7,19,33.4L88.8,91.7z"/>
</g>
</svg>
