<?xml version="1.0" encoding="utf-8"?>
<!-- Generator: Adobe Illustrator 19.0.0, SVG Export Plug-In . SVG Version: 6.00 Build 0)  -->
<svg version="1.1" id="Layer_1" xmlns="http://www.w3.org/2000/svg" xmlns:xlink="http://www.w3.org/1999/xlink" x="0px" y="0px"
	 viewBox="0 0 100 100" style="enable-background:new 0 0 100 100;" xml:space="preserve">
<g id="XMLID_1737_">
	<g id="XMLID_67_">
		<g id="XMLID_71_">
			<g id="XMLID_72_">
				<path id="XMLID_73_" d="M50.4,3.6c-15,0-27.2,12.2-27.2,27.2c0,9.3,4.7,17.5,11.8,22.4c-6.7,2.3-12.8,6.1-17.9,11.2
					C8.2,73.3,3.3,85.2,3.3,97.7h7.4C10.7,75.8,28.5,58,50.4,58c15,0,27.2-12.2,27.2-27.2S65.4,3.6,50.4,3.6z M50.4,50.7
					c-11,0-19.9-8.9-19.9-19.9S39.5,11,50.4,11s19.9,8.9,19.9,19.9S61.4,50.7,50.4,50.7z"/>
			</g>
		</g>
		<g id="XMLID_68_">
			<g id="XMLID_69_">
				<polygon id="XMLID_70_" points="82.2,74.9 82.2,59.5 74.9,59.5 74.9,74.9 59.4,74.9 59.4,82.3 74.9,82.3 74.9,97.7 82.2,97.7 
					82.2,82.3 97.7,82.3 97.7,74.9 				"/>
			</g>
		</g>
	</g>
</g>
</svg>
