<?xml version="1.0" encoding="utf-8"?>
<!-- Generator: Adobe Illustrator 19.0.0, SVG Export Plug-In . SVG Version: 6.00 Build 0)  -->
<svg version="1.1" id="Layer_1" xmlns="http://www.w3.org/2000/svg" xmlns:xlink="http://www.w3.org/1999/xlink" x="0px" y="0px"
	 viewBox="0 0 100 100" style="enable-background:new 0 0 100 100;" xml:space="preserve">
<style type="text/css">
	.st0{fill:#E9F4E9;}
	.st1{fill:#49B749;}
</style>
<g id="XMLID_1145_">
	<circle id="XMLID_1153_" class="st0" cx="50.6" cy="50.2" r="47.5"/>
	<g id="XMLID_1146_">
		<path id="XMLID_1147_" class="st1" d="M73.9,36.5c0-0.2,0-0.4-0.1-0.6c-0.2-0.4-0.5-0.6-0.8-0.7L51.7,24.9c-0.3-0.2-0.8-0.2-1.1,0
			L29.1,35.3c-0.4,0.2-0.7,0.6-0.7,1.1l0,0l0,0v26.1c0,0.5,0.3,0.9,0.7,1.1l21.5,10.5l0,0h0.1l0,0h0.1l0,0h0.1l0,0h0.1H51l0,0h0.1
			l0,0h0.1l0,0h0.1l0,0l21.5-10.4c0.4-0.2,0.7-0.6,0.7-1.1L73.9,36.5L73.9,36.5z M51.2,27.4l18.6,9l-6.9,3.3l-18.6-9L51.2,27.4z
			 M51.2,45.5l-18.6-9l8.9-4.3l18.6,9L51.2,45.5z M30.9,38.5l19,9.2V71l-19-9.2V38.5z M52.3,71V47.7l8.9-4.3v6.1
			c0,0.7,0.6,1.3,1.3,1.3c0.7,0,1.3-0.6,1.3-1.3v-7.3l7.6-3.7v23.3L52.3,71z"/>
	</g>
</g>
</svg>
