<?xml version="1.0" encoding="utf-8"?>
<!-- Generator: Adobe Illustrator 19.0.0, SVG Export Plug-In . SVG Version: 6.00 Build 0)  -->
<svg version="1.1" id="Layer_1" xmlns="http://www.w3.org/2000/svg" xmlns:xlink="http://www.w3.org/1999/xlink" x="0px" y="0px"
	 viewBox="0 0 100 100" style="enable-background:new 0 0 100 100;" xml:space="preserve">
<style type="text/css">
	.st0{fill:#C3E8F8;}
	.st1{fill:none;}
	.st2{fill:#1690AF;}
</style>
<g id="XMLID_1145_">
	<circle id="XMLID_1153_" class="st0" cx="50" cy="50" r="47.5"/>
</g>
<rect id="XMLID_17_" x="19.5" y="25.5" class="st1" width="49.8" height="49.8"/>
<g id="XMLID_1388_">
	<g id="XMLID_1396_">
		<g id="XMLID_1397_">
			<path id="XMLID_1398_" class="st2" d="M51.2,23.9c-9.9,0-17.9,8.1-17.9,17.9c0,12.3,16.1,30.3,16.7,31.1c0.6,0.7,1.8,0.7,2.4,0
				c0.7-0.8,16.7-18.8,16.7-31.1C69.1,31.9,61.1,23.9,51.2,23.9z M51.2,69.4C45.8,63,36.5,50.3,36.5,41.9c0-8.1,6.6-14.7,14.7-14.7
				s14.7,6.6,14.7,14.7C65.9,50.3,56.6,62.9,51.2,69.4z"/>
		</g>
	</g>
	<g id="XMLID_1391_">
		<g id="XMLID_1392_">
			<path id="XMLID_1393_" class="st2" d="M51.2,32.8c-5,0-9,4.1-9,9s4.1,9,9,9s9-4.1,9-9S56.2,32.8,51.2,32.8z M51.2,47.6
				c-3.2,0-5.8-2.6-5.8-5.8S48,36,51.2,36s5.8,2.6,5.8,5.8S54.4,47.6,51.2,47.6z"/>
		</g>
	</g>
</g>
</svg>
