<?xml version="1.0" encoding="utf-8"?>
<!-- Generator: Adobe Illustrator 19.0.0, SVG Export Plug-In . SVG Version: 6.00 Build 0)  -->
<svg version="1.1" id="Layer_1" xmlns="http://www.w3.org/2000/svg" xmlns:xlink="http://www.w3.org/1999/xlink" x="0px" y="0px"
	 viewBox="0 0 100 100" style="enable-background:new 0 0 100 100;" xml:space="preserve">
<style type="text/css">
	.st0{fill:#CFBBDA;}
	.st1{fill:none;}
	.st2{fill:#693A95;}
</style>
<g id="XMLID_1145_">
	<circle id="XMLID_1153_" class="st0" cx="50" cy="50" r="47.5"/>
</g>
<rect id="XMLID_17_" x="19.5" y="25.5" class="st1" width="49.8" height="49.8"/>
<g id="XMLID_111_">
	<path id="XMLID_113_" class="st2" d="M51.2,24.4c-13.4,0-24.3,10.9-24.3,24.3S37.8,73,51.2,73s24.3-10.9,24.3-24.3
		S64.6,24.4,51.2,24.4z M51.2,69.9c-11.7,0-21.3-9.5-21.3-21.3s9.5-21.3,21.3-21.3s21.3,9.5,21.3,21.3S62.9,69.9,51.2,69.9
		L51.2,69.9z"/>
	<path id="XMLID_107_" class="st2" d="M52.7,33.5h-3v15.8l9.6,9.6l2.1-2.1L52.7,48V33.5z"/>
</g>
</svg>
