<?xml version="1.0" encoding="utf-8"?>
<!-- Generator: Adobe Illustrator 19.0.0, SVG Export Plug-In . SVG Version: 6.00 Build 0)  -->
<svg version="1.1" id="Layer_1" xmlns="http://www.w3.org/2000/svg" xmlns:xlink="http://www.w3.org/1999/xlink" x="0px" y="0px"
	 viewBox="0 0 100 100" style="enable-background:new 0 0 100 100;" xml:space="preserve">
<style type="text/css">
	.st0{fill:#CDCCCC;}
	.st1{fill:#616262;}
	.st2{fill:none;}
</style>
<g id="XMLID_1145_">
	<circle id="XMLID_1153_" class="st0" cx="50" cy="50" r="47.5"/>
</g>
<g id="XMLID_1095_">
	<g id="XMLID_1113_">
		<g id="XMLID_1114_">
			<path id="XMLID_1115_" class="st1" d="M67.9,30c-0.7-0.7-1.8-0.7-2.5,0L31.6,63.8c-0.7,0.7-0.7,1.8,0,2.5
				c0.3,0.3,0.8,0.5,1.2,0.5c0.4,0,0.9-0.2,1.2-0.5l33.8-33.8C68.6,31.8,68.6,30.7,67.9,30z"/>
		</g>
	</g>
	<g id="XMLID_1108_">
		<g id="XMLID_1109_">
			<path id="XMLID_1110_" class="st1" d="M39.4,29.5c-4.6,0-8.3,3.7-8.3,8.3s3.7,8.3,8.3,8.3s8.3-3.7,8.3-8.3S44,29.5,39.4,29.5z
				 M39.4,42.6c-2.7,0-4.8-2.2-4.8-4.8c0-2.7,2.2-4.8,4.8-4.8c2.7,0,4.8,2.2,4.8,4.8C44.2,40.5,42,42.6,39.4,42.6z"/>
		</g>
	</g>
	<g id="XMLID_1096_">
		<g id="XMLID_1097_">
			<path id="XMLID_1098_" class="st1" d="M60.1,50.2c-4.6,0-8.3,3.7-8.3,8.3s3.7,8.3,8.3,8.3s8.3-3.7,8.3-8.3S64.7,50.2,60.1,50.2z
				 M60.1,63.3c-2.7,0-4.8-2.2-4.8-4.8c0-2.7,2.2-4.8,4.8-4.8c2.7,0,4.8,2.2,4.8,4.8S62.7,63.3,60.1,63.3z"/>
		</g>
	</g>
</g>
<rect id="XMLID_17_" x="19.5" y="25.5" class="st2" width="49.8" height="49.8"/>
</svg>
