<?xml version="1.0" encoding="utf-8"?>
<!-- Generator: Adobe Illustrator 19.0.0, SVG Export Plug-In . SVG Version: 6.00 Build 0)  -->
<svg version="1.1" id="Layer_1" xmlns="http://www.w3.org/2000/svg" xmlns:xlink="http://www.w3.org/1999/xlink" x="0px" y="0px"
	 viewBox="0 0 100 100" style="enable-background:new 0 0 100 100;" xml:space="preserve">
<style type="text/css">
	.st0{fill:#FFECBD;}
	.st1{fill:#F2A81E;}
	.st2{fill:none;}
</style>
<g id="XMLID_1145_">
	<circle id="XMLID_1153_" class="st0" cx="50" cy="50" r="47.5"/>
</g>
<g id="XMLID_53_">
	<g id="XMLID_56_">
		<g id="XMLID_61_">
			<path id="XMLID_1209_" class="st1" d="M70.3,47.5c1.6-1.1,2.7-3,2.7-5.1c0-3.5-2.8-6.3-6.3-6.3s-6.3,2.8-6.3,6.3
				c0,2.1,1.1,4,2.7,5.1c-1.4,0.5-2.6,1.2-3.7,2.2c-1.5-1.3-3.2-2.2-5.1-2.8c2.3-1.4,3.8-3.9,3.8-6.8c0-4.4-3.6-8-8-8s-8,3.6-8,8
				c0,2.9,1.5,5.4,3.8,6.8c-1.9,0.6-3.6,1.5-5,2.7c-1.1-0.9-2.3-1.7-3.7-2.1c1.6-1.1,2.7-3,2.7-5.1c0-3.5-2.8-6.3-6.3-6.3
				s-6.3,2.8-6.3,6.3c0,2.1,1.1,4,2.7,5.1c-4.3,1.5-7.4,5.6-7.4,10.4v0.7l0,0H36c-0.1,0.6-0.1,1.2-0.1,1.8v0.7
				c0,3.2,2.6,5.8,5.8,5.8h16.9c3.2,0,5.8-2.6,5.8-5.8v-0.7c0-0.6,0-1.2-0.1-1.8h13.4l0,0v-0.7C77.8,53.1,74.7,49,70.3,47.5z
				 M62.2,42.3c0-2.5,2-4.5,4.5-4.5s4.5,2,4.5,4.5s-2,4.5-4.5,4.5h-0.1h-0.1C64.2,46.8,62.2,44.8,62.2,42.3z M43.9,40.1
				c0-3.4,2.8-6.2,6.2-6.2s6.2,2.8,6.2,6.2c0,3.3-2.6,6-5.9,6.2c-0.1,0-0.2,0-0.4,0s-0.2,0-0.4,0C46.5,46.1,43.9,43.4,43.9,40.1z
				 M29.2,42.3c0-2.5,2-4.5,4.5-4.5s4.5,2,4.5,4.5s-2,4.5-4.5,4.5h-0.1h-0.1C31.2,46.8,29.2,44.8,29.2,42.3z M36.4,56.9H24.5
				c0.5-4.6,4.4-8.3,9.2-8.3l0,0h0.1c2.3,0,4.4,0.9,6,2.2C38.1,52.5,37,54.6,36.4,56.9z M62.7,61.3c0,2.2-1.8,4.1-4.1,4.1H41.7
				c-2.2,0-4.1-1.8-4.1-4.1v-0.7c0-6.8,5.4-12.3,12.1-12.5c0.1,0,0.3,0,0.4,0c0.1,0,0.3,0,0.4,0c6.7,0.2,12.1,5.7,12.1,12.5
				L62.7,61.3L62.7,61.3z M64,56.9c-0.6-2.3-1.7-4.4-3.3-6.1c1.6-1.4,3.7-2.2,6-2.3l0,0h0.1c4.8,0,8.7,3.7,9.2,8.3L64,56.9L64,56.9z
				"/>
			<path id="XMLID_62_" class="st1" d="M58.6,67.2H41.7c-3.3,0-6-2.7-6-6v-0.7c0-0.5,0-1.1,0.1-1.7H22.7c-0.1,0-0.2-0.1-0.2-0.2
				v-0.7c0-4.7,2.9-8.8,7.3-10.5c-1.6-1.2-2.5-3.1-2.5-5.1c0-3.6,2.9-6.5,6.4-6.5c3.6,0,6.5,2.9,6.5,6.5c0,2-0.9,3.9-2.5,5.1
				c1.2,0.5,2.3,1.1,3.3,2c1.4-1.2,3-2,4.7-2.6c-2.2-1.5-3.6-4.1-3.6-6.8c0-4.5,3.6-8.1,8.1-8.1s8.1,3.6,8.1,8.1
				c0,2.7-1.4,5.3-3.6,6.8c1.7,0.6,3.3,1.4,4.7,2.6c1-0.9,2.1-1.5,3.4-2c-1.6-1.2-2.5-3.1-2.5-5.1c0-3.6,2.9-6.5,6.4-6.5
				c3.6,0,6.5,2.9,6.5,6.5c0,2-0.9,3.9-2.5,5.1C75,49,77.9,53.2,78,57.9v0.7c0,0.1-0.1,0.2-0.2,0.2H64.5c0.1,0.6,0.1,1.1,0.1,1.7
				v0.7C64.6,64.6,61.9,67.2,58.6,67.2z M22.9,58.5h13.4v0.2c-0.1,0.6-0.1,1.2-0.1,1.8v0.7c0,3.1,2.5,5.6,5.6,5.6h16.9
				c3.1,0,5.6-2.5,5.6-5.6v-0.7c0-0.6,0-1.2-0.1-1.8v-0.2h13.5v-0.6c0-4.6-3-8.8-7.3-10.3L70,47.5l0.3-0.2c1.6-1.1,2.6-3,2.6-5
				c0-3.4-2.7-6.1-6.1-6.1s-6.1,2.8-6.1,6.1c0,2,1,3.9,2.6,5l0.3,0.2l-0.3,0.1c-1.4,0.5-2.6,1.2-3.7,2.1l-0.1,0.1l-0.1-0.1
				c-1.5-1.3-3.2-2.2-5-2.7l-0.3-0.1l0.3-0.2c2.3-1.4,3.8-4,3.8-6.7c0-4.3-3.5-7.8-7.8-7.8s-7.8,3.5-7.8,7.8c0,2.7,1.4,5.3,3.8,6.7
				l0.3,0.2L46.1,47c-1.8,0.6-3.5,1.5-5,2.7L41,49.8l-0.1-0.1c-1.1-0.9-2.3-1.7-3.6-2.1L37,47.5l0.3-0.2c1.6-1.1,2.6-3,2.6-5
				c0-3.4-2.7-6.1-6.1-6.1s-6.1,2.8-6.1,6.1c0,2,1,3.9,2.6,5l0.3,0.2l-0.3,0.1c-4.4,1.5-7.3,5.6-7.3,10.3v0.6H22.9z M58.6,65.5H41.7
				c-2.3,0-4.2-1.9-4.2-4.2v-0.7c0-6.8,5.5-12.5,12.3-12.7c0.1,0,0.2,0,0.4,0l0,0c0.1,0,0.2,0,0.3,0c6.8,0.2,12.3,5.9,12.3,12.7v0.7
				C62.8,63.6,60.9,65.5,58.6,65.5z M49.8,48.2c-6.6,0.2-12,5.7-12,12.3v0.7c0,2.1,1.7,3.9,3.9,3.9h16.9c2.1,0,3.9-1.7,3.9-3.9v-0.7
				c0-6.6-5.4-12.2-12-12.3C50.3,48.2,50,48.2,49.8,48.2z M76.2,57.1H63.9V57c-0.6-2.2-1.7-4.3-3.3-6l-0.1-0.1l0.1-0.1
				c1.7-1.5,3.9-2.3,6.1-2.3h0.1C71.6,48.5,75.6,52.2,76.2,57.1L76.2,57.1z M64.1,56.8h11.7c-0.6-4.5-4.4-8-9-8h-0.1
				c-2.1,0-4.2,0.8-5.8,2.1C62.4,52.6,63.5,54.6,64.1,56.8z M36.5,57.1H24.3v-0.2c0.5-4.8,4.5-8.4,9.3-8.5h0.1c2.2,0,4.4,0.8,6,2.3
				l0.1,0.1l-0.1,0.1c-1.6,1.7-2.7,3.8-3.3,6L36.5,57.1z M24.6,56.8h11.6c0.6-2.2,1.7-4.2,3.2-5.9c-1.6-1.3-3.6-2.1-5.7-2.1h-0.1
				C29,48.8,25.2,52.2,24.6,56.8z M66.7,47L66.7,47c-2.6,0-4.7-2.2-4.7-4.7c0-2.6,2.1-4.7,4.7-4.7s4.7,2.1,4.7,4.7
				C71.4,44.9,69.4,47,66.7,47L66.7,47z M66.7,37.9c-2.4,0-4.4,2-4.4,4.4s1.9,4.3,4.3,4.4h0.2c2.4-0.1,4.3-2,4.3-4.4
				S69.2,37.9,66.7,37.9z M33.7,47L33.7,47c-2.6,0-4.7-2.2-4.7-4.7c0-2.6,2.1-4.7,4.7-4.7s4.7,2.1,4.7,4.7S36.3,47,33.7,47L33.7,47z
				 M33.7,37.9c-2.4,0-4.4,2-4.4,4.4s1.9,4.3,4.3,4.4h0.2c2.4-0.1,4.3-2,4.3-4.4C38.1,39.9,36.1,37.9,33.7,37.9z M50.2,46.4h-0.4
				c-3.4-0.2-6-3-6-6.4c0-3.5,2.9-6.4,6.4-6.4s6.4,2.9,6.4,6.4c0,3.4-2.6,6.2-6,6.4H50.2z M50.2,34c-3.3,0-6.1,2.7-6.1,6.1
				c0,3.2,2.5,5.9,5.7,6.1h0.7c3.2-0.2,5.7-2.8,5.7-6.1C56.2,36.7,53.5,34,50.2,34z"/>
		</g>
	</g>
</g>
<rect id="XMLID_17_" x="19.5" y="25.5" class="st2" width="49.8" height="49.8"/>
</svg>
