<?xml version="1.0" encoding="utf-8"?>
<!-- Generator: Adobe Illustrator 19.0.0, SVG Export Plug-In . SVG Version: 6.00 Build 0)  -->
<svg version="1.1" id="Layer_1" xmlns="http://www.w3.org/2000/svg" xmlns:xlink="http://www.w3.org/1999/xlink" x="0px" y="0px"
	 viewBox="0 0 100 100" style="enable-background:new 0 0 100 100;" xml:space="preserve">
<style type="text/css">
	.st0{fill:none;}
	.st1{fill:#1690AF;}
	.st2{fill:#F6DAE9;}
	.st3{fill:#B1358C;}
</style>
<rect id="XMLID_17_" x="18" y="25.1" class="st0" width="50.6" height="50.6"/>
<g id="XMLID_1388_">
	<g id="XMLID_1396_">
		<g id="XMLID_1397_">
			<path id="XMLID_1398_" class="st1" d="M50.2,23.5C40.1,23.5,32,31.7,32,41.7c0,12.5,16.4,30.8,17,31.6c0.6,0.7,1.8,0.7,2.4,0
				c0.7-0.8,17-19.1,17-31.6C68.4,31.6,60.3,23.5,50.2,23.5z M50.2,69.7c-5.5-6.5-14.9-19.4-14.9-27.9c0-8.2,6.7-14.9,14.9-14.9
				s14.9,6.7,14.9,14.9C65.1,50.3,55.7,63.1,50.2,69.7z"/>
		</g>
	</g>
	<g id="XMLID_1391_">
		<g id="XMLID_1392_">
			<path id="XMLID_1393_" class="st1" d="M50.2,32.5c-5.1,0-9.1,4.2-9.1,9.1s4.2,9.1,9.1,9.1s9.1-4.2,9.1-9.1S55.3,32.5,50.2,32.5z
				 M50.2,47.5c-3.3,0-5.9-2.6-5.9-5.9s2.6-5.9,5.9-5.9s5.9,2.6,5.9,5.9S53.5,47.5,50.2,47.5z"/>
		</g>
	</g>
</g>
<g id="XMLID_4_">
	<g id="XMLID_2_">
		<circle id="XMLID_3_" class="st2" cx="50" cy="51" r="48.3"/>
	</g>
	<g id="XMLID_40_">
		<path id="XMLID_59_" class="st3" d="M49,21c1.9,0,3.7,0.8,4.9,2s2,2.9,2,4.9s-0.8,3.7-2,4.9c-1.2,1.2-2.9,2-4.9,2
			c-1.9,0-3.7-0.8-4.9-2s-2-2.9-2-4.9s0.8-3.7,2-4.9C45.3,21.8,47.1,21,49,21z M52.7,24.1c-1-1-2.3-1.6-3.9-1.6S46,23.1,45,24.1
			s-1.6,2.3-1.6,3.9s0.6,2.8,1.6,3.9c1,1,2.3,1.6,3.9,1.6s2.8-0.6,3.9-1.6c1-1,1.6-2.3,1.6-3.9C54.4,26.4,53.8,25,52.7,24.1z"/>
		<path id="XMLID_41_" class="st3" d="M39.3,52.6L39.3,52.6L39.3,52.6C39.3,52.7,39.3,52.7,39.3,52.6c-0.8,1.6-3.5,4.1-5.6,6
			c-0.8,0.7-1.5,1.3-2,1.8c-1.1,1.1-2.4,1.2-3.6,0.7c-0.4-0.2-0.8-0.4-1.1-0.8c-0.3-0.3-0.6-0.7-0.8-1.1c-0.5-1.1-0.4-2.4,0.7-3.6
			l6.7-6.7l6.2-10.6c1.6-2.8,6.3-2.8,9-2.8l0,0H49c1.2,0,3,0,4.8,0.4c1.8,0.4,3.6,1.1,4.4,2.5l6.1,10.6l6.7,6.7
			c1.1,1.1,1.2,2.4,0.7,3.6c-0.2,0.4-0.4,0.8-0.8,1.1c-0.3,0.3-0.7,0.6-1.1,0.8c-1.1,0.5-2.4,0.4-3.6-0.7c-0.5-0.5-1.2-1.1-2-1.8
			c-2.1-1.9-4.8-4.4-5.6-6l0,0l0,0l0,0l-1.7-2.9l-0.4,9.7l8.1,2.3c1.5,0.4,2.6,2,2.8,3.8c0.1,0.6,0.1,1.3,0,1.9s-0.4,1.2-0.8,1.7
			c-0.9,1-2.3,1.6-4.7,1.1L49,67.6l-13,2.7c-2.2,0.5-3.8-0.1-4.7-1.1c-0.4-0.5-0.7-1.1-0.8-1.7c-0.1-0.6-0.1-1.3,0-1.9
			c0.3-1.7,1.3-3.4,2.8-3.8l8.1-2.3l-0.4-9.7L39.3,52.6L39.3,52.6z M32.7,57.6c2-1.8,4.6-4.2,5.3-5.5V52l0,0l2.9-5.1
			c0.1-0.2,0.3-0.4,0.6-0.4c0.4,0,0.7,0.3,0.7,0.7h-0.7h0.7l0.6,12.6c0,0.3-0.2,0.7-0.5,0.8l0,0l-8.6,2.4c-1,0.3-1.6,1.4-1.8,2.6
			c-0.1,0.5-0.1,0.9,0,1.4c0.1,0.4,0.2,0.8,0.5,1.1c0.6,0.7,1.6,1,3.3,0.7l13.1-2.7c0.1,0,0.2,0,0.3,0l0,0l13.1,2.6
			c1.6,0.3,2.7,0,3.3-0.7c0.3-0.3,0.4-0.7,0.5-1.1s0.1-0.9,0-1.4c-0.2-1.2-0.9-2.3-1.8-2.6l-8.6-2.4c-0.3-0.1-0.6-0.4-0.5-0.7l0,0
			l0.6-12.7c0-0.3,0.1-0.5,0.4-0.6c0.3-0.2,0.8-0.1,1,0.3l-0.6,0.4l0.6-0.4l2.9,5.1c0,0,0,0.1,0.1,0.1l-0.6,0.3l0.6-0.3
			c0.7,1.4,3.3,3.7,5.3,5.6c0.8,0.7,1.5,1.4,2,1.9c0.6,0.6,1.4,0.7,2,0.4c0.2-0.1,0.5-0.3,0.7-0.5s0.4-0.4,0.5-0.7
			c0.3-0.6,0.2-1.4-0.4-2l-7-6.6c0,0-0.1-0.1-0.1-0.2l0.6-0.4l-0.6,0.4L56.9,39c-0.6-1-1.9-1.5-3.5-1.8c-1.6-0.3-3.4-0.3-4.6-0.3
			h-0.1l0,0c-2.4,0-6.5,0-7.7,2.1l-6.2,10.8c0,0.1-0.1,0.1-0.1,0.2l0,0l-6.7,6.7c-0.6,0.6-0.7,1.4-0.4,2c0.1,0.2,0.3,0.5,0.5,0.7
			c0.2,0.2,0.4,0.4,0.7,0.5c0.6,0.3,1.4,0.2,2-0.4C31.2,59,31.9,58.3,32.7,57.6z"/>
	</g>
</g>
<rect id="XMLID_1_" x="19" y="26.1" class="st0" width="50.6" height="50.6"/>
</svg>
