<?xml version="1.0" encoding="utf-8"?>
<!-- Generator: Adobe Illustrator 19.0.0, SVG Export Plug-In . SVG Version: 6.00 Build 0)  -->
<svg version="1.1" id="Layer_1" xmlns="http://www.w3.org/2000/svg" xmlns:xlink="http://www.w3.org/1999/xlink" x="0px" y="0px"
	 viewBox="0 0 100 100" style="enable-background:new 0 0 100 100;" xml:space="preserve">
<style type="text/css">
	.st0{fill:none;}
	.st1{fill:#D3ECEA;}
	.st2{fill:#42AB96;stroke:#42AB96;stroke-width:0.25;stroke-miterlimit:10;}
</style>
<rect id="XMLID_17_" x="17.7" y="24.6" class="st0" width="50.3" height="50.3"/>
<rect id="XMLID_1_" x="18.7" y="25.6" class="st0" width="50.3" height="50.3"/>
<g id="XMLID_2_">
	<g id="XMLID_1145_">
		<circle id="XMLID_1153_" class="st1" cx="49.9" cy="50.3" r="47.9"/>
	</g>
	<g id="XMLID_1430_">
		<g id="XMLID_1473_">
			<path id="XMLID_1480_" class="st2" d="M36.8,36.3H61c0.3,0,0.6-0.3,0.6-0.6s-0.3-0.6-0.6-0.6H36.8c-0.3,0-0.6,0.3-0.6,0.6
				C36.1,36.1,36.5,36.3,36.8,36.3z"/>
			<path id="XMLID_1474_" class="st2" d="M61,36.7H36.8c-0.5,0-0.9-0.4-0.9-0.9c0-0.5,0.4-0.9,0.9-0.9H61c0.5,0,0.9,0.4,0.9,0.9
				C61.9,36.3,61.6,36.7,61,36.7z M36.8,35.6c-0.1,0-0.2,0.1-0.2,0.2s0.1,0.2,0.2,0.2H61c0.1,0,0.2-0.1,0.2-0.2s-0.1-0.2-0.2-0.2
				H36.8z"/>
		</g>
		<g id="XMLID_1467_">
			<path id="XMLID_1472_" class="st2" d="M61,41H36.9c-0.3,0-0.6,0.3-0.6,0.6c0,0.3,0.3,0.6,0.6,0.6H61c0.3,0,0.6-0.3,0.6-0.6
				C61.6,41.2,61.4,41,61,41z"/>
			<path id="XMLID_1468_" class="st2" d="M61,42.4H36.9c-0.5,0-0.9-0.4-0.9-0.9c0-0.5,0.4-0.9,0.9-0.9H61c0.5,0,0.9,0.4,0.9,0.9
				C62,42,61.6,42.4,61,42.4z M36.9,41.3c-0.1,0-0.2,0.1-0.2,0.2s0.1,0.2,0.2,0.2H61c0.1,0,0.2-0.1,0.2-0.2s-0.1-0.2-0.2-0.2H36.9z"
				/>
		</g>
		<g id="XMLID_1462_">
			<path id="XMLID_1466_" class="st2" d="M52.6,46.8H36.9c-0.3,0-0.6,0.3-0.6,0.6s0.3,0.6,0.6,0.6h15.7c0.3,0,0.6-0.3,0.6-0.6
				S52.9,46.8,52.6,46.8L52.6,46.8z"/>
			<path id="XMLID_1463_" class="st2" d="M52.6,48.3H36.9c-0.5,0-0.9-0.4-0.9-0.9c0-0.2,0.1-0.5,0.3-0.6c0.2-0.2,0.4-0.3,0.6-0.3
				h15.7c0.5,0,0.9,0.4,0.9,0.9C53.6,47.9,53.1,48.3,52.6,48.3z M36.9,47.2c-0.1,0-0.1,0-0.1,0.1l-0.1,0.1c0,0.1,0.1,0.2,0.2,0.2
				h15.7c0.1,0,0.2-0.1,0.2-0.2c0-0.1-0.1-0.2-0.2-0.2C52.6,47.2,36.9,47.2,36.9,47.2z"/>
		</g>
		<g id="XMLID_1456_">
			<path id="XMLID_1461_" class="st2" d="M48.7,52.5H36.8c-0.3,0-0.6,0.3-0.6,0.6s0.3,0.6,0.6,0.6h11.9c0.3,0,0.6-0.3,0.6-0.6
				C49.3,52.8,49,52.5,48.7,52.5z"/>
			<path id="XMLID_1457_" class="st2" d="M48.7,54.1H36.8c-0.5,0-0.9-0.4-0.9-0.9s0.4-0.9,0.9-0.9h11.9c0.5,0,0.9,0.4,0.9,0.9
				S49.2,54.1,48.7,54.1z M36.8,52.9c-0.1,0-0.2,0.1-0.2,0.2s0.1,0.2,0.2,0.2h11.9c0.1,0,0.2-0.1,0.2-0.2s-0.1-0.2-0.2-0.2H36.8z"/>
		</g>
		<g id="XMLID_1451_">
			<path id="XMLID_1455_" class="st2" d="M48.6,58.4H36.8c-0.3,0-0.6,0.3-0.6,0.6c0,0.3,0.3,0.6,0.6,0.6h11.8c0.3,0,0.6-0.3,0.6-0.6
				C49.2,58.6,48.9,58.4,48.6,58.4z"/>
			<path id="XMLID_1452_" class="st2" d="M48.6,59.9H36.8c-0.5,0-0.9-0.4-0.9-0.9c0-0.5,0.4-0.9,0.9-0.9h11.8c0.5,0,0.9,0.4,0.9,0.9
				C49.5,59.4,49.1,59.9,48.6,59.9z M36.8,58.7c-0.1,0-0.2,0.1-0.2,0.2c0,0.1,0.1,0.2,0.2,0.2h11.8c0.1,0,0.2-0.1,0.2-0.2
				c0-0.1-0.1-0.2-0.2-0.2H36.8z"/>
		</g>
		<g id="XMLID_1436_">
			<path id="XMLID_1446_" class="st2" d="M66,47.6V29.3c0-1.5-1.2-2.7-2.7-2.7h-7.2c-0.3-1.6-1.6-2.7-3.2-2.7h-7.8
				c-1.6,0-3,1.2-3.2,2.7h-7.2c-1.5,0-2.7,1.2-2.7,2.7v36c0,1.5,1.2,2.7,2.7,2.7h21V68c5.3,3.6,12.5,2.2,16.1-3.1
				c3.6-5.3,2.2-12.5-3.1-16.1C67.7,48.3,66.9,47.9,66,47.6z M43.5,25.6c0.4-0.4,1-0.6,1.5-0.6h7.8c1.2,0,2.2,1,2.2,2.2
				c0,1.2-1,2.2-2.2,2.2H45c-1.2,0-2.2-1-2.2-2.2C42.8,26.5,43,26,43.5,25.6L43.5,25.6z M34.5,67c-0.9,0-1.6-0.7-1.6-1.6v-36
				c0-0.9,0.7-1.6,1.6-1.6h7.2c0.3,1.6,1.6,2.7,3.2,2.7h7.8c1.6,0,3-1.2,3.2-2.7h7.2c0.9,0,1.6,0.7,1.6,1.6v17.9
				c-6.2-1.6-12.5,2.1-14.1,8.4c-1.1,4.1,0.2,8.6,3.4,11.4H34.5z M62,68.9c-5.8,0-10.5-4.6-10.5-10.5S56.2,48,62,48
				s10.5,4.6,10.5,10.5C72.5,64.2,67.7,68.9,62,68.9z"/>
			<path id="XMLID_1437_" class="st2" d="M62,70.4c-2.3,0-4.5-0.6-6.5-1.9l0,0h-21c-1.7,0-3.1-1.4-3.1-3.1v-36
				c0-1.7,1.4-3.1,3.1-3.1h7c0.4-1.6,1.9-2.7,3.5-2.7h7.8c1.7,0,3.1,1.1,3.5,2.7h7c1.7,0,3.1,1.4,3.1,3.1v18
				c0.8,0.3,1.6,0.7,2.3,1.2c5.4,3.7,6.9,11.1,3.2,16.7c-1.8,2.6-4.5,4.4-7.7,5C63.5,70.3,62.8,70.4,62,70.4z M55.1,67.5l0.6,0.3
				c2.5,1.7,5.4,2.3,8.4,1.7c2.9-0.6,5.4-2.2,7.2-4.7c3.4-5.1,2.1-12.1-3-15.6c-0.8-0.5-1.6-0.9-2.4-1.2l-0.2-0.1V29.3
				c0-1.3-1.1-2.4-2.4-2.4h-7.5l-0.1-0.3c-0.2-1.4-1.5-2.4-2.9-2.4h-7.8c-1.4,0-2.7,1-2.9,2.4v0.3h-7.5c-1.3,0-2.4,1.1-2.4,2.4v36
				c0,1.3,1.1,2.4,2.4,2.4h20.6L55.1,67.5L55.1,67.5z M62,69.3L62,69.3c-6,0-10.8-4.8-10.8-10.8c0-6,4.8-10.8,10.8-10.8
				s10.8,4.8,10.8,10.8C72.8,64.4,67.9,69.3,62,69.3z M62,48.4c-5.6,0-10.1,4.5-10.1,10.1S56.4,68.6,62,68.6S72.1,64,72.1,58.5
				C72.1,52.8,67.5,48.4,62,48.4z M55.1,67.4H34.5c-1.1,0-2-0.9-2-2v-36c0-1.1,0.9-2,2-2H42l0.1,0.3C42.3,29,43.6,30,45,30h7.8
				c1.4,0,2.7-1,2.9-2.4v-0.3h7.5c1.1,0,2,0.9,2,2v18.4l-0.4-0.1c-2.9-0.7-6-0.3-8.5,1.2s-4.4,3.9-5.1,6.9c-1,4,0.2,8.3,3.3,11.1
				L55.1,67.4z M34.5,66.7h18.8c-2.8-2.9-3.9-7.2-2.9-11.2c0.8-3.1,2.7-5.7,5.4-7.4c2.6-1.5,5.7-2,8.6-1.4V29.3
				c0-0.7-0.6-1.3-1.3-1.3h-7c-0.4,1.6-1.9,2.7-3.5,2.7h-7.8c-1.7,0-3.1-1.1-3.5-2.7h-7c-0.7,0-1.3,0.6-1.3,1.3v36
				C33.2,66.1,33.8,66.7,34.5,66.7L34.5,66.7z M52.8,29.6H45c-1.4,0-2.5-1.1-2.5-2.5c0-0.7,0.3-1.3,0.7-1.8l0,0
				c0.5-0.5,1.1-0.7,1.8-0.7l0,0h7.8c1.4,0,2.5,1.2,2.5,2.5C55.3,28.5,54.1,29.6,52.8,29.6z M45,25.3c-0.5,0-0.9,0.2-1.3,0.5l0,0
				c-0.3,0.3-0.5,0.8-0.5,1.3c0,1,0.8,1.8,1.8,1.8h7.8c1,0,1.8-0.8,1.8-1.8c0-1-0.8-1.8-1.8-1.8H45L45,25.3z"/>
		</g>
		<g id="XMLID_1431_">
			<path id="XMLID_1435_" class="st2" d="M66,55.2l-5.4,5.4l-2.6-2.5c-0.2-0.2-0.6-0.2-0.8,0c-0.2,0.2-0.2,0.6,0,0.8l2.9,2.9
				c0.2,0.2,0.6,0.2,0.8,0l0,0l5.9-5.9c0.2-0.2,0.2-0.6,0-0.8C66.6,54.9,66.2,54.9,66,55.2L66,55.2L66,55.2z"/>
			<path id="XMLID_1432_" class="st2" d="M60.6,62.3c-0.2,0-0.5-0.1-0.6-0.3l-3-2.9c-0.3-0.4-0.3-0.9,0-1.3c0.4-0.4,0.9-0.4,1.3,0
				l2.3,2.3l5.2-5.2c0.4-0.3,0.9-0.3,1.3,0c0.4,0.4,0.3,0.9,0,1.3L61.3,62C61,62.2,60.8,62.3,60.6,62.3z M57.6,58.3
				c-0.1,0-0.1,0-0.1,0.1c-0.1,0.1-0.1,0.2,0,0.3l2.9,2.9c0.1,0.1,0.2,0.1,0.3,0l5.9-5.9c0.1-0.1,0.1-0.2,0-0.3
				c-0.1-0.1-0.2-0.1-0.3,0L66,55.2l0.3,0.3l-5.8,5.8l-2.8-2.8C57.7,58.3,57.6,58.3,57.6,58.3z"/>
		</g>
	</g>
</g>
</svg>
