<?xml version="1.0" encoding="utf-8"?>
<!-- Generator: Adobe Illustrator 19.0.0, SVG Export Plug-In . SVG Version: 6.00 Build 0)  -->
<svg version="1.1" id="Layer_1" xmlns="http://www.w3.org/2000/svg" xmlns:xlink="http://www.w3.org/1999/xlink" x="0px" y="0px"
	 viewBox="0 0 100 100" style="enable-background:new 0 0 100 100;" xml:space="preserve">
<style type="text/css">
	.st0{fill:#F9BABB;}
	.st1{fill:none;}
	.st2{fill:#ED4436;}
</style>
<g id="XMLID_1145_">
	<circle id="XMLID_1153_" class="st0" cx="50" cy="50" r="47.5"/>
</g>
<rect id="XMLID_17_" x="19.5" y="25.5" class="st1" width="49.8" height="49.8"/>
<g id="XMLID_1242_">
	<path id="XMLID_1249_" class="st2" d="M38.7,58.1L38.7,58.1L38.7,58.1h25.2c0.6,0,1.2-0.4,1.3-1l5.6-19.5c0.1-0.4,0-0.9-0.2-1.2
		c-0.3-0.3-0.7-0.6-1.1-0.6h-34l-1-4.5c-0.1-0.6-0.7-1.1-1.4-1.1h-8.3c-0.8,0-1.4,0.6-1.4,1.4S24,33,24.8,33H32
		c0.2,0.8,4.8,21.4,5,22.6c-1.5,0.6-2.5,2.1-2.5,3.8c0,2.3,1.9,4.2,4.2,4.2h25.2c0.8,0,1.4-0.6,1.4-1.4c0-0.8-0.6-1.4-1.4-1.4H38.7
		c-0.8,0-1.4-0.6-1.4-1.4C37.3,58.7,37.9,58.1,38.7,58.1z M67.6,38.6l-4.8,16.7h-23l-3.7-16.7H67.6z"/>
	<path id="XMLID_1246_" class="st2" d="M37.3,67.8c0,2.3,1.9,4.2,4.2,4.2s4.2-1.9,4.2-4.2c0-2.3-1.9-4.2-4.2-4.2
		C39.2,63.7,37.3,65.5,37.3,67.8z M41.5,66.4c0.8,0,1.4,0.6,1.4,1.4s-0.6,1.4-1.4,1.4s-1.4-0.6-1.4-1.4S40.7,66.4,41.5,66.4z"/>
	<path id="XMLID_1243_" class="st2" d="M56.9,67.8c0,2.3,1.9,4.2,4.2,4.2s4.2-1.9,4.2-4.2c0-2.3-1.9-4.2-4.2-4.2
		S56.9,65.5,56.9,67.8z M61.1,66.4c0.8,0,1.4,0.6,1.4,1.4s-0.6,1.4-1.4,1.4s-1.4-0.6-1.4-1.4S60.4,66.4,61.1,66.4z"/>
</g>
</svg>
