<?xml version="1.0" encoding="utf-8"?>
<!-- Generator: Adobe Illustrator 19.0.0, SVG Export Plug-In . SVG Version: 6.00 Build 0)  -->
<svg version="1.1" id="Layer_1" xmlns="http://www.w3.org/2000/svg" xmlns:xlink="http://www.w3.org/1999/xlink" x="0px" y="0px"
	 viewBox="0 0 100 100" style="enable-background:new 0 0 100 100;" xml:space="preserve">
<style type="text/css">
	.st0{fill:#CDD6ED;}
	.st1{fill:none;}
	.st2{fill:#3F54A4;}
</style>
<g id="XMLID_1145_">
	<circle id="XMLID_1153_" class="st0" cx="50" cy="50" r="47.5"/>
</g>
<rect id="XMLID_17_" x="19.5" y="25.5" class="st1" width="49.8" height="49.8"/>
<g id="XMLID_1304_">
	<g id="XMLID_1305_">
		<path id="XMLID_1306_" class="st2" d="M69.7,40v-9.9c0-0.4-0.2-0.7-0.5-0.9c-0.3-0.2-0.7-0.3-1-0.2l-21.8,8.7H35.6
			c-2,0-3.9,1.2-4.8,3l-1,0.4c-2.5,0.9-4.2,3.2-4.2,5.9c0,2.6,1.7,5,4.2,5.8l0.7,0.3c0.5,1.3,1.5,2.4,2.7,3l2.9,10.5
			c0.8,2.9,3.7,4.6,6.6,3.8c1.2-0.3,2.2-1,2.9-2c1-1.4,1.3-3.1,0.9-4.8l-2-7.2h1.9l21.8,8.8l0.4,0.1c0.2,0,0.5-0.1,0.7-0.2
			c0.3-0.2,0.5-0.5,0.5-0.9V53.8c3.8,0,6.9-3.1,6.9-6.9C76.6,43.1,73.5,40,69.7,40z M30.2,50.5c-1.5-0.6-2.4-2-2.3-3.6
			c-0.1-1.6,0.8-3,2.3-3.6V50.5z M43.8,67c-0.6,0.8-1.6,1.3-2.6,1.3c-1.4,0-2.7-1-3.1-2.4l-2.6-9.5h6.6l2.1,7.8
			C44.6,65.1,44.4,66.2,43.8,67z M45.6,54.2h-10c-1.7,0.1-3.1-1.2-3.2-2.8c0-0.1,0-0.1,0-0.2v-7.8c-0.1-1.8,1.4-3.3,3.2-3.4l0,0h10
			V54.2z M67.5,62.6l-19.7-7.9v-15l19.7-7.9V62.6z M69.7,51.6v-9.4c2.6,0,4.7,2.1,4.7,4.7C74.4,49.5,72.3,51.6,69.7,51.6z"/>
	</g>
</g>
</svg>
