<?xml version="1.0" encoding="utf-8"?>
<!-- Generator: Adobe Illustrator 19.0.0, SVG Export Plug-In . SVG Version: 6.00 Build 0)  -->
<svg version="1.1" id="Layer_1" xmlns="http://www.w3.org/2000/svg" xmlns:xlink="http://www.w3.org/1999/xlink" x="0px" y="0px"
	 viewBox="0 0 100 100" style="enable-background:new 0 0 100 100;" xml:space="preserve">
<g id="XMLID_29339_">
	<g id="XMLID_29354_">
		<g id="XMLID_29355_">
			<g id="XMLID_29356_">
				<path id="XMLID_29410_" d="M89.1,82.7l-6.8-11.4c-3.1-5.2-4.8-11.2-4.8-17.4V44c0-15.3-12.5-27.8-27.8-27.8S21.9,28.7,21.9,44
					v10c0,6.1-1.7,12.1-4.8,17.4l-6.8,11.4c-0.4,0.6-0.4,1.4,0,2c0.4,0.6,1,1,1.7,1h75.4c0.7,0,1.4-0.4,1.7-1
					C89.5,84.1,89.5,83.3,89.1,82.7z M15.5,81.8l5-8.4c3.5-5.9,5.4-12.6,5.4-19.4V44c0-13.1,10.7-23.8,23.8-23.8S73.5,30.9,73.5,44
					v10c0,6.8,1.9,13.5,5.4,19.4l5,8.4L15.5,81.8L15.5,81.8z"/>
				<path id="XMLID_29357_" d="M87.4,86.7H12c-1.1,0-2.1-0.6-2.6-1.5c-0.5-0.9-0.5-2.1,0-3l6.8-11.4c3.1-5.1,4.7-10.9,4.7-16.8V44
					c0-15.9,12.9-28.8,28.8-28.8S78.5,28.2,78.5,44v10c0,5.9,1.6,11.8,4.7,16.9L90,82.2c0.5,0.9,0.6,2.1,0,3
					C89.5,86.1,88.5,86.7,87.4,86.7z M49.7,17.3c-14.8,0-26.8,12-26.8,26.8v10c0,6.3-1.7,12.5-4.9,17.9l-6.8,11.4
					c-0.2,0.3-0.2,0.7,0,1s0.5,0.5,0.9,0.5h75.4c0.4,0,0.7-0.2,0.9-0.5c0.2-0.3,0.2-0.7,0-1l0,0l-6.8-11.4
					c-3.2-5.4-4.9-11.6-4.9-17.9V44C76.5,29.3,64.5,17.3,49.7,17.3z M85.7,82.7H13.8l5.9-9.9c3.4-5.7,5.2-12.2,5.2-18.9V44
					c0-13.7,11.1-24.8,24.8-24.8S74.5,30.4,74.5,44v10c0,6.7,1.8,13.2,5.2,18.9L85.7,82.7z M17.3,80.8h64.9l-4.1-6.9
					c-3.6-6-5.5-12.9-5.5-19.9V44c0-12.6-10.2-22.8-22.8-22.8S26.9,31.5,26.9,44v10c0,7-1.9,13.9-5.5,19.9L17.3,80.8z"/>
			</g>
		</g>
	</g>
	<g id="XMLID_29347_">
		<g id="XMLID_29348_">
			<g id="XMLID_29349_">
				<path id="XMLID_29353_" d="M49.7,2.4c-4.4,0-7.9,3.6-7.9,7.9v7.9c0,1.1,0.9,2,2,2s2-0.9,2-2v-7.9c0-2.2,1.8-4,4-4s4,1.8,4,4v7.9
					c0,1.1,0.9,2,2,2s2-0.9,2-2v-7.9C57.7,5.9,54.1,2.4,49.7,2.4z"/>
				<path id="XMLID_29350_" d="M55.7,21.2c-1.6,0-3-1.3-3-3v-7.9c0-1.6-1.3-3-3-3s-3,1.3-3,3v7.9c0,1.6-1.3,3-3,3s-3-1.3-3-3v-7.9
					c0-4.9,4-8.9,8.9-8.9s8.9,4,8.9,8.9v7.9C58.7,19.9,57.3,21.2,55.7,21.2z M49.7,5.3c2.7,0,5,2.2,5,5v7.9c0,0.5,0.4,1,1,1
					s1-0.4,1-1v-7.9c0-3.8-3.1-6.9-6.9-6.9s-6.9,3.1-6.9,6.9v7.9c0,0.5,0.4,1,1,1s1-0.4,1-1v-7.9C44.8,7.6,47,5.3,49.7,5.3z"/>
			</g>
		</g>
	</g>
	<g id="XMLID_29340_">
		<g id="XMLID_29341_">
			<g id="XMLID_29342_">
				<path id="XMLID_29346_" d="M58.3,82.7c-0.6-0.9-1.8-1.3-2.7-0.7c-0.9,0.6-1.3,1.8-0.7,2.7c0.5,0.9,0.8,1.9,0.8,3
					c0,3.3-2.7,6-6,6c-3.3,0-6-2.7-6-6c0-1,0.3-2.1,0.8-3c0.6-0.9,0.2-2.2-0.7-2.7c-1-0.5-2.2-0.2-2.7,0.7c-0.9,1.5-1.3,3.2-1.3,5
					c0,5.5,4.4,9.9,9.9,9.9s9.9-4.4,9.9-9.9C59.7,86,59.2,84.2,58.3,82.7z"/>
				<path id="XMLID_29343_" d="M49.7,98.6c-6,0-10.9-4.9-10.9-10.9c0-1.9,0.5-3.8,1.5-5.5c0.8-1.4,2.6-1.9,4.1-1.1
					c1.4,0.8,1.9,2.7,1.1,4.1c-0.4,0.7-0.7,1.6-0.7,2.5c0,2.7,2.2,5,5,5s5-2.2,5-5c0-0.9-0.2-1.7-0.7-2.5c-0.4-0.7-0.5-1.5-0.3-2.3
					c0.2-0.8,0.7-1.4,1.4-1.8c1.4-0.8,3.2-0.3,4.1,1.1l0,0c1,1.7,1.5,3.5,1.5,5.5C60.6,93.7,55.7,98.6,49.7,98.6z M42.9,82.7
					c-0.3,0-0.7,0.2-0.9,0.5c-0.8,1.3-1.2,2.9-1.2,4.5c0,4.9,4,8.9,8.9,8.9s8.9-4,8.9-8.9c0-1.6-0.4-3.1-1.2-4.5
					c-0.3-0.5-0.9-0.6-1.4-0.4c-0.2,0.1-0.4,0.3-0.4,0.6s0,0.5,0.1,0.8c0.6,1,0.9,2.3,0.9,3.5c0,3.8-3.1,6.9-6.9,6.9
					s-6.9-3.1-6.9-6.9c0-1.2,0.3-2.4,0.9-3.5c0.3-0.5,0.1-1.1-0.4-1.4C43.2,82.8,43,82.7,42.9,82.7z"/>
			</g>
		</g>
	</g>
</g>
</svg>
