<?xml version="1.0" encoding="utf-8"?>
<!-- Generator: Adobe Illustrator 19.0.0, SVG Export Plug-In . SVG Version: 6.00 Build 0)  -->
<svg version="1.1" id="Layer_1" xmlns="http://www.w3.org/2000/svg" xmlns:xlink="http://www.w3.org/1999/xlink" x="0px" y="0px"
	 viewBox="0 0 100 100" style="enable-background:new 0 0 100 100;" xml:space="preserve">
<g id="XMLID_26839_">
	<path id="XMLID_29511_" d="M77.7,97.7H24.8c-4.9,0-8.8-4-8.8-8.8V47.8c0-4.9,4-8.8,8.8-8.8h52.9c4.9,0,8.8,4,8.8,8.8v41.1
		C86.5,93.8,82.6,97.7,77.7,97.7z M24.8,44.9c-1.6,0-2.9,1.3-2.9,2.9v41.1c0,1.6,1.3,2.9,2.9,2.9h52.9c1.6,0,2.9-1.3,2.9-2.9V47.8
		c0-1.6-1.3-2.9-2.9-2.9H24.8z"/>
	<path id="XMLID_29510_" d="M71.8,44.9c-1.6,0-2.9-1.3-2.9-2.9V27.2c0-9.7-7.9-17.6-17.6-17.6s-17.6,7.9-17.6,17.6v14.7
		c0,1.6-1.3,2.9-2.9,2.9c-1.6,0-2.9-1.3-2.9-2.9V27.2c0-13,10.5-23.5,23.5-23.5s23.5,10.5,23.5,23.5v14.7
		C74.8,43.5,73.5,44.9,71.8,44.9z"/>
</g>
</svg>
