<?xml version="1.0" encoding="utf-8"?>
<!-- Generator: Adobe Illustrator 19.0.0, SVG Export Plug-In . SVG Version: 6.00 Build 0)  -->
<svg version="1.1" id="Layer_1" xmlns="http://www.w3.org/2000/svg" xmlns:xlink="http://www.w3.org/1999/xlink" x="0px" y="0px"
	 viewBox="0 0 100 100" style="enable-background:new 0 0 100 100;" xml:space="preserve">
<style type="text/css">
	.st0{fill:#E8E8DF;}
	.st1{fill:#DAD6CA;}
	.st2{fill:#CD4C4D;}
	.st3{fill:#FFFFFF;}
</style>
<g id="XMLID_26895_">
	<path id="XMLID_26912_" class="st0" d="M63.4,3.3H16.2c-1.3,0-2.4,1.1-2.4,3.1v86.3c0,0.6,1.1,1.6,2.4,1.6h65.2
		c1.3,0,2.4-1.1,2.4-1.6V24.4c0-1.1-0.1-1.5-0.4-1.8L64.4,3.7C64.1,3.4,63.8,3.3,63.4,3.3z"/>
	<polygon id="XMLID_26911_" class="st1" points="64.2,3.5 64.2,22.8 83.5,22.8 	"/>
	<path id="XMLID_26905_" class="st2" d="M35,57.5L35,57.5c-0.6,0-1.1-0.2-1.6-0.5c-1.7-1.3-1.9-2.7-1.8-3.6c0.3-2.6,3.6-5.4,9.7-8.2
		c2.4-5.4,4.8-12,6.2-17.5c-1.6-3.5-3.2-8.1-2.1-10.8c0.4-0.9,0.9-1.7,1.8-2c0.4-0.1,1.3-0.3,1.7-0.3c0.8,0,1.5,1.1,2.1,1.7
		c0.5,0.6,1.6,1.9-0.6,11.1c2.2,4.5,5.3,9.1,8.3,12.3c2.1-0.4,4-0.6,5.5-0.6c2.5,0,4.1,0.6,4.7,1.8c0.5,1,0.3,2.2-0.6,3.5
		c-0.9,1.3-2.2,1.9-3.6,1.9c-2,0-4.3-1.2-6.9-3.7c-4.6,1-10,2.7-14.4,4.6C42,50,40.7,52.3,39.5,54C37.8,56.4,36.4,57.5,35,57.5z
		 M39.3,49.1c-3.5,2-4.9,3.6-5,4.5c0,0.2-0.1,0.5,0.7,1.1C35.2,54.6,36.7,54,39.3,49.1z M61.5,41.9c1.3,1,1.6,1.5,2.5,1.5
		c0.4,0,1.5,0,2-0.7c0.2-0.3,0.3-0.6,0.4-0.7c-0.2-0.1-0.5-0.3-1.9-0.3C63.6,41.7,62.6,41.8,61.5,41.9z M49.3,31.2
		c-1.2,4-2.7,8.4-4.4,12.3c3.4-1.3,7.1-2.5,10.6-3.3C53.3,37.7,51.2,34.5,49.3,31.2z M48.3,17.4c-0.2,0.1-2.2,2.9,0.2,5.2
		C50,19.2,48.4,17.4,48.3,17.4z"/>
	<path id="XMLID_26904_" class="st2" d="M81.3,94.3H16.2c-1.3,0-2.4-1.1-2.4-2.4V66.7h69.9V92C83.7,93.3,82.7,94.3,81.3,94.3z"/>
	<g id="XMLID_26896_">
		<path id="XMLID_26901_" class="st3" d="M31.5,89.5h-2.7V73.1h4.7c0.7,0,1.4,0.1,2.1,0.3c0.7,0.2,1.3,0.6,1.8,1
			c0.5,0.4,1,1,1.3,1.6c0.3,0.6,0.5,1.3,0.5,2.1c0,0.8-0.1,1.6-0.4,2.3c-0.3,0.7-0.7,1.2-1.2,1.7c-0.5,0.5-1.1,0.8-1.8,1.1
			c-0.7,0.2-1.5,0.4-2.4,0.4h-2V89.5L31.5,89.5z M31.5,75.1v6.5H34c0.3,0,0.6-0.1,1-0.2c0.3-0.1,0.6-0.3,0.9-0.5
			c0.3-0.2,0.5-0.6,0.6-1.1c0.2-0.4,0.2-1,0.2-1.7c0-0.3,0-0.6-0.1-0.9c-0.1-0.4-0.2-0.7-0.5-1c-0.2-0.3-0.6-0.6-1-0.8
			s-1-0.3-1.7-0.3H31.5L31.5,75.1z"/>
		<path id="XMLID_26898_" class="st3" d="M55.6,80.8c0,1.3-0.1,2.5-0.4,3.5c-0.3,1-0.7,1.8-1.1,2.4c-0.4,0.6-0.9,1.2-1.5,1.5
			C52,88.6,51.5,88.8,51,89c-0.5,0.2-1,0.3-1.4,0.4c-0.4,0-0.7,0.1-1,0.1h-6.2V73.1h4.9c1.4,0,2.6,0.2,3.6,0.7c1,0.4,1.9,1,2.6,1.7
			c0.7,0.7,1.2,1.6,1.5,2.5C55.5,78.9,55.6,79.8,55.6,80.8z M47.7,87.5c1.8,0,3.1-0.6,3.9-1.7c0.8-1.2,1.2-2.8,1.2-5
			c0-0.7-0.1-1.4-0.2-2c-0.2-0.7-0.5-1.3-0.9-1.8c-0.5-0.5-1.1-1-1.9-1.3c-0.8-0.3-1.8-0.5-3.1-0.5h-1.6v12.4H47.7L47.7,87.5z"/>
		<path id="XMLID_26897_" class="st3" d="M62.2,75.1v5.2h6.8v1.8h-6.8v7.4h-2.7V73.1h10.2v2H62.2z"/>
	</g>
</g>
</svg>
