<?xml version="1.0" encoding="utf-8"?>
<!-- Generator: Adobe Illustrator 19.0.0, SVG Export Plug-In . SVG Version: 6.00 Build 0)  -->
<svg version="1.1" id="Layer_1" xmlns="http://www.w3.org/2000/svg" xmlns:xlink="http://www.w3.org/1999/xlink" x="0px" y="0px"
	 viewBox="0 0 100 100" style="enable-background:new 0 0 100 100;" xml:space="preserve">
<g id="XMLID_1794_">
	<g id="XMLID_179_">
		<g id="XMLID_195_">
			<g id="XMLID_196_">
				<g id="XMLID_197_">
					<g id="XMLID_198_">
						<g id="XMLID_199_">
							<path id="XMLID_200_" d="M48.7,2.5c-14.8,0-26.8,12-26.8,26.8c0,9.1,4.6,17.2,11.6,22.1c-6.6,2.3-12.6,6-17.6,11
								C7.2,71.2,2.3,82.8,2.3,95.2h7.2c0-21.5,17.5-39.1,39.1-39.1c14.8,0,26.8-12,26.8-26.8S63.4,2.5,48.7,2.5z M48.7,48.8
								c-10.8,0-19.5-8.8-19.5-19.5S37.9,9.8,48.7,9.8s19.5,8.8,19.5,19.5S59.4,48.8,48.7,48.8z"/>
						</g>
					</g>
				</g>
			</g>
		</g>
		<g id="XMLID_180_">
			<g id="XMLID_190_">
				<path id="XMLID_194_" d="M83,80.4h-7.7c-1.2,0-2.1-0.9-2.1-2.1v-7.7c0-1.2,0.9-2.1,2.1-2.1s2.1,0.9,2.1,2.1v5.6H83
					c1.2,0,2.1,0.9,2.1,2.1C85.1,79.5,84.2,80.4,83,80.4z"/>
				<path id="XMLID_191_" d="M83,81h-7.7c-1.5,0-2.6-1.2-2.6-2.6v-7.7c0-1.5,1.2-2.6,2.6-2.6c1.5,0,2.6,1.2,2.6,2.6v5h5
					c1.5,0,2.6,1.2,2.6,2.6S84.5,81,83,81z M75.3,69.1c-0.8,0-1.5,0.7-1.5,1.5v7.7c0,0.8,0.7,1.5,1.5,1.5H83c0.8,0,1.5-0.7,1.5-1.5
					c0-0.8-0.7-1.5-1.5-1.5h-6.1v-6.1C76.9,69.8,76.2,69.1,75.3,69.1z"/>
			</g>
			<g id="XMLID_181_">
				<path id="XMLID_187_" d="M75.4,96.4c-10,0-18.1-8.1-18.1-18.1s8.1-18.1,18.1-18.1s18.1,8.1,18.1,18.1S85.3,96.4,75.4,96.4z
					 M75.4,64.4c-7.7,0-13.9,6.2-13.9,13.9s6.2,13.9,13.9,13.9S89.3,86,89.3,78.3S83,64.4,75.4,64.4z"/>
				<path id="XMLID_182_" d="M75.3,97c-10.3,0-18.6-8.4-18.6-18.6s8.4-18.7,18.6-18.7C85.6,59.7,94,68,94,78.3S85.6,97,75.3,97z
					 M75.3,60.8c-9.7,0-17.5,7.9-17.5,17.5c0,9.7,7.9,17.5,17.5,17.5S92.9,88,92.9,78.3C92.9,68.6,85,60.8,75.3,60.8z M75.3,92.8
					c-8,0-14.5-6.5-14.5-14.5s6.5-14.5,14.5-14.5s14.5,6.5,14.5,14.5S83.3,92.8,75.3,92.8z M75.3,65C68,65,62,70.9,62,78.3
					s6,13.4,13.4,13.4c7.4,0,13.4-6,13.4-13.4S82.7,65,75.3,65z"/>
			</g>
		</g>
	</g>
</g>
</svg>
