<?xml version="1.0" encoding="utf-8"?>
<!-- Generator: Adobe Illustrator 19.0.0, SVG Export Plug-In . SVG Version: 6.00 Build 0)  -->
<svg version="1.1" id="Layer_1" xmlns="http://www.w3.org/2000/svg" xmlns:xlink="http://www.w3.org/1999/xlink" x="0px" y="0px"
	 viewBox="0 0 100 100" style="enable-background:new 0 0 100 100;" xml:space="preserve">
<g id="XMLID_4353_">
	<path id="XMLID_4365_" d="M50.3,53.1c5.8,0,10.6-4.7,10.6-10.6c0-5.8-4.7-10.6-10.6-10.6c-5.8,0-10.6,4.7-10.6,10.6
		C39.8,48.4,44.5,53.1,50.3,53.1z M50.3,36.1c3.6,0,6.5,2.9,6.5,6.5c0,3.6-2.9,6.5-6.5,6.5c-3.6,0-6.5-2.9-6.5-6.5
		C43.9,39,46.8,36.1,50.3,36.1z"/>
	<path id="XMLID_4362_" d="M50.3,57c-4.3,0-8.5,1.7-11.5,4.8c-3.1,3.1-4.7,7.4-4.7,12c0,1.1,0.9,2,2,2h28.4c1.1,0,2-0.9,2-2
		c0-4.6-1.7-8.9-4.7-12C58.8,58.7,54.7,57,50.3,57z M38.3,71.8c0.3-2.7,1.6-5.2,3.4-7.1c2.3-2.3,5.3-3.6,8.6-3.6
		c3.2,0,6.3,1.3,8.6,3.6c1.9,1.9,3.1,4.4,3.4,7.1H38.3z"/>
	<path id="XMLID_4355_" d="M74.9,3.8H25.8c-5.6,0-10.2,4.6-10.2,10.2v72.4c0,5.6,4.6,10.2,10.2,10.2h49.1c5.6,0,10.2-4.6,10.2-10.2
		V14C85.1,8.4,80.5,3.8,74.9,3.8z M81,86.4c0,3.4-2.8,6.1-6.1,6.1H25.8c-3.4,0-6.1-2.8-6.1-6.1V14c0-3.4,2.8-6.1,6.1-6.1h49.1
		c3.4,0,6.1,2.8,6.1,6.1V86.4z"/>
	<path id="XMLID_4354_" d="M41.8,17.5h16.4c1.1,0,2-0.9,2-2s-0.9-2-2-2H41.8c-1.1,0-2,0.9-2,2S40.7,17.5,41.8,17.5z"/>
</g>
</svg>
