<?xml version="1.0" encoding="utf-8"?>
<!-- Generator: Adobe Illustrator 19.0.0, SVG Export Plug-In . SVG Version: 6.00 Build 0)  -->
<svg version="1.1" id="Layer_1" xmlns="http://www.w3.org/2000/svg" xmlns:xlink="http://www.w3.org/1999/xlink" x="0px" y="0px"
	 viewBox="0 0 100 100" style="enable-background:new 0 0 100 100;" xml:space="preserve">
<g id="XMLID_4917_">
	<g id="XMLID_4919_">
		<path id="XMLID_4925_" d="M76.7,93.6c-3.6,0-7.9-0.9-12.7-2.7c-10.5-4-21.9-11.8-32.1-22c-10.2-10.2-18-21.6-22-32.1
			c-3.6-9.5-3.6-17.3,0-20.9c0.5-0.5,1-1.1,1.6-1.6c3.3-3.4,7-7.3,11.9-7.1c3.4,0.1,6.6,2.2,10,6.4c9.9,12.3,5.4,16.7,0.3,21.8
			l-0.9,0.9C31.8,37,30.2,40.9,45,55.8c4.9,4.8,9,8.4,12.3,10.5c2.1,1.3,5.8,3.4,7.3,1.9l0.9-0.9c5.1-5.1,9.5-9.6,21.8,0.3
			c4.2,3.3,6.2,6.6,6.4,10c0.2,4.9-3.7,8.6-7.1,11.9c-0.6,0.5-1.1,1.1-1.6,1.6C83.1,92.8,80.3,93.6,76.7,93.6z M22.9,10
			c-3.5,0-6.6,3.3-9.4,6.2c-0.6,0.6-1.1,1.2-1.6,1.7c-2.7,2.7-2.4,9.7,0.7,17.9C16.4,45.9,24,56.9,33.9,66.9
			c10,9.9,21,17.5,31.1,21.3c8.2,3.1,15.2,3.3,17.9,0.7c0.5-0.5,1.1-1.1,1.7-1.6c3-2.8,6.4-6.1,6.2-9.6c-0.1-2.5-1.9-5.1-5.3-7.8
			c-10.2-8.2-13.1-5.3-17.9-0.5l-0.9,0.9c-2.3,2.3-6,1.8-11-1.5c-3.5-2.3-7.8-5.9-12.7-10.9C30.6,45.5,26.7,38,30.6,34.1l0.9-0.9
			c4.8-4.8,7.7-7.6-0.5-17.9c-2.8-3.4-5.4-5.2-7.8-5.3C23.1,10,23,10,22.9,10z"/>
		<path id="XMLID_4920_" d="M76.7,94.6c-3.8,0-8.3-1-13.1-2.8c-10.6-4-22.1-11.9-32.4-22.2C20.9,59.3,13,47.8,9,37.1
			c-3.7-9.9-3.6-18.1,0.2-21.9c0.5-0.5,1-1.1,1.6-1.6c3.3-3.5,7.1-7.4,12.2-7.4c0.1,0,0.2,0,0.3,0C27,6.3,30.5,8.5,34,12.9
			c10.4,13,5.5,17.8,0.2,23l-0.9,0.9c0,0-2.8,3.1,12.4,18.3c4.8,4.8,8.9,8.3,12.1,10.4c3.6,2.4,5.6,2.5,6.1,2l0.9-0.9
			c5.2-5.2,10.1-10.2,23,0.2c4.4,3.5,6.6,7,6.8,10.7c0.2,5.3-4,9.4-7.4,12.6c-0.6,0.6-1.1,1.1-1.6,1.6
			C83.6,93.6,80.6,94.6,76.7,94.6z M23,8c-4.3,0-7.8,3.6-10.9,6.8c-0.6,0.6-1.1,1.1-1.6,1.6c-3.3,3.3-3.2,10.8,0.2,20
			c3.9,10.4,11.7,21.7,21.8,31.8c10.1,10.1,21.4,17.9,31.8,21.8c8.9,3.4,16.7,3.5,20,0.2c0.5-0.5,1.1-1,1.6-1.6
			c3.3-3.2,7.1-6.7,6.9-11.2c-0.1-3.1-2.1-6.1-6.1-9.3c-11.7-9.4-15.5-5.4-20.5-0.4l-0.9,0.9c-1.5,1.5-4.4,0.9-8.5-1.7
			c-3.4-2.2-7.5-5.8-12.4-10.7C30.6,42.7,30,37.5,32,35.5l0.9-0.9c5-5,9-8.9-0.3-20.5c-3.2-3.9-6.2-5.9-9.3-6.1C23.1,8,23,8,23,8z
			 M76.7,91.7c-3.3,0-7.5-0.9-12-2.6c-10.2-3.9-21.4-11.5-31.4-21.5c-10-10-17.7-21.2-21.5-31.4c-3.3-8.6-3.4-15.9-0.5-18.8
			c0.5-0.5,1.1-1.1,1.6-1.7c2.9-3.1,6.2-6.5,10.1-6.5h0.2c2.8,0.1,5.6,2,8.6,5.7c8.4,10.4,5.8,13.9,0.4,19.1l-0.9,0.9
			c-1.6,1.6-1.5,4.1,0.3,7.6c2,3.8,5.9,8.6,12.1,14.8c4.9,4.9,9.1,8.6,12.6,10.8c4.6,3,7.9,3.5,9.8,1.6l0.9-0.9
			c5.2-5.3,8.7-7.9,19.1,0.4c3.6,2.9,5.5,5.8,5.6,8.5c0.2,4-3.4,7.4-6.5,10.3c-0.6,0.6-1.2,1.1-1.7,1.6C82.1,91,79.7,91.7,76.7,91.7
			z M22.9,10V11c-3.1,0-6.1,3.1-8.7,5.9c-0.6,0.6-1.2,1.2-1.7,1.8c-2.4,2.4-2,9.1,0.9,16.9c3.8,10,11.3,20.9,21.1,30.8
			c9.9,9.8,20.8,17.3,30.8,21.1c7.7,2.9,14.5,3.3,16.9,0.9c0.5-0.5,1.1-1,1.6-1.6c2.9-2.8,6.2-5.8,6-9c-0.1-2.2-1.8-4.6-4.9-7.2
			c-9.6-7.7-11.9-5.3-16.6-0.6l-0.9,0.9c-2.6,2.6-6.7,2.2-12.1-1.4c-3.6-2.3-7.9-6-12.9-11C36,52.2,32,47.2,29.9,43.2
			c-2.2-4.2-2.2-7.5,0-9.8l0.9-0.9c4.8-4.7,7.1-7-0.6-16.6c-2.6-3.2-5-4.9-7.1-5L22.9,10z"/>
	</g>
</g>
</svg>
