<?xml version="1.0" encoding="utf-8"?>
<!-- Generator: Adobe Illustrator 19.0.0, SVG Export Plug-In . SVG Version: 6.00 Build 0)  -->
<svg version="1.1" id="Layer_1" xmlns="http://www.w3.org/2000/svg" xmlns:xlink="http://www.w3.org/1999/xlink" x="0px" y="0px"
	 viewBox="0 0 100 100" style="enable-background:new 0 0 100 100;" xml:space="preserve">
<style type="text/css">
	.st0{fill:#FCCEB7;}
	.st1{fill:#EDBDA6;}
	.st2{fill:#83CA9A;}
	.st3{fill:#3CAB8B;}
	.st4{fill:#F58539;}
	.st5{fill:#FCDF6D;}
	.st6{fill:#F3B422;}
	.st7{fill:#E4E9F6;}
	.st8{fill:#010101;}
</style>
<g id="XMLID_27800_">
	<path id="XMLID_27605_" class="st0" d="M5.6,58.5l2.1,5.6l5.6,8.6c1.8,2.1,4.1,3.8,6.6,5c2.9,1.3,5.8,3,7.9,5.2
		c1.4,1.5,2.1,3.4,2.3,10.4h14.6V85c-0.5-5-2.4-10.6-8.2-12.6l-5.2-1.8l-9.1-7.7c-0.8-0.7-2.1-0.7-2.8,0.1c-0.8,0.8-0.8,2.1-0.1,2.9
		l4,4.3l-7-3.2l-4.4-5.3L10,56.9c-0.4-1.1-1.6-1.7-2.7-1.4C5.9,55.8,5.1,57.2,5.6,58.5z"/>
	<path id="XMLID_27566_" class="st1" d="M36.5,72.4l-5.2-1.8l-9.1-7.7c-0.8-0.7-2.1-0.7-2.8,0.1c-0.8,0.8-0.8,2.1-0.1,2.9l4,4.3
		l4.1,2.2c5.8,2,7.7,7.6,8.2,12.6v8.4h9.2V85C44.2,80,42.3,74.4,36.5,72.4z"/>
	<path id="XMLID_27550_" class="st2" d="M29.6,88.1h15.6c0.7,0,1.3,0.6,1.3,1.3v4c0,0.7-0.6,1.3-1.3,1.3H29.6
		c-0.7,0-1.3-0.6-1.3-1.3v-4C28.2,88.7,28.8,88.1,29.6,88.1z"/>
	<path id="XMLID_27549_" class="st3" d="M45.1,88.1h-7.8v6.6h7.8c0.7,0,1.3-0.6,1.3-1.3v-4C46.5,88.7,45.9,88.1,45.1,88.1z"/>
	<path id="XMLID_27548_" class="st0" d="M92,58.5l-2.1,5.6l-5.6,8.6c-1.8,2.1-4.1,3.8-6.6,5c-2.9,1.3-5.8,3-7.9,5.2
		c-1.4,1.5-2.1,3.4-2.3,10.4H52.9V85c0.5-5,2.4-10.6,8.2-12.6l5.2-1.8l9.1-7.7c0.8-0.7,2.1-0.7,2.8,0.1c0.8,0.8,0.8,2.1,0.1,2.9
		l-4,4.3l7-3.2l4.4-5.3l1.9-4.8c0.4-1.1,1.6-1.7,2.7-1.4C91.7,55.8,92.5,57.2,92,58.5z"/>
	<path id="XMLID_27547_" class="st1" d="M90.9,55.6l-3.2,7.3L82,70.2c-1.8,2.1-10.7,6.4-13.3,7.6c-2.9,1.3-5.8,3-7.9,5.2
		c-1.4,1.5-2.1,3.4-2.3,10.4h9.1c0.1-7.1,0.9-8.9,2.3-10.4c2.1-2.3,5.1-3.9,7.9-5.2c2.5-1.2,4.8-2.9,6.6-5l5.6-8.6l2.1-5.6
		C92.4,57.4,91.9,56.2,90.9,55.6z"/>
	<path id="XMLID_27546_" class="st2" d="M68.1,88.1H52.5c-0.7,0-1.3,0.6-1.3,1.3v4c0,0.7,0.6,1.3,1.3,1.3h15.6
		c0.7,0,1.3-0.6,1.3-1.3v-4C69.4,88.7,68.8,88.1,68.1,88.1z"/>
	<path id="XMLID_27545_" class="st3" d="M68.1,88.1h-7.8v6.6h7.8c0.7,0,1.3-0.6,1.3-1.3v-4C69.4,88.7,68.8,88.1,68.1,88.1z"/>
	<path id="XMLID_27544_" class="st4" d="M70.2,46.8c0,11.8-9.6,21.4-21.4,21.4c-11.8,0-21.4-9.6-21.4-21.4S37,25.4,48.8,25.4
		C60.6,25.4,70.2,35,70.2,46.8z"/>
	<path id="XMLID_27543_" class="st5" d="M65.4,46.8c0,9.1-7.4,16.5-16.5,16.5c-9.1,0-16.5-7.4-16.5-16.5s7.4-16.5,16.5-16.5
		C58,30.3,65.4,37.7,65.4,46.8z"/>
	<path id="XMLID_27526_" class="st6" d="M48.8,30.3c-1.6,0-3.1,0.2-4.5,0.6c6.9,2,12,8.3,12,15.9s-5.1,14-12,15.9
		c1.4,0.4,3,0.6,4.5,0.6c9.1,0,16.5-7.4,16.5-16.5C65.4,37.7,58,30.3,48.8,30.3z"/>
	<g id="XMLID_27833_">
		<path id="XMLID_27525_" class="st7" d="M79.8,21.4l1.6,4.4l4.7,0.2c0.5,0,0.7,0.7,0.3,1l-3.6,2.9l1.2,4.5c0.1,0.5-0.4,0.9-0.8,0.6
			l-3.9-2.6L75.4,35c-0.4,0.3-1-0.1-0.8-0.6l1.2-4.5L72.1,27c-0.4-0.3-0.2-1,0.3-1l4.7-0.2l1.6-4.4C78.9,21,79.6,21,79.8,21.4z"/>
		<path id="XMLID_27524_" class="st7" d="M18.9,21.4l1.6,4.4l4.7,0.2c0.5,0,0.7,0.7,0.3,1l-3.6,2.9l1.2,4.5c0.1,0.5-0.4,0.9-0.8,0.6
			l-3.9-2.6L14.5,35c-0.4,0.3-1-0.1-0.8-0.6l1.2-4.5L11.2,27c-0.4-0.3-0.2-1,0.3-1l4.7-0.2l1.6-4.4C18,21,18.7,21,18.9,21.4z"/>
		<path id="XMLID_27523_" class="st7" d="M49.3,5.7L51,10l4.7,0.2c0.5,0,0.7,0.7,0.3,1l-3.6,2.9l1.2,4.5c0.1,0.5-0.4,0.9-0.8,0.6
			l-3.9-2.6l-3.9,2.6c-0.4,0.3-1-0.1-0.8-0.6l1.2-4.5l-3.6-2.9c-0.4-0.3-0.2-1,0.3-1l4.7-0.2l1.6-4.4C48.5,5.2,49.2,5.2,49.3,5.7z"
			/>
	</g>
	<path id="XMLID_27829_" class="st8" d="M46,86.9V85c0,0,0-0.1,0-0.1c-0.7-7.2-3.9-12-9.1-13.8l-5-1.7l-8.9-7.6
		c-1.4-1.2-3.4-1.1-4.7,0.2c-1.1,1.1-1.3,2.9-0.5,4.2l-0.7-0.3l-4-4.9l-1.8-4.6c-0.7-1.7-2.5-2.7-4.3-2.3c-1,0.2-1.9,0.9-2.4,1.8
		c-0.5,0.9-0.6,2-0.2,3l2.1,5.6c0,0.1,0.1,0.2,0.1,0.3l5.6,8.6c0,0,0.1,0.1,0.1,0.1c1.9,2.3,4.4,4.1,7,5.4c2.2,1,5.4,2.6,7.5,4.9
		c0.5,0.6,1.1,1.3,1.4,3.2c-0.8,0.5-1.3,1.3-1.3,2.3v4c0,1.5,1.2,2.7,2.7,2.7h15.6c1.5,0,2.7-1.2,2.7-2.7v-4
		C47.8,88.2,47.1,87.2,46,86.9z M20.4,76.6c-2.3-1.1-4.4-2.7-6.1-4.6l-5.4-8.4l-2-5.5c-0.1-0.4,0-0.7,0.1-0.8
		c0.1-0.1,0.3-0.4,0.7-0.5c0.5-0.1,1,0.2,1.2,0.6l1.9,4.8c0.1,0.1,0.1,0.3,0.2,0.4l4.4,5.3c0.1,0.2,0.3,0.3,0.5,0.4l6.7,3.1l3.5,4
		c0.3,0.3,0.6,0.5,1,0.5c0.3,0,0.6-0.1,0.9-0.3c0.6-0.5,0.6-1.3,0.1-1.9l-3.7-4.2c0,0,0,0,0,0l-4-4.3c-0.3-0.3-0.3-0.8,0-1
		c0.3-0.3,0.7-0.3,1,0l9.1,7.7c0.1,0.1,0.3,0.2,0.4,0.2l5.2,1.8c4.2,1.4,6.7,5.3,7.3,11.4v1.6H30.9c-0.4-2.4-1.2-3.6-2.1-4.6
		C26.3,79.5,22.8,77.7,20.4,76.6z M45.1,93.4H29.6v-3.9h15.5V93.4z"/>
	<path id="XMLID_27825_" class="st8" d="M93.1,56c-0.5-0.9-1.4-1.6-2.4-1.8c-1.8-0.4-3.6,0.6-4.3,2.3L84.5,61l-4,4.9l-0.7,0.3
		c0.8-1.3,0.6-3.1-0.5-4.2c-1.3-1.3-3.3-1.3-4.7-0.2l-8.9,7.6l-5,1.7c-5.2,1.8-8.4,6.6-9.1,13.8c0,0,0,0.1,0,0.1v1.9
		c-1,0.4-1.8,1.4-1.8,2.5v4c0,1.5,1.2,2.7,2.7,2.7h15.6c1.5,0,2.7-1.2,2.7-2.7v-4c0-1-0.5-1.8-1.3-2.3c0.4-1.9,0.9-2.6,1.4-3.2
		c2.1-2.3,5.3-3.9,7.5-4.9c2.7-1.2,5.1-3.1,7-5.4c0,0,0.1-0.1,0.1-0.1l5.6-8.6c0.1-0.1,0.1-0.2,0.1-0.3l2.1-5.6
		C93.7,58,93.6,56.9,93.1,56z M68,93.4H52.5v-3.9H68V93.4z M90.8,58.1l-2,5.5L83.3,72c-1.7,1.9-3.8,3.5-6.1,4.6
		c-2.4,1.1-5.9,2.9-8.4,5.5c-0.9,1-1.7,2.2-2.1,4.6H54.3v-1.6c0.6-6.1,3.1-10,7.3-11.4l5.2-1.8c0.2-0.1,0.3-0.1,0.4-0.2l9.1-7.7
		c0.3-0.3,0.7-0.2,1,0c0.3,0.3,0.3,0.7,0,1l-4,4.3c0,0,0,0,0,0l-3.7,4.2c-0.5,0.6-0.4,1.4,0.1,1.9c0.3,0.2,0.6,0.3,0.9,0.3
		c0.4,0,0.7-0.2,1-0.5l3.5-4l6.7-3.1c0.2-0.1,0.3-0.2,0.5-0.4l4.4-5.3c0.1-0.1,0.2-0.2,0.2-0.4l1.9-4.8c0.2-0.5,0.7-0.7,1.2-0.6
		c0.4,0.1,0.6,0.4,0.7,0.5S90.9,57.7,90.8,58.1z"/>
	<path id="XMLID_27822_" class="st8" d="M71.3,28.1l3,2.4l-1,3.6c-0.2,0.8,0.1,1.6,0.7,2c0.3,0.2,0.7,0.4,1.1,0.4
		c0.4,0,0.7-0.1,1-0.3l3.2-2.1l3.2,2.1c0.7,0.4,1.5,0.4,2.2,0c0.6-0.5,0.9-1.3,0.7-2l-1-3.6l3-2.4c0.6-0.5,0.9-1.3,0.6-2.1
		c-0.2-0.8-0.9-1.3-1.7-1.3l-3.8-0.2L81,21c-0.3-0.7-1-1.2-1.8-1.2c-0.8,0-1.5,0.5-1.8,1.2l-1.3,3.5l-3.8,0.2
		c-0.8,0-1.5,0.6-1.7,1.3C70.4,26.8,70.6,27.6,71.3,28.1z M77.2,27.2c0.5,0,1-0.4,1.2-0.9l0.9-2.4l0.9,2.4c0.2,0.5,0.7,0.8,1.2,0.9
		l2.6,0.1l-2,1.6c-0.4,0.3-0.6,0.9-0.5,1.4l0.7,2.5L80,31.4c-0.2-0.1-0.5-0.2-0.7-0.2c-0.3,0-0.5,0.1-0.7,0.2l-2.1,1.4l0.7-2.5
		c0.1-0.5,0-1.1-0.5-1.4l-2-1.6L77.2,27.2z"/>
	<path id="XMLID_27819_" class="st8" d="M10.4,28.1l3,2.4l-1,3.6c-0.2,0.8,0.1,1.6,0.7,2c0.6,0.5,1.5,0.5,2.2,0l3.2-2.1l3.2,2.1
		c0.3,0.2,0.7,0.3,1,0.3c0.4,0,0.8-0.1,1.1-0.4c0.6-0.5,0.9-1.3,0.7-2l-1-3.6l3-2.4c0.6-0.5,0.9-1.3,0.6-2.1
		c-0.2-0.8-0.9-1.3-1.7-1.3l-3.8-0.2L20.2,21c-0.3-0.7-1-1.2-1.8-1.2c-0.8,0-1.5,0.5-1.8,1.2l-1.3,3.5l-3.8,0.2
		c-0.8,0-1.5,0.6-1.7,1.3C9.5,26.8,9.8,27.6,10.4,28.1z M16.3,27.2c0.5,0,1-0.4,1.2-0.9l0.9-2.4l0.9,2.4c0.2,0.5,0.7,0.8,1.2,0.9
		l2.6,0.1l-2,1.6c-0.4,0.3-0.6,0.9-0.5,1.4l0.7,2.5l-2.1-1.4c-0.5-0.3-1-0.3-1.5,0l-2.1,1.4l0.7-2.5c0.1-0.5,0-1.1-0.5-1.4l-2-1.6
		L16.3,27.2z"/>
	<path id="XMLID_27813_" class="st8" d="M40.8,12.3l3,2.4l-1,3.6c-0.2,0.8,0.1,1.6,0.7,2c0.6,0.5,1.5,0.5,2.2,0l3.2-2.1l3.2,2.1
		c0.3,0.2,0.7,0.3,1,0.3c0.4,0,0.8-0.1,1.1-0.4c0.6-0.5,0.9-1.3,0.7-2l-1-3.6l3-2.4c0.6-0.5,0.9-1.3,0.6-2.1
		c-0.2-0.8-0.9-1.3-1.7-1.3l-3.8-0.2l-1.3-3.5c-0.3-0.7-1-1.2-1.8-1.2c-0.8,0-1.5,0.5-1.8,1.2l-1.3,3.5l-3.8,0.2
		c-0.8,0-1.5,0.6-1.7,1.3C40,11,40.2,11.8,40.8,12.3z M46.7,11.4c0.5,0,1-0.4,1.2-0.9l0.9-2.4l0.9,2.4c0.2,0.5,0.7,0.8,1.2,0.9
		l2.6,0.1l-2,1.6c-0.4,0.3-0.6,0.9-0.5,1.4l0.7,2.5l-2.1-1.4c-0.2-0.1-0.5-0.2-0.7-0.2c-0.3,0-0.5,0.1-0.7,0.2L45.9,17l0.7-2.5
		c0.1-0.5,0-1.1-0.5-1.4l-2-1.6L46.7,11.4z"/>
	<path id="XMLID_27810_" class="st8" d="M71.6,46.8C71.6,34.2,61.4,24,48.8,24C36.3,24,26,34.2,26,46.8c0,12.6,10.2,22.8,22.8,22.8
		C61.4,69.6,71.6,59.4,71.6,46.8z M48.8,66.9c-11.1,0-20.1-9-20.1-20.1c0-11.1,9-20.1,20.1-20.1c11.1,0,20.1,9,20.1,20.1
		C68.9,57.9,59.9,66.9,48.8,66.9z"/>
	<path id="XMLID_27481_" class="st8" d="M32.3,45.4c0.7,0.1,1.4-0.4,1.6-1.1c0.6-3.5,2.4-6.7,5.1-9.1c2.7-2.4,6.3-3.7,9.9-3.7
		c3.6,0,7.1,1.3,9.9,3.7c2.7,2.3,4.5,5.5,5.1,9.1c0.1,0.7,0.7,1.1,1.3,1.1c0.1,0,0.1,0,0.2,0c0.7-0.1,1.2-0.8,1.1-1.5
		c-0.7-4.1-2.8-7.9-6-10.7c-3.2-2.8-7.4-4.3-11.6-4.3c-4.3,0-8.4,1.5-11.6,4.3c-3.2,2.7-5.3,6.5-6,10.7C31,44.6,31.5,45.3,32.3,45.4
		z"/>
	<path id="XMLID_27455_" class="st8" d="M65.4,48.2c-0.7-0.1-1.4,0.4-1.6,1.1c-0.6,3.5-2.4,6.7-5.1,9.1c-2.7,2.4-6.3,3.7-9.9,3.7
		c-3.6,0-7.1-1.3-9.9-3.7c-2.7-2.3-4.5-5.5-5.1-9.1c-0.1-0.7-0.8-1.2-1.6-1.1S31,49,31.2,49.7c0.7,4.1,2.8,7.9,6,10.7
		c3.2,2.8,7.4,4.3,11.6,4.3c4.3,0,8.4-1.5,11.6-4.3c3.2-2.7,5.3-6.5,6-10.7C66.6,49,66.1,48.3,65.4,48.2z"/>
	<path id="XMLID_27803_" class="st8" d="M49.1,55.1c0.3,0,0.7-0.2,0.7-0.5v-0.8c2.4-0.3,4.1-1.9,4.1-4.7c0-3.1-2.1-4.1-4.1-4.8v-4.6
		c1.6,0.1,2.2,0.8,2.7,0.8c0.7,0,1-0.9,1-1.3c0-1.1-2.2-1.6-3.7-1.6v-0.6c0-0.3-0.3-0.5-0.7-0.5c-0.4,0-0.7,0.2-0.7,0.5v0.7
		c-2.1,0.2-4.3,1.4-4.3,4.2c0,2.9,2.3,3.7,4.3,4.4v5.3c-2.3-0.2-2.9-1.8-3.7-1.8c-0.6,0-1,0.7-1,1.3c0,1.1,1.9,2.6,4.7,2.7v0.7
		C48.4,54.8,48.7,55.1,49.1,55.1z M49.6,46.8c1.1,0.5,2,1.1,2,2.5c0,1.3-0.8,2-2,2.2V46.8z M46.4,41.7c0-1.2,0.9-1.7,2.2-1.9v4.1
		C47.3,43.5,46.4,43,46.4,41.7z"/>
</g>
</svg>
