<?xml version="1.0" encoding="utf-8"?>
<!-- Generator: Adobe Illustrator 19.0.0, SVG Export Plug-In . SVG Version: 6.00 Build 0)  -->
<svg version="1.1" id="fix_1" xmlns="http://www.w3.org/2000/svg" xmlns:xlink="http://www.w3.org/1999/xlink" x="0px" y="0px"
	 viewBox="157 0 100 100" style="enable-background:new 157 0 100 100;" xml:space="preserve">
<g>
	<path d="M238.3,94.3h-62.7c-3,0-5.5-2.5-5.5-5.5V51.8c0-1,0.8-1.8,1.8-1.8H242c1,0,1.8,0.8,1.8,1.8v36.9
		C243.9,91.8,241.4,94.3,238.3,94.3z M173.8,53.7v35c0,1,0.8,1.8,1.8,1.8h62.7c1,0,1.8-0.8,1.8-1.8v-35H173.8z"/>
	<path d="M245.7,53.7h-77.4c-3,0-5.5-2.5-5.5-5.5V37.1c0-3,2.5-5.5,5.5-5.5h77.4c3,0,5.5,2.5,5.5,5.5v11.1
		C251.3,51.2,248.8,53.7,245.7,53.7z M168.3,35.3c-1,0-1.8,0.8-1.8,1.8v11.1c0,1,0.8,1.8,1.8,1.8h77.4c1,0,1.8-0.8,1.8-1.8V37.1
		c0-1-0.8-1.8-1.8-1.8H168.3z"/>
	<path d="M207,35.3c-0.5,0-1-0.2-1.4-0.6c-0.4-0.4-0.5-0.9-0.4-1.5c0-0.3,4.2-27.4,25.8-27.4c9.5,0,12.9,5.1,12.9,9.6
		C243.9,23.6,232.4,35.3,207,35.3L207,35.3z M231,9.4c-15.2,0-20.3,16.2-21.7,22.1c20.2-0.6,30.9-9.6,30.9-16.2c0-1.6-0.7-3-2-4
		C236.5,10.1,234,9.4,231,9.4L231,9.4z"/>
	<path d="M207,35.3c-25.4,0-36.9-11.7-36.9-19.9c0-2.8,1.3-5.3,3.5-7c2.3-1.7,5.5-2.6,9.4-2.6c21.6,0,25.8,27.1,25.8,27.4
		c0.1,0.5-0.1,1.1-0.4,1.5C208,35,207.5,35.3,207,35.3L207,35.3z M183,9.4c-5.7,0-9.2,2.2-9.2,5.9c0,6.6,10.7,15.6,31,16.2
		C203.4,25.6,198.4,9.4,183,9.4z"/>
	<path d="M207,94.3c-1,0-1.8-0.8-1.8-1.8v-59c0-1,0.8-1.8,1.8-1.8c1,0,1.8,0.8,1.8,1.8v59C208.8,93.4,208,94.3,207,94.3z"/>
</g>
</svg>
