<?xml version="1.0" encoding="utf-8"?>
<!-- Generator: Adobe Illustrator 19.0.0, SVG Export Plug-In . SVG Version: 6.00 Build 0)  -->
<svg version="1.1" id="Layer_1" xmlns="http://www.w3.org/2000/svg" xmlns:xlink="http://www.w3.org/1999/xlink" x="0px" y="0px"
	 viewBox="-255 347 100 100" style="enable-background:new -255 347 100 100;" xml:space="preserve">
<g>
	<g>
		<path d="M-179.2,392.5l-39.8-39.8c-0.9-0.9-2.1-1.4-3.5-1.4s-2.5,0.5-3.5,1.4l-2.9,2.9c-1.9,1.9-1.9,5,0,6.9l33.4,33.4l-33.4,33.4
			c-0.9,0.9-1.4,2.1-1.4,3.5c0,1.3,0.5,2.5,1.4,3.5l2.9,2.9c0.9,0.9,2.1,1.4,3.5,1.4s2.5-0.5,3.5-1.4l39.8-39.8
			c0.9-0.9,1.4-2.2,1.4-3.5C-177.7,394.7-178.3,393.4-179.2,392.5z"/>
	</g>
</g>
</svg>
