<?xml version="1.0" encoding="utf-8"?>
<!-- Generator: Adobe Illustrator 19.0.0, SVG Export Plug-In . SVG Version: 6.00 Build 0)  -->
<svg version="1.1" id="Layer_1" xmlns="http://www.w3.org/2000/svg" xmlns:xlink="http://www.w3.org/1999/xlink" x="0px" y="0px"
	 viewBox="0 0 100 100" style="enable-background:new 0 0 100 100;" xml:space="preserve">
<path id="XMLID_12084_" d="M6,51.9C5.3,51.2,5,50.1,5,49.4c0-0.7,0.4-1.8,1.1-2.5l5-5c1.4-1.4,3.6-1.4,5,0l0.4,0.4l19.5,21
	c0.7,0.7,1.8,0.7,2.5,0L86,13.9h0.4l0,0c1.4-1.4,3.6-1.4,5,0l5,5c1.4,1.4,1.4,3.6,0,5l0,0l-56.8,59c-0.7,0.7-1.4,1.1-2.5,1.1
	c-1.1,0-1.8-0.4-2.5-1.1L6.8,53L6,51.9z"/>
</svg>
