<?xml version="1.0" encoding="utf-8"?>
<!-- Generator: Adobe Illustrator 19.0.0, SVG Export Plug-In . SVG Version: 6.00 Build 0)  -->
<svg version="1.1" id="Layer_1" xmlns="http://www.w3.org/2000/svg" xmlns:xlink="http://www.w3.org/1999/xlink" x="0px" y="0px"
	 viewBox="0 0 100 100" style="enable-background:new 0 0 100 100;" xml:space="preserve">
<g id="XMLID_36750_">
	<g id="XMLID_36751_">
		<g id="XMLID_36752_">
			<g id="XMLID_36757_">
				<path id="XMLID_13_" d="M50,3.2c-19.1,0-34.5,15.5-34.5,34.5c0,18.5,31.9,57.4,33.3,59c0.3,0.4,0.7,0.6,1.2,0.6s0.9-0.2,1.2-0.6
					c1.4-1.6,33.3-40.5,33.3-59C84.5,18.6,69.1,3.2,50,3.2z M50,93.2c-5.9-7.4-31.4-40.1-31.4-55.6C18.6,20.4,32.7,6.3,50,6.3
					c17.3,0,31.4,14.1,31.4,31.4C81.4,53.2,55.9,85.9,50,93.2z"/>
				<path id="XMLID_16_" d="M50,97.4c-0.5,0-1-0.2-1.3-0.6c-1.4-1.6-33.3-40.5-33.3-59.1C15.4,18.6,30.9,3.1,50,3.1
					c19.1,0,34.6,15.5,34.6,34.6c0,18.6-32,57.5-33.3,59.1C51,97.2,50.5,97.4,50,97.4z M50,3.3c-19,0-34.4,15.4-34.4,34.4
					c0,18.5,31.9,57.3,33.3,59c0.3,0.3,0.7,0.5,1.1,0.5s0.8-0.2,1.1-0.5c1.4-1.6,33.3-40.5,33.3-59C84.4,18.7,69,3.3,50,3.3z
					 M50,93.4l-0.1-0.1c-5.2-6.5-31.4-40-31.4-55.6C18.5,20.3,32.6,6.2,50,6.2c17.4,0,31.5,14.2,31.5,31.5
					c0,15.6-26.2,49.1-31.4,55.6L50,93.4z M50,6.4c-17.2,0-31.2,14-31.3,31.3C18.7,53.2,44.5,86.2,50,93
					c5.5-6.8,31.3-39.9,31.3-55.4C81.2,20.5,67.2,6.5,50,6.4z"/>
			</g>
			<g id="XMLID_36753_">
				<path id="XMLID_2_" d="M71.4,31.7L51,16.1c-0.6-0.4-1.3-0.4-1.9,0L28.6,31.7c-0.7,0.5-0.8,1.5-0.3,2.2c0.3,0.4,0.8,0.6,1.2,0.6
					h4.7v17.3c0,0.9,0.7,1.6,1.6,1.6h28.2c0.9,0,1.6-0.7,1.6-1.6V34.6h4.7c0.9,0,1.6-0.7,1.6-1.6C72,32.5,71.7,32,71.4,31.7z
					 M53.1,50.2h-6.3v-9.4h6.3V50.2z M64.1,31.4c-0.9,0-1.6,0.7-1.6,1.6v17.3h-6.3v-11c0-0.9-0.7-1.6-1.6-1.6h-9.4
					c-0.9,0-1.6,0.7-1.6,1.6v11h-6.3V33c0-0.9-0.7-1.6-1.6-1.6h-1.7L50,19.3l15.8,12.1H64.1z"/>
				<path id="XMLID_6_" d="M64.1,53.5H35.9c-0.9,0-1.7-0.8-1.7-1.7V34.7h-4.6c-0.5,0-1-0.2-1.3-0.7c-0.3-0.4-0.4-0.8-0.3-1.3
					s0.3-0.8,0.6-1.1L49,16c0.6-0.5,1.5-0.5,2.1,0l20.4,15.7c0.4,0.3,0.7,0.8,0.7,1.3c0,0.9-0.8,1.7-1.7,1.7h-4.6v17.1
					C65.8,52.7,65.1,53.5,64.1,53.5z M50,15.9c-0.3,0-0.6,0.1-0.9,0.3L28.7,31.8c-0.3,0.2-0.5,0.6-0.6,1c0,0.4,0.1,0.8,0.3,1.1
					c0.3,0.4,0.7,0.6,1.1,0.6h4.8v17.4c0,0.8,0.6,1.4,1.4,1.4h28.2c0.8,0,1.4-0.6,1.4-1.4V34.4h4.8c0.8,0,1.4-0.6,1.4-1.4
					c0-0.4-0.2-0.9-0.6-1.1L50.9,16.2C50.6,16,50.3,15.9,50,15.9z M62.7,50.4h-6.5V39.3c0-0.8-0.6-1.4-1.4-1.4h-9.4
					c-0.8,0-1.4,0.6-1.4,1.4v11.1h-6.5V33c0-0.8-0.6-1.4-1.4-1.4h-2L50,19.1l16.1,12.4h-2c-0.8,0-1.4,0.6-1.4,1.4V50.4z M56.4,50.1
					h6V33c0-0.9,0.8-1.7,1.7-1.7h1.3L50,19.4L34.6,31.3h1.3c0.9,0,1.7,0.8,1.7,1.7v17.1h6V39.3c0-0.9,0.8-1.7,1.7-1.7h9.4
					c0.9,0,1.7,0.8,1.7,1.7V50.1z M53.3,50.4h-6.5v-9.7h6.5V50.4z M47,50.1h6V41h-6V50.1z"/>
			</g>
		</g>
	</g>
</g>
</svg>
