<?xml version="1.0" encoding="utf-8"?>
<!-- Generator: Adobe Illustrator 19.0.0, SVG Export Plug-In . SVG Version: 6.00 Build 0)  -->
<svg version="1.1" id="Layer_1" xmlns="http://www.w3.org/2000/svg" xmlns:xlink="http://www.w3.org/1999/xlink" x="0px" y="0px"
	 viewBox="0 0 100 100" style="enable-background:new 0 0 100 100;" xml:space="preserve">
<path id="XMLID_221_" d="M94.6,90.5L72.1,68c6-6.9,9.7-16,9.7-25.8c0-21.7-17.7-39.4-39.4-39.4C20.7,2.8,3,20.5,3,42.2
	c0,21.7,17.7,39.4,39.4,39.4c9.9,0,18.9-3.6,25.8-9.7l22.5,22.5c0.5,0.5,1.3,0.8,2,0.8c0.7,0,1.4-0.3,1.9-0.8
	C95.6,93.3,95.6,91.6,94.6,90.5 M8.5,42.2c0-18.7,15.2-33.9,33.9-33.9c18.7,0,33.9,15.2,33.9,33.9c0,18.7-15.2,33.9-33.9,33.9
	C23.7,76.1,8.5,60.9,8.5,42.2"/>
</svg>
