<?xml version="1.0" encoding="utf-8"?>
<!-- Generator: Adobe Illustrator 19.0.0, SVG Export Plug-In . SVG Version: 6.00 Build 0)  -->
<svg version="1.1" id="Layer_1" xmlns="http://www.w3.org/2000/svg" xmlns:xlink="http://www.w3.org/1999/xlink" x="0px" y="0px"
	 viewBox="0 0 100 100" style="enable-background:new 0 0 100 100;" xml:space="preserve">
<g id="XMLID_36845_">
	<g id="XMLID_36846_">
		<path id="XMLID_2_" d="M68.9,60.2c4.6,0,8.3-3.7,8.3-8.3v-4.4c0-1.7-1.4-3.1-3.1-3.1h-3.6V14.2c0-5.2-4.2-9.4-9.4-9.4H38.9
			c-5.2,0-9.4,4.2-9.4,9.4v30.2h-3.6c-1.7,0-3.1,1.4-3.1,3.1v4.4c0,4.6,3.7,8.3,8.3,8.3H49v13.9L31.9,94.7c-0.4,0.4-0.3,1.1,0.1,1.5
			l0.6,0.2c0.3,0,0.6-0.2,0.8-0.4L49,77.4v17.5c0,0.6,0.5,1,1,1c0.6,0,1-0.5,1-1V77.4L66.4,96c0.4,0.4,1.1,0.4,1.5-0.1
			c0.3-0.4,0.4-0.9,0.1-1.3L51,74.2V60.2H68.9z M31.6,14.2c0-4,3.3-7.3,7.3-7.3h22.3c4,0,7.3,3.3,7.3,7.3v30.2H31.6V14.2z
			 M24.8,51.9v-4.4c0-0.6,0.5-1,1-1h48.3c0.6,0,1,0.5,1,1v4.4c0,3.4-2.8,6.2-6.2,6.2H31.1C27.6,58.1,24.8,55.3,24.8,51.9z"/>
		<path id="XMLID_6_" d="M32.6,96.8l-0.2,0l-0.8-0.3C31,95.9,31,95,31.5,94.3L48.5,74V60.7H31.1c-4.9,0-8.8-4-8.8-8.8v-4.4
			c0-2,1.6-3.6,3.6-3.6H29V14.2c0-5.4,4.4-9.9,9.9-9.9h22.3c5.4,0,9.9,4.4,9.9,9.9v29.7h3.1c2,0,3.6,1.6,3.6,3.6v4.4
			c0,4.9-4,8.8-8.8,8.8H51.5V74l16.8,20.4c0.4,0.6,0.4,1.4-0.1,1.9c-0.3,0.3-0.7,0.5-1.1,0.5c-0.4,0-0.8-0.1-1.1-0.4L51.5,78.8v16.1
			c0,0.8-0.7,1.5-1.5,1.5s-1.5-0.7-1.5-1.5V78.8L33.8,96.2C33.6,96.6,33.1,96.8,32.6,96.8z M32.3,95.7l0.4,0.1
			c0.1,0,0.3-0.1,0.4-0.2L49.5,76v18.9c0,0.3,0.2,0.5,0.5,0.5c0.3,0,0.5-0.2,0.5-0.5V76l16.3,19.7c0.1,0,0.2,0.1,0.3,0.1
			c0.1,0,0.3-0.1,0.4-0.2c0.2-0.2,0.2-0.5,0-0.7l-17-20.6V59.7h18.4c4.3,0,7.8-3.5,7.8-7.8v-4.4c0-1.4-1.2-2.6-2.6-2.6H70V14.2
			c0-4.9-4-8.9-8.9-8.9H38.9c-4.9,0-8.9,4-8.9,8.9v30.7h-4.1c-1.4,0-2.6,1.2-2.6,2.6v4.4c0,4.3,3.5,7.8,7.8,7.8h18.4v14.6l-0.1,0.1
			L32.3,95C32.1,95.2,32.1,95.5,32.3,95.7z M68.9,58.6H31.1c-3.7,0-6.7-3-6.7-6.7v-4.4c0-0.8,0.7-1.5,1.5-1.5h48.3
			c0.8,0,1.5,0.7,1.5,1.5v4.4C75.7,55.6,72.7,58.6,68.9,58.6z M25.9,47c-0.3,0-0.5,0.2-0.5,0.5v4.4c0,3.2,2.6,5.7,5.7,5.7h37.9
			c3.2,0,5.7-2.6,5.7-5.7v-4.4c0-0.3-0.2-0.5-0.5-0.5H25.9z M68.9,44.9H31.1V14.2c0-4.3,3.5-7.8,7.8-7.8h22.3c4.3,0,7.8,3.5,7.8,7.8
			V44.9z M32.1,43.9h35.8V14.2c0-3.7-3-6.8-6.8-6.8H38.9c-3.7,0-6.8,3-6.8,6.8V43.9z"/>
	</g>
</g>
</svg>
