<?xml version="1.0" encoding="utf-8"?>
<!-- Generator: Adobe Illustrator 19.0.0, SVG Export Plug-In . SVG Version: 6.00 Build 0)  -->
<svg version="1.1" id="Layer_1" xmlns="http://www.w3.org/2000/svg" xmlns:xlink="http://www.w3.org/1999/xlink" x="0px" y="0px"
	 viewBox="0 0 100 100" style="enable-background:new 0 0 100 100;" xml:space="preserve">
<g id="XMLID_7492_">
	<path id="XMLID_8479_" d="M16.1,49.8c0-17.4,12.7-31.8,29.4-34.6v5.2l11.7-8.8L45.4,2.8v6.3c-19.9,2.9-35.2,20-35.2,40.6
		c0,14.8,7.9,27.8,19.8,35.1l5.1-3.8C23.8,75.2,16.1,63.4,16.1,49.8z"/>
	<path id="XMLID_8477_" d="M92.4,49.8c0-14.8-7.9-27.8-19.8-35.1l-5.1,3.8c11.3,5.9,19,17.7,19,31.2c0,17.4-12.7,31.8-29.4,34.6
		v-5.3L45.4,88l11.7,8.8v-6.4C77,87.5,92.4,70.5,92.4,49.8z"/>
</g>
</svg>
