<?xml version="1.0" encoding="utf-8"?>
<!-- Generator: Adobe Illustrator 19.0.0, SVG Export Plug-In . SVG Version: 6.00 Build 0)  -->
<svg version="1.1" id="Layer_1" xmlns="http://www.w3.org/2000/svg" xmlns:xlink="http://www.w3.org/1999/xlink" x="0px" y="0px"
	 viewBox="-255 347 100 100" style="enable-background:new -255 347 100 100;" xml:space="preserve">
<path id="XMLID_8889_" d="M-201.5,352.2c-0.9-0.9-2.1-1.4-3.3-1.4s-2.4,0.5-3.3,1.4l-30,30c-1.9,1.9-1.9,4.8,0,6.7
	c1.9,1.9,4.8,1.9,6.7,0l22-22v70.2c0,2.6,2.1,4.7,4.7,4.7c2.6,0,4.7-2.1,4.7-4.7v-70.2l22,22c1.9,1.9,4.8,1.9,6.7,0
	c1.9-1.9,1.9-4.8,0-6.7L-201.5,352.2z"/>
</svg>
