<?xml version="1.0" encoding="utf-8"?>
<!-- Generator: Adobe Illustrator 19.0.0, SVG Export Plug-In . SVG Version: 6.00 Build 0)  -->
<svg version="1.1" id="Layer_1" xmlns="http://www.w3.org/2000/svg" xmlns:xlink="http://www.w3.org/1999/xlink" x="0px" y="0px"
	 viewBox="-255 347 100 100" style="enable-background:new -255 347 100 100;" xml:space="preserve">
<g>
	<g>
		<path d="M-207.5,371.2l-39.8,39.8c-0.9,0.9-1.4,2.1-1.4,3.5c0,1.3,0.5,2.5,1.4,3.5l2.9,2.9c1.9,1.9,5,1.9,6.9,0l33.4-33.4
			l33.4,33.4c0.9,0.9,2.1,1.4,3.5,1.4c1.3,0,2.5-0.5,3.5-1.4l2.9-2.9c0.9-0.9,1.4-2.1,1.4-3.5c0-1.3-0.5-2.5-1.4-3.5l-39.8-39.8
			c-0.9-0.9-2.2-1.4-3.5-1.4C-205.3,369.8-206.6,370.3-207.5,371.2z"/>
	</g>
</g>
</svg>
