<?xml version="1.0" encoding="utf-8"?>
<!-- Generator: Adobe Illustrator 19.0.0, SVG Export Plug-In . SVG Version: 6.00 Build 0)  -->
<svg version="1.1" id="Layer_1" xmlns="http://www.w3.org/2000/svg" xmlns:xlink="http://www.w3.org/1999/xlink" x="0px" y="0px"
	 viewBox="0 0 100 100" style="enable-background:new 0 0 100 100;" xml:space="preserve">
<g id="XMLID_1728_">
	<g id="XMLID_1733_">
		<path id="XMLID_1721_" d="M83.4,46.6c2.7-1.9,4.5-5,4.5-8.6c0-5.8-4.7-10.5-10.5-10.5c-5.8,0-10.5,4.7-10.5,10.5
			c0,3.5,1.8,6.7,4.5,8.6c-2.3,0.8-4.4,2-6.2,3.6c-2.5-2.1-5.3-3.7-8.5-4.6c3.8-2.3,6.4-6.6,6.4-11.4c0-7.3-5.9-13.3-13.3-13.3
			s-13.3,6-13.3,13.3c0,4.8,2.6,9,6.4,11.4c-3.1,0.9-6,2.5-8.4,4.6c-1.8-1.6-3.9-2.8-6.1-3.6c2.7-1.9,4.5-5,4.5-8.6
			c0-5.8-4.7-10.5-10.5-10.5s-10.5,4.7-10.5,10.5c0,3.5,1.8,6.7,4.5,8.6C9.2,49.1,4,56,4,64v1.2c0,0,0,0.1,0.1,0.1h22.2
			c-0.1,1-0.2,2-0.2,3.1v1.2c0,5.3,4.3,9.7,9.7,9.7h28.2c5.3,0,9.7-4.3,9.7-9.7v-1.2c0-1-0.1-2.1-0.2-3.1h22.4c0,0,0.1,0,0.1-0.1V64
			C95.8,56,90.6,49.1,83.4,46.6z M69.8,38c0-4.2,3.4-7.6,7.6-7.6s7.6,3.4,7.6,7.6c0,4.1-3.3,7.5-7.4,7.6c-0.1,0-0.1,0-0.1,0
			s-0.1,0-0.1,0C73.1,45.5,69.8,42.2,69.8,38z M39.4,34.3c0-5.7,4.7-10.4,10.4-10.4s10.4,4.7,10.4,10.4c0,5.5-4.3,10-9.8,10.4
			c-0.2,0-0.4,0-0.6,0s-0.4,0-0.6,0C43.7,44.3,39.4,39.8,39.4,34.3z M14.8,38c0-4.2,3.4-7.6,7.6-7.6s7.6,3.4,7.6,7.6
			c0,4.1-3.3,7.5-7.4,7.6c-0.1,0-0.1,0-0.1,0c-0.1,0-0.1,0-0.1,0C18.1,45.5,14.8,42.2,14.8,38z M26.8,62.4H6.9
			c0.8-7.7,7.4-13.8,15.3-13.9c0,0,0.1,0,0.1,0c0,0,0.1,0,0.1,0c3.8,0,7.2,1.4,9.9,3.7C29.7,55,27.8,58.5,26.8,62.4z M70.6,69.6
			c0,3.7-3,6.8-6.8,6.8H35.7c-3.7,0-6.8-3-6.8-6.8v-1.2c0-11.3,9-20.5,20.2-20.8c0.2,0,0.4,0,0.6,0s0.4,0,0.6,0
			c11.2,0.3,20.2,9.6,20.2,20.8V69.6z M72.8,62.4c-1-3.8-2.9-7.3-5.5-10.1c2.7-2.3,6.2-3.7,10-3.8c0,0,0.1,0,0.1,0c0,0,0.1,0,0.1,0
			c7.9,0.1,14.5,6.1,15.3,13.9H72.8z"/>
		<path id="XMLID_1731_" d="M63.9,80H35.7c-5.7,0-10.4-4.7-10.4-10.4v-1.2c0-0.8,0-1.5,0.1-2.3H3.3l-0.1-0.8V64
			c0-7.7,4.6-14.6,11.6-17.6c-2.3-2.1-3.7-5.1-3.7-8.3c0-6.2,5-11.2,11.2-11.2s11.2,5,11.2,11.2c0,3.2-1.4,6.2-3.7,8.3
			c1.7,0.7,3.2,1.6,4.6,2.8c2-1.6,4.3-2.9,6.7-3.8c-3.4-2.6-5.5-6.8-5.5-11.1c0-7.7,6.3-14,14-14s14,6.3,14,14
			c0,4.4-2.1,8.5-5.5,11.1c2.5,0.9,4.7,2.2,6.8,3.9c1.4-1.2,3-2.1,4.7-2.9c-2.3-2.1-3.7-5.1-3.7-8.3c0-6.2,5-11.2,11.2-11.2
			c6.2,0,11.2,5,11.2,11.2c0,3.2-1.4,6.2-3.7,8.3c7,3,11.6,9.9,11.7,17.6v2l-0.8,0.1H74.2c0.1,0.8,0.1,1.6,0.1,2.3v1.2
			C74.3,75.4,69.6,80,63.9,80z M4.7,64.5h22.4L27,65.4c-0.1,1-0.2,2-0.2,3v1.2c0,4.9,4,8.9,8.9,8.9h28.2c4.9,0,8.9-4,8.9-8.9v-1.2
			c0-0.9-0.1-1.9-0.2-3l-0.1-0.9H95V64c0-7.5-4.8-14.2-11.9-16.7l-1.4-0.5l1.2-0.9c2.6-1.8,4.1-4.8,4.1-7.9c0-5.4-4.4-9.7-9.7-9.7
			c-5.4,0-9.7,4.4-9.7,9.7c0,3.2,1.5,6.1,4.1,7.9l1.2,0.9l-1.4,0.5c-2.2,0.8-4.2,1.9-5.9,3.5l-0.5,0.4l-0.5-0.4
			c-2.4-2.1-5.2-3.6-8.2-4.5l-1.6-0.5l1.5-0.9c3.7-2.3,6-6.4,6-10.7c0-6.9-5.6-12.5-12.5-12.5s-12.5,5.6-12.5,12.5
			c0,4.4,2.3,8.5,6,10.7l1.5,0.9l-1.6,0.5c-3,0.9-5.7,2.4-8.1,4.4l-0.5,0.4L34,50.8c-1.7-1.5-3.7-2.7-5.9-3.4l-1.4-0.5L28,46
			c2.6-1.8,4.1-4.8,4.1-7.9c0-5.4-4.4-9.7-9.7-9.7s-9.7,4.4-9.7,9.7c0,3.2,1.5,6.1,4.1,7.9l1.2,0.9l-1.4,0.5
			C9.5,49.8,4.7,56.5,4.7,64V64.5z M63.9,77.1H35.7c-4.1,0-7.5-3.4-7.5-7.5v-1.2c0-11.6,9.4-21.3,21-21.6c0.3,0,0.5,0,0.6,0
			c0.2,0,0.4,0,0.5,0c11.6,0.3,21,10,21,21.6v1.2C71.4,73.8,68,77.1,63.9,77.1z M49.1,48.3c-10.6,0.3-19.4,9.3-19.4,20.1v1.2
			c0,3.3,2.7,6,6,6h28.2c3.3,0,6-2.7,6-6v-1.2c0-10.8-8.7-19.8-19.5-20.1C50.1,48.3,49.5,48.3,49.1,48.3z M93.6,63.2H72.2L72,62.6
			c-0.9-3.6-2.8-7-5.3-9.8l-0.5-0.6l0.6-0.5c2.9-2.5,6.6-3.9,10.5-3.9h0.2c8.3,0.1,15.2,6.3,16.1,14.5L93.6,63.2z M73.4,61.6h18.5
			c-1.2-7-7.2-12.3-14.4-12.3l-0.2-0.8l0,0.8c-3.2,0-6.4,1.1-8.9,3.1C70.7,55.1,72.4,58.2,73.4,61.6z M27.4,63.2H6.1l0.1-0.8
			c0.9-8.2,7.8-14.5,16.1-14.5h0.2c3.8,0,7.5,1.4,10.4,3.9l0.6,0.5l-0.5,0.6c-2.6,2.8-4.4,6.2-5.4,9.8L27.4,63.2z M7.8,61.6h18.4
			c1-3.4,2.7-6.6,5-9.3c-2.5-1.9-5.6-3-8.8-3l-0.2-0.8l0,0.8C15,49.3,8.9,54.6,7.8,61.6z M77.5,46.4h-0.3C72.7,46.3,69,42.6,69,38
			c0-4.6,3.7-8.3,8.3-8.3c4.6,0,8.3,3.7,8.3,8.3C85.7,42.5,82,46.3,77.5,46.4L77.5,46.4z M77.4,31.2c-3.8,0-6.8,3.1-6.8,6.8
			c0,3.7,3,6.7,6.7,6.8l0.3,0.8l0-0.8c3.7-0.1,6.7-3.1,6.7-6.8C84.2,34.3,81.1,31.2,77.4,31.2z M22.5,46.4h-0.3
			C17.7,46.3,14,42.6,14,38c0-4.6,3.7-8.3,8.3-8.3c4.6,0,8.3,3.7,8.3,8.3C30.7,42.5,27,46.3,22.5,46.4L22.5,46.4z M22.3,31.2
			c-3.8,0-6.8,3.1-6.8,6.8c0,3.7,3,6.7,6.7,6.8l0.3,0.8l0-0.8c3.7-0.1,6.7-3.1,6.7-6.8C29.1,34.3,26.1,31.2,22.3,31.2z M49.8,45.4
			h-0.6c-5.9-0.3-10.5-5.2-10.5-11.1c0-6.1,5-11.1,11.1-11.1s11.1,5,11.1,11.1c0,5.9-4.6,10.8-10.5,11.1L49.8,45.4z M49.8,24.7
			c-5.3,0-9.6,4.3-9.6,9.6c0,5.1,4,9.3,9.1,9.6l1.2,0c5-0.3,9-4.5,9-9.6C59.4,29,55.1,24.7,49.8,24.7z"/>
	</g>
</g>
</svg>
