<?xml version="1.0" encoding="utf-8"?>
<!-- Generator: Adobe Illustrator 19.0.0, SVG Export Plug-In . SVG Version: 6.00 Build 0)  -->
<svg version="1.1" id="Layer_1" xmlns="http://www.w3.org/2000/svg" xmlns:xlink="http://www.w3.org/1999/xlink" x="0px" y="0px"
	 viewBox="0 0 100 100" style="enable-background:new 0 0 100 100;" xml:space="preserve">
<style type="text/css">
	.st0{fill:#DE2226;}
	.st1{fill:#FAA31A;}
	.st2{fill:#E7ECEC;}
	.st3{fill:#FFFFFF;}
	.st4{fill:#010101;}
	.st5{fill:#434B60;}
</style>
<g id="XMLID_286_">
	<g id="XMLID_308_">
		<g id="XMLID_32_">
			<path id="XMLID_34_" class="st0" d="M29.3,87.3L23,93.6c-0.6,0.6-0.6,1.6,0,2.3c0.3,0.3,0.7,0.5,1.1,0.5s0.8-0.2,1.1-0.5l6.3-6.3
				c0.6-0.6,0.6-1.6,0-2.3C31,86.7,30,86.7,29.3,87.3z"/>
			<path id="XMLID_33_" class="st0" d="M76.8,93.6l-6.4-6.4c-0.6-0.6-1.6-0.6-2.3,0c-0.6,0.6-0.6,1.6,0,2.3l6.4,6.4
				c0.3,0.3,0.7,0.5,1.1,0.5c0.4,0,0.8-0.2,1.1-0.5C77.4,95.3,77.4,94.2,76.8,93.6z"/>
		</g>
	</g>
	<path id="XMLID_280_" class="st1" d="M80.1,22.2c0,0,0.1,0,0.1-0.1l4.8-4.8c0.6-0.6,0.6-1.6,0-2.3c-0.6-0.6-1.6-0.6-2.3,0l-4.8,4.8
		c0,0-0.1,0.1-0.1,0.2C70.4,13.4,60.6,9.4,49.9,9.4s-20.5,4-27.9,10.6c0-0.1-0.1-0.1-0.1-0.2l-4.8-4.8c-0.6-0.6-1.6-0.6-2.3,0
		c-0.6,0.6-0.6,1.6,0,2.3l4.8,4.8c0,0,0.1,0,0.1,0.1C12.5,29.8,8,40,8,51.3c0,23.1,18.7,41.9,41.9,41.9s41.9-18.7,41.9-41.9
		C91.8,40,87.3,29.8,80.1,22.2z"/>
	<circle id="XMLID_276_" class="st2" cx="49.9" cy="51.3" r="35.4"/>
	<circle id="XMLID_274_" class="st3" cx="49.9" cy="51.3" r="24.2"/>
	<g id="XMLID_292_">
		<path id="XMLID_261_" class="st4" d="M49.9,14.2c-0.9,0-1.6,0.7-1.6,1.6v3.2c0,0.9,0.7,1.6,1.6,1.6c0.9,0,1.6-0.7,1.6-1.6v-3.2
			C51.5,15,50.8,14.2,49.9,14.2z"/>
		<path id="XMLID_260_" class="st4" d="M49.9,81.9c-0.9,0-1.6,0.7-1.6,1.6v3.2c0,0.9,0.7,1.6,1.6,1.6c0.9,0,1.6-0.7,1.6-1.6v-3.2
			C51.5,82.6,50.8,81.9,49.9,81.9z"/>
		<path id="XMLID_259_" class="st4" d="M85.3,49.7h-3.2c-0.9,0-1.6,0.7-1.6,1.6c0,0.9,0.7,1.6,1.6,1.6h3.2c0.9,0,1.6-0.7,1.6-1.6
			C86.9,50.4,86.2,49.7,85.3,49.7z"/>
		<path id="XMLID_258_" class="st4" d="M19.3,51.3c0-0.9-0.7-1.6-1.6-1.6h-3.2c-0.9,0-1.6,0.7-1.6,1.6c0,0.9,0.7,1.6,1.6,1.6h3.2
			C18.6,52.9,19.3,52.2,19.3,51.3z"/>
		<path id="XMLID_255_" class="st4" d="M33.6,19.8c-0.4-0.8-1.4-1-2.2-0.6c-0.8,0.4-1,1.4-0.6,2.2l1.6,2.8c0.3,0.5,0.8,0.8,1.4,0.8
			c0.3,0,0.5-0.1,0.8-0.2c0.8-0.4,1-1.4,0.6-2.2L33.6,19.8z"/>
		<path id="XMLID_254_" class="st4" d="M67.4,78.4c-0.4-0.8-1.4-1-2.2-0.6c-0.8,0.4-1,1.4-0.6,2.2l1.6,2.8c0.3,0.5,0.8,0.8,1.4,0.8
			c0.3,0,0.5-0.1,0.8-0.2c0.8-0.4,1-1.4,0.6-2.2L67.4,78.4z"/>
		<path id="XMLID_243_" class="st4" d="M22.8,33.8L20,32.2c-0.8-0.4-1.8-0.2-2.2,0.6c-0.4,0.8-0.2,1.8,0.6,2.2l2.8,1.6
			c0.3,0.1,0.5,0.2,0.8,0.2c0.6,0,1.1-0.3,1.4-0.8C23.9,35.2,23.6,34.2,22.8,33.8z"/>
		<path id="XMLID_242_" class="st4" d="M81.4,67.6L78.6,66c-0.8-0.4-1.8-0.2-2.2,0.6c-0.4,0.8-0.2,1.8,0.6,2.2l2.8,1.6
			c0.3,0.1,0.5,0.2,0.8,0.2c0.6,0,1.1-0.3,1.4-0.8C82.4,69,82.2,68,81.4,67.6z"/>
		<path id="XMLID_228_" class="st4" d="M21.2,66l-2.8,1.6c-0.8,0.4-1,1.4-0.6,2.2c0.3,0.5,0.8,0.8,1.4,0.8c0.3,0,0.5-0.1,0.8-0.2
			l2.8-1.6c0.8-0.4,1-1.4,0.6-2.2C23,65.8,22,65.5,21.2,66z"/>
		<path id="XMLID_227_" class="st4" d="M77.8,36.8c0.3,0,0.5-0.1,0.8-0.2l2.8-1.6c0.8-0.4,1-1.4,0.6-2.2c-0.4-0.8-1.4-1-2.2-0.6
			L77,33.8c-0.8,0.4-1,1.4-0.6,2.2C76.7,36.5,77.2,36.8,77.8,36.8z"/>
		<path id="XMLID_85_" class="st4" d="M34.6,77.8c-0.8-0.4-1.8-0.2-2.2,0.6l-1.6,2.8c-0.4,0.8-0.2,1.8,0.6,2.2
			c0.3,0.1,0.5,0.2,0.8,0.2c0.6,0,1.1-0.3,1.4-0.8l1.6-2.8C35.6,79.2,35.4,78.2,34.6,77.8z"/>
		<path id="XMLID_84_" class="st4" d="M68.4,19.2c-0.8-0.4-1.8-0.2-2.2,0.6l-1.6,2.8c-0.4,0.8-0.2,1.8,0.6,2.2
			c0.3,0.1,0.5,0.2,0.8,0.2c0.6,0,1.1-0.3,1.4-0.8l1.6-2.8C69.5,20.6,69.2,19.6,68.4,19.2z"/>
	</g>
	<path id="XMLID_289_" class="st5" d="M67.6,49.7H56.1c-0.6-2.3-2.3-4-4.6-4.6V28.7c0-0.9-0.7-1.6-1.6-1.6c-0.9,0-1.6,0.7-1.6,1.6
		v16.3c-2.8,0.7-4.8,3.2-4.8,6.2c0,3.6,2.9,6.4,6.4,6.4c3,0,5.5-2.1,6.2-4.8h11.5c0.9,0,1.6-0.7,1.6-1.6
		C69.2,50.4,68.5,49.7,67.6,49.7z M49.9,54.5c-1.8,0-3.2-1.4-3.2-3.2c0-1.8,1.4-3.2,3.2-3.2s3.2,1.4,3.2,3.2
		C53.1,53.1,51.7,54.5,49.9,54.5z"/>
	<path id="XMLID_78_" class="st0" d="M91.6,7.7c4.5,4.5,4.5,11.7,0,16.2L75.4,7.7C79.9,3.2,87.2,3.2,91.6,7.7z"/>
	<path id="XMLID_31_" class="st0" d="M8.2,7.7c-4.5,4.5-4.5,11.7,0,16.2L24.4,7.7C19.9,3.2,12.6,3.2,8.2,7.7z"/>
</g>
</svg>
