<?xml version="1.0" encoding="utf-8"?>
<!-- Generator: Adobe Illustrator 19.0.0, SVG Export Plug-In . SVG Version: 6.00 Build 0)  -->
<svg version="1.1" id="Layer_1" xmlns="http://www.w3.org/2000/svg" xmlns:xlink="http://www.w3.org/1999/xlink" x="0px" y="0px"
	 viewBox="0 0 100 100" style="enable-background:new 0 0 100 100;" xml:space="preserve">
<g id="XMLID_13774_">
	<path id="XMLID_13379_" d="M77.9,32.3C74.8,16.9,59.9,7,44.5,10c-11.2,2.2-20,11-22.2,22.2c-10.9,1.3-18.7,11.1-17.4,22
		c1.2,10,9.6,17.6,19.7,17.6h14.2c1.6,0,2.8-1.3,2.8-2.8c0-1.6-1.3-2.8-2.8-2.8H24.6c-7.8,0-14.1-6.4-14.1-14.2
		c0-7.8,6.4-14.1,14.2-14.1c1.4,0,2.7-1.1,2.8-2.5C29,22.9,40.2,13.9,52.7,15.4c10.5,1.2,18.7,9.5,19.9,19.9c0.2,1.5,1.5,2.5,3,2.5
		c7.8,0,14.2,6.3,14.2,14.2c0,7.8-6.3,14.2-14.2,14.2H61.4c-1.6,0-2.8,1.3-2.8,2.8c0,1.6,1.3,2.8,2.8,2.8h14.2
		c11-0.1,19.8-9,19.7-20C95.2,41.9,87.8,33.5,77.9,32.3z"/>
	<path id="XMLID_13378_" d="M60.1,60.3c1.1,1.1,2.9,1.2,4,0.1c1.1-1.1,1.2-2.9,0.1-4c0,0,0,0-0.1-0.1l-12-12c-1.1-1.1-2.9-1.1-4,0
		c0,0,0,0,0,0l-12,12c-1.1,1.1-1.2,2.9-0.1,4c1.1,1.1,2.9,1.2,4,0.1c0,0,0,0,0.1-0.1l7.2-7.2v33.2c0,1.6,1.3,2.8,2.8,2.8
		c1.6,0,2.8-1.3,2.8-2.8V53.1L60.1,60.3z"/>
</g>
</svg>
