<?xml version="1.0" encoding="utf-8"?>
<!-- Generator: Adobe Illustrator 19.0.0, SVG Export Plug-In . SVG Version: 6.00 Build 0)  -->
<svg version="1.1" id="Layer_1" xmlns="http://www.w3.org/2000/svg" xmlns:xlink="http://www.w3.org/1999/xlink" x="0px" y="0px"
	 viewBox="0 0 100 100" style="enable-background:new 0 0 100 100;" xml:space="preserve">
<g id="XMLID_5067_">
	<path id="XMLID_5083_" d="M49.9,49.4C62.6,49.4,73,39.1,73,26.3S62.6,3.2,49.9,3.2S26.8,13.6,26.8,26.3
		C26.8,39.1,37.2,49.4,49.9,49.4z M49.9,8C60,8,68.3,16.2,68.3,26.3S60,44.7,49.9,44.7s-18.4-8.2-18.4-18.4S39.8,8,49.9,8z"/>
	<path id="XMLID_5080_" d="M70.8,45.3l-1.5-0.8l-1.2,1.1c-5,4.5-11.5,7-18.2,7c-6.8,0-13.2-2.4-18.1-6.9l-1.3-1.1L29,45.4
		C15,53.1,6.4,67.8,6.4,83.7V96h87.2l0.1-12.4C93.6,67.6,84.8,52.9,70.8,45.3z M88.8,91.3H11v-7.5c0-13.7,7.1-26.3,18.8-33.3
		c5.6,4.5,12.6,6.9,20,6.9c7.3,0,14.4-2.5,20.1-7.1c11.8,7,18.9,19.6,18.9,33.3L88.8,91.3z"/>
</g>
</svg>
