<?xml version="1.0" encoding="utf-8"?>
<!-- Generator: Adobe Illustrator 19.0.0, SVG Export Plug-In . SVG Version: 6.00 Build 0)  -->
<svg version="1.1" id="Layer_1" xmlns="http://www.w3.org/2000/svg" xmlns:xlink="http://www.w3.org/1999/xlink" x="0px" y="0px"
	 viewBox="-255 347 100 100" style="enable-background:new -255 347 100 100;" xml:space="preserve">
<style type="text/css">
	.st0{fill:#4CAF50;}
	.st1{fill:#FAFAFA;}
</style>
<g>
	<path class="st0" d="M-205.5,352.8L-205.5,352.8L-205.5,352.8c-24.7,0-44.8,20.1-44.8,44.8c0,9.8,3.2,18.9,8.5,26.2l-5.6,16.6
		l17.2-5.5c7.1,4.7,15.5,7.4,24.6,7.4c24.7,0,44.7-20.1,44.7-44.8S-180.8,352.8-205.5,352.8z"/>
	<path class="st1" d="M-179.4,415.9c-1.1,3-5.4,5.6-8.8,6.3c-2.3,0.5-5.4,0.9-15.7-3.4c-13.2-5.4-21.6-18.8-22.3-19.7
		c-0.6-0.9-5.3-7.1-5.3-13.5s3.3-9.5,4.6-10.9c1.1-1.1,2.9-1.6,4.6-1.6c0.6,0,1.1,0,1.5,0.1c1.3,0.1,2,0.1,2.8,2.2
		c1.1,2.6,3.7,9,4,9.7c0.3,0.7,0.6,1.6,0.2,2.4c-0.4,0.9-0.8,1.3-1.4,2.1s-1.3,1.3-1.9,2.2c-0.6,0.7-1.3,1.5-0.5,2.8
		c0.8,1.3,3.4,5.6,7.3,9c5,4.4,9,5.9,10.5,6.5c1.1,0.4,2.4,0.3,3.2-0.5c1-1.1,2.2-2.9,3.5-4.6c0.9-1.3,2-1.4,3.2-1
		c1.2,0.4,7.6,3.6,8.9,4.2c1.3,0.7,2.2,1,2.5,1.5C-178.4,410.3-178.4,412.9-179.4,415.9z"/>
</g>
</svg>
