<?xml version="1.0" encoding="utf-8"?>
<!-- Generator: Adobe Illustrator 19.0.0, SVG Export Plug-In . SVG Version: 6.00 Build 0)  -->
<svg version="1.1" id="Layer_1" xmlns="http://www.w3.org/2000/svg" xmlns:xlink="http://www.w3.org/1999/xlink" x="0px" y="0px"
	 viewBox="0 0 100 100" style="enable-background:new 0 0 100 100;" xml:space="preserve">
<style type="text/css">
	.st0{fill:#4DAF4F;}
	.st1{fill:#FAFAFA;}
	.st2{fill:#3C5A9A;}
	.st3{fill:#FFFFFF;}
</style>
<g id="XMLID_26051_">
	<path id="XMLID_3917_" class="st0" d="M50,4.6L50,4.6L50,4.6C25.3,4.6,5.1,24.7,5.1,49.5c0,9.8,3.2,18.9,8.5,26.3L8.1,92.4
		l17.2-5.5c7.1,4.7,15.6,7.4,24.7,7.4c24.7,0,44.8-20.1,44.8-44.9S74.7,4.6,50,4.6z"/>
	<path id="XMLID_3867_" class="st1" d="M76.1,68c-1.1,3.1-5.4,5.6-8.8,6.3c-2.3,0.5-5.4,0.9-15.7-3.4c-13.2-5.5-21.7-18.9-22.3-19.7
		c-0.6-0.9-5.3-7.1-5.3-13.5s3.3-9.6,4.6-10.9c1.1-1.1,2.9-1.6,4.6-1.6c0.6,0,1.1,0,1.5,0.1c1.3,0.1,2,0.1,2.8,2.2
		c1.1,2.6,3.7,9,4,9.7c0.3,0.7,0.6,1.6,0.2,2.4c-0.4,0.9-0.8,1.3-1.5,2.1s-1.3,1.3-2,2.2c-0.6,0.7-1.3,1.5-0.5,2.8
		c0.8,1.3,3.4,5.6,7.3,9c5,4.5,9.1,5.9,10.5,6.5c1.1,0.4,2.4,0.3,3.2-0.5c1-1.1,2.2-2.9,3.5-4.6c0.9-1.3,2-1.4,3.2-1
		c1.2,0.4,7.6,3.6,8.9,4.2c1.3,0.7,2.2,1,2.5,1.5C77.2,62.3,77.2,64.9,76.1,68z"/>
</g>
<g id="XMLID_26053_">
	<path id="XMLID_26048_" class="st2" d="M257.7,41.6h-13.5c-1.2,0-2.2,1-2.2,2.2v13.5c0,1.2,1,2.2,2.2,2.2h13.5c1.2,0,2.2-1,2.2-2.2
		V43.8C259.9,42.6,258.9,41.6,257.7,41.6z"/>
	<path id="XMLID_4024_" class="st3" d="M254.3,50.5v-2.2c0-0.6,0.5-0.6,1.1-0.6h1.1v-2.8h-2.2c-1.9,0-3.4,1.5-3.4,3.4v2.2h-2.2v2.8
		h2.2v6.2h3.4v-6.2h1.7l1.1-2.8H254.3z"/>
</g>
</svg>
